<?xml version="1.0" encoding="UTF-8" standalone="no"?>
<!DOCTYPE svg PUBLIC "-//W3C//DTD SVG 1.1//EN" "http://www.w3.org/Graphics/SVG/1.1/DTD/svg11.dtd">
<svg width="100%" height="100%" viewBox="0 0 100 98" version="1.1" xmlns="http://www.w3.org/2000/svg" xmlns:xlink="http://www.w3.org/1999/xlink" xml:space="preserve" xmlns:serif="http://www.serif.com/" style="fill-rule:evenodd;clip-rule:evenodd;stroke-linejoin:round;stroke-miterlimit:2;">
    <path d="M50,0C22.4,0 0,22.4 0,50C0,72.1 14.3,90.8 34.2,97.4C36.7,97.9 37.6,96.3 37.6,95C37.6,93.8 37.6,90.7 37.5,86.5C23.6,89.5 20.7,79.8 20.7,79.8C18.4,74 15.1,72.5 15.1,72.5C10.6,69.4 15.4,69.5 15.4,69.5C20.4,69.9 23.1,74.7 23.1,74.7C27.6,82.3 34.8,80.1 37.7,78.9C38.2,75.7 39.4,73.5 40.9,72.2C29.8,70.9 18.1,66.6 18.1,47.5C18.1,42 20,37.6 23.2,34.1C22.7,32.8 21,27.8 23.7,20.9C23.7,20.9 27.9,19.6 37.4,26C41.4,24.9 45.7,24.3 49.9,24.3C54.1,24.3 58.4,24.9 62.4,26C71.9,19.5 76.1,20.9 76.1,20.9C78.8,27.8 77.1,32.9 76.6,34.1C79.8,37.6 81.7,42.1 81.7,47.5C81.7,66.7 70,70.9 58.9,72.2C60.7,73.7 62.3,76.8 62.3,81.5C62.3,88.2 62.2,93.6 62.2,95.2C62.2,96.5 63.1,98.1 65.6,97.6C85.7,90.8 100,72.1 100,50C100,22.4 77.6,0 50,0Z" style="fill:rgb(204,204,204);"/>
</svg>
