<?xml version="1.0" encoding="UTF-8" standalone="no"?>
<!DOCTYPE svg PUBLIC "-//W3C//DTD SVG 1.1//EN" "http://www.w3.org/Graphics/SVG/1.1/DTD/svg11.dtd">
<svg width="100%" height="100%" viewBox="0 0 1457 1752" version="1.1" xmlns="http://www.w3.org/2000/svg" xmlns:xlink="http://www.w3.org/1999/xlink" xml:space="preserve" xmlns:serif="http://www.serif.com/" style="fill-rule:evenodd;clip-rule:evenodd;stroke-linejoin:round;stroke-miterlimit:2;">
    <g transform="matrix(1,0,0,1,-4.57505e-05,0.000136985)">
        <g transform="matrix(1,0,0,1,-72.3431,-142.538)">
            <path d="M671,1894C660,1894 641,1891 630,1888C612,1884 604,1880 592,1870C586,1865 575,1859 564,1855C556,1852 549,1848 526,1833C498,1814 494,1811 459,1791C453,1788 447,1784 445,1783C442,1781 438,1778 434,1777C421,1769 415,1766 410,1763C407,1761 403,1758 400,1757C398,1755 387,1748 377,1741C366,1734 357,1728 356,1727C355,1727 353,1725 352,1724C350,1723 349,1722 347,1721C346,1720 342,1717 337,1714C332,1710 328,1707 326,1706C324,1704 316,1698 305,1688C299,1684 293,1679 289,1676C283,1672 276,1666 264,1656C259,1652 252,1646 249,1644C245,1641 240,1636 237,1634C235,1632 229,1626 224,1623C219,1619 214,1614 212,1612C209,1609 205,1606 203,1604C201,1602 197,1599 195,1597C193,1595 185,1588 178,1582C156,1561 139,1545 126,1528C120,1521 110,1508 100,1493C87,1473 80,1452 74,1420C72,1411 72,1371 73,1362C74,1358 74,1352 75,1350C75,1348 76,1341 77,1335C86,1290 103,1248 126,1216C135,1204 153,1188 170,1178C186,1169 192,1165 194,1162C195,1159 202,1142 209,1126C210,1123 211,1120 212,1119C216,1109 219,1101 225,1080C241,1033 241,1028 244,961C245,923 245,917 251,888C253,879 258,861 260,857C261,855 263,851 264,847C268,839 276,821 281,815C282,813 284,810 285,808C286,806 289,802 292,798C294,795 298,791 299,788C305,781 326,761 338,752C353,740 377,725 388,721C391,720 397,718 401,717C435,703 464,701 496,709C507,712 535,727 550,739C552,740 555,742 557,743C574,755 622,800 648,828C691,875 688,872 693,872C698,872 701,870 709,863C717,854 724,849 734,844C748,837 757,835 775,834C812,833 841,847 859,873C867,886 876,904 884,926C885,929 887,933 888,935C889,938 893,952 895,961C901,987 901,995 901,1017C900,1030 900,1038 898,1045C896,1056 889,1077 887,1081C885,1085 885,1092 887,1096C890,1099 904,1110 910,1113C917,1117 922,1118 931,1118C943,1118 949,1115 961,1103C971,1093 978,1085 978,1083C978,1083 979,1081 981,1079C983,1077 988,1070 992,1063C997,1056 1003,1047 1006,1042C1009,1038 1012,1034 1012,1033C1012,1033 1022,1018 1026,1012C1028,1010 1032,1004 1036,1000C1042,991 1051,978 1053,975C1058,969 1060,966 1061,964C1062,963 1064,960 1066,957C1068,955 1072,950 1075,945C1079,941 1083,936 1085,933C1087,931 1091,926 1094,923C1100,915 1108,906 1123,890C1129,883 1136,876 1138,874C1143,867 1174,840 1187,829C1206,814 1226,800 1247,787C1256,782 1292,763 1299,761C1301,761 1305,759 1307,758C1315,755 1327,751 1346,748C1349,747 1361,747 1375,747C1396,747 1398,747 1406,749C1411,750 1416,752 1418,753C1422,755 1423,756 1442,764C1462,773 1472,779 1481,787C1490,796 1494,803 1504,826C1509,837 1518,865 1520,876C1521,879 1522,883 1522,886C1523,891 1526,908 1526,915C1527,917 1527,923 1528,927C1529,937 1529,965 1528,980C1526,1012 1518,1054 1509,1079C1503,1095 1490,1122 1478,1144C1472,1154 1460,1183 1456,1195C1449,1215 1447,1230 1447,1251C1448,1272 1450,1279 1462,1307C1470,1325 1476,1347 1478,1365C1479,1370 1479,1384 1480,1398C1480,1422 1480,1429 1476,1456C1475,1463 1474,1471 1473,1473C1473,1474 1472,1478 1472,1482C1470,1488 1469,1491 1464,1503C1461,1511 1451,1527 1441,1539C1432,1549 1398,1583 1390,1590C1379,1599 1355,1615 1353,1615C1353,1615 1351,1616 1349,1618C1347,1619 1340,1622 1335,1625C1330,1628 1324,1631 1323,1631C1317,1635 1285,1650 1273,1654C1266,1657 1258,1660 1256,1661C1254,1662 1248,1664 1245,1665C1241,1667 1235,1669 1233,1670C1231,1671 1226,1673 1222,1674C1218,1675 1213,1677 1210,1678C1207,1679 1202,1681 1199,1682C1196,1683 1191,1685 1188,1686C1172,1692 1165,1694 1159,1697C1155,1698 1148,1700 1144,1702C1139,1704 1132,1707 1130,1708C1121,1711 1089,1725 1077,1730C1071,1733 1063,1736 1061,1737C1052,1741 1006,1764 998,1768C986,1775 968,1785 954,1793C934,1803 926,1807 925,1808C924,1808 918,1812 911,1815C904,1819 889,1827 877,1833C846,1849 797,1873 789,1876C785,1878 779,1880 776,1881C765,1886 748,1891 733,1893C726,1894 681,1895 671,1894ZM710,1846C732,1843 743,1841 771,1833C781,1829 795,1824 796,1823C797,1823 799,1822 801,1821C806,1819 857,1794 882,1781C925,1758 1046,1698 1087,1678C1103,1670 1126,1659 1145,1651C1151,1648 1159,1644 1163,1642C1167,1641 1170,1639 1171,1639C1172,1639 1181,1635 1194,1629C1200,1626 1208,1622 1216,1620C1219,1618 1224,1616 1226,1615C1228,1614 1237,1611 1245,1607C1259,1602 1281,1592 1285,1590C1299,1583 1329,1565 1338,1560C1341,1557 1347,1554 1349,1553C1351,1551 1357,1548 1361,1545C1389,1524 1405,1505 1413,1483C1421,1461 1430,1425 1432,1409C1433,1396 1432,1369 1430,1361C1429,1354 1426,1343 1424,1339C1423,1337 1422,1334 1421,1330C1420,1326 1417,1320 1415,1316C1414,1312 1411,1306 1410,1303C1409,1300 1407,1297 1407,1296C1401,1282 1400,1277 1399,1248C1399,1227 1399,1225 1401,1212C1404,1200 1406,1192 1411,1176C1412,1174 1420,1158 1428,1142C1444,1110 1453,1090 1455,1084C1456,1081 1457,1079 1457,1078C1459,1076 1471,1029 1473,1016C1474,1013 1475,1004 1476,997C1480,976 1482,961 1484,935C1486,905 1486,898 1485,891C1478,860 1467,838 1444,815C1441,812 1425,799 1424,799C1423,799 1421,798 1418,796C1416,795 1410,792 1407,791C1400,788 1398,788 1386,785C1372,782 1346,785 1327,793C1323,794 1318,796 1316,797C1310,799 1283,813 1268,821C1257,828 1226,848 1215,857C1213,859 1209,862 1206,864C1195,872 1182,883 1174,890C1151,912 1120,944 1108,960C1107,961 1102,968 1097,973C1089,983 1088,985 1081,995C1075,1003 1072,1006 1070,1009C1069,1011 1067,1013 1067,1014C1066,1015 1060,1023 1054,1031C1048,1040 1041,1049 1039,1052C1037,1055 1029,1066 1023,1076C1016,1085 1007,1098 1003,1104C984,1133 968,1147 946,1156C933,1162 928,1161 917,1155C912,1152 908,1150 907,1150C907,1150 902,1148 897,1146C891,1143 888,1140 882,1135C878,1130 874,1125 872,1120C866,1108 865,1108 853,1114C841,1119 832,1121 815,1122C801,1123 798,1124 794,1130C792,1134 792,1138 794,1147C796,1156 797,1170 796,1184C795,1193 795,1198 796,1201C797,1206 803,1213 810,1219C816,1224 834,1236 839,1239C841,1240 845,1242 847,1244C850,1246 853,1248 855,1249C861,1254 873,1265 876,1271C879,1276 880,1282 883,1295C884,1298 886,1305 888,1310C895,1333 896,1341 894,1357C893,1360 893,1365 892,1366C892,1370 886,1389 885,1394C876,1413 870,1422 857,1435C837,1455 813,1466 789,1466C780,1466 761,1464 749,1462C741,1461 731,1461 725,1462C711,1466 696,1479 677,1501C660,1521 651,1528 636,1531C624,1534 619,1534 593,1534C588,1534 573,1531 564,1528C554,1525 540,1518 530,1511C518,1504 503,1488 492,1472C486,1464 476,1443 473,1434C464,1407 462,1396 462,1381C462,1365 466,1351 475,1338C477,1335 479,1332 479,1331C479,1331 485,1324 490,1317C494,1312 499,1306 506,1299C515,1288 521,1276 523,1267C524,1261 523,1252 522,1249C520,1242 513,1230 508,1223C500,1212 493,1200 488,1190C483,1178 483,1175 478,1157C475,1144 474,1112 476,1095C480,1074 485,1053 490,1046C491,1044 492,1042 492,1041C492,1039 502,1027 508,1020C518,1010 535,1000 548,998C552,997 555,996 556,996C558,994 584,995 599,996C616,998 629,1000 651,1005C659,1007 667,1008 667,1007C670,1006 670,1002 667,986C666,976 665,969 666,957C666,943 668,933 672,921C678,906 677,904 646,872C586,810 545,770 540,770C540,770 539,769 538,768C535,766 521,759 513,756C499,751 491,750 474,750C454,751 441,754 404,768C395,771 370,784 360,790C349,798 330,815 323,824C318,830 310,842 310,842C310,843 308,846 307,849C305,852 303,855 302,857C302,858 301,862 299,864C293,877 286,904 283,928L283,969C282,1012 281,1025 279,1037C277,1054 271,1074 264,1096C263,1102 260,1109 260,1112C259,1114 256,1121 254,1127C252,1132 250,1138 249,1141C247,1148 237,1167 233,1172C224,1184 208,1200 193,1212C167,1232 154,1245 143,1262C130,1281 122,1301 117,1325C115,1334 115,1338 115,1357C115,1381 116,1391 120,1408C129,1444 148,1478 171,1504C180,1514 197,1529 207,1538C216,1545 224,1551 235,1561C240,1566 248,1572 252,1575C255,1578 260,1582 263,1585C268,1588 274,1593 283,1601C288,1604 301,1615 311,1623C313,1625 316,1628 318,1629C322,1632 339,1644 345,1648C354,1655 362,1661 363,1661C363,1661 365,1662 366,1663C366,1664 368,1665 368,1665C369,1665 371,1666 372,1668C374,1669 381,1674 387,1679C398,1687 400,1689 410,1697C413,1699 418,1703 421,1706C424,1708 431,1713 435,1717C441,1723 450,1729 460,1737C462,1738 466,1741 470,1744C474,1746 480,1750 483,1752C486,1754 488,1756 488,1756C489,1756 492,1758 495,1760C499,1762 503,1765 505,1766C507,1767 511,1770 514,1772C517,1773 522,1776 524,1777C526,1779 531,1781 533,1783C535,1785 540,1787 542,1789C545,1790 548,1792 550,1793C553,1795 562,1800 569,1805C572,1806 577,1809 579,1810C585,1814 587,1815 591,1818C592,1819 595,1821 598,1822C600,1823 604,1826 607,1827C627,1839 641,1844 661,1846C665,1847 670,1847 670,1848C671,1848 702,1847 710,1846ZM633,1498C637,1497 639,1495 649,1486C669,1466 684,1455 700,1447C715,1439 723,1437 738,1436C746,1436 751,1436 762,1438C790,1443 806,1440 826,1425C847,1410 861,1384 865,1354C869,1333 863,1313 848,1293C841,1284 813,1257 793,1239C775,1223 772,1218 769,1205C766,1193 765,1186 765,1175C765,1163 764,1160 761,1160C760,1160 756,1162 751,1165C744,1169 733,1173 723,1176L710,1176C701,1175 699,1175 691,1171C684,1167 681,1165 673,1157C664,1148 662,1145 658,1138C650,1122 648,1104 650,1085C652,1071 653,1069 660,1061C665,1055 666,1049 664,1045C663,1043 658,1039 648,1032C643,1028 632,1023 626,1020C624,1019 621,1018 620,1018C618,1016 604,1015 593,1015C576,1016 564,1020 549,1030C539,1037 525,1048 522,1052C521,1054 518,1057 516,1059C512,1063 510,1067 505,1076C498,1090 493,1107 493,1124C493,1134 496,1155 500,1166C502,1171 503,1176 503,1176C503,1177 505,1181 507,1185C510,1191 513,1195 523,1205C530,1212 537,1219 538,1221C551,1238 553,1258 544,1281C541,1290 533,1306 529,1313C527,1316 525,1318 525,1319C525,1319 523,1322 520,1325C518,1329 515,1332 514,1334C505,1346 503,1351 500,1357C496,1366 494,1377 495,1391C496,1436 517,1470 555,1489C572,1498 580,1500 609,1500C622,1500 629,1500 633,1498ZM909,768C900,764 893,754 890,743C888,735 889,724 893,711C899,695 898,693 891,670C888,660 888,658 888,653C889,643 891,639 897,633C905,623 916,619 930,619C951,619 967,631 979,656C986,670 987,677 987,691C987,707 986,712 977,731C976,733 974,736 973,739C971,741 969,744 968,745C966,749 957,758 953,760C951,761 943,763 936,765C929,767 921,769 920,769C915,770 914,770 909,768ZM829,484C828,483 824,482 820,481C797,477 786,466 780,444C779,438 778,432 777,430C774,418 771,404 770,396C768,380 771,357 777,343C784,326 789,319 800,307C811,294 813,290 813,280C813,276 812,268 811,262C809,253 809,249 809,231C809,218 809,209 810,205C814,190 817,181 824,172C828,165 837,156 838,156C839,156 840,155 841,155C844,152 859.167,144.333 867,143C874.025,141.804 882.201,142.858 888,147C893.833,151.167 897,157 902,168C907,177 911,188 912,197C913,203 913,219 911,248C910,277 910,359 911,400C912,434 912,439 908,452C904,464 895,474 887,478C877,483 873,483 851,484L829,484ZM1062,1545C1055,1543 1052,1540 1049,1535C1043,1522 1052,1504 1069,1496C1096,1484 1121,1499 1112,1522C1107,1534 1095,1543 1081,1546C1072,1547 1068,1547 1062,1545ZM1225,1460C1208,1451 1199,1437 1199,1419C1199,1411 1199,1408 1201,1402C1204,1396 1210,1386 1212,1384C1213,1383 1218,1376 1224,1368C1233,1354 1239,1342 1242,1329C1244,1320 1245,1293 1245,1255L1245,1194C1247,1183 1253,1159 1257,1151C1257,1149 1259,1145 1261,1142C1270,1120 1286,1096 1307,1071C1319,1057 1325,1051 1332,1049C1346,1045 1361,1053 1364,1066C1365,1071 1365,1072 1364,1077C1362,1083 1355,1095 1344,1112C1338,1121 1338,1122 1334,1128C1333,1130 1330,1134 1327,1138C1321,1148 1307,1173 1306,1177C1306,1178 1305,1182 1303,1187C1298,1202 1297,1209 1298,1240C1298,1268 1299,1284 1302,1310C1304,1324 1304,1353 1303,1364C1302,1372 1301,1381 1297,1397C1297,1399 1296,1403 1290,1417C1289,1420 1287,1423 1286,1425C1285,1426 1284,1429 1283,1431C1279,1438 1270,1448 1264,1452C1258,1457 1255,1458 1245,1462C1238,1465 1233,1464 1225,1460Z" style="fill:white;fill-rule:nonzero;"/>
        </g>
    </g>
</svg>
