<?xml version="1.0" encoding="UTF-8" standalone="no"?>
<!DOCTYPE svg PUBLIC "-//W3C//DTD SVG 1.1//EN" "http://www.w3.org/Graphics/SVG/1.1/DTD/svg11.dtd">
<svg width="100%" height="100%" viewBox="0 0 1249 1899" version="1.1" xmlns="http://www.w3.org/2000/svg" xmlns:xlink="http://www.w3.org/1999/xlink" xml:space="preserve" xmlns:serif="http://www.serif.com/" style="fill-rule:evenodd;clip-rule:evenodd;stroke-linejoin:round;stroke-miterlimit:2;">
    <g transform="matrix(1,0,0,1,-111,-39.9595)">
        <path d="M1055,1938C1037,1936 1023,1924 1017,1907C1013,1896 1013,1887 1018,1876C1020,1872 1023,1868 1024,1867C1026,1864 1037,1857 1040,1856C1041,1856 1044,1856 1046,1855C1051,1854 1063,1856 1071,1859C1080,1863 1090,1874 1094,1883C1097,1893 1098,1906 1094,1915C1091,1922 1084,1931 1076,1934C1072,1936 1070,1937 1063,1938C1062,1939 1058,1938 1055,1938ZM968,1763C954,1760 947,1757 936,1745C909,1719 898,1696 891,1652C890,1648 890,1643 889,1641C888,1636 883,1615 883,1612C882,1610 881,1606 881,1602C880,1598 878,1592 877,1588C877,1584 875,1578 874,1575C873,1571 872,1566 872,1564C872,1561 871,1557 870,1555C870,1553 868,1543 866,1533C864,1523 863,1512 862,1510C859,1492 852,1452 852,1449C852,1448 852,1445 851,1444C851,1442 849,1434 847,1426C846,1417 844,1407 843,1403C842,1399 841,1393 841,1391C840,1389 840,1385 839,1383C839,1380 837,1373 836,1366C833,1353 826,1332 823,1326C822,1324 820,1321 818,1318C812,1307 796,1289 785,1282C775,1275 757,1273 745,1277C740,1279 730,1286 720,1296C716,1299 709,1304 704,1309C673,1331 645,1340 614,1336C594,1333 586,1330 570,1319C563,1314 559,1311 550,1300C546,1295 539,1283 538,1279C537,1278 536,1276 536,1276C536,1275 535,1273 535,1272C534,1270 533,1266 533,1262C531,1254 531,1243 534,1233C536,1225 538,1220 546,1205C551,1196 551,1195 551,1188C550,1183 550,1180 548,1177C544,1171 528,1160 513,1153C495,1143 493,1142 486,1137C469,1125 458,1106 454,1082C452,1073 453,1048 456,1040C459,1029 462,1024 478,1007C497,987 502,980 502,972C502,967 502,967 496,960C492,957 488,953 486,951C483,950 481,948 479,947C472,942 467,940 449,933C428,926 403,914 388,904C381,899 371,889 368,882C364,876 362,869 362,866C362,864 361,862 361,860C359,854 363,830 369,819C373,812 378,805 385,798C391,792 395,790 406,784C422,776 432,772 450,769C474,763 487,759 490,757C492,755 493,752 494,749C499,734 497,725 485,708C482,704 479,698 477,695C473,689 455,664 447,653C431,631 413,608 397,590C390,581 376,567 355,548C338,533 314,507 304,495C303,493 298,487 294,481C280,463 248,414 245,406C245,405 243,402 241,398C237,391 221,358 218,351C216,345 211,327 210,321C207,292 212,269 227,249C240,231 269,215 296,211C309,209 322,214 339,228C352,239 361,250 371,266C377,276 403,327 408,339C409,342 414,352 417,360C420,368 424,377 425,380C434,401 439,409 457,430C480,456 495,476 505,493C514,508 519,519 523,526C526,534 528,537 533,550C540,567 556,602 561,611C569,623 574,630 583,638C591,646 594,648 598,648C602,648 606,646 609,642C612,637 612,625 609,610C606,586 608,551 615,533C621,516 627,508 643,499C647,496 657,493 665,492C671,491 687,491 695,492C703,494 717,500 726,506C733,510 742,521 746,529C750,536 751,539 761,571C772,602 773,604 780,610C785,614 789,616 793,616C798,616 801,611 809,597C820,575 822,573 843,545C848,539 861,526 871,518C879,512 886,507 906,495C923,485 928,476 938,445C945,423 950,408 954,400C955,397 958,391 960,386C965,375 985,335 991,324C994,319 997,313 999,309C1001,305 1004,301 1005,299C1006,297 1009,292 1012,288C1015,284 1019,276 1023,272C1026,267 1030,260 1032,258C1035,254 1038,250 1041,246C1041,245 1043,243 1045,241C1046,239 1050,234 1053,231C1067,212 1090,191 1102,183C1114,175 1134,168 1146,167C1154,166 1168,170 1175,175C1177,176 1179,177 1180,177C1181,177 1191,186 1195,190C1199,196 1207,210 1210,218C1210,220 1211,223 1212,225C1214,228 1216,236 1218,245C1219,249 1220,255 1220,257C1222,264 1222,297 1221,308C1219,322 1216,338 1211,352C1207,363 1200,379 1196,385C1195,386 1192,391 1188,396C1181,407 1180,409 1174,416C1165,428 1163,430 1154,441C1148,448 1141,456 1139,458C1133,465 1122,478 1105,496C1091,512 1029,573 996,605C968,632 959,644 952,664C950,671 950,674 950,685C950,696 950,697 952,702C956,709 959,712 970,716C984,720 990,720 1015,717C1035,715 1036,715 1044,716C1055,718 1071,724 1082,728C1105,739 1120,757 1127,779C1131,793 1129,816 1123,828C1123,830 1121,833 1120,836C1118,840 1108,853 1104,858C1098,863 1077,880 1073,882C1072,883 1066,886 1061,889C1056,893 1047,898 1042,902C1017,916 1008,933 1014,953C1019,967 1027,979 1048,1000C1068,1019 1078,1033 1084,1051C1091,1073 1089,1100 1079,1129C1076,1137 1070,1150 1066,1157C1065,1158 1064,1160 1063,1162C1062,1165 1052,1174 1048,1176C1036,1182 1030,1183 999,1184C985,1184 972,1185 970,1185C950,1188 944,1190 939,1195C935,1199 931,1206 928,1213C926,1220 926,1236 929,1247C932,1256 933,1259 935,1268C938,1280 954,1328 957,1336C958,1337 959,1340 960,1343C960,1345 962,1350 963,1352C964,1354 966,1359 968,1363C969,1366 971,1371 973,1375C975,1379 977,1384 979,1388C980,1392 983,1397 984,1401C986,1405 989,1413 992,1420C994,1426 997,1433 997,1434C998,1435 999,1439 1000,1441C1000,1443 1001,1446 1002,1448C1002,1449 1004,1454 1006,1461C1008,1467 1011,1475 1012,1480C1014,1485 1016,1491 1016,1494C1017,1496 1019,1504 1021,1510C1025,1526 1025,1524 1032,1552C1036,1565 1039,1579 1040,1582C1041,1585 1042,1590 1043,1594C1044,1598 1045,1603 1046,1605C1048,1615 1050,1623 1052,1630C1052,1634 1054,1639 1054,1642C1057,1654 1060,1675 1060,1682C1060,1691 1057,1707 1053,1715C1046,1734 1027,1751 1004,1761C996,1764 995,1764 985,1765C978,1765 972,1764 968,1763ZM995,1744C1011,1739 1022,1729 1030,1712C1035,1701 1038,1690 1038,1678C1038,1669 1038,1665 1034,1649C1033,1644 1032,1638 1032,1636C1031,1634 1030,1628 1030,1625C1029,1621 1028,1615 1027,1613C1025,1603 1016,1569 1010,1551C1009,1546 1007,1540 1007,1538C1007,1536 1006,1532 1005,1530C1004,1528 1002,1522 1001,1519C998,1506 987,1471 985,1464C984,1460 982,1455 982,1452C980,1445 978,1441 977,1438C976,1436 975,1433 974,1431C972,1424 968,1412 965,1406C958,1391 949,1372 947,1368C946,1365 944,1360 943,1358C932,1331 925,1307 916,1268C915,1263 913,1257 913,1255C907,1230 905,1220 905,1212C906,1190 922,1170 942,1166C945,1166 963,1165 984,1165C1021,1164 1022,1164 1032,1160C1038,1157 1048,1148 1051,1141C1056,1133 1064,1107 1067,1094C1068,1087 1068,1069 1066,1062C1063,1052 1062,1050 1058,1042C1052,1030 1049,1027 1032,1009C1014,990 1006,980 1000,968C996,961 994,954 994,951C994,949 994,947 993,946C992,943 994,925 996,918C1001,905 1007,899 1030,884C1049,871 1050,871 1069,857C1082,848 1096,836 1096,834C1096,833 1097,831 1099,829C1101,826 1103,821 1105,816C1107,810 1107,807 1107,797C1108,784 1107,782 1102,772C1097,762 1083,749 1069,743C1054,737 1035,734 1016,737C1002,738 983,738 974,735C966,733 954,728 949,724C943,720 936,711 933,705C928,695 927,692 928,678C928,666 928,664 930,657C934,649 939,638 943,633C944,631 946,629 947,627C952,620 958,613 985,586C1002,568 1037,532 1064,506C1091,479 1114,455 1116,453C1117,451 1121,447 1124,443C1128,439 1134,432 1139,427C1143,421 1148,415 1150,413C1152,410 1155,406 1158,403C1160,400 1163,395 1164,393C1177,376 1183,365 1189,345C1196,327 1197,320 1201,297C1202,285 1202,263 1201,255C1198,238 1195,229 1191,219C1183,204 1174,194 1162,190C1152,186 1130,187 1120,192C1113,195 1098,207 1093,213C1090,216 1085,222 1081,226C1077,231 1072,237 1070,240C1067,243 1064,247 1063,248C1062,249 1060,252 1059,254C1049,265 1027,297 1016,318C1001,343 979,387 971,409C969,413 967,419 965,424C964,428 959,442 955,454C944,487 941,492 929,504C921,511 916,515 908,520C903,523 893,531 885,538C879,543 862,561 857,568C848,579 836,597 836,598C836,598 835,599 834,600C834,601 832,603 831,606C830,608 828,610 828,611C827,612 826,613 826,613C826,615 819,623 815,626C805,634 796,637 785,636C764,634 748,615 748,590C748,584 748,583 742,572C739,566 736,559 736,558C735,556 732,549 729,543C724,533 721,529 716,524C713,520 709,517 709,517C708,517 707,516 705,515C698,510 681,507 672,509C669,509 665,510 662,511C645,514 633,528 627,550C625,557 625,560 624,605C624,656 624,656 618,663C612,669 608,670 598,670C590,670 587,670 582,668C573,664 563,654 557,644C544,621 519,571 511,554C503,536 491,514 482,500C474,487 456,460 450,451C448,449 433,427 420,407C418,403 411,392 406,382C400,371 393,360 391,356C384,344 377,331 375,328C372,321 359,297 351,283C349,279 345,272 342,267C339,261 335,255 332,252C326,245 315,236 307,232C301,230 300,229 297,230C292,231 286,234 279,237C273,240 270,241 260,248C249,256 235,276 230,291C225,306 227,320 243,354C245,360 248,366 248,368C250,373 266,403 270,410C272,414 275,419 276,421C281,429 293,446 301,456C324,486 351,517 388,555C421,588 452,624 466,644C467,645 469,648 471,651C485,669 511,708 515,716C519,724 520,731 520,742C519,757 514,765 500,775C492,780 472,789 464,791C461,792 458,793 458,793C457,793 454,794 452,794C444,795 429,799 423,801C405,808 394,820 387,840C385,845 383,857 384,864C384,873 390,883 398,887C403,891 424,902 427,902C428,903 431,904 434,905C442,908 446,910 456,913C490,924 511,938 520,956C524,963 524,964 524,973C524,986 523,991 514,1005C511,1009 504,1017 498,1023C482,1038 478,1047 478,1066C478,1081 481,1092 487,1104C497,1120 508,1128 543,1144C554,1150 558,1153 564,1162C570,1170 571,1175 571,1184C571,1195 569,1203 557,1229C547,1250 547,1257 554,1273C561,1291 575,1304 593,1311C616,1320 643,1318 671,1305C684,1298 689,1294 704,1281C724,1261 737,1254 752,1252C759,1252 766,1254 780,1260C793,1267 800,1271 811,1279C825,1290 834,1301 838,1314C840,1318 841,1323 841,1323C841,1324 842,1328 844,1331C848,1341 850,1347 852,1351C852,1352 854,1357 855,1361C856,1364 858,1368 858,1370C862,1378 870,1424 872,1439C872,1443 872,1447 873,1448C873,1449 874,1453 874,1456C875,1459 876,1466 876,1471C877,1476 878,1483 879,1487C880,1490 881,1496 881,1499C881,1501 882,1506 883,1510C883,1514 885,1523 887,1531C888,1539 890,1548 890,1551C891,1553 891,1558 892,1560C892,1562 894,1569 894,1574C896,1582 896,1585 899,1599C900,1602 901,1607 902,1611C903,1614 904,1618 904,1621C905,1623 906,1630 907,1637C913,1661 913,1664 918,1679C924,1700 934,1718 947,1730C958,1742 966,1745 981,1745C986,1745 992,1744 995,1744ZM370,1640C364,1639 357,1635 351,1629C342,1618 341,1604 348,1592C358,1577 380,1575 393,1588C404,1599 406,1611 401,1624C399,1628 391,1636 387,1638C382,1640 374,1641 370,1640ZM490,1459C480,1458 466,1450 462,1443C456,1434 454,1429 453,1418C453,1409 453,1408 456,1401C461,1392 465,1387 472,1382C480,1376 488,1374 499,1374C514,1374 525,1379 534,1389C541,1396 543,1403 544,1414C544,1423 544,1425 541,1431C538,1440 529,1450 522,1453C520,1454 517,1456 516,1456C510,1459 499,1461 490,1459ZM663,400C656,399 649,394 644,389C638,383 637,380 634,372C631,359 634,346 644,336C668,310 709,328 706,364C706,374 703,381 697,388C688,397 675,402 663,400ZM155,187C141,183 134,179 127,171C121,163 119,159 115,147C111,135 110,118 112,106C115,89 118,83 126,75C133,69 140,65 164,56C167,55 172,52 176,50C179,49 183,47 184,47C191,47 209,54 216,59C219,62 227,71 229,76C234,86 236,109 232,119C231,122 229,126 227,128C226,130 225,132 225,133C225,133 223,135 222,138C220,141 217,145 215,148C213,150 209,156 207,161C205,166 201,172 199,174C196,180 187,185 181,187C173,189 163,189 155,187ZM175,167C179,166 181,165 185,161C187,159 189,155 189,154C191,148 198,137 206,127C214,117 216,111 216,101C216,87 211,79 201,74C195,71 193,71 184,71C176,71 173,71 168,73C153,79 142,86 136,95C132,102 131,107 131,126C132,143 133,149 137,156C140,159 151,166 156,167C165,169 165,169 168,169C169,169 172,168 175,167ZM1276,162C1270,161 1264,159 1259,156C1255,153 1240,139 1240,138C1240,137 1239,136 1238,135C1236,132 1231,120 1230,111C1228,100 1230,88 1235,75C1241,58 1250,49 1266,43C1274,40 1300,39 1307,41C1323,47 1329,50 1339,60C1350,72 1358,85 1359,95C1360,113 1352,129 1335,140C1332,142 1329,144 1328,145C1324,148 1314,155 1311,157C1301,162 1288,164 1276,162ZM1304,136C1318,129 1332,118 1337,109C1341,101 1341,92 1337,84C1329,70 1310,59 1291,58C1276,57 1266,62 1258,74C1252,83 1249,92 1249,101C1249,117 1261,132 1281,139C1282,140 1286,140 1290,140C1296,139 1299,139 1304,136ZM806,1104C794,1101 784,1095 776,1088C766,1078 761,1067 761,1052C761,1042 760,1038 757,1038C755,1038 751,1040 741,1047C732,1052 723,1057 716,1059C708,1061 690,1061 683,1059C674,1055 665,1050 658,1043C644,1029 639,1015 639,995C639,978 641,968 648,956C649,952 658,944 661,942C665,940 672,938 677,938C679,937 682,937 683,936L685,936L685,935C685,933 681,930 677,928C670,924 662,912 658,901C656,894 657,881 659,872C661,865 668,850 671,848C671,847 672,846 672,845C672,842 686,832 700,827C704,824 710,822 712,821C727,815 744,817 757,826C762,830 770,839 773,846C779,861 782,864 787,864C788,864 793,862 798,859C823,845 845,841 867,849C878,853 884,856 893,864C902,872 909,882 913,893C916,901 917,907 918,917C918,927 918,928 915,937C911,950 908,955 898,964C891,971 883,976 876,978C870,980 857,980 850,979L845,978L844,980C844,983 850,996 859,1013C866,1025 869,1034 870,1044C870,1056 869,1066 864,1075C854,1097 828,1110 806,1104ZM796,767C794,766 779,748 777,744C776,742 776,736 778,734C780,731 789,724 793,723C807,715 824,725 824,741C824,747 822,752 816,758C807,767 801,770 796,767ZM1103,357C1096,355 1088,351 1083,345C1063,324 1073,290 1101,282C1109,280 1114,281 1122,283C1129,285 1130,286 1137,292C1146,302 1149,310 1149,321C1147,340 1133,356 1114,357C1110,358 1105,357 1103,357Z" style="fill-rule:nonzero;"/>
    </g>
</svg>
