<?xml version="1.0" encoding="UTF-8" standalone="no"?>
<!DOCTYPE svg PUBLIC "-//W3C//DTD SVG 1.1//EN" "http://www.w3.org/Graphics/SVG/1.1/DTD/svg11.dtd">
<svg width="100%" height="100%" viewBox="0 0 1092 1397" version="1.1" xmlns="http://www.w3.org/2000/svg" xmlns:xlink="http://www.w3.org/1999/xlink" xml:space="preserve" xmlns:serif="http://www.serif.com/" style="fill-rule:evenodd;clip-rule:evenodd;stroke-linejoin:round;stroke-miterlimit:2;">
    <g transform="matrix(1,0,0,1,-252.91,-108)">
        <path d="M494,1503C486,1499 477,1490 468,1477C464,1472 452,1452 448,1444C444,1436 439,1429 437,1429C434,1427 432,1428 423,1432C409,1439 398,1442 381,1444C373,1445 373,1445 368,1443C363,1440 360,1436 360,1430C360,1425 362,1421 372,1410C382,1400 384,1399 399,1388C404,1385 410,1381 410,1380L412,1378L406,1367C403,1361 400,1355 400,1354C399,1354 398,1350 396,1346C395,1343 393,1338 392,1336C389,1328 386,1312 385,1303C384,1288 384,1284 387,1280C393,1268 404,1268 417,1279C428,1288 436,1300 450,1328C457,1343 460,1347 463,1347C464,1347 469,1345 476,1341C495,1330 519,1321 531,1321C537,1321 538,1321 541,1323C545,1327 546,1332 546,1339C545,1346 542,1350 530,1362C522,1371 509,1381 496,1389C489,1393 486,1398 486,1404C487,1406 491,1416 496,1427C502,1438 507,1449 508,1452C509,1454 511,1459 512,1463C516,1471 517,1478 517,1487C516,1496 514,1500 508,1503C503,1505 499,1505 494,1503ZM785,1399C769,1395 754,1383 746,1367C741,1357 740,1350 740,1339C741,1322 750,1312 768,1306C772,1304 775,1303 776,1303L776,1302L775,1300C775,1299 772,1298 770,1296C765,1294 761,1291 753,1284C747,1280 729,1261 724,1255C717,1247 687,1211 684,1208C682,1206 680,1205 679,1205C678,1206 676,1210 675,1214C672,1223 670,1229 667,1231C667,1232 666,1233 666,1233C666,1236 654,1245 650,1245C649,1245 648,1245 648,1246C647,1247 646,1247 644,1247C642,1247 640,1247 639,1248C636,1249 623,1247 615,1245C603,1240 597,1235 591,1224C587,1218 584,1207 584,1202C584,1201 584,1199 583,1199C581,1197 582,1186 584,1177C588,1163 595,1155 611,1150L618,1147L618,1146C618,1143 616,1142 600,1134C593,1131 585,1126 582,1125C579,1123 571,1119 564,1115C556,1111 549,1107 547,1106C538,1101 525,1095 523,1095L522,1096L522,1098C524,1119 519,1134 506,1144C501,1149 498,1151 491,1153C477,1157 456,1155 442,1148C440,1147 437,1145 436,1144C435,1144 434,1143 434,1143C432,1143 421,1131 417,1126C409,1114 406,1107 405,1096C404,1081 411,1070 428,1059C432,1056 435,1054 436,1053L436,1052L432,1048C430,1047 428,1045 428,1045C427,1045 424,1043 419,1040C415,1037 411,1034 410,1034C409,1033 404,1029 398,1026C393,1022 388,1019 387,1019C387,1019 385,1018 385,1017C384,1016 382,1015 382,1015C381,1015 379,1014 379,1013C378,1012 376,1011 376,1011C375,1011 373,1010 373,1009C372,1008 370,1007 370,1007C369,1007 367,1006 366,1005C365,1004 364,1003 362,1003C360,1003 359,1005 357,1013C352,1027 345,1033 330,1038C325,1040 319,1039 310,1037C292,1033 274,1021 265,1009C260,1002 255,991 254,986C252,979 253,968 255,962C258,949 270,932 278,928C283,925 290,923 293,923C296,923 306,925 312,927C314,928 317,928 317,927L318,927L318,924C317,922 316,917 315,913C312,901 311,891 313,873C313,865 314,856 315,854C315,851 316,846 317,841C319,829 319,828 323,823C325,820 326,817 328,811C329,804 331,799 338,785C343,775 347,766 347,765L347,763L346,763C325,763 325,763 319,760C315,758 311,756 310,755C306,751 300,742 298,735C295,727 295,710 297,702C299,695 309,680 314,676C317,673 328,665 329,665C330,665 332,664 334,663C341,660 344,660 360,660C374,660 375,660 379,662C387,666 389,668 393,673C398,679 399,681 402,690C404,696 404,698 404,704C403,709 403,711 404,712L406,713L411,710C413,708 419,703 424,698C431,690 434,687 437,681C439,676 441,671 442,669C444,664 444,653 442,635C439,605 443,584 454,563C456,560 457,557 457,556L456,555L447,555C432,555 420,552 412,545C408,542 400,532 400,530C400,530 399,527 398,525C395,519 394,509 394,496C394,485 394,484 397,478C402,466 411,459 424,456C432,454 451,454 457,456C464,459 473,466 477,471C483,478 486,483 486,487C489,496 489,498 490,508C490,521 491,522 498,520C510,516 526,504 528,497C528,496 528,480 529,462L529,420C530,402 537,376 548,353C549,352 551,348 553,344C555,341 557,338 557,337C557,337 560,333 568,323C576,314 586,305 594,300C597,298 599,296 599,295C599,295 595,292 590,290C583,286 580,284 574,278C568,271 567,269 565,263C563,258 562,254 562,252C562,251 562,248 561,246C560,243 560,241 561,240C562,240 562,238 562,236C560,227 567,212 576,204C592,189 622,184 639,192C646,196 656,204 661,209C665,214 670,224 670,227C670,228 671,229 671,230C672,231 672,258 671,261L670,263L672,264C673,264 676,264 680,263C700,259 717,259 740,262C747,263 769,271 772,274C773,274 774,275 775,275C776,275 780,278 794,286C796,288 800,291 804,294C813,302 816,302 816,292C816,288 817,284 818,282C819,279 820,277 820,277C820,275 829,264 833,260C843,252 856,248 868,250C875,250 886,255 892,260C894,261 897,263 898,264C901,266 909,276 913,283C917,290 920,302 920,310C920,332 904,352 880,359C877,360 874,362 873,362C872,364 875,368 884,377C894,388 901,393 913,400C922,406 948,418 952,419C957,419 1021,441 1025,443C1027,445 1031,446 1032,446C1033,447 1038,449 1043,451C1047,454 1052,457 1055,458C1057,459 1059,461 1060,461C1061,462 1062,463 1062,463C1063,463 1065,464 1066,465C1067,466 1069,469 1072,470L1076,473L1078,472C1079,472 1079,470 1079,469L1079,455C1079,444 1079,442 1081,434C1083,430 1085,425 1085,424C1088,418 1095,410 1100,406C1106,402 1117,397 1124,395C1130,393 1143,394 1149,395C1159,398 1172,407 1178,414C1183,420 1190,431 1190,433C1190,434 1190,435 1191,436C1191,436 1193,440 1194,444C1201,469 1189,496 1166,507C1162,509 1158,511 1157,511C1156,511 1152,512 1148,513L1142,515L1142,516C1142,517 1146,521 1150,526C1158,534 1172,552 1172,553C1172,554 1173,556 1175,559C1177,561 1180,566 1181,570C1183,574 1185,578 1186,578C1189,582 1211,628 1214,636C1218,648 1219,652 1221,670L1222,680L1223,680C1224,680 1227,678 1229,676C1243,665 1261,660 1273,662C1279,663 1288,667 1290,670C1291,670 1292,671 1292,671C1294,671 1308,686 1312,692C1315,697 1316,699 1319,709C1321,718 1319,733 1314,740C1313,742 1311,744 1310,746C1306,751 1292,764 1287,766C1278,771 1271,773 1260,774L1248,774C1248,773 1246,773 1243,773C1238,773 1232,770 1228,766L1226,764L1224,765C1223,766 1221,770 1220,773C1212,791 1206,801 1198,813C1197,815 1196,816 1196,817C1196,817 1195,818 1194,819C1193,820 1185,831 1183,835C1182,836 1180,838 1179,840C1166,859 1162,865 1157,873C1155,877 1151,882 1150,884C1148,886 1146,890 1145,892C1144,894 1142,897 1141,898C1141,899 1139,902 1137,905C1135,909 1134,912 1133,912C1132,914 1121,936 1119,941C1113,955 1110,963 1108,970C1107,973 1107,974 1108,975L1109,976L1116,973C1119,971 1125,969 1127,968C1129,968 1132,966 1134,966C1137,964 1156,965 1161,967C1167,970 1178,977 1182,981C1186,984 1192,995 1194,1000C1197,1007 1198,1009 1198,1016C1198,1019 1198,1023 1199,1023C1200,1025 1197,1039 1194,1045C1188,1057 1176,1068 1165,1073C1158,1076 1146,1077 1140,1075C1125,1072 1110,1061 1101,1049C1094,1038 1095,1037 1087,1070C1085,1078 1083,1087 1081,1091C1080,1095 1077,1103 1075,1111C1070,1125 1056,1154 1051,1162C1050,1164 1048,1167 1047,1170C1046,1172 1044,1175 1043,1177C1042,1179 1040,1183 1038,1185L1036,1190L1037,1191C1037,1192 1042,1193 1048,1195C1053,1196 1059,1198 1061,1198C1062,1199 1064,1200 1064,1200C1065,1200 1071,1204 1075,1208C1087,1219 1090,1243 1082,1268C1081,1273 1079,1277 1079,1278C1078,1279 1077,1281 1076,1283C1070,1293 1058,1304 1047,1310C1041,1313 1040,1313 1030,1313C1021,1313 1020,1313 1014,1310C1001,1304 990,1290 985,1275C983,1268 981,1265 980,1265C980,1265 976,1269 972,1274C962,1286 945,1299 929,1308C926,1309 923,1311 922,1312C918,1314 899,1319 889,1321C881,1323 867,1324 858,1324C853,1324 847,1324 846,1325L843,1326L844,1329C844,1331 845,1335 846,1337C847,1339 848,1342 848,1344C848,1345 848,1346 849,1347C850,1347 850,1362 849,1368C848,1370 846,1375 844,1379C839,1389 831,1396 818,1400C811,1401 792,1401 785,1399ZM872,1294C885,1292 895,1290 910,1285C926,1279 927,1279 933,1276C937,1274 938,1273 938,1271C938,1266 940,1264 945,1259C952,1253 973,1232 980,1222C983,1219 988,1213 990,1211C996,1204 1004,1192 1004,1191C1004,1191 1005,1190 1006,1189C1007,1187 1016,1174 1016,1173C1016,1173 1017,1172 1018,1171C1018,1170 1020,1168 1022,1165C1023,1163 1025,1159 1026,1158C1027,1156 1030,1150 1032,1146C1035,1141 1038,1135 1040,1132C1041,1130 1043,1127 1043,1124C1044,1122 1047,1117 1049,1112C1058,1089 1070,1054 1074,1032C1075,1026 1077,1016 1077,1010C1079,998 1080,991 1082,976C1084,964 1090,942 1094,933C1101,918 1104,910 1107,905C1108,902 1112,896 1114,892C1119,882 1145,842 1152,834C1154,831 1156,829 1156,828C1156,828 1157,826 1158,825C1160,824 1162,820 1164,817C1166,814 1169,810 1171,808C1173,805 1176,800 1178,797C1180,793 1182,789 1183,788C1185,785 1193,765 1196,754C1201,738 1201,732 1201,710C1201,688 1201,679 1199,676C1199,674 1198,672 1198,670C1197,668 1197,664 1196,662C1195,660 1195,656 1194,654C1193,650 1193,648 1191,644C1189,639 1188,634 1188,633C1188,632 1187,629 1185,625C1184,622 1182,617 1180,614C1174,599 1169,591 1155,571C1146,558 1126,537 1110,523C1100,515 1087,505 1086,505C1086,505 1085,504 1084,503C1083,502 1070,493 1069,493C1068,493 1066,492 1064,490C1061,488 1059,487 1058,487C1058,487 1057,486 1056,486C1052,482 1018,466 1004,461C1000,460 997,458 997,458C996,458 987,455 978,452C968,448 955,444 950,443C940,440 938,439 926,433C912,426 905,422 894,413C887,408 870,392 864,385C856,374 835,353 814,332C788,306 785,304 779,300C776,299 773,297 772,296C770,295 767,293 765,292C763,290 760,289 758,289C754,289 745,287 741,285C732,280 727,279 713,278C669,277 638,287 606,313C597,320 578,340 578,342C578,342 576,346 574,349C568,357 561,373 557,382C556,386 554,395 552,402C550,414 550,416 550,450C550,488 550,492 545,505C542,513 540,517 534,524C528,529 524,533 517,537C515,538 511,540 509,541C495,549 482,562 471,578C470,580 469,581 469,582C469,582 468,583 468,584C466,585 464,591 461,602C460,607 461,637 463,642C465,646 465,666 463,674C463,677 461,683 460,686C457,693 454,697 407,744C390,762 374,778 372,781C368,786 365,791 364,793C363,794 362,796 361,798C359,801 355,809 355,810C355,810 354,812 354,813C351,818 347,831 346,839C340,867 341,904 349,927C351,935 357,948 361,953C374,970 405,1000 415,1007C417,1008 420,1010 422,1012C425,1014 427,1015 428,1015C428,1015 430,1016 431,1017C431,1018 433,1019 433,1019C434,1019 437,1021 442,1024C446,1027 449,1029 450,1029C450,1029 451,1030 452,1031C453,1031 455,1033 457,1034C460,1035 463,1037 465,1038C467,1040 469,1041 470,1041C470,1041 472,1042 475,1044C483,1049 522,1069 532,1072C534,1073 537,1075 540,1076C542,1077 544,1078 544,1078C545,1078 547,1079 549,1080C552,1081 557,1083 561,1084C564,1086 569,1088 571,1089C572,1089 574,1090 575,1090C576,1090 577,1091 579,1091C580,1092 585,1094 589,1096C592,1097 597,1099 600,1100C602,1101 604,1102 605,1102C605,1102 607,1103 608,1103C610,1104 615,1106 619,1108C628,1112 632,1116 642,1128C646,1133 652,1139 655,1142C683,1164 686,1167 716,1204C726,1217 759,1249 772,1261C788,1273 807,1285 815,1288C815,1288 818,1289 822,1290C837,1296 853,1297 872,1294ZM1253,340C1250,338 1240,319 1240,317C1240,316 1239,314 1238,312C1237,309 1236,305 1235,303C1234,300 1232,294 1231,290C1228,283 1226,276 1226,273C1224,267 1223,265 1221,263C1219,261 1218,261 1204,262L1178,262C1166,262 1166,262 1162,259C1159,258 1156,254 1154,250C1150,245 1150,244 1150,240C1151,230 1156,227 1183,216C1202,209 1207,207 1209,204C1212,202 1212,204 1211,167C1211,149 1212,133 1215,127C1215,124 1216,122 1216,121C1216,120 1217,119 1218,118C1219,117 1220,115 1220,114C1222,111 1228,108 1233,108C1238,108 1242,111 1245,117C1247,120 1248,124 1248,125C1248,127 1248,129 1249,130C1249,131 1251,135 1252,139C1253,143 1255,149 1256,153C1257,156 1258,164 1258,169C1259,187 1262,194 1268,198C1270,199 1273,200 1275,200C1278,200 1293,201 1309,202C1323,203 1334,207 1340,214C1343,217 1344,219 1344,222C1344,228 1341,232 1337,235C1335,236 1325,239 1316,241C1285,248 1279,250 1277,251C1276,252 1276,254 1276,261C1277,266 1277,271 1277,273C1278,275 1278,284 1278,294C1278,316 1277,324 1268,336C1265,340 1261,343 1257,343C1257,343 1255,342 1253,340ZM812,1024C796,1019 787,998 794,982C803,963 824,957 838,971C844,976 847,983 848,993C849,1007 840,1020 827,1025C823,1026 818,1026 812,1024ZM752,888C750,888 743,886 737,884C719,879 699,871 687,864C684,862 680,859 677,857C674,855 670,853 669,851C668,850 666,849 666,849C665,849 663,848 662,846C661,845 657,842 653,839C643,831 624,807 622,802C622,800 620,795 617,790C611,777 605,760 604,750C604,747 603,743 603,742C600,732 605,702 611,692C612,690 614,687 615,684C616,682 618,680 618,679C619,678 620,677 620,677C620,676 621,674 622,674C623,673 624,671 624,671C624,667 652,639 662,632C669,627 686,619 688,619C689,619 690,619 691,618C693,617 703,614 709,613C716,611 746,611 754,612C772,615 778,616 791,621C806,625 818,631 826,636C832,640 850,658 854,664C857,669 862,677 867,687C871,695 872,697 878,714C881,723 882,725 884,736C891,766 887,796 875,820C867,835 863,840 849,855C831,872 813,883 793,887C787,889 756,889 752,888ZM782,852C797,849 804,846 822,833C845,815 856,801 859,783C860,775 860,728 858,722C855,709 839,686 826,674C816,665 806,657 804,657C804,657 803,656 802,655C800,654 787,647 781,645C769,641 759,640 732,640C706,640 702,640 686,649C669,659 657,671 649,688C644,699 642,708 642,723C642,739 643,747 648,761C650,767 660,788 664,793C677,811 693,828 706,836C720,844 733,849 747,851C758,853 773,853 782,852ZM976,637C966,634 961,628 957,618C956,614 956,612 957,608C959,599 962,594 967,589C970,587 972,586 974,585C975,585 978,584 980,584C987,582 1000,587 1006,594C1017,609 1012,629 994,637C989,639 982,639 976,637ZM757,543C746,539 734,531 729,523C723,514 721,507 720,498C720,486 721,479 728,469C730,466 738,457 739,457C740,457 742,456 744,454C753,448 760,446 774,447C786,447 790,447 800,452C820,462 830,481 828,502C828,506 827,509 827,510C826,510 826,511 826,512C826,515 819,525 812,531C806,537 798,542 792,543C790,543 788,544 788,544C787,544 781,545 775,545C765,545 762,545 757,543Z" style="fill-rule:nonzero;"/>
    </g>
</svg>
