<?xml version="1.0" encoding="UTF-8" standalone="no"?>
<!DOCTYPE svg PUBLIC "-//W3C//DTD SVG 1.1//EN" "http://www.w3.org/Graphics/SVG/1.1/DTD/svg11.dtd">
<svg width="100%" height="100%" viewBox="0 0 1414 1897" version="1.1" xmlns="http://www.w3.org/2000/svg" xmlns:xlink="http://www.w3.org/1999/xlink" xml:space="preserve" xmlns:serif="http://www.serif.com/" style="fill-rule:evenodd;clip-rule:evenodd;stroke-linejoin:round;stroke-miterlimit:2;">
    <g transform="matrix(1,0,0,1,-71.3321,-49.3125)">
        <path d="M709,1944C701,1941 696,1938 687,1928C674,1915 669,1907 658,1884C643,1855 639,1845 636,1832C633,1816 632,1809 632,1794C632,1785 632,1778 631,1777C630,1775 629,1775 622,1775C618,1775 610,1775 605,1776C599,1777 582,1777 565,1777C523,1777 519,1776 481,1757C464,1749 457,1745 453,1741C445,1733 439,1732 433,1740C430,1743 419,1759 417,1761C414,1766 396,1784 389,1789C367,1805 347,1809 331,1801C320,1795 306,1775 303,1762C302,1753 302,1749 304,1741C307,1728 314,1719 326,1707C338,1694 356,1682 377,1672C394,1664 395,1663 395,1659C395,1655 386,1626 383,1622C382,1620 377,1619 371,1621C367,1623 347,1626 337,1628C319,1629 300,1628 286,1624C263,1618 249,1602 249,1582C249,1563 260,1552 287,1545C290,1545 294,1544 296,1544C298,1543 301,1543 302,1543C313,1540 340,1540 354,1542C359,1543 366,1544 370,1544C379,1545 379,1545 379,1526C380,1517 380,1507 381,1504C383,1490 388,1473 392,1463C399,1449 399,1448 387,1440C382,1437 377,1433 375,1431C372,1430 368,1427 366,1425C363,1423 357,1419 353,1415C320,1390 301,1369 291,1349C284,1333 283,1317 289,1303C294,1295 306,1281 314,1277C321,1273 330,1271 337,1272C352,1273 376,1283 388,1293C408,1308 420,1323 445,1362C451,1371 452,1370 465,1358C477,1347 485,1342 501,1333C516,1326 517,1325 515,1312C509,1264 506,1200 508,1178C510,1166 514,1155 521,1149C544,1127 587,1136 600,1167C602,1173 603,1177 606,1209C609,1235 611,1252 612,1266C615,1301 616,1307 617,1309C619,1310 622,1311 636,1311C656,1312 670,1315 688,1321C697,1324 717,1332 721,1335C722,1336 725,1337 728,1339C731,1341 738,1345 744,1349C750,1352 755,1355 756,1355C760,1355 762,1352 767,1341C772,1329 781,1310 784,1306C785,1305 788,1300 791,1296C797,1286 800,1282 810,1272C829,1252 846,1245 865,1250C903,1259 915,1298 893,1340C891,1345 888,1351 886,1352C885,1354 882,1358 881,1360C873,1371 847,1396 827,1411C815,1420 813,1422 813,1426C813,1429 815,1434 819,1448C823,1459 829,1480 831,1490C832,1493 833,1497 833,1499C833,1501 835,1507 836,1514C838,1533 839,1537 841,1538C843,1540 847,1539 858,1534C872,1528 882,1526 897,1525C906,1525 912,1526 916,1527C919,1527 922,1528 923,1528C924,1528 928,1529 931,1531C934,1533 937,1534 937,1534C938,1534 946,1539 952,1544C961,1550 975,1567 978,1576C987,1600 973,1629 946,1642C933,1649 923,1650 902,1650C885,1650 882,1650 869,1647C857,1645 851,1644 839,1643C809.938,1633.88 815,1641 798,1675C795.652,1679.7 789.354,1686.91 781.275,1695.12C758.393,1718.37 721.217,1749.57 719,1754C717,1758 718,1760 726,1773C734,1785 743,1802 746,1811C747,1815 749,1821 750,1825C753,1831 757,1844 760,1858C762,1866 762,1881 761,1891C760,1899 755,1916 752,1922C749,1928 743,1936 741,1938C731,1945 719,1948 709,1944ZM363,1756C380,1745 396,1727 408,1707C410,1705 411,1701 411,1700L411,1698L410,1697C408,1697 389,1707 383,1711C382,1712 380,1713 380,1713C379,1713 372,1718 353,1731C341,1739 338,1743 338,1752C338,1756 339,1757 342,1760C347,1765 351,1764 363,1756ZM607,1739C637,1736 660,1731 697,1718C715,1712 718,1711 726,1706C738,1699 752,1683 764,1665C767,1660 781,1631 781,1630C781,1629 782,1627 783,1626C788,1615 790,1608 793,1575C793,1565 795,1553 796,1548C798,1537 798,1512 796,1501C793,1484 788,1464 782,1452C776,1436 770,1424 767,1420C766,1418 764,1414 763,1412C757,1403 743,1388 730,1380C719,1373 714,1370 713,1370C713,1370 710,1369 708,1368C704,1365 694,1361 687,1358C684,1357 681,1356 680,1355C676,1354 663,1351 655,1349C632,1344 628,1344 608,1344L582,1344C579,1345 575,1345 573,1346C564,1346 543,1351 537,1354C533,1356 525.337,1357.99 520,1361C509.667,1366.83 479,1383 475,1389C474,1390 471,1394 468,1398C463,1405 451,1423 450,1425C450,1426 448,1429 446,1432C440,1441 428,1465 423,1479C411,1509 406,1547 409,1580C411,1597 413,1606 417,1623C421,1639 434,1666 444,1680C454,1693 461,1701 476,1712C480,1715 500,1726 502,1726C502,1726 505,1728 509,1731C515,1735 517,1735 527,1737C552,1741 577,1742 607,1739ZM914,1602C916,1600 916,1598 916,1594C915,1588 915,1587 912,1585C909,1582 909,1582 895,1582C876,1583 875,1584 854,1586C844,1588 835,1589 834,1590C830,1592 827,1600 830,1603C831,1604 843,1604 866,1604C911,1605 912,1605 914,1602ZM797,1376C820,1357 839,1337 843,1330C845,1326 847,1312 845,1312C845,1312 844.422,1310.79 844,1311C843,1311.5 839,1315 839,1315C827,1324 810,1342 801,1356C793,1367 787,1380 788,1381C789,1383 791,1382 797,1376ZM1190,1630C1187,1629 1183,1629 1181,1629C1170,1627 1150,1618 1139,1609C1122,1595 1116,1585 1111,1564C1109,1554 1109,1529 1111,1515C1115,1490 1119,1453 1119,1435C1119,1423 1118,1421 1114,1418C1109,1414 1105,1415 1095,1421C1080,1429 1071,1435 1066,1439C1064,1440 1060,1443 1058,1445C1056,1446 1051,1449 1048,1451C1045,1454 1041,1456 1040,1457C1027,1465 1022,1467 1010,1468C1002,1470 1000,1470 993,1468C973,1465 959,1457 950,1444C945,1438 942,1430 940,1423C939,1420 938,1416 938,1415C936,1410 936,1390 937,1379C938,1367 941,1359 946,1351C951,1345 962,1340 985,1333C996,1330 1001,1328 1004,1327C1005,1327 1008,1325 1012,1324C1037,1313 1036,1314 1039,1310C1043,1305 1043,1300 1038,1295C1036,1293 1033,1291 1031,1290C1030,1289 1027,1288 1025,1286C1019,1282 995,1271 985,1267C980,1265 969,1262 961,1260C945,1256 943,1255 935,1249C923,1238 916,1230 914,1224C910,1214 909,1204 910,1192C911,1180 914,1173 919,1166C929,1153 940,1150 964,1151C971,1152 980,1152 982,1152C993,1154 1004,1159 1019,1169C1034,1178 1058,1186 1066,1184C1073,1182 1076,1175 1074,1169C1071,1164 1051,1136 1034,1115C1019,1096 997,1073 971,1049C951,1030 943,1015 938,991C936,978 938,964 943,949C946,938 956,928 969,921C981,915 988,913 1006,912C1014,912 1022,912 1022,911L1041,911C1062,911 1069,912 1083,919C1094,925 1095,925 1101,931C1113,940 1121,950 1126,962C1130,969 1130,970 1137,994C1158,1060 1172,1102 1175,1107C1181,1115 1185,1112 1193,1093C1196,1085 1200,1078 1201,1076C1207,1066 1210,1062 1217,1055C1227,1045 1238,1039 1250,1036C1259,1034 1274,1033 1286,1036C1309,1040 1336,1053 1350,1068C1354,1072 1360,1084 1362,1091C1364,1102 1363,1114 1358,1129C1352,1144 1335,1165 1318,1178C1309,1185 1307,1189 1309,1194C1311,1198 1314,1199 1323,1198C1332,1196 1341,1192 1351,1185C1360,1178 1369,1173 1375,1170C1407,1158 1438,1164 1460,1188C1472,1200 1480,1216 1483,1234C1487,1255 1480,1271 1465,1282C1451,1291 1440,1293 1412,1291C1395,1290 1387,1291 1377,1295C1368,1300 1362,1304 1357,1310C1349,1318 1348,1323 1348,1334C1348,1343 1348,1344 1351,1351C1357,1366 1364,1374 1393,1406C1412,1426 1415,1429 1431,1444C1456,1467 1464,1476 1474,1496C1479,1507 1483,1520 1484,1532C1485,1540 1484,1553 1481,1559C1475,1573 1474,1574 1464,1585C1454,1595 1448,1599 1435,1604C1423,1608 1403,1609 1388,1605C1362,1598 1344,1583 1330,1557C1310,1519 1308,1517 1293,1497C1280,1481 1268,1468 1262,1466C1253,1463 1243,1469 1241,1478C1241,1481 1245,1496 1250,1510C1253,1515 1259,1539 1263,1556C1265,1565 1266,1579 1264,1585C1261,1594 1254,1605 1248,1613C1244,1617 1232,1624 1226,1626C1212,1631 1201,1632 1190,1630ZM1206,1590C1215,1588 1220,1582 1222,1573C1223,1567 1223,1568 1219,1537C1218,1533 1218,1529 1217,1527C1216,1519 1212,1493 1211,1488C1209,1479 1211,1466 1215,1456C1220,1447 1227,1438 1232,1435C1241,1430 1271,1435 1285,1444C1298,1453 1303,1461 1319,1492C1337,1529 1343,1538 1356,1551C1372,1567 1386,1575 1401,1577C1415,1579 1429,1574 1440,1563C1444,1559 1448,1554 1450,1551C1452,1545 1452,1543 1452,1536C1452,1528 1452,1526 1449,1520C1442,1505 1431,1492 1408,1471C1385,1450 1377,1442 1370,1433C1366,1429 1362,1423 1360,1420C1346,1404 1331,1381 1324,1367C1314,1346 1312,1328 1318,1316C1321,1311 1327,1305 1335,1299C1340,1295 1346,1290 1348,1287C1356,1277 1365,1269 1372,1266C1385,1260 1390,1259 1418,1259C1431,1259 1442,1259 1444,1258C1450,1256 1455,1249 1455,1242C1455,1238 1450,1222 1446,1217C1438,1204 1425,1195 1410,1192C1397,1190 1396,1190 1375,1204C1350,1221 1334,1229 1321,1231L1309,1231C1297,1229 1290,1222 1284,1209C1284,1206 1283,1200 1282,1194C1282,1183 1282,1182 1285,1177C1287,1172 1291,1167 1302,1155C1324,1132 1330,1122 1330,1108C1330,1097 1328,1092 1318,1082C1312,1076 1308,1073 1302,1070C1286,1063 1276,1061 1261,1063C1249,1065 1245,1067 1240,1073C1237,1077 1236,1078 1229,1096C1223,1108 1219,1116 1215,1123C1211,1131 1201,1141 1196,1144C1191,1146 1190,1146 1182,1146C1172,1145 1166,1143 1158,1136C1154,1132 1152,1130 1147,1120C1140,1105 1131,1085 1126,1072C1125,1069 1124,1066 1124,1065C1123,1064 1120,1055 1117,1046C1111,1029 1109,1023 1107,1015C1106,1013 1105,1008 1104,1004C1102,1001 1100,995 1099,992C1098,988 1095,981 1093,976C1082,953 1070,943 1045,936C1036,933 1032,933 1022,932C1010,932 1008,932 1001,934C991,937 985,940 979,946C961,962 962,993 981,1019C983,1021 988,1026 991,1030C1042,1078 1064,1102 1084,1132C1095,1149 1100,1161 1104,1177C1105,1181 1105,1184 1104,1188C1103,1196 1101,1199 1097,1204C1089,1212 1079,1216 1066,1217C1049,1217 1030,1211 1006,1197C1001,1194 995,1191 993,1190C991,1188 987,1186 985,1185C974,1178 966,1175 960,1176C952,1177 944,1183 942,1190C939,1200 942,1208 950,1213C958,1219 977,1229 993,1236C1000,1239 1005,1241 1024,1248C1033,1251 1039,1254 1044,1258C1047,1260 1050,1262 1052,1263C1058,1267 1067,1278 1071,1285C1078,1296 1080,1306 1077,1317C1073,1329 1055,1346 1039,1354C1028,1359 1020,1361 1005,1363C993,1365 989,1366 985,1368C978,1372 975,1375 971,1382C968,1388 968,1389 968,1398C968,1406 968,1407 972,1415C979,1429 990,1438 1002,1438C1007,1438 1016,1436 1021,1433C1025,1431 1025,1431 1037,1421C1049,1412 1066,1400 1076,1394C1082,1390 1103,1380 1108,1378C1113,1376 1123,1376 1127,1377C1134,1380 1143,1392 1146,1402C1147,1404 1148,1408 1155,1426C1158,1433 1157,1436 1153,1454C1149,1468 1145,1490 1143,1501C1142,1520 1142,1544 1145,1559C1149,1577 1160,1589 1177,1591C1186,1592 1201,1592 1206,1590ZM697,1219C689,1217 681,1212 676,1204C666,1189 661,1172 659,1141C658,1126 658,1094 660,1084C662,1073 667,1050 670,1041C677,1016 677,1012 674,1010C673,1010 664,1009 655,1009C639,1009 634,1009 623,1007C615,1005 605,1003 600,1001C572,991 551,973 537,947C534,943 532,939 532,939C532,938 516,912 515,910C514,910 512,907 510,905C504,896 494,885 492,884C487,881 482,882 478,888C477,889 473,893 471,897C468,900 465,904 464,907C463,909 461,911 461,911C458,913 432,967 425,985C422,992 397,1041 394,1045C393,1046 392,1048 392,1049C392,1050 382,1061 376,1065C373,1067 369,1070 366,1071C364,1072 361,1074 360,1074C356,1076 345,1078 339,1077C331,1076 330,1076 324,1072C306,1063 297,1045 297,1017C297,997 303,980 316,962C325,950 328,947 356,926C359,923 376,910 385,903C394,895 421,869 423,866C423,864 424,862 424,861C423,861 420,858 416,857C404,851 386,842 384,841C382,840 379,838 377,837C374,835 370,833 369,832C367,831 364,829 363,828C361,827 358,826 356,824C355,823 351,820 347,817C344,815 336,809 330,803C290,768 264,723 256,677C254,665 253,662 251,660C250,658 249,658 211,659C189,659 170,659 168,660C157,661 120,661 117,660C103,657 90,647 81,634C70,616 68,598 77,584C81,579 85,576 100,568C126,554 123,555 142,555C151,556 161,556 164,557L180,557C186,558 199,558 209,559C251,561 256,561 261,559C266,557 268,554 271,547C279,527 286,516 296,502C300,496 320,474 321,474C321,474 323,473 324,472C345,453 367,441 393,436C405,433 422,433 433,434C444,436 448,436 449,434C451,430 435,403 422,389C406,370 377,330 370,316C366,310 364,301 362,287C359,268 366,243 377,234C385,227 399,223 414,223C428,223 438,227 448,236C455,242 459,247 473,268C496,303 522,352 540,392C541,396 544,401 545,402L547,404L550,403C555,401 573,380 582,367C585,361 598,343 604,337C610,330 624,318 636,310C644,305 661,296 668,293C694,283 710,280 738,279C756,279 757,278 753,270C752,268 751,265 750,263C749,261 748,255 746,250C740,227 743,178 754,122C754,119 755,113 756,110C757,102 761,89 762,88C762,87 763,85 764,83C769,70 783,58 799,54C812,49 821,48 826,51C831,54 842,65 848,74C851,78 858,92 860,98C864,110 864,126 859,168C859,173 858,184 857,193C856,201 856,210 856,213C855,216 855,223 855,228C854,240 853,246 850,255C847,263 841,276 837,281C835,283 834,285 834,286C834,286 833,287 833,288C831,290 828,295 828,297C828,299 829,300 845,308C852,312 861,316 863,318C865,320 869,322 871,323C879,327 899,341 912,352C929,366 953,390 965,405C979,422 980,424 992,440C1004,457 1001,456 1018,451C1026,448 1035,445 1038,444C1040,443 1046,441 1051,440C1056,438 1060,436 1061,436C1062,435 1064,435 1064,435C1065,435 1072,433 1080,431C1087,428 1100,424 1107,422C1114,420 1122,417 1125,416C1128,415 1136,413 1149,410L1164,410C1180,410 1191,413 1203,418C1215,424 1218,430 1217,445C1215,459 1212,467 1202,477C1197,482 1193,485 1184,489C1171,496 1152,503 1141,506C1135,508 1110,512 1089,515C1080,517 1051,522 1047,523C1046,524 1042,524 1038,525C1034,526 1030,527 1029,528C1028,530 1028,533 1039,563C1040,567 1045,586 1046,591C1055,633 1055,635 1055,666C1056,693 1056,693 1058,695C1060,697 1070,700 1073,699C1074,699 1076,699 1078,700C1080,701 1085,702 1089,703C1135,712 1171,727 1188,744C1192,748 1196,753 1198,756C1200,761 1200,763 1200,771C1200,779 1200,780 1196,789C1180,820 1159,831 1127,824C1107,820 1078,808 1065,798C1062,797 1060,795 1059,795C1058,795 1047,787 1041,782C1031,774 1027,771 1025,771C1024,771 1018,776 1018,777C1018,778 1007,794 1003,799C985,819 963,835 947,840C945,841 941,842 940,842C939,843 937,843 935,843C933,843 931,844 929,844C927,845 916,845 892,845C858,846 858,846 852,849C842,853 838,859 829,877C816,903 802,926 790,942C775,960 777,955 776,1000C775,1022 775,1042 775,1045C774,1048 774,1055 773,1060C773,1065 772,1074 771,1080C771,1086 770,1091 771,1091C771,1092 768,1111 766,1125C766,1128 764,1135 764,1142C760,1163 758,1172 748,1191C744,1200 741,1204 737,1207C727,1217 709,1222 697,1219ZM360,1028C371,1012 381,989 381,979L381,976L379,975C377,974 367,981 360,988C354,994 349,1003 347,1010C346,1017 347,1026 348,1029L350,1032L354,1032C357,1032 358,1031 360,1028ZM647,971C650,971 654,969 656,969C658,968 663,967 676,966C681,966 687,965 690,964C696,962 702,960 705,959C706,958 711,955 716,953C721,951 726,947 729,945C731,944 735,941 737,940C742,936 760,919 765,912C771,904 775,897 780,887C795,858 807,839 817,830C824,823 837,815 844,813C852,811 873,809 891,809L908,809C908,808 912,808 917,808C931,808 942,806 946,804C950,802 973,779 976,773C978,771 979,769 980,768C981,767 983,765 984,763C985,761 987,757 989,755C1007,728 1017,687 1016,649C1015,626 1013,618 1002,586C998,573 995,562 991,543C989,534 986,525 983,516C981,512 968,485 964,479C950,454 932,429 913,409C900,394 877,373 867,366C865,364 861,361 857,358C839,345 814,331 796,324C788,321 766,315 760,314C757,314 753,313 751,313C743,311 710,313 699,317C686,320 680,322 680,323C679,324 678,324 677,324C675,324 657,334 651,339C645,343 634,353 627,361C622,366 611,379 611,380C611,381 602,393 594,404C592,406 584,415 576,423C549,451 535,458 499,461C487,462 480,462 464,461C439,459 423,459 415,461C393,465 373,476 351,495C313,525 292,564 283,617C280,636 281,660 286,680C287,684 288,688 289,690C289,691 291,694 291,696C295,707 306,726 315,738C329,756 357,783 378,797C381,800 388,804 392,807C406,817 420,824 439,831C444,833 448,835 450,835C451,836 457,838 464,840C471,842 478,845 480,846C502,855 513,862 526,875C540,890 548,901 562,927C576,953 595,967 623,971C635,973 639,973 647,971ZM806,246C808,241 810,234 811,228C811,224 812,219 813,216C817,195 819,166 819,140C818,121 818,116 815,116L814,116L813,119C811,124 808,135 807,141C805,151 802,179 801,191C800,204 800,238 801,243C802,249 804,249 806,246ZM630,1638C623,1637 612,1631 606,1626C598,1620 592,1609 591,1599C588,1588 591,1567 595,1561C597,1558 598,1550 597,1547C597,1545 590,1537 582,1529C565,1510 565,1510 565,1488C566,1471 567,1464 572,1453C580,1437 593,1423 611,1414C618,1410 620,1410 625,1410C633,1410 643,1415 659,1427C677,1440 697,1466 702,1483C702,1484 703,1486 703,1487C705,1489 710,1507 712,1517C715,1534 716,1542 715,1555C715,1582 707,1601 691,1617C681,1628 673,1633 659,1637C652,1638 636,1639 630,1638ZM647,831C640,829 629,823 622,817C613,808 609,801 604,788C602,781 602,779 602,766C602,752 601,751 600,750C598,749 594,749 585,751C557,755 529,749 511,735C493,721 479,696 473,667C472,663 471,659 471,658C470,656 470,647 469,638C469,625 469,619 470,612C473,596 476,587 484,573C484,572 488,568 492,564C497,559 501,556 507,553C517,549 521,547 534,546C548,545 555,546 568,553C569,554 576,560 582,566C595,577 596,578 604,580C610,581 616,580 622,576C628,572 632,565 636,551C643,528 656,511 675,501C687,495 705,492 724,495C742,497 750,499 759,504C772,510 786,522 790,531C791,534 793,536 793,537C796,540 801,556 803,566C804,575 804,579 803,599C802,622 802,635 804,648C807,660 809,686 809,691C806,712 803,722 796,737C784,761 773,772 753,778C748,779 745,779 730,779C708,778 708,778 706,790C705,798 704,801 698,808C693,814 678,827 675,827C675,827 673,828 670,829C666,831 653,832 647,831ZM738,754C753,752 767,741 774,727C780,712 782,701 782,681C782,663 780,653 778,650L776,649L771,651C753,661 740,666 724,669C716,670 713,670 704,669C691,668 683,665 672,657C656,646 634,618 634,608C634,604 631,600 629,600C628,600 625,601 622,602C608,607 596,607 583,603C575,600 568,596 559,587C550,579 547,578 536,578C518,579 507,589 500,606C496,620 494,645 496,654C496,656 497,660 498,663C505,693 525,716 552,723C559,725 559,725 571,723C577,722 584,721 586,721C590,720 603,722 610,725C613,726 617,726 625,726C646,725 653,726 661,728C669,731 677,735 690,743C700,749 703,751 711,753C719,755 728,755 738,754Z" style="fill-rule:nonzero;"/>
    </g>
</svg>
