<?xml version="1.0" encoding="UTF-8" standalone="no"?>
<!DOCTYPE svg PUBLIC "-//W3C//DTD SVG 1.1//EN" "http://www.w3.org/Graphics/SVG/1.1/DTD/svg11.dtd">
<svg width="100%" height="100%" viewBox="0 0 1100 1118" version="1.1" xmlns="http://www.w3.org/2000/svg" xmlns:xlink="http://www.w3.org/1999/xlink" xml:space="preserve" xmlns:serif="http://www.serif.com/" style="fill-rule:evenodd;clip-rule:evenodd;stroke-linejoin:round;stroke-miterlimit:2;">
    <g transform="matrix(1,0,0,1,1.35624e-05,-4.67966e-05)">
        <g transform="matrix(1,0,0,1,-19.5858,-83.7544)">
            <path d="M695,1201C690,1200 684,1200 681,1200C671,1199 650,1196 638,1194C603,1188 591,1187 557,1188L527,1188C527,1189 522,1189 518,1190C513,1190 505,1191 499,1192C493,1192 487,1193 485,1194C482,1194 478,1194 476,1195C460,1198 441,1200 431,1199C420,1198 408,1196 407,1195C406,1194 405,1194 403,1194C400,1194 375,1181 371,1178C370,1177 369,1176 368,1176C368,1176 366,1175 364,1173C363,1171 359,1168 356,1166C348,1160 332,1140 321,1123C316,1115 313,1111 306,1098C298,1082 289,1072 270,1054C256,1041 252,1037 240,1023C228,1010 211,987 206,977C204,974 202,970 201,969C200,967 199,966 199,965C199,965 197,962 195,958C193,955 191,951 190,949C189,947 187,942 185,937C183,933 181,929 181,928C181,927 181,926 180,925C180,925 178,921 177,917C176,913 174,909 174,908C174,906 173,903 172,901C171,899 170,896 170,896C170,895 169,893 169,891C168,889 167,881 165,873C162,859 161,853 160,831C158,817 156,806 154,799C152,795 147,783 146,781C145,779 144,778 144,776C141,771 130,758 123,750C119,745 108,733 98,724C80,705 61,682 61,680C61,679 60,677 58,675C55,670 44,648 39,636C34,625 32,620 26,597C24,589 22,579 21,572C21,568 21,563 20,562C19,556 20,536 21,522C22,515 23,509 23,508C24,508 24,505 25,503C25,497 30,484 34,477C44,455 63,435 88,418C91,416 100,410 108,405C137,385 145,379 165,361C189,339 215,317 238,302C245,297 249,294 261,286C263,284 266,282 267,281C269,280 275,275 280,271C285,267 290,264 291,263C291,262 293,260 296,258C303,252 316,240 335,222C354,204 362,197 379,185C386,179 393,174 394,173C408,163 456,135 473,127C494,117 510,110 517,108C519,107 525,105 530,103C543,98 561,92 568,91C593,85 607,83 626,84C640,84 657,85 659,86C660,86 663,87 665,87C667,88 672,89 675,90C678,90 682,91 683,91C684,92 686,92 687,93L690,94L692,95C697,96 718,106 724,111C735,118 747,129 752,135C771,157 790,176 804,187C807,189 811,193 813,195C815,196 824,203 833,209C858,225 871,236 883,250C892,260 917,295 917,296C917,297 919,300 922,304C925,308 927,312 927,312C927,313 929,316 931,320C936,328 945,346 945,348C945,348 946,351 948,355C950,358 951,361 951,362C951,363 951,364 952,365C952,365 954,368 955,372C956,376 958,380 959,383C960,385 962,389 963,393C964,397 966,400 966,400C967,401 967,402 967,403C967,403 968,406 969,408C970,411 971,413 971,414C971,415 971,416 972,417C973,417 973,418 973,419C973,420 974,422 975,425C976,427 977,430 977,430C977,431 977,432 978,433C979,433 979,434 979,435C979,435 980,438 981,440C982,443 984,447 985,451C986,455 988,458 988,458C989,459 989,460 989,462C989,463 989,464 990,465C991,465 991,466 991,467C991,468 992,471 993,473C994,474 995,477 995,478C995,478 995,480 996,481C998,485 1001,492 1001,493C1001,494 1002,496 1004,499C1005,502 1006,505 1006,506C1006,506 1008,510 1009,513C1011,517 1014,523 1015,527C1018,532 1024,545 1035,565C1037,569 1042,578 1045,585C1048,591 1052,598 1053,600C1057,606 1083,658 1083,660C1083,660 1084,663 1085,665C1086,667 1088,671 1089,674C1090,677 1092,681 1093,683C1093,685 1096,691 1098,697C1099,703 1101,709 1102,711C1103,712 1103,715 1103,716C1103,717 1103,718 1104,719C1104,719 1105,722 1106,724C1107,726 1108,730 1108,732C1109,733 1109,736 1109,737C1109,739 1111,747 1112,750C1112,751 1113,753 1113,755C1113,757 1114,759 1114,760C1114,761 1115,764 1115,766C1115,769 1115,772 1116,772C1117,774 1118,786 1119,799C1120,812 1119,820 1117,833C1116,837 1115,843 1115,846C1114,853 1111,866 1110,869C1109,870 1109,872 1108,873C1107,874 1106,876 1106,878C1103,881 1081,911 1077,916C1074,919 1070,924 1066,929C1053,945 1033,965 1009,987C991,1004 967,1029 962,1036C960,1038 957,1042 956,1043C954,1044 953,1046 953,1047C953,1047 952,1048 951,1049C950,1050 945,1057 939,1064C936,1068 932,1073 928,1079C926,1081 922,1085 920,1089C909,1103 876,1139 862,1150C838,1173 821,1183 799,1191C781,1197 775,1198 750,1201C741,1202 705,1202 695,1201ZM758,1178C770,1174 778,1163 781,1148C783,1141 783,1128 781,1121C781,1119 780,1115 779,1113C778,1108 775,1098 774,1094C774,1092 772,1086 770,1081C768,1075 766,1066 764,1060C762,1054 760,1049 760,1048C759,1047 759,1045 759,1044C759,1043 759,1042 758,1042C758,1041 755,1034 749,1016C748,1012 746,1008 745,1006C744,1004 743,1001 743,1001C743,1000 742,997 740,994C739,991 737,987 737,986C736,983 728,970 724,964C719,956 713,948 701,935C679,910 675,905 662,886C654,874 638,845 635,835C634,833 632,827 630,823C627,815 624,801 622,789C621,782 621,750 622,739C628,691 628,661 623,607C623,601 622,593 621,590C620,586 620,581 619,579C619,576 619,574 618,573C618,571 616,567 615,563C611,551 605,541 595,529C587,520 573,511 560,506C556,505 553,504 552,503C547,501 528,497 512,495C485,491 476,490 451,489C445,489 402,490 401,491C399,491 395,492 390,493C378,495 358,500 348,503C343,505 337,507 334,508C330,509 326,511 323,512C309,518 284,527 273,529C269,530 263,532 260,532C257,533 252,534 249,534C246,535 243,535 242,535C241,536 209,536 203,535C196,535 179,530 171,527C160,522 157,521 149,519C137,515 128,514 107,512C102,512 86,514 79,516C72,517 62,522 58,526C52,531 47,537 44,545C42,551 42,553 41,564C41,570 42,577 42,580C46,596 49,607 54,622C58,631 75,664 82,676C88,685 94,692 116,714C128,725 139,737 142,741C148,747 156,759 162,770C164,773 166,777 166,778C166,778 167,781 168,783C169,785 170,789 171,792C173,796 177,811 177,817C178,819 178,823 178,825C179,826 179,829 179,832C182,852 183,860 185,871C186,874 188,880 188,883C189,888 197,913 200,919C201,921 202,923 202,925C203,928 211,944 212,947C219,958 227,972 230,977C232,979 237,985 240,990C251,1005 265,1020 290,1043C307,1059 316,1071 333,1099C337,1106 347,1120 353,1128C360,1137 375,1152 380,1156C382,1157 385,1159 387,1160C406,1173 427,1178 450,1176C457,1175 476,1173 500,1169C507,1168 548,1168 558,1169C568,1170 606,1173 618,1174C624,1174 632,1174 636,1175C640,1176 646,1176 650,1176C654,1176 664,1176 671,1177C694,1179 737,1181 745,1180C748,1180 754,1179 758,1178ZM748,910C755,906 763,902 765,901C770,900 784,900 795,901C803,902 815,901 819,899C820,898 822,898 822,898C825,898 839,891 848,885C860,877 865,873 889,851C899,841 906,831 910,819C916,801 916,783 910,762C908,753 908,753 898,736C895,730 891,721 889,718C888,714 886,710 886,709C886,707 885,705 885,704C884,698 883,695 882,693C879,686 879,658 881,641C883,627 883,601 882,596C882,594 881,590 880,588C878,581 872,569 867,564C862,558 849,548 845,547C844,547 841,546 839,545C834,542 819,538 811,537C798,536 794,536 786,538C765,543 750,558 742,583C736,604 727,624 720,632C710,643 706,648 698,654C675,674 660,693 654,711C649,725 648,733 648,754C648,765 648,777 649,781C652,797 653,804 656,813C658,817 659,821 659,822C660,823 661,825 661,826C662,828 664,831 665,835C671,850 682,869 694,885C701,895 722,915 726,917C731,918 731,918 748,910ZM244,519C247,518 251,518 253,517C254,516 257,516 259,516C261,516 263,516 264,515C264,515 267,514 271,513C276,512 279,511 298,504C312,498 324,494 331,492C335,491 341,488 346,487C350,485 355,484 356,484C357,484 359,484 360,483C363,482 369,480 371,480C372,480 373,480 374,479L374,478L375,478C375,479 378,478 380,478C382,477 387,477 390,477C392,476 397,476 400,475C409,473 512,474 525,476C538,478 545,480 549,481C550,481 555,483 560,484C564,485 569,487 571,488C572,488 574,489 575,489C575,489 577,490 578,490C585,493 590,495 591,494C591,494 592,489 592,483C592,463 597,445 607,429C614,418 618,413 640,392C659,373 666,365 677,351C687,337 691,332 691,331C691,331 692,329 693,329C694,328 695,326 695,326C695,325 696,323 698,321C700,318 701,316 701,315C701,315 702,314 703,313C703,312 705,310 706,308C707,306 709,303 710,301C712,298 714,294 715,291C717,288 719,283 721,281C724,275 724,275 728,267C737,245 741,222 741,200C741,193 741,185 740,182C738,170 737,165 736,165C735,164 735,162 735,161C735,158 728,145 724,138C717,130 710,124 700,118C692,114 677,108 666,104C632,95 592,98 549,115C545,116 540,117 539,118C533,120 511,129 496,136C461,151 424,173 393,196C382,204 355,225 346,233C298,276 282,289 240,321C212,342 198,353 191,359C187,362 177,370 168,378C137,404 122,415 102,428C87,439 68,457 59,468C56,472 50,484 48,490C46,496 43,506 43,508L43,510L44,511C45,511 48,510 51,508C59,502 65,499 78,496C88,494 124,494 136,496C144,498 157,502 169,507C172,508 176,510 178,511C180,511 183,513 185,513C188,515 205,520 210,520C214,521 237,520 244,519ZM838,462C848,459 855,452 860,442C863,435 864,418 862,410C855,392 843,380 826,377C806,373 787,387 783,408C782,412 782,417 782,422C784,438 794,453 807,459C811,461 814,463 815,463C818,465 833,464 838,462ZM506,1057C505,1057 501,1057 497,1056C485,1054 468,1048 458,1041C456,1040 454,1039 453,1038C451,1037 449,1036 447,1034C445,1033 441,1030 439,1028C432,1023 422,1013 415,1004C403,989 398,982 392,970C390,966 388,963 388,962C387,961 387,959 387,958C387,957 387,956 386,956C384,954 382,940 381,914C380,888 379,879 378,877C377,876 377,873 377,871C377,868 377,866 376,866C376,865 375,864 375,862C373,853 373,851 372,850C360,821 352,812 332,806C323,803 311,798 301,792C294,787 275,769 272,763C260,745 257,733 257,714C257,703 257,700 259,693C261,688 263,681 265,678C272,663 287,645 301,634C310,628 314,626 321,623C322,622 324,622 325,621C343,614 377,614 393,622C400,626 405,630 417,645C422,651 425,653 432,657C437,659 443,662 445,663C467,672 473,676 480,683C484,687 487,691 488,693C489,694 491,699 494,703C497,709 507,728 511,738C515,748 522,769 523,776C524,778 524,783 525,786C526,788 527,800 527,811C528,839 529,844 537,860C541,868 543,871 551,882C571,908 579,919 588,936C595,947 600,958 603,969C608,985 608,991 607,1003C605,1016 599,1026 587,1036C582,1040 563,1049 557,1051C555,1052 552,1053 551,1053C550,1053 546,1054 543,1055C539,1056 536,1057 534,1057C532,1058 509,1058 506,1057ZM335,443C329,442 321,440 318,437C317,437 316,436 315,436C313,435 307,428 305,422C303,419 303,411 303,403C303,400 310,393 316,389C322,384 324,379 322,374C320,369 321,359 325,352C330,341 355,318 382,299C398,288 417,278 426,275C437,271 451,270 460,272C466,274 478,280 482,283C486,287 492,289 497,289C505,289 512,292 518,298C541,320 539,350 512,377C495,395 473,410 446,421C435,426 421,428 400,428C383,428 377,429 370,434C363,439 357,441 350,442C348,443 345,443 344,443C342,444 339,443 335,443ZM588,261C578,260 572,257 569,250C566,245 564,238 566,237C567,236 567,235 567,234C567,231 571,225 575,221C591,207 614,209 622,225C624,229 623,238 621,243C617,249 611,255 606,257C599,260 595,262 595,262C595,262 591,261 588,261Z" style="fill-rule:nonzero;"/>
        </g>
    </g>
</svg>
