<?xml version="1.0" encoding="UTF-8" standalone="no"?>
<!DOCTYPE svg PUBLIC "-//W3C//DTD SVG 1.1//EN" "http://www.w3.org/Graphics/SVG/1.1/DTD/svg11.dtd">
<svg width="100%" height="100%" viewBox="0 0 1031 1936" version="1.1" xmlns="http://www.w3.org/2000/svg" xmlns:xlink="http://www.w3.org/1999/xlink" xml:space="preserve" xmlns:serif="http://www.serif.com/" style="fill-rule:evenodd;clip-rule:evenodd;stroke-linejoin:round;stroke-miterlimit:2;">
    <g transform="matrix(1,0,0,1,-192,-46)">
        <path d="M832,1981C812,1979 807,1977 792,1972C784,1969 771,1962 765,1957C763,1956 761,1954 759,1953C758,1952 751,1946 744,1939C730,1925 717,1908 704,1886C698,1877 689,1862 683,1852C677,1842 669,1830 666,1824C658,1811 618,1750 609,1738C594,1717 568,1689 554,1679C536,1665 522,1656 500,1645C492,1641 484,1637 481,1635C478,1633 472,1630 469,1628C457,1621 434,1606 424,1597C390,1571 365,1540 349,1507C344,1498 343,1495 337,1481C320,1438 319,1393 332,1360C333,1357 335,1352 336,1350C340,1339 342,1334 345,1329C348,1323 361,1298 366,1289C368,1286 371,1282 372,1279C376,1273 388,1257 395,1249C408,1233 419,1219 422,1213C424,1211 427,1206 429,1203C438,1189 445,1169 449,1150C458,1104 475,1045 485,1023C492,1008 502,992 512,978C514,976 517,972 520,969C526,961 548,939 558,932C567,926 585,916 596,912C602,910 617,906 627,904C635,902 652,903 661,905C681,909 705,921 721,935C724,937 728,940 729,942C734,946 748,961 754,970C762,980 763,981 765,981C768,980 783,929 787,906C787,901 789,892 790,887C792,874 792,834 791,820C789,802 788,795 787,787C786,783 785,777 784,775C783,767 774,739 766,718C757,694 750,671 747,659C747,657 745,651 744,646C737,614 731,563 732,539C734,500 738,480 752,430C756,417 769,380 776,365C785,344 799,316 801,312C803,310 806,304 808,299C814,288 818,282 826,274C836,263 851,255 871,247C895,239 925,237 952,242C964,245 985,253 990,257C991,257 994,259 996,260C1007,266 1025,281 1034,292C1040,299 1052,316 1052,317C1052,318 1053,320 1055,323C1057,326 1060,333 1063,340C1065,346 1068,352 1069,355C1070,357 1071,359 1071,360C1071,361 1074,367 1083,384C1090,399 1107,424 1125,450C1140,470 1159,499 1165,511C1175,529 1178,538 1182,554C1184,565 1184,605 1182,616C1181,619 1180,623 1180,624C1180,628 1173,662 1154,737C1146,771 1131,823 1123,847C1121,851 1119,858 1117,863C1115,867 1113,873 1112,875C1112,877 1108,888 1104,900C1094,930 1085,960 1081,971C1075,989 1071,1005 1069,1030C1067,1046 1064,1059 1062,1066C1061,1069 1059,1074 1059,1077C1054,1090 1046,1110 1036,1131C1031,1142 1019,1161 1011,1169C1009,1172 1007,1175 1007,1175C1007,1176 990,1191 981,1197C963,1210 942,1219 918,1224C905,1227 902,1229 903,1232C903,1235 913,1256 916,1262C918,1264 920,1268 920,1271C921,1273 923,1277 924,1280C935,1309 937,1324 938,1387C940,1500 940,1494 943,1504C946,1512 957,1533 963,1542C966,1546 972,1555 977,1562C990,1579 1001,1596 1009,1609C1013,1616 1016,1622 1016,1622C1016,1623 1020,1633 1024,1642C1025,1644 1027,1648 1028,1651C1028,1654 1030,1659 1031,1662C1034,1670 1036,1677 1039,1693C1040,1696 1041,1700 1042,1702C1042,1703 1043,1707 1043,1712C1044,1717 1045,1723 1045,1727C1047,1736 1047,1784 1045,1796C1042,1828 1034,1858 1026,1877C1023,1884 1020,1890 1020,1891C1019,1892 1017,1895 1014,1899C1012,1903 1010,1907 1008,1908C1007,1909 1003,1914 998,1919C989,1930 970,1946 964,1949C963,1949 961,1950 959,1952C947,1959 933,1965 915,1971C902,1975 898,1976 885,1978C859,1982 847,1983 832,1981ZM880,1957C897,1954 917,1946 937,1934C952,1925 974,1906 985,1893C990,1886 1000,1872 1000,1871C1000,1870 1002,1868 1003,1864C1012,1850 1019,1827 1021,1808C1023,1795 1022,1740 1020,1726C1019,1720 1018,1714 1017,1712C1015,1692 1005,1655 997,1638C991,1623 987,1614 985,1611C980,1604 968,1587 964,1583C962,1580 959,1576 958,1575C957,1574 955,1570 953,1568C938,1549 926,1528 920,1509C911,1483 909,1462 909,1397C909,1373 908,1349 908,1343C906,1321 898,1291 886,1259C884,1253 882,1247 881,1245C878,1236 875,1234 868,1234C860,1234 840,1231 833,1229C821,1225 810,1220 801,1214C777,1197 761,1175 745,1136C744,1133 741,1124 740,1118C737,1103 735,1086 737,1071C738,1061 742,1043 746,1032C748,1028 749,1023 749,1021C750,1015 746,1004 735,986C725,970 702,948 690,942C681,938 672,935 668,935C666,934 663,934 663,933C661,932 636,933 629,934C614,936 601,941 586,948C558,962 532,990 517,1024C510,1041 506,1051 500,1077C494,1100 493,1102 488,1127C482,1149 478,1164 475,1174C472,1181 462,1199 459,1204C455,1210 444,1226 441,1230C440,1232 437,1235 436,1236C413,1268 398,1289 391,1301C390,1303 387,1307 385,1310C376,1324 364,1351 360,1364C354,1388 359,1434 372,1469C385,1506 402,1532 433,1561C454,1582 475,1597 505,1613C522,1622 544,1636 557,1646C561,1649 565,1652 567,1654C578,1662 604,1687 615,1700C627,1714 629,1716 639,1731C650,1746 659,1761 668,1778C671,1784 676,1793 679,1799C682,1805 687,1814 690,1819C701,1841 709,1854 718,1868C723,1876 727,1883 728,1883C729,1884 731,1887 734,1891C741,1900 754,1914 764,1922C787,1941 809,1951 839,1956C854,1959 864,1959 880,1957ZM906,1187C919,1185 925,1184 939,1178C958,1171 978,1158 991,1145C1009,1127 1016,1110 1024,1068C1025,1062 1027,1055 1027,1053C1028,1050 1028,1046 1029,1042C1030,1036 1033,1021 1035,1014C1039,998 1043,987 1046,977C1049,971 1051,964 1052,962C1053,959 1054,957 1054,956C1055,953 1059,941 1064,928C1066,923 1068,919 1068,918C1069,916 1070,912 1072,907C1073,902 1077,893 1079,886C1082,879 1085,871 1086,868C1087,865 1090,856 1093,849C1107,810 1121,760 1130,717C1134,699 1142,654 1142,645C1143,641 1144,633 1144,628C1145,615 1145,591 1144,582C1143,578 1142,570 1141,564C1140,551 1137,539 1133,525C1129,512 1129,513 1123,500C1117,486 1111,477 1095,456C1082,439 1059,402 1054,390C1053,388 1051,383 1048,378C1046,373 1044,368 1044,367C1043,364 1031,344 1026,336C1003,302 970,278 939,273C928,271 905,272 895,275C872,281 850,295 835,313C817,335 806,356 794,387C792,392 790,396 790,398C789,399 788,402 787,405C787,408 785,413 784,416C778,434 770,472 766,501C763,519 762,525 761,546C761,558 763,582 765,592C765,594 767,599 767,603C771,619 782,656 788,670C789,673 793,681 795,687C798,693 802,704 806,712C821,747 825,770 824,841C824,877 824,882 820,914C818,927 810,955 805,968C797,987 790,1007 789,1014C784,1031 783,1037 781,1050C780,1058 779,1068 779,1073C778,1077 778,1085 777,1090C776,1104 780,1118 787,1133C795,1149 805,1161 820,1170C830,1177 854,1185 871,1187C878,1188 898,1188 906,1187ZM206,1490C198,1488 193,1481 192,1472C192,1467 192,1465 195,1461C198,1454 204,1450 212,1449C219,1449 224,1451 229,1457C232,1460 233,1462 234,1466C235,1474 233,1479 229,1484C223,1491 215,1494 206,1490ZM220,1292C209,1287 204,1283 199,1271C194,1261 195,1249 201,1238C203,1233 207,1231 213,1228C225,1222 237,1224 247,1235C260,1248 261,1270 249,1284C242,1291 228,1295 220,1292ZM346,1116C338,1114 333,1110 328,1104C323,1097 321,1095 320,1087C316,1067 328,1049 347,1044C355,1041 367,1044 374,1048C387,1057 394,1073 392,1087C390,1099 381,1111 371,1115C365,1118 352,1119 346,1116ZM405,976C384,970 371,957 363,936C359,924 361,907 367,894C371,886 380,876 387,872C397,867 411,865 423,867C442,870 460,888 466,909C473,932 464,958 444,970C433,977 417,980 405,976ZM426,947C430,947 437,943 440,939C443,935 442,929 436,917C431,907 417,897 409,897C407,897 403,898 400,900C390,905 387,916 393,927C397,935 403,942 407,944C412,947 417,949 420,948C421,948 423,948 426,947ZM565,855C554,852 535,844 533,841C532,841 531,840 531,840C528,840 516,828 511,822C508,818 506,815 506,814C506,814 505,812 504,811C501,807 494,793 490,783C483,765 477,735 475,712C473,690 477,669 485,653C494,636 499,630 509,625C513,622 518,619 520,618C532,609 558,606 578,611C591,614 595,616 607,625C613,630 622,641 627,651C632,661 645,700 650,721C657,744 653,775 641,806C628,836 606,854 579,856C574,856 568,855 565,855ZM1188,428C1180,426 1175,423 1170,419C1165,413 1162,409 1160,404C1153,381 1173,363 1198,372C1204,374 1208,376 1214,382C1224,394 1226,408 1217,419C1211,428 1199,431 1188,428ZM1115,279C1105,277 1099,271 1097,262C1095,256 1096,251 1100,246C1104,241 1108,239 1117,239C1124,239 1125,239 1130,241C1133,243 1136,246 1138,248C1140,251 1143,260 1142,264C1141,268 1135,275 1131,277C1127,279 1119,280 1115,279ZM1031,178C1028,176 1024,174 1020,170C1010,161 1008,149 1012,136C1015,128 1020,122 1029,118C1034,115 1036,115 1042,115C1055,115 1064,120 1070,129C1078,142 1078,156 1067,169C1059,179 1044,183 1031,178ZM832,161C815,159 797,146 790,131C774,101 785,68 814,52C824,47 830,46 844,46C856,47 863,49 873,55C887,65 896,80 898,97C901,125 885,149 859,159C856,160 841,162 839,162C839,162 836,161 832,161ZM835,1819C834,1818 830,1817 827,1816C811,1812 798,1800 790,1786C780,1766 779,1742 788,1722C792,1713 800,1706 821,1691C843,1676 848,1674 865,1675C881,1675 887,1677 898,1688C912,1704 919,1719 916,1734C914,1746 908,1757 897,1769C893,1773 889,1778 888,1781C882,1794 880,1798 877,1802C869,1813 859,1818 845,1819L835,1819ZM669,1542C637,1540 610,1529 586,1508C578,1502 566,1487 561,1479C558,1475 556,1471 555,1470C554,1468 546,1451 543,1445C541,1440 539,1430 538,1422C537,1405 542,1388 554,1371C558,1365 561,1359 562,1357C563,1350 562,1322 560,1307C560,1304 559,1289 559,1275C560,1250 560,1246 562,1234C567,1211 575,1194 586,1184C589,1180 590,1180 599,1174C607,1169 619,1165 634,1164C646,1164 653,1165 664,1169C692,1178 719,1211 740,1263C743,1269 746,1275 747,1276C747,1278 748,1280 748,1280C748,1281 749,1283 749,1284C752,1289 758,1306 759,1312C760,1314 762,1320 763,1325C768,1341 775,1371 777,1386C778,1390 778,1394 778,1395C779,1396 779,1401 780,1405C780,1409 780,1414 781,1415C782,1422 782,1452 781,1456C778,1468 775,1477 769,1486C762,1498 750,1515 744,1521C741,1524 729,1533 727,1533C727,1533 726,1534 725,1534C723,1536 711,1540 702,1541C693,1543 685,1543 669,1542ZM986,690C978,688 967,682 961,676C951,665 946,652 946,636C946,622 951,611 960,602C966,596 971,593 979,591C1009,582 1040,609 1040,643C1040,669 1022,689 998,690C993,691 988,690 986,690Z" style="fill:white;fill-rule:nonzero;"/>
    </g>
</svg>
