<?xml version="1.0" encoding="UTF-8" standalone="no"?>
<!DOCTYPE svg PUBLIC "-//W3C//DTD SVG 1.1//EN" "http://www.w3.org/Graphics/SVG/1.1/DTD/svg11.dtd">
<svg width="100%" height="100%" viewBox="0 0 1120 1446" version="1.1" xmlns="http://www.w3.org/2000/svg" xmlns:xlink="http://www.w3.org/1999/xlink" xml:space="preserve" xmlns:serif="http://www.serif.com/" style="fill-rule:evenodd;clip-rule:evenodd;stroke-linejoin:round;stroke-miterlimit:2;">
    <g transform="matrix(1,0,0,1,-0.000166004,-5.28466e-14)">
        <g transform="matrix(1,0,0,1,-126.745,-32.625)">
            <path d="M635,1478C622,1477 604,1473 595,1470C591,1469 586,1467 582,1466C578,1465 572,1463 567,1461C562,1459 557,1457 556,1457C552,1456 532,1446 528,1443C506,1428 493,1412 479,1383C474,1373 465,1349 463,1340C463,1338 462,1336 462,1336C462,1335 461,1334 461,1333C461,1329 457,1310 456,1308C456,1306 456,1304 455,1302C455,1299 455,1294 454,1291C454,1287 452,1278 452,1271C450,1253 450,1192 452,1178C453,1166 454,1096 453,1080C453,1074 452,1066 451,1061C451,1056 450,1048 449,1042C449,1036 448,1029 447,1027C447,1024 447,1020 446,1018C446,1016 444,1011 444,1007C442,998 439,986 438,984C438,983 438,981 437,980C436,972 425,944 419,935C412,923 409,919 401,911C394,905 389,902 383,898C370,892 371,892 320,890C273,888 246,884 219,877C205,873 202,872 195,869C192,867 189,866 188,866C188,866 185,864 181,862C178,860 175,858 174,858C173,858 159,846 155,841C143,826 129,793 127,771C126,760 128,739 132,725C132,722 133,717 134,715C138,695 155,654 165,639C167,637 170,632 171,630C173,628 176,623 178,621C179,619 182,615 183,613C186,610 196,598 204,590C228,564 255,527 265,508C275,486 279,470 281,444C281,427 280,410 276,399C272,385 247,339 228,310C216,291 206,266 203,243C201,227 202,191 205,179C206,176 206,174 206,174C206,174 207,173 207,171C208,169 208,166 209,165C209,161 218,141 226,129C234,113 259,87 278,73C290,64 306,54 317,49C327,44 329,44 355,39C359,39 367,37 371,36C388,33 408,32 420,33C431,35 461,43 477,49C482,51 487,52 488,53C489,53 493,55 497,57C500,59 503,60 504,60C506,60 530,74 543,84C560,95 593,130 610,153C625,173 629,179 634,196C641,216 641,223 640,255C639,292 640,340 641,350C644,374 656,391 680,408C684,411 697,417 698,417C699,417 701,418 702,418C704,419 710,421 715,423C719,425 726,427 729,428C731,429 737,431 741,433C752,436 777,446 781,448C783,449 787,451 789,451C794,453 824,468 828,471C831,472 835,474 837,476C840,477 844,480 847,481C849,483 851,484 851,484C852,484 855,486 859,488C862,490 865,492 866,492C866,492 868,493 870,495C873,496 876,498 878,499C882,502 897,513 905,520C919,531 924,535 928,539C931,542 935,545 947,555C949,557 954,562 958,568C961,573 966,579 969,583C972,586 976,590 978,592C979,594 981,596 981,597C986,600 999,623 1002,632C1003,634 1004,638 1004,640C1005,644 1005,665 1004,670C1001,681 995,696 989,703C974,723 967,729 960,730C948,732 940,734 936,737C935,737 934,738 933,738C932,738 929,739 927,740C912,745 911,745 870,746C849,747 843,748 833,751C825,754 813,763 808,770C803,780 800,790 802,791C802,792 803,793 803,794C803,798 816,813 825,820C842,833 853,838 877,843C886,845 899,847 906,849C927,853 941,857 962,864C977,870 997,882 1014,896C1022,903 1070,950 1080,961C1082,964 1090,973 1096,980C1103,987 1110,995 1112,998C1152,1046 1168,1067 1193,1102C1198,1109 1204,1117 1206,1120C1214,1131 1220,1140 1227,1154C1236,1172 1243,1190 1245,1202C1247,1211 1247,1234 1246,1244C1243,1257 1237,1277 1233,1283C1232,1284 1231,1287 1229,1291C1222,1304 1210,1317 1197,1324C1191,1327 1177,1332 1169,1334C1165,1335 1156,1335 1147,1335C1130,1335 1121,1334 1104,1328C1091,1324 1080,1318 1053,1302C1048,1300 1044,1297 1043,1296C1042,1296 1040,1295 1039,1294C1038,1293 1037,1292 1036,1292C1036,1292 1034,1291 1034,1290C1033,1289 1031,1288 1031,1288C1030,1288 1018,1279 1013,1275C1011,1273 1009,1272 1009,1272C1008,1272 1004,1269 999,1265C995,1261 989,1257 988,1255C982,1251 950,1220 939,1207C921,1187 901,1168 898,1168C898,1168 896,1167 896,1166C895,1165 893,1164 892,1164C892,1164 891,1163 890,1162C888,1160 869,1151 855,1146C848,1143 841,1140 840,1139C829,1135 801,1126 784,1123C774,1122 750,1122 745,1123C743,1123 740,1124 739,1124C737,1125 736,1126 735,1128C733,1132 730,1149 729,1160C729,1169 730,1190 732,1194C732,1195 734,1198 734,1202C737,1210 744,1224 753,1237C757,1243 762,1250 763,1253C770,1267 776,1279 776,1280C776,1281 777,1283 777,1284C780,1291 783,1300 783,1303C783,1304 783,1307 784,1308C785,1310 786,1330 786,1335L786,1362C785,1389 784,1397 780,1406C779,1408 777,1412 776,1415C775,1417 772,1422 770,1425C768,1428 766,1431 766,1432C765,1433 762,1437 759,1440C752,1448 747,1451 737,1455C727,1460 726,1460 718,1465C710,1471 706,1472 694,1474C689,1475 683,1476 681,1477C675,1478 646,1479 635,1478ZM679,1447C707,1443 721,1438 729,1428C732,1424 736,1420 737,1418C740,1411 744,1399 747,1386C749,1375 749,1371 749,1356C749,1337 748,1328 744,1313C741,1303 741,1300 738,1296C737,1293 736,1289 735,1287C734,1285 728,1274 723,1263C710,1236 707,1229 707,1228C707,1227 707,1226 706,1225C703,1219 695,1192 692,1179C692,1176 691,1172 690,1171C689,1165 689,1136 690,1131C694,1113 707,1099 723,1095C727,1094 739,1093 743,1093C768,1094 796,1097 817,1103C832,1106 856,1114 868,1119C869,1120 873,1122 877,1123C883,1126 891,1130 896,1133C897,1134 900,1136 902,1137C906,1139 912,1142 926,1152C941,1162 942,1163 944,1164C945,1165 946,1166 946,1166C949,1166 980,1195 997,1213C1012,1229 1024,1240 1027,1243C1028,1244 1031,1246 1033,1247C1035,1249 1045,1257 1050,1260C1051,1260 1054,1262 1057,1264C1061,1266 1064,1268 1064,1268C1065,1268 1067,1269 1069,1271C1073,1273 1086,1280 1092,1282C1093,1282 1096,1284 1099,1285C1102,1287 1106,1289 1109,1289C1131,1297 1130,1297 1142,1298C1153,1298 1158,1298 1174,1294C1188,1291 1200,1280 1205,1265C1208,1256 1208,1250 1207,1240C1206,1235 1206,1229 1205,1227C1205,1225 1204,1222 1204,1222C1203,1221 1203,1220 1203,1219C1203,1218 1203,1215 1202,1214C1197,1195 1194,1189 1192,1183C1190,1180 1189,1177 1189,1176C1189,1175 1180,1157 1175,1149C1173,1145 1169,1138 1166,1132C1163,1126 1160,1120 1159,1119C1158,1118 1155,1112 1152,1107C1148,1101 1144,1095 1142,1093C1133,1081 1120,1066 1106,1050C1104,1048 1097,1040 1091,1033C1066,1005 1025,964 1010,952C994,939 990,935 974,924C972,922 969,920 967,919C964,918 961,916 958,914C954,911 941,905 931,900C923,897 919,896 894,887C884,884 874,880 872,879C870,878 863,875 858,873C846,868 819,855 811,850C808,848 802,844 797,842C780,831 771,821 767,805C765,797 765,777 766,768C768,758 772,749 775,742C778,735 787,725 795,720C801,716 819,708 821,708C822,708 823,708 824,707C824,706 826,706 828,706C829,706 831,706 832,705C832,704 834,704 836,704C837,704 839,704 839,703C840,703 841,702 843,702C846,702 851,701 860,699C862,699 866,698 869,698C873,698 876,698 876,697C877,697 880,697 884,696C888,696 893,696 895,695C896,695 901,694 905,694C924,692 932,688 942,679C951,671 954,665 953,648C953,630 949,620 934,603C925,592 903,568 902,568C902,568 897,564 893,559C888,555 882,550 880,548C878,547 875,545 874,544C874,542 872,541 871,540C870,540 867,538 865,537C857,530 855,529 851,527C849,526 847,524 846,523C845,523 844,522 844,522C843,522 841,521 839,519C831,514 803,499 795,496C792,495 788,493 784,491C781,489 777,488 777,488C776,488 772,486 768,484C763,482 756,479 751,477C746,475 739,471 735,469C731,468 728,466 727,466C727,466 721,463 707,456C699,453 690,449 687,447C683,445 672,440 662,435C645,427 644,426 635,417C629,411 625,406 622,400C619,395 617,391 617,391C617,390 616,388 615,385C613,383 611,376 610,372C608,367 606,361 606,360C606,359 605,355 604,352C603,348 602,342 601,337C601,332 600,325 599,321C599,316 598,312 598,311C598,310 597,305 597,299C597,293 597,286 596,282C596,278 595,263 595,249C595,233 595,220 594,218C591,207 590,203 587,199C586,196 581,188 578,182C574,176 569,167 567,163C556,144 533,120 506,101C492,92 468,78 466,78C466,78 463,77 460,76C452,72 434,67 424,65C406,63 397,62 384,62C376,63 369,63 368,64C367,65 365,65 364,65C363,65 361,66 360,66C349,71 322,86 317,90C316,91 310,95 306,99C297,105 274,127 266,137C264,140 260,145 259,147C254,153 248,163 248,165C248,166 247,170 246,173C244,178 244,181 244,198C245,213 245,218 247,228C253,255 262,274 283,306C315,355 318,361 320,394C321,403 321,415 322,420C324,436 324,439 323,450C322,462 318,480 313,494C310,500 302,515 301,517C300,518 299,519 299,519C299,520 284,542 280,547C278,549 277,551 277,551C277,552 275,556 266,568C263,571 260,576 258,578C257,580 255,583 253,586C251,588 249,591 247,593C242,600 240,603 237,606C236,608 233,612 231,615C229,617 226,621 224,624C214,636 203,650 200,655C195,664 192,670 191,672C190,673 190,674 189,675C179,692 169,722 167,742C165,760 167,791 171,799C173,803 185,816 191,820C198,826 210,831 221,833C241,839 248,839 309,838C331,838 339,838 348,839C359,841 378,846 386,848C393,851 407,859 411,861C412,863 414,864 415,864C416,864 434,884 445,898C451,905 461,919 461,919C461,920 462,922 464,924C468,930 474,942 477,950C478,953 480,956 480,958C481,961 484,972 485,979C485,983 486,987 486,988C488,995 489,1245 488,1285C487,1309 491,1329 503,1358C505,1365 515,1384 519,1389C530,1406 546,1420 566,1429C579,1435 595,1441 602,1442C603,1443 605,1443 608,1444C610,1444 617,1446 625,1447C639,1449 664,1449 679,1447ZM605,1375C595,1372 584,1365 578,1356C574,1350 571,1339 571,1332C571,1319 578,1304 587,1299C597,1293 599,1292 608,1291C622,1290 631,1294 641,1303C647,1309 649,1313 652,1319C654,1328 655,1335 653,1342C652,1350 651,1352 646,1359C642,1365 638,1369 630,1372C623,1375 611,1377 605,1375ZM1082,1192C1076,1191 1068,1189 1067,1187C1066,1187 1065,1186 1065,1186C1064,1186 1061,1183 1058,1180C1046,1168 1042,1152 1047,1138C1052,1126 1056,1122 1065,1117C1071,1114 1073,1114 1081,1114C1089,1114 1091,1114 1097,1116C1103,1119 1111,1127 1115,1133C1120,1140 1121,1147 1121,1157C1120,1165 1120,1167 1117,1173C1113,1180 1107,1186 1100,1189C1095,1192 1085,1193 1082,1192ZM572,610C561,608 552,600 548,586C546,579 551,564 557,559C571,546 592,548 603,563C607,569 609,577 608,584C608,586 607,590 605,594C599,606 586,612 572,610ZM441,330C437,329 430,329 422,329C409,328 407,328 402,326C383,317 369,298 363,271C360,258 360,237 363,226C372,193 392,177 427,177C442,177 455,181 468,188C473,192 485,203 489,209C492,213 499,227 501,233C503,239 507,263 506,264C506,265 506,268 505,271C505,274 505,278 504,280C503,281 503,285 502,287C501,289 499,294 497,298C492,310 477,324 463,330C458,332 447,332 441,330Z" style="fill:white;fill-rule:nonzero;"/>
        </g>
    </g>
</svg>
