<?xml version="1.0" encoding="UTF-8" standalone="no"?>
<!DOCTYPE svg PUBLIC "-//W3C//DTD SVG 1.1//EN" "http://www.w3.org/Graphics/SVG/1.1/DTD/svg11.dtd">
<svg width="100%" height="100%" viewBox="0 0 290 61" version="1.1" xmlns="http://www.w3.org/2000/svg" xmlns:xlink="http://www.w3.org/1999/xlink" xml:space="preserve" xmlns:serif="http://www.serif.com/" style="fill-rule:evenodd;clip-rule:evenodd;stroke-linejoin:round;stroke-miterlimit:2;">
    <g transform="matrix(0.983467,0,0,0.70926,2.51743,3.06791)">
        <rect id="Artboard1" x="-2.56" y="-4.326" width="294.204" height="85.519" style="fill:none;"/>
        <clipPath id="_clip1">
            <rect id="Artboard11" serif:id="Artboard1" x="-2.56" y="-4.326" width="294.204" height="85.519"/>
        </clipPath>
        <g clip-path="url(#_clip1)">
            <g transform="matrix(1.01681,0,0,1.40992,-2.61364,-5.78049)">
                <path d="M22.2,23.6L24.6,40.8L32.4,27.8L29,42.1L37.4,34.1L33,44.7L40,39.5C36.7,48.4 33.9,53.3 22.1,57.3C10.3,53.3 7.5,48.3 4.2,39.5L11.2,44.7L6.9,34L15.3,42L12,27.7L19.8,40.7L22.2,23.6Z" style="fill:rgb(9,31,63);fill-rule:nonzero;"/>
                <path d="M9.9,17.8C6.3,17.8 4.2,15.9 4.2,12.7L4.2,5L7.2,5L7.2,12.6C7.2,14.5 8.2,15.5 10,15.5C11.8,15.5 12.8,14.5 12.8,12.7L12.8,5L15.8,5L15.8,12.6C15.7,15.8 13.4,17.8 9.9,17.8" style="fill:rgb(9,31,63);fill-rule:nonzero;"/>
                <path d="M21,10.1L22.1,10.1C23.5,10.1 24.3,9.6 24.3,8.6C24.3,7.6 23.6,7.2 22.2,7.2L21,7.2L21,10.1ZM21,15.5L22.3,15.5C23.5,15.5 24.8,15.2 24.8,13.8C24.8,12.4 23.4,12 22.2,12L21,12L21,15.5ZM22.3,17.6L18.2,17.6L18.2,5L22.4,5C25.5,5 27.2,6.2 27.2,8.3C27.2,9.4 26.6,10.3 25.5,10.8C27,11.3 27.8,12.3 27.8,13.8C27.7,16.3 25.8,17.6 22.3,17.6" style="fill:rgb(9,31,63);fill-rule:nonzero;"/>
                <path d="M36,17.8C31.9,17.8 29.3,15.3 29.3,11.3C29.3,7.4 32,4.8 36.1,4.8C37.6,4.8 38.9,5.1 40,5.7L40,5.8L39.6,8.4L39.4,8.3C38.3,7.6 37.3,7.2 36.2,7.2C33.8,7.2 32.3,8.8 32.3,11.4C32.3,14 33.8,15.6 36.2,15.6C37.3,15.6 38.5,15.3 39.6,14.6L39.8,14.5L40.2,16.9L40.1,17C38.9,17.4 37.5,17.8 36,17.8" style="fill:rgb(9,31,63);fill-rule:nonzero;"/>
                <path d="M0,1L0,33.9C0,47.7 7.5,57.7 22.2,61.7C36.9,57.8 44.4,47.8 44.4,33.9L44.4,1L0,1ZM22.2,59.9C8.3,56 1.6,46.8 1.6,33.7L1.6,2.7L42.7,2.7L42.7,33.7C42.7,46.8 36.1,56 22.2,59.9" style="fill:rgb(9,31,63);fill-rule:nonzero;"/>
                <path d="M22.2,22.1C25.3,22.1 25.7,23.4 28.2,23.3C30.7,23.3 31.1,22.1 34.2,22.1C37.3,22.1 37.7,23.4 40.2,23.3L40.2,20.4C37.7,20.4 37.3,19.2 34.2,19.2C31.1,19.2 30.7,20.4 28.2,20.4C25.7,20.4 25.3,19.2 22.2,19.2C19.1,19.2 18.7,20.4 16.2,20.4C13.7,20.4 13.3,19.2 10.2,19.2C7.1,19.2 6.7,20.4 4.2,20.4L4.2,23.3C6.7,23.3 7.1,22.1 10.2,22.1C13.3,22.1 13.7,23.4 16.2,23.3C18.7,23.3 19.1,22.1 22.2,22.1" style="fill:rgb(9,31,63);fill-rule:nonzero;"/>
                <path d="M24.2,27.3C25.7,27.7 26.4,28.3 28.3,28.3C30.8,28.3 31.2,27.1 34.3,27.1C37.4,27.1 37.8,28.4 40.3,28.3L40.3,25.4C37.8,25.4 37.4,24.2 34.3,24.2C31.2,24.2 30.8,25.4 28.3,25.4C26.3,25.4 25.6,24.6 23.8,24.3L24.2,27.3Z" style="fill:rgb(9,31,63);fill-rule:nonzero;"/>
                <path d="M16.2,28.3C18,28.3 18.8,27.6 20.2,27.3L20.6,24.3C18.8,24.6 18.1,25.4 16.1,25.4C13.6,25.4 13.2,24.2 10.1,24.2C7,24.2 6.6,25.4 4.1,25.4L4.1,28.3C6.6,28.3 7,27.1 10.1,27.1C13.2,27.1 13.7,28.3 16.2,28.3" style="fill:rgb(9,31,63);fill-rule:nonzero;"/>
                <path d="M24.9,32.5C25.7,32.8 26.4,33.1 27.4,33.3L29.1,30.4C28.8,30.4 28.5,30.5 28.2,30.5C26.5,30.5 25.7,29.9 24.5,29.6L24.9,32.5Z" style="fill:rgb(9,31,63);fill-rule:nonzero;"/>
                <path d="M32.8,32.2C33.2,32.1 33.7,32.1 34.2,32.1C37.3,32.1 37.7,33.4 40.2,33.3L40.2,30.4C37.7,30.4 37.3,29.2 34.2,29.2L33.5,29.2L32.8,32.2Z" style="fill:rgb(9,31,63);fill-rule:nonzero;"/>
                <path d="M11.6,32.2L10.9,29.3L10.2,29.3C7.1,29.3 6.7,30.5 4.2,30.5L4.2,33.4C6.7,33.4 7.1,32.2 10.2,32.2C10.7,32.1 11.2,32.1 11.6,32.2" style="fill:rgb(9,31,63);fill-rule:nonzero;"/>
                <path d="M17,33.3C18,33.2 18.7,32.8 19.5,32.5L19.9,29.5C18.6,29.9 17.9,30.4 16.2,30.4C15.9,30.4 15.6,30.4 15.3,30.3L17,33.3Z" style="fill:rgb(9,31,63);fill-rule:nonzero;"/>
                <path d="M71.3,17.6L69.1,17.6L69.1,8.4L65.7,8.4L65.7,6.5L74.6,6.5L74.9,8.4L71.3,8.4L71.3,17.6Z" style="fill:rgb(9,31,63);fill-rule:nonzero;"/>
                <path d="M88.1,17.6L86,17.6L86,12.8L81.2,12.8L81.2,17.6L79,17.6L79,6.5L81.2,6.5L81.2,10.8L86,10.8L86,6.5L88.1,6.5L88.1,17.6Z" style="fill:rgb(9,31,63);fill-rule:nonzero;"/>
                <path d="M101.5,17.6L94.3,17.6L94.3,6.5L101.3,6.5L101.3,8.4L96.5,8.4L96.5,10.9L100.3,10.9L100.7,12.8L96.5,12.8L96.5,15.7L101.5,15.7L101.5,17.6Z" style="fill:rgb(9,31,63);fill-rule:nonzero;"/>
                <path d="M118.2,17.8C115.4,17.8 113.7,16.1 113.7,13.2L113.7,6.5L115.9,6.5L115.9,13.2C115.9,15 116.8,16 118.3,16C119.9,16 120.7,15.1 120.7,13.3L120.7,6.5L122.9,6.5L122.9,13.2C122.9,16.1 121.1,17.8 118.2,17.8" style="fill:rgb(9,31,63);fill-rule:nonzero;"/>
                <path d="M137.9,17.6L136,17.6L130.7,9.8L130.7,17.6L128.7,17.6L128.7,6.5L130.8,6.5L135.9,13.9L135.9,6.5L137.9,6.5L137.9,17.6Z" style="fill:rgb(9,31,63);fill-rule:nonzero;"/>
                <rect x="144" y="6.5" width="2.2" height="11.1" style="fill:rgb(9,31,63);"/>
                <path d="M156.7,17.8L154.8,17.8L150.5,6.7L152.7,6.3L155.8,14.9L159,6.5L161.1,6.5L156.7,17.8Z" style="fill:rgb(9,31,63);fill-rule:nonzero;"/>
                <path d="M172.4,17.6L165.2,17.6L165.2,6.5L172.2,6.5L172.2,8.4L167.4,8.4L167.4,10.9L171.3,10.9L171.6,12.8L167.4,12.8L167.4,15.7L172.4,15.7L172.4,17.6Z" style="fill:rgb(9,31,63);fill-rule:nonzero;"/>
                <path d="M184.2,17.7L181,13.3L180,13.3L180,17.5L177.8,17.5L177.8,6.5L181.3,6.5C183.9,6.5 185.5,7.8 185.5,10C185.5,11.5 184.7,12.6 183.3,13.1L186.4,17.2L184.2,17.7ZM180,11.7L181.3,11.7C182.6,11.7 183.4,11.1 183.4,10C183.4,8.7 182.3,8.4 181.3,8.4L180,8.4L180,11.7Z" style="fill:rgb(9,31,63);fill-rule:nonzero;"/>
                <path d="M194.3,17.7C193.1,17.7 191.8,17.4 190.5,16.9L190.4,16.9L190.7,14.9L190.8,15C191.9,15.6 193.3,16 194.3,16C195.5,16 196.3,15.5 196.3,14.6C196.3,13.8 195.8,13.5 194.2,12.9C191.9,12.1 190.7,11.3 190.7,9.6C190.7,7.7 192.2,6.4 194.5,6.4C195.6,6.4 196.8,6.6 197.7,7.1L197.8,7.1L197.5,9.1L197.5,9C196.5,8.5 195.5,8.2 194.6,8.2C193.6,8.2 192.9,8.7 192.9,9.4C192.9,10.1 193.4,10.4 195.1,11C197.3,11.8 198.5,12.5 198.5,14.4C198.5,16.4 196.8,17.7 194.3,17.7" style="fill:rgb(9,31,63);fill-rule:nonzero;"/>
                <rect x="203.8" y="6.5" width="2.2" height="11.1" style="fill:rgb(9,31,63);"/>
                <path d="M215.8,17.6L213.6,17.6L213.6,8.4L210.2,8.4L210.2,6.5L219.1,6.5L219.4,8.4L215.8,8.4L215.8,17.6Z" style="fill:rgb(9,31,63);fill-rule:nonzero;"/>
                <path d="M227.4,17.6L225.2,17.6L225.2,13.3L221.3,6.7L223.5,6.3L226.4,11.3L229.2,6.5L231.5,6.5L227.4,13.3L227.4,17.6Z" style="fill:rgb(9,31,63);fill-rule:nonzero;"/>
                <path d="M71.1,40C68.4,40 65.7,38 65.7,34.2C65.7,30.4 68.4,28.4 71.1,28.4C73.7,28.4 76.4,30.4 76.4,34.2C76.4,38.1 73.7,40 71.1,40M71.1,30.4C69.2,30.4 67.9,32 67.9,34.3C67.9,36.6 69.2,38.2 71.1,38.2C73,38.2 74.2,36.6 74.2,34.3C74.2,32 72.9,30.4 71.1,30.4" style="fill:rgb(9,31,63);fill-rule:nonzero;"/>
                <path d="M83.6,39.8L81.4,39.8L81.4,28.7L88.2,28.7L88.2,30.6L83.6,30.6L83.6,33.3L87.2,33.3L87.5,35.2L83.6,35.2L83.6,39.8Z" style="fill:rgb(9,31,63);fill-rule:nonzero;"/>
                <path d="M103.6,39.8L100,39.8L100,28.7L103.6,28.7C105.9,28.7 107.3,29.8 107.3,31.6C107.3,32.7 106.8,33.5 105.9,33.9C107.1,34.4 107.8,35.2 107.8,36.5C107.9,38.6 106.4,39.8 103.6,39.8M102.1,38L103.7,38C105.1,38 105.8,37.5 105.8,36.5C105.8,35.4 105.1,34.9 103.7,34.9L102.1,34.9L102.1,38ZM102.1,33.1L103.5,33.1C104.7,33.1 105.4,32.6 105.4,31.7C105.4,31.2 105.2,30.5 103.6,30.5L102.1,30.5L102.1,33.1Z" style="fill:rgb(9,31,63);fill-rule:nonzero;"/>
                <path d="M119.5,40L116.3,35.6L115.3,35.6L115.3,39.8L113.1,39.8L113.1,28.7L116.6,28.7C119.2,28.7 120.8,30 120.8,32.2C120.8,33.7 120,34.8 118.6,35.3L121.7,39.4L119.5,40ZM115.3,33.9L116.6,33.9C117.9,33.9 118.7,33.3 118.7,32.2C118.7,30.9 117.6,30.6 116.6,30.6L115.3,30.6L115.3,33.9Z" style="fill:rgb(9,31,63);fill-rule:nonzero;"/>
                <rect x="126.4" y="28.7" width="2.2" height="11.1" style="fill:rgb(9,31,63);"/>
                <path d="M138.4,39.8L136.3,39.8L136.3,30.6L132.8,30.6L132.8,28.7L141.7,28.7L142,30.6L138.4,30.6L138.4,39.8Z" style="fill:rgb(9,31,63);fill-rule:nonzero;"/>
                <rect x="146" y="28.7" width="2.2" height="11.1" style="fill:rgb(9,31,63);"/>
                <path d="M157.1,40C155.9,40 154.6,39.7 153.3,39.2L153.2,39.2L153.5,37.2L153.6,37.3C154.7,37.9 156.1,38.3 157.1,38.3C158.3,38.3 159.1,37.8 159.1,36.9C159.1,36.1 158.6,35.8 157,35.2C154.7,34.4 153.5,33.6 153.5,31.9C153.5,30 155.1,28.7 157.3,28.7C158.4,28.7 159.6,28.9 160.5,29.4L160.6,29.4L160.3,31.4L160.2,31.3C159.2,30.8 158.2,30.5 157.3,30.5C156.3,30.5 155.6,31 155.6,31.7C155.6,32.4 156.1,32.7 157.8,33.3C160,34.1 161.2,34.8 161.2,36.7C161.3,38.6 159.6,40 157.1,40" style="fill:rgb(9,31,63);fill-rule:nonzero;"/>
                <path d="M175.1,39.8L172.9,39.8L172.9,35L168.1,35L168.1,39.8L166,39.8L166,28.7L168.1,28.7L168.1,33.1L172.9,33.1L172.9,28.7L175.1,28.7L175.1,39.8Z" style="fill:rgb(9,31,63);fill-rule:nonzero;"/>
                <path d="M191.8,40C188.6,40 186.4,37.7 186.4,34.3C186.4,30.8 188.6,28.5 191.8,28.5C193.1,28.5 194.1,28.8 195,29.4L195.1,29.4L194.8,31.4L194.7,31.3C193.8,30.6 193,30.3 192,30.3C190,30.3 188.8,31.8 188.8,34.2C188.8,36.6 190,38.1 192,38.1C193,38.1 194,37.8 194.9,37.1L195,37L195.3,38.9L195.2,38.9C194.2,39.7 193,40 191.8,40" style="fill:rgb(9,31,63);fill-rule:nonzero;"/>
                <path d="M204.6,40C201.9,40 199.2,38 199.2,34.2C199.2,30.4 201.9,28.4 204.6,28.4C207.2,28.4 209.9,30.4 209.9,34.2C209.9,38.1 207.2,40 204.6,40M204.6,30.4C202.7,30.4 201.4,32 201.4,34.3C201.4,36.6 202.7,38.2 204.6,38.2C206.5,38.2 207.7,36.6 207.7,34.3C207.7,32 206.4,30.4 204.6,30.4" style="fill:rgb(9,31,63);fill-rule:nonzero;"/>
                <path d="M221.2,39.8L214.7,39.8L214.7,28.7L216.8,28.7L216.8,37.9L220.9,37.9L221.2,39.8Z" style="fill:rgb(9,31,63);fill-rule:nonzero;"/>
                <path d="M229.6,40C226.8,40 225.1,38.3 225.1,35.4L225.1,28.6L227.3,28.6L227.3,35.3C227.3,37.1 228.1,38.1 229.7,38.1C231.3,38.1 232.1,37.2 232.1,35.4L232.1,28.7L234.3,28.7L234.3,35.4C234.2,38.3 232.5,40 229.6,40" style="fill:rgb(9,31,63);fill-rule:nonzero;"/>
                <path d="M247.1,39.9L245,39.9L242.1,31.4L241.5,39.8L239.5,39.8L240.4,28.7L243.3,28.7L246.2,37.2L249.1,28.7L252,28.7L252.9,39.8L250.7,39.8L250.1,31.4L247.1,39.9Z" style="fill:rgb(9,31,63);fill-rule:nonzero;"/>
                <path d="M262.4,39.8L258.7,39.8L258.7,28.7L262.3,28.7C264.6,28.7 266,29.8 266,31.6C266,32.7 265.5,33.5 264.6,33.9C265.8,34.4 266.5,35.2 266.5,36.5C266.6,38.6 265.1,39.8 262.4,39.8M260.8,38L262.4,38C263.8,38 264.6,37.5 264.6,36.5C264.6,35.4 263.9,34.9 262.5,34.9L260.9,34.9L260.9,38L260.8,38ZM260.8,33.1L262.2,33.1C263.4,33.1 264.1,32.6 264.1,31.7C264.1,31.2 263.9,30.5 262.3,30.5L260.8,30.5L260.8,33.1Z" style="fill:rgb(9,31,63);fill-rule:nonzero;"/>
                <rect x="272" y="28.7" width="2.2" height="11.1" style="fill:rgb(9,31,63);"/>
                <path d="M287.3,40L286.2,37.1L281.5,37.1L280.5,39.8L278.4,39.8L282.8,28.6L285.1,28.6L289.4,39.6L287.3,40ZM282.3,35.2L285.5,35.2C285.3,34.6 284.5,32.5 283.9,30.8L282.3,35.2Z" style="fill:rgb(9,31,63);fill-rule:nonzero;"/>
            </g>
        </g>
    </g>
</svg>
