<?xml version="1.0" encoding="UTF-8" standalone="no"?>
<!DOCTYPE svg PUBLIC "-//W3C//DTD SVG 1.1//EN" "http://www.w3.org/Graphics/SVG/1.1/DTD/svg11.dtd">
<svg width="100%" height="100%" viewBox="0 0 180 57" version="1.1" xmlns="http://www.w3.org/2000/svg" xmlns:xlink="http://www.w3.org/1999/xlink" xml:space="preserve" xmlns:serif="http://www.serif.com/" style="fill-rule:evenodd;clip-rule:evenodd;stroke-linejoin:round;stroke-miterlimit:2;">
    <g id="_???">
        <g>
            <g>
                <g transform="matrix(0.0657514,-0.997836,0.997836,0.0657514,-3.39,54.41)">
                    <circle cx="27.36" cy="29.02" r="27.36" style="fill:white;fill-opacity:0;"/>
                </g>
                <path d="M32.99,24.66C33.17,24.3 33.19,23.89 33.06,23.51C33.05,23.48 33.03,23.44 33.02,23.4C34.8,22.15 36.79,21.19 38.93,20.54C39.01,20.67 39.11,20.8 39.23,20.9C38.36,22.89 37.96,24.9 38.04,26.86C37.48,27.08 37.17,27.66 37.28,28.24C36.37,28.74 35.51,29.31 34.71,29.93C34.49,29.79 34.24,29.71 33.97,29.71C33.85,29.71 33.74,29.73 33.62,29.75C33.06,28.71 32.63,27.61 32.36,26.48C32.28,26.16 32.21,25.81 32.15,25.41C32.52,25.27 32.82,25 32.99,24.65L32.99,24.66ZM24.27,20.74C24.27,20.74 24.21,20.76 24.18,20.77C24.48,23.3 25.21,25.74 26.36,28.05C26.38,28.08 26.4,28.12 26.41,28.15L26.43,28.18C26.57,28.14 26.71,28.12 26.85,28.12C27.01,28.12 27.16,28.14 27.31,28.19C27.53,27.86 27.73,27.57 27.93,27.3C28.61,26.38 29.4,25.49 30.27,24.68C30.24,24.62 30.22,24.56 30.2,24.51C30.07,24.13 30.09,23.72 30.27,23.36C30.45,23 30.76,22.72 31.14,22.59C31.18,22.58 31.22,22.56 31.27,22.55C31.42,19.8 32.34,17.07 34.02,14.45C34.09,14.34 34.16,14.24 34.23,14.13L34.25,14.1C34.11,13.95 34,13.77 33.93,13.58C30.57,14.43 27.64,15.94 25.23,18.05C25.31,18.17 25.37,18.3 25.42,18.43C25.58,18.89 25.55,19.38 25.34,19.82C25.13,20.26 24.75,20.59 24.29,20.75L24.27,20.74ZM39.11,29.11C39.18,29.38 39.24,29.61 39.31,29.82C39.53,30.49 39.82,31.16 40.17,31.81C40.24,31.8 40.31,31.79 40.38,31.79C40.63,31.79 40.88,31.88 41.07,32.03C41.7,31.69 42.37,31.38 43.06,31.09C43.06,30.74 43.23,30.41 43.52,30.21C43.35,29.23 43.32,28.22 43.42,27.2C43.22,27.1 43.06,26.96 42.94,26.77C41.84,27.06 40.76,27.42 39.73,27.85C39.79,28.36 39.54,28.84 39.09,29.08L39.11,29.11ZM24.02,40.74C24.2,40.46 24.45,40.24 24.75,40.1C24.6,39.28 24.52,38.45 24.51,37.62C23.96,37.48 23.52,37.08 23.34,36.55C23.2,36.14 23.22,35.7 23.39,35.31C21.9,34.17 20.53,32.91 19.31,31.56C19.22,31.61 19.12,31.65 19.02,31.69C18.86,31.74 18.7,31.78 18.53,31.79L18.53,31.81C18.53,31.81 18.53,31.87 18.52,31.9C18.37,33.57 18.46,35.26 18.78,36.92L18.87,36.92C19.72,36.92 20.5,37.46 20.78,38.27C20.91,38.64 20.93,39.04 20.83,39.42C21.87,39.91 22.94,40.35 24.02,40.74ZM25.84,30.95C25.61,30.76 25.44,30.52 25.35,30.25C25.14,29.65 25.32,28.97 25.79,28.55C25.79,28.54 25.78,28.52 25.77,28.51C25.75,28.47 25.73,28.43 25.71,28.39C24.52,26 23.76,23.46 23.45,20.84C23.22,20.81 23,20.74 22.8,20.63C21.11,22.79 19.89,25.31 19.17,28.13C19.66,28.34 20.04,28.75 20.22,29.25C20.44,29.87 20.31,30.58 19.89,31.09C21.07,32.4 22.4,33.62 23.84,34.73C24,34.6 24.18,34.49 24.38,34.43C24.52,34.38 24.66,34.35 24.8,34.34C25.02,33.2 25.37,32.06 25.85,30.96L25.84,30.95ZM38.39,29.27C38.1,29.24 37.83,29.11 37.63,28.91C36.76,29.39 35.94,29.93 35.19,30.5C35.21,30.53 35.22,30.56 35.23,30.6C35.38,31.03 35.29,31.51 35,31.87C35.57,32.6 36.22,33.32 36.95,33.98C37.01,33.95 37.07,33.92 37.12,33.9C37.24,33.86 37.37,33.84 37.5,33.84C37.71,33.84 37.91,33.9 38.09,34C38.47,33.69 38.88,33.39 39.31,33.1C39.24,32.78 39.33,32.45 39.54,32.19C39.15,31.49 38.84,30.77 38.61,30.05C38.53,29.81 38.46,29.56 38.39,29.26L38.39,29.27ZM38.16,38.6C38.28,38.46 38.44,38.35 38.62,38.29C38.86,38.21 39.13,38.21 39.37,38.31C39.57,38.1 39.79,37.89 40.03,37.67C39.98,37.5 39.97,37.33 40,37.16C39.34,36.76 38.73,36.35 38.17,35.95C38.08,36.02 37.98,36.06 37.89,36.1C37.59,36.2 37.26,36.18 36.98,36.03C36.72,36.3 36.48,36.59 36.24,36.89C36.32,36.99 36.38,37.1 36.42,37.21C36.49,37.41 36.51,37.62 36.47,37.84C37.02,38.11 37.59,38.37 38.17,38.61L38.16,38.6ZM30.07,35.68C29.89,35.52 29.76,35.32 29.68,35.1C29.55,34.73 29.58,34.33 29.77,33.98C28.91,33.12 28.12,32.19 27.41,31.22L27.39,31.22C27.1,31.32 26.78,31.34 26.48,31.26L26.48,31.23L25.49,34.45L25.49,34.42C25.98,34.59 26.35,34.97 26.52,35.44C26.65,35.8 26.64,36.19 26.52,36.55C27.16,36.94 27.82,37.31 28.48,37.66C28.65,37.48 28.86,37.33 29.09,37.25C29.23,37.2 29.37,37.18 29.52,37.17C29.66,36.68 29.84,36.18 30.06,35.67L30.07,35.68ZM31.42,25.5C31.18,25.47 30.96,25.38 30.77,25.24C29.95,26.02 29.2,26.86 28.55,27.74C28.37,27.98 28.18,28.25 27.98,28.56C28.16,28.73 28.31,28.95 28.39,29.19C28.59,29.75 28.46,30.36 28.05,30.8C28.72,31.74 29.48,32.62 30.3,33.44C30.38,33.39 30.47,33.35 30.56,33.32C30.84,33.22 31.16,33.22 31.44,33.31C31.85,32.74 32.31,32.18 32.81,31.66C32.78,31.6 32.75,31.54 32.73,31.48C32.57,31.02 32.68,30.51 33.01,30.15C32.4,29.03 31.95,27.86 31.66,26.67C31.57,26.32 31.5,25.94 31.43,25.5L31.42,25.5ZM54.61,26.38C51.52,25.81 48.24,25.8 45.14,26.33C45.08,26.76 44.78,27.14 44.36,27.28C44.31,27.3 44.25,27.31 44.19,27.32C44.09,28.25 44.12,29.18 44.28,30.07C44.53,30.11 44.76,30.24 44.92,30.43C46.78,29.84 48.73,29.46 50.71,29.31C52.04,29.21 53.39,29.21 54.74,29.32L54.74,29.01C54.74,28.12 54.69,27.24 54.61,26.37L54.61,26.38ZM28.49,5.57C31.59,4.55 34.77,4.02 37.94,4L38.44,4C36.07,2.95 33.53,2.23 30.86,1.89L30.85,1.89C29.85,2.93 28.94,4.02 28.16,5.16C28.29,5.28 28.4,5.42 28.49,5.58L28.49,5.57ZM14.03,19.34C13.97,19.36 13.91,19.38 13.83,19.4C13.88,19.65 13.93,19.88 13.98,20.08C14.67,22.93 15.88,25.64 17.55,28.12C17.61,28.09 17.67,28.07 17.72,28.05C17.94,27.97 18.17,27.94 18.4,27.94C19.14,25 20.41,22.36 22.18,20.11C22.06,19.96 21.97,19.79 21.91,19.61C21.75,19.15 21.78,18.66 21.99,18.22C22.2,17.78 22.58,17.45 23.04,17.29C23.11,17.26 23.19,17.24 23.28,17.23C23.39,14.81 23.88,12.41 24.74,10.09C25,9.39 25.3,8.68 25.64,7.98C25.51,7.88 25.4,7.76 25.3,7.63C21.72,9.3 18.47,11.65 15.91,14.44C15.54,14.84 15.18,15.26 14.83,15.7C15.07,15.94 15.26,16.23 15.37,16.55C15.56,17.1 15.53,17.7 15.28,18.22C15.02,18.75 14.57,19.15 14.01,19.34L14.03,19.34ZM31.23,42.26C31.27,42.38 31.3,42.51 31.31,42.64C31.69,42.7 32.01,42.75 32.32,42.79C32.48,42.47 32.76,42.22 33.1,42.1C33.14,42.09 33.18,42.08 33.21,42.07C33.23,41.86 33.26,41.65 33.3,41.44C33.03,41.29 32.83,41.04 32.73,40.76C32.68,40.61 32.65,40.45 32.66,40.28C32.02,40.06 31.38,39.81 30.74,39.54C30.56,39.77 30.33,39.94 30.06,40.03C29.99,40.06 29.91,40.07 29.83,40.09L29.83,40.25C29.83,40.55 29.85,40.87 29.88,41.24C30.49,41.29 31.02,41.69 31.22,42.27L31.23,42.26ZM26.32,8.32C26,8.99 25.71,9.67 25.46,10.34C24.63,12.58 24.16,14.9 24.05,17.23C24.27,17.28 24.49,17.37 24.68,17.49C27.21,15.26 30.28,13.69 33.8,12.81C33.85,12.12 34.3,11.53 34.96,11.3C35.41,11.14 35.91,11.18 36.33,11.4C38.04,9.5 40.14,7.77 42.55,6.25C41.76,5.72 40.94,5.24 40.09,4.79L40.03,4.79C39.39,4.75 38.78,4.74 38.24,4.74L37.96,4.74C34.86,4.76 31.76,5.28 28.73,6.27C28.84,7.15 28.32,7.99 27.47,8.29C27.1,8.42 26.7,8.43 26.32,8.32ZM52.68,29.98C52.03,29.98 51.38,30.01 50.74,30.05C48.81,30.2 46.92,30.56 45.12,31.13C45.1,31.42 44.96,31.69 44.74,31.87C44.98,32.52 45.3,33.16 45.68,33.78C45.97,33.73 46.26,33.83 46.47,34.04C48.66,33.33 50.99,32.96 53.39,32.94L53.6,32.94C53.84,32.94 54.11,32.94 54.43,32.96C54.57,32.01 54.65,31.05 54.69,30.07C53.99,30.01 53.31,29.98 52.67,29.98L52.68,29.98ZM48.95,18.95C48.97,19.01 48.99,19.08 49,19.15C50.47,19.41 51.93,19.84 53.34,20.42C52.86,18.98 52.27,17.58 51.57,16.26C50.52,17.02 49.58,17.81 48.77,18.62C48.85,18.73 48.91,18.84 48.95,18.95ZM43.34,31.78C42.69,32.05 42.06,32.34 41.45,32.66C41.51,32.95 41.45,33.25 41.29,33.48C41.71,34.01 42.18,34.52 42.7,35.01C42.74,34.99 42.77,34.97 42.81,34.96C42.91,34.93 43.02,34.91 43.12,34.91C43.35,34.91 43.57,34.99 43.75,35.14C44.13,34.95 44.52,34.77 44.92,34.61C44.93,34.46 44.98,34.31 45.06,34.18C44.64,33.51 44.29,32.81 44.03,32.1C43.77,32.08 43.51,31.97 43.33,31.78L43.34,31.78ZM44.06,36.14C45.96,37.54 48.27,38.63 50.92,39.38C48.94,38.33 47.31,37.04 46.06,35.55C45.74,35.63 45.41,35.55 45.18,35.31C44.82,35.46 44.45,35.63 44.1,35.8C44.1,35.91 44.1,36.03 44.06,36.14ZM47.51,12.47C47.58,12.66 47.61,12.86 47.6,13.06C48.49,13.33 49.38,13.66 50.27,14.05C49.72,13.21 49.13,12.4 48.49,11.62C48.1,11.88 47.76,12.11 47.46,12.33C47.48,12.38 47.5,12.42 47.51,12.46L47.51,12.47ZM46.5,14.54C45.99,14.71 45.44,14.63 45,14.32C43.46,15.72 42.18,17.23 41.17,18.81C41.28,18.91 41.37,19.03 41.43,19.17C43.1,18.88 44.78,18.77 46.43,18.86C46.58,18.52 46.87,18.25 47.22,18.13C47.53,18.02 47.87,18.03 48.18,18.16C49.06,17.28 50.08,16.42 51.21,15.61C51.14,15.48 51.06,15.35 50.99,15.22L50.95,15.2C49.79,14.62 48.59,14.14 47.4,13.78C47.21,14.14 46.89,14.41 46.5,14.54ZM40.69,33.92C40.35,34.02 39.97,33.94 39.69,33.72C39.3,33.98 38.93,34.26 38.57,34.54C38.58,34.56 38.59,34.58 38.6,34.6C38.68,34.84 38.68,35.09 38.6,35.34C39.16,35.76 39.76,36.16 40.38,36.53C40.47,36.47 40.56,36.42 40.65,36.38C40.93,36.28 41.24,36.31 41.5,36.46C41.7,36.32 41.92,36.17 42.17,36.02C42.15,35.87 42.16,35.71 42.21,35.56C41.65,35.04 41.14,34.49 40.68,33.91L40.69,33.92ZM25.51,39.91C26.26,39.91 26.94,40.38 27.19,41.09C27.27,41.31 27.3,41.53 27.29,41.76C27.66,41.86 28.04,41.96 28.4,42.04C28.56,41.73 28.83,41.48 29.16,41.34C29.12,40.92 29.1,40.57 29.1,40.23L29.1,40.01C28.67,39.86 28.33,39.53 28.19,39.11C28.1,38.85 28.08,38.57 28.14,38.31C27.45,37.95 26.77,37.57 26.12,37.17C25.94,37.35 25.72,37.49 25.48,37.57C25.41,37.59 25.33,37.61 25.25,37.63C25.27,38.39 25.34,39.16 25.47,39.91L25.51,39.91ZM53.61,33.68L53.41,33.68C51.09,33.7 48.85,34.06 46.74,34.73C46.74,34.85 46.7,34.97 46.64,35.08C48.11,36.84 50.14,38.29 52.68,39.4C53.43,37.59 53.98,35.67 54.32,33.69C54.12,33.69 53.87,33.68 53.61,33.68ZM43.6,36.71C43.55,36.74 43.5,36.76 43.45,36.78C43.15,36.88 42.82,36.83 42.57,36.65C42.35,36.79 42.16,36.91 41.98,37.04C42.02,37.16 42.03,37.29 42.02,37.42C44.99,38.92 48.39,39.93 52.11,40.43C48.82,39.68 45.88,38.4 43.61,36.71L43.6,36.71ZM49.73,40.78C46.82,40.2 44.12,39.29 41.7,38.08C41.59,38.18 41.47,38.26 41.34,38.3C41.06,38.4 40.76,38.37 40.5,38.22C40.3,38.4 40.1,38.59 39.92,38.78C39.95,38.83 39.97,38.88 39.99,38.93C40.03,39.04 40.05,39.16 40.05,39.28C43.07,40.28 46.28,40.78 49.58,40.78L49.74,40.78L49.73,40.78ZM38.06,43.13C40.63,43.1 43.22,42.82 45.76,42.3C45.45,42.3 45.14,42.31 44.84,42.31C42.77,42.31 40.7,42.14 38.67,41.8C38.53,42.04 38.32,42.23 38.05,42.32C37.92,42.37 37.78,42.39 37.63,42.38C37.61,42.43 37.59,42.49 37.58,42.54C37.8,42.68 37.97,42.89 38.06,43.13ZM39.79,39.98C39.67,40.13 39.5,40.24 39.32,40.3C39.11,40.37 38.89,40.38 38.67,40.32C38.63,40.38 38.58,40.45 38.54,40.52C38.63,40.63 38.71,40.75 38.75,40.88C38.77,40.94 38.79,41 38.8,41.06C40.79,41.39 42.82,41.56 44.84,41.56C45.73,41.56 46.64,41.53 47.55,41.46C44.87,41.29 42.26,40.79 39.79,39.98ZM37.13,54.2C31.94,54.2 25.33,51.91 19.9,48.22C14.22,44.37 10.54,39.66 9.24,34.6L9.16,34.6C7.98,34.6 6.91,33.84 6.52,32.73C6.2,31.82 6.37,30.84 6.97,30.08C4.74,27.6 2.73,24.8 1,21.74C0.37,24.05 0.02,26.48 0.02,29C0.02,44.11 12.27,56.36 27.38,56.36C31.21,56.36 34.85,55.57 38.16,54.15C37.78,54.18 37.45,54.19 37.14,54.19L37.13,54.2ZM43.2,6.73C40.74,8.25 38.62,9.98 36.9,11.89C36.98,11.99 37.05,12.11 37.1,12.23C38.22,12.1 39.38,12.03 40.55,12.03C41.86,12.03 43.18,12.14 44.46,12.34C44.64,11.93 44.99,11.62 45.41,11.47C45.95,11.29 46.55,11.39 46.99,11.75C47.29,11.53 47.62,11.31 47.99,11.06C46.57,9.43 44.97,7.98 43.21,6.73L43.2,6.73ZM50.11,41.96C46.14,43.22 42.08,43.88 38.05,43.94C37.93,44.28 37.66,44.55 37.32,44.67C37.27,44.69 37.22,44.7 37.18,44.71L37.18,44.74C37.18,44.82 37.17,44.9 37.17,44.98C37.15,47.24 38.12,49.41 39.97,51.26C40.38,51.67 40.87,52.09 41.43,52.5C45.73,49.92 49.26,46.19 51.6,41.73C51.04,41.83 50.56,41.91 50.12,41.97L50.11,41.96ZM37.29,40.21C37.48,40.14 37.68,40.13 37.88,40.17C37.94,40.07 38,39.98 38.05,39.9C37.99,39.82 37.95,39.74 37.92,39.66C37.88,39.54 37.86,39.42 37.86,39.29C37.25,39.04 36.65,38.77 36.08,38.48C35.95,38.61 35.8,38.7 35.63,38.76C35.41,38.83 35.18,38.85 34.96,38.8C34.87,38.98 34.79,39.14 34.71,39.31C34.92,39.46 35.08,39.67 35.16,39.92C35.2,40.04 35.22,40.17 35.23,40.31C35.72,40.44 36.22,40.57 36.7,40.68C36.84,40.46 37.04,40.3 37.28,40.21L37.29,40.21ZM1.29,20.8C1.29,20.8 1.33,20.87 1.35,20.9C3.09,24.04 5.17,26.96 7.52,29.55C7.74,29.4 7.97,29.28 8.22,29.19C8.38,29.13 8.55,29.09 8.73,29.07C8.91,25.54 9.94,22.1 11.78,18.86C11.53,18.62 11.33,18.32 11.22,17.99C11.03,17.44 11.06,16.84 11.31,16.32C11.57,15.79 12.02,15.39 12.58,15.2C12.47,11.7 13.11,8.24 14.47,4.89C8.23,8.22 3.44,13.91 1.27,20.76L1.29,20.8ZM15.48,4.39C13.95,7.83 13.22,11.42 13.32,15.07C13.63,15.07 13.95,15.14 14.23,15.27C14.61,14.8 15,14.35 15.38,13.93C18,11.07 21.33,8.66 25,6.95C24.78,6.02 25.31,5.05 26.22,4.74C26.64,4.59 27.1,4.6 27.52,4.76C28.22,3.74 29.03,2.74 29.93,1.78C29.08,1.7 28.23,1.66 27.36,1.66C23.11,1.66 19.08,2.63 15.49,4.36L15.49,4.39L15.48,4.39ZM34.32,38.42C34.2,38.29 34.12,38.15 34.06,38C33.98,37.78 33.97,37.55 34.02,37.33C33.23,36.84 32.48,36.32 31.78,35.77C31.67,35.84 31.56,35.9 31.44,35.95C31.2,36.03 30.95,36.05 30.71,36C30.52,36.44 30.36,36.89 30.23,37.33C30.57,37.5 30.83,37.79 30.96,38.15C31.04,38.37 31.06,38.61 31.03,38.85C31.65,39.11 32.28,39.35 32.91,39.57C33.07,39.36 33.28,39.2 33.53,39.11C33.69,39.05 33.86,39.03 34.03,39.04C34.12,38.84 34.22,38.64 34.34,38.41L34.32,38.42ZM44.96,25.59C48.08,25.05 51.37,25.06 54.49,25.6C54.31,24.15 54.02,22.73 53.62,21.36L53.6,21.36C52.1,20.67 50.53,20.18 48.91,19.89C48.76,20.25 48.47,20.53 48.11,20.65C47.76,20.77 47.37,20.74 47.04,20.57C46.72,20.99 46.43,21.4 46.17,21.81C45.47,22.91 44.94,24.04 44.59,25.19C44.75,25.29 44.87,25.43 44.97,25.59L44.96,25.59ZM46.49,20.06C46.45,19.99 46.41,19.91 46.39,19.84C46.36,19.77 46.35,19.69 46.33,19.61C45.93,19.59 45.59,19.58 45.27,19.58C44.05,19.58 42.81,19.69 41.58,19.9C41.55,20.47 41.17,20.98 40.62,21.17C40.38,21.25 40.12,21.27 39.87,21.22C39.06,23.09 38.69,24.97 38.75,26.8C39.01,26.86 39.24,27 39.41,27.19C40.48,26.74 41.6,26.36 42.75,26.06C42.79,25.6 43.1,25.2 43.54,25.05C43.64,25.02 43.74,25 43.86,24.99C44.23,23.78 44.79,22.57 45.53,21.41C45.81,20.96 46.14,20.51 46.49,20.06ZM38.87,52.23C38.2,51.81 37.58,51.35 37.02,50.87C35,49.12 33.71,46.99 33.29,44.7C32.8,44.61 32.41,44.28 32.24,43.82C32.21,43.74 32.19,43.66 32.18,43.58C31.8,43.53 31.46,43.48 31.14,43.43C31.01,43.7 30.8,43.93 30.54,44.09C31.83,47.4 34.84,50.34 38.86,52.23L38.87,52.23ZM44.31,13.07C43.07,12.87 41.8,12.77 40.54,12.77C39.43,12.77 38.32,12.83 37.25,12.96C37.25,13.69 36.78,14.33 36.08,14.57C35.67,14.71 35.22,14.7 34.82,14.52L34.8,14.55C34.74,14.64 34.67,14.74 34.61,14.83C33.01,17.33 32.13,19.92 31.98,22.54C32.18,22.59 32.36,22.68 32.52,22.81C34.38,21.5 36.46,20.49 38.7,19.82C38.7,19.22 39.09,18.68 39.66,18.48C39.93,18.39 40.22,18.38 40.49,18.45C41.53,16.81 42.87,15.23 44.48,13.77C44.44,13.7 44.41,13.62 44.38,13.55C44.33,13.4 44.3,13.24 44.29,13.08L44.31,13.07ZM34.82,36.45C35.08,36.36 35.35,36.36 35.61,36.45C35.87,36.13 36.14,35.81 36.43,35.5C36.41,35.46 36.39,35.42 36.38,35.38C36.28,35.1 36.3,34.79 36.42,34.52C35.66,33.82 34.97,33.07 34.37,32.29C34.01,32.41 33.62,32.37 33.29,32.18C32.83,32.66 32.4,33.18 32.02,33.71C32.15,33.85 32.24,34.01 32.3,34.18C32.42,34.52 32.4,34.88 32.26,35.21C32.93,35.73 33.65,36.23 34.4,36.7C34.52,36.59 34.66,36.5 34.82,36.45ZM36.53,41.4C36.04,41.29 35.54,41.16 35.03,41.02C34.87,41.27 34.64,41.46 34.36,41.55C34.25,41.59 34.13,41.61 34,41.61C33.97,41.76 33.95,41.93 33.93,42.09C34.34,42.22 34.66,42.53 34.8,42.93C34.81,42.97 34.82,43 34.83,43.05C35.16,43.07 35.5,43.09 35.8,43.1C35.93,42.78 36.19,42.54 36.51,42.43C36.6,42.4 36.7,42.38 36.82,42.37C36.84,42.29 36.87,42.21 36.9,42.12C36.75,41.99 36.63,41.82 36.57,41.64C36.54,41.56 36.53,41.49 36.52,41.39L36.53,41.4ZM36.42,44.67L36.42,44.63C36.13,44.5 35.9,44.25 35.79,43.95C35.79,43.94 35.79,43.93 35.78,43.92C35.42,43.9 35.1,43.89 34.8,43.87C34.67,44.23 34.39,44.51 34.04,44.65C34.44,46.75 35.64,48.71 37.51,50.33C38.04,50.78 38.62,51.21 39.25,51.61C37.37,49.66 36.39,47.37 36.41,44.98C36.41,44.87 36.41,44.77 36.42,44.67ZM13.08,19.45C12.84,19.43 12.61,19.37 12.4,19.27C10.64,22.38 9.66,25.67 9.48,29.06C10.54,29.19 11.45,29.91 11.8,30.91C12.09,31.74 11.97,32.66 11.47,33.39C13.3,34.95 15.28,36.36 17.34,37.58C17.53,37.37 17.78,37.19 18.04,37.08C17.7,35.34 17.61,33.58 17.76,31.82L17.76,31.69C17.19,31.51 16.73,31.06 16.53,30.5C16.29,29.83 16.45,29.09 16.94,28.56C15.2,25.99 13.96,23.2 13.24,20.26C13.18,20.02 13.12,19.76 13.06,19.45L13.08,19.45ZM29.85,44.3C29.15,44.34 28.52,43.92 28.29,43.27C28.24,43.13 28.21,42.98 28.21,42.83C27.84,42.74 27.45,42.64 27.05,42.53C26.9,42.79 26.69,43.01 26.43,43.17C27.8,46.37 30.25,49.03 33.52,50.86C34.95,51.66 36.5,52.27 38.14,52.69C34.1,50.69 31.16,47.72 29.85,44.3ZM20.31,47.61C24.78,50.64 30.13,52.75 34.74,53.31C30.09,52.18 25.87,49.75 22.82,46.41C21.31,44.76 20.1,42.91 19.24,40.9C18.26,41.09 17.27,40.53 16.94,39.58C16.79,39.16 16.79,38.69 16.94,38.27C14.83,37.03 12.81,35.58 10.94,33.97C10.68,34.18 10.4,34.34 10.09,34.45C10.05,34.46 10.02,34.47 9.98,34.48C11.65,40.93 17.17,45.47 20.32,47.61L20.31,47.61ZM33.16,51.52C29.72,49.6 27.15,46.81 25.73,43.43C24.9,43.53 24.11,43.05 23.83,42.26C23.74,42.01 23.71,41.75 23.74,41.49C23.55,41.42 23.36,41.35 23.17,41.28C22.27,40.94 21.37,40.55 20.47,40.14C20.32,40.34 20.14,40.5 19.93,40.63C20.76,42.55 21.92,44.32 23.37,45.9C26.54,49.37 31.14,51.88 36.05,52.83C35.04,52.47 34.07,52.03 33.16,51.52Z" style="fill:rgb(9,31,63);fill-rule:nonzero;"/>
            </g>
            <g>
                <g>
                    <path d="M73.81,14.57C80.19,14.57 82.92,17.99 82.92,21.93C82.92,25.65 80.44,29.65 73.81,29.65L67.37,29.65C66.91,29.65 66.66,29.83 66.66,30.27L66.66,39.16L61.71,39.16L61.71,29.43C61.71,26.66 63.05,25.53 66.16,25.53L73.98,25.53C76.79,25.53 77.93,23.85 77.93,22.14C77.93,20.43 76.71,18.86 74.03,18.86L61.67,18.86L61.67,14.56L73.82,14.56L73.81,14.57Z" style="fill:rgb(9,31,63);fill-rule:nonzero;"/>
                    <path d="M95.93,14.57C102.31,14.57 105.04,17.99 105.04,21.93C105.04,24.99 103.36,28.27 99.04,29.32L105.63,39.15L100.13,39.15L93.66,29.64L89.44,29.64C88.98,29.64 88.73,29.82 88.73,30.26L88.73,39.15L83.78,39.15L83.78,29.42C83.78,26.65 85.12,25.52 88.23,25.52L96.1,25.52C98.91,25.52 100.05,23.84 100.05,22.1C100.05,20.36 98.83,18.86 96.1,18.86L83.73,18.86L83.73,14.56L95.93,14.56L95.93,14.57Z" style="fill:rgb(9,31,63);fill-rule:nonzero;"/>
                    <path d="M116,11.21C112.91,11.21 110.39,8.7 110.39,5.6C110.39,2.5 112.9,-0.01 116,-0.01C119.1,-0.01 121.61,2.5 121.61,5.6C121.61,8.7 119.1,11.21 116,11.21ZM116,3.53C114.86,3.53 113.93,4.46 113.93,5.6C113.93,6.74 114.86,7.67 116,7.67C117.14,7.67 118.07,6.74 118.07,5.6C118.07,4.46 117.14,3.53 116,3.53Z" style="fill:rgb(9,31,63);fill-rule:nonzero;"/>
                    <g>
                        <path d="M122.93,39.16L117.97,39.16L117.97,19.49C117.97,16.28 120.03,14.14 124.27,14.14C128.05,14.14 129.85,15.89 130.9,18.69L137.79,34.39C138.08,35.01 138.63,35.41 139.39,35.41C140.23,35.41 140.86,34.86 140.86,34.03L140.86,19.5C140.86,16.29 142.92,14.15 147.12,14.15C150.9,14.15 152.7,15.9 153.84,18.7L162.93,39.17L157.63,39.17L148.85,19.36C148.56,18.74 148.01,18.3 147.25,18.3C146.41,18.3 145.82,18.85 145.82,19.72L145.82,34.22C145.82,37.46 143.62,39.17 139.46,39.17C135.72,39.17 133.93,37.86 132.84,35.05L125.95,19.35C125.66,18.73 125.11,18.29 124.4,18.29C123.52,18.29 122.93,18.84 122.93,19.71L122.93,39.16Z" style="fill:rgb(9,31,63);fill-rule:nonzero;"/>
                        <path d="M118.74,14.38C118.08,14.22 117.33,14.14 116.5,14.14L115.5,14.14C111.26,14.14 109.2,16.29 109.2,19.49L109.2,39.16L114.15,39.16L114.15,19.71C114.15,18.84 114.74,18.29 115.62,18.29L116.37,18.29C116.45,18.29 116.52,18.29 116.59,18.31C116.83,16.68 117.57,15.34 118.74,14.38Z" style="fill:rgb(9,31,63);fill-rule:nonzero;"/>
                    </g>
                    <path d="M170.85,39.04C165.31,39.04 161.29,34.96 161.29,29.34C161.29,23.72 165.3,19.83 171.04,19.83C173.2,19.83 177.1,20.45 179.04,24.57C180.01,26.64 180.01,28.81 180.01,30.11L180.01,30.68L166.25,30.68C166.74,33.75 168.2,35.24 170.71,35.24C171.94,35.24 174.13,34.86 175.04,32.33L175.14,32.04L179.76,32.04L179.62,32.59C178.62,36.63 175.34,39.04 170.85,39.04ZM166.42,27.01L175.14,27.01C174.82,25.38 173.94,23.54 170.88,23.54C167.82,23.54 166.8,25.75 166.42,27.01Z" style="fill:rgb(9,31,63);fill-rule:nonzero;"/>
                </g>
                <g>
                    <path d="M70.91,53.83L69.17,53.83L67.89,47.5L67.71,46.2L67.53,47.5L66.25,53.83L64.51,53.83L61.65,44.4L63.54,44.4L65.19,50.75L65.39,51.9L65.52,50.72L66.78,44.39L68.62,44.39L69.88,50.72L70.01,51.9L70.2,50.75L71.86,44.4L73.75,44.4L70.89,53.83L70.91,53.83Z" style="fill:rgb(9,31,63);fill-rule:nonzero;"/>
                    <path d="M79.36,50.47L76.79,50.47L76.79,53.83L75.07,53.83L75.07,44.4L79.36,44.4C81.39,44.4 82.54,45.78 82.54,47.38C82.54,49.28 81.1,50.47 79.36,50.47ZM79.1,45.87L76.79,45.87L76.79,49L79.1,49C80.06,49 80.72,48.47 80.72,47.37C80.72,46.27 80,45.87 79.1,45.87Z" style="fill:rgb(9,31,63);fill-rule:nonzero;"/>
                    <rect x="83.64" y="44.4" width="1.72" height="9.43" style="fill:rgb(9,31,63);"/>
                    <path d="M93.81,53.58C92.59,53.58 91.62,53.18 90.93,52.38C90.23,51.58 89.88,50.47 89.88,49.04C89.88,47.61 90.23,46.51 90.93,45.7C91.63,44.89 92.59,44.49 93.81,44.49C95.03,44.49 96,44.89 96.7,45.7C97.4,46.51 97.75,47.62 97.75,49.04C97.75,50.46 97.4,51.57 96.7,52.37C96,53.17 95.04,53.58 93.81,53.58ZM93.81,45.42C92.92,45.42 92.22,45.74 91.73,46.37C91.23,47 90.99,47.89 90.99,49.04C90.99,50.19 91.24,51.08 91.73,51.71C92.23,52.34 92.92,52.66 93.81,52.66C94.7,52.66 95.39,52.34 95.89,51.71C96.39,51.08 96.63,50.19 96.63,49.04C96.63,47.89 96.38,46.99 95.89,46.36C95.39,45.73 94.7,45.42 93.81,45.42Z" style="fill:rgb(9,31,63);fill-rule:nonzero;"/>
                    <path d="M100.84,53.56C100.03,53.56 99.27,53.38 98.56,53.02L98.56,51.84L98.6,51.84C99.37,52.42 100.14,52.71 100.9,52.71C101.96,52.71 102.5,52.37 102.5,51.69C102.5,51.42 102.43,51.22 102.29,51.07C102.15,50.92 101.86,50.8 101.41,50.69C101.04,50.62 100.61,50.52 100.12,50.41C99.64,50.29 99.26,50.09 99,49.8C98.73,49.51 98.6,49.14 98.6,48.68C98.6,48.1 98.83,47.63 99.3,47.26C99.77,46.89 100.39,46.71 101.17,46.71C101.95,46.71 102.68,46.87 103.28,47.18L103.28,48.3L103.24,48.3C102.57,47.8 101.86,47.55 101.12,47.55C100.66,47.55 100.29,47.64 100.03,47.81C99.76,47.98 99.63,48.22 99.63,48.52C99.63,48.79 99.7,49 99.84,49.14C99.98,49.28 100.27,49.41 100.7,49.52L101.96,49.8C102.48,49.92 102.88,50.12 103.14,50.41C103.4,50.7 103.53,51.08 103.53,51.54C103.53,52.14 103.29,52.62 102.8,53C102.32,53.37 101.66,53.56 100.85,53.56L100.84,53.56Z" style="fill:rgb(9,31,63);fill-rule:nonzero;"/>
                    <path d="M108.76,53.4L108.76,52.67C108.22,53.06 107.78,53.31 107.43,53.42C107.08,53.53 106.73,53.58 106.37,53.58C105.79,53.58 105.31,53.39 104.93,53C104.55,52.61 104.36,52.12 104.36,51.53C104.36,50.77 104.64,50.2 105.21,49.81C105.78,49.43 106.96,49.2 108.76,49.12L108.76,48.92C108.76,48.46 108.63,48.13 108.36,47.91C108.09,47.69 107.62,47.58 106.95,47.58C106.36,47.58 105.7,47.73 104.98,48.04L104.93,48.04L104.93,46.98C105.64,46.78 106.33,46.68 106.99,46.68C107.95,46.68 108.65,46.86 109.09,47.22C109.53,47.58 109.76,48.14 109.76,48.9L109.76,53.37L108.76,53.37L108.76,53.4ZM108.76,51.84L108.76,49.94C107.34,50.01 106.42,50.16 106.02,50.42C105.62,50.68 105.41,51.02 105.41,51.46C105.41,52.24 105.88,52.63 106.82,52.63C107.46,52.63 108.11,52.36 108.77,51.83L108.76,51.84Z" style="fill:rgb(9,31,63);fill-rule:nonzero;"/>
                    <path d="M116.48,53.4L115.15,53.4L112.56,50.51L111.96,51.09L111.96,53.39L110.95,53.39L110.95,44.28L111.96,44.28L111.96,50.07L114.99,46.85L116.25,46.85L113.31,49.86L116.49,53.39L116.48,53.4Z" style="fill:rgb(9,31,63);fill-rule:nonzero;"/>
                    <path d="M121.08,53.4L121.08,52.67C120.54,53.06 120.1,53.31 119.75,53.42C119.4,53.53 119.05,53.58 118.69,53.58C118.11,53.58 117.63,53.39 117.25,53C116.87,52.61 116.68,52.12 116.68,51.53C116.68,50.77 116.96,50.2 117.53,49.81C118.1,49.43 119.28,49.2 121.08,49.12L121.08,48.92C121.08,48.46 120.95,48.13 120.68,47.91C120.41,47.69 119.94,47.58 119.27,47.58C118.68,47.58 118.02,47.73 117.3,48.04L117.25,48.04L117.25,46.98C117.96,46.78 118.65,46.68 119.31,46.68C120.27,46.68 120.97,46.86 121.41,47.22C121.85,47.58 122.08,48.14 122.08,48.9L122.08,53.37L121.08,53.37L121.08,53.4ZM121.08,51.84L121.08,49.94C119.66,50.01 118.74,50.16 118.34,50.42C117.94,50.68 117.73,51.02 117.73,51.46C117.73,52.24 118.2,52.63 119.14,52.63C119.78,52.63 120.43,52.36 121.09,51.83L121.08,51.84Z" style="fill:rgb(9,31,63);fill-rule:nonzero;"/>
                    <path d="M131.99,49.94C131.99,51.2 131.71,52.12 131.14,52.71C130.57,53.3 129.75,53.58 128.68,53.58C126.47,53.58 125.37,52.37 125.37,49.94L125.37,44.68L126.44,44.68L126.44,50.04C126.44,50.97 126.62,51.65 126.99,52.06C127.36,52.47 127.92,52.68 128.68,52.68C129.44,52.68 129.99,52.48 130.36,52.07C130.74,51.67 130.93,51 130.93,50.07L130.93,44.68L132,44.68L132,49.94L131.99,49.94Z" style="fill:rgb(9,31,63);fill-rule:nonzero;"/>
                    <path d="M138.57,53.4L137.56,53.4L137.56,49.74C137.56,48.89 137.45,48.33 137.23,48.05C137.01,47.77 136.64,47.64 136.14,47.64C135.54,47.64 134.91,47.92 134.23,48.48L134.23,53.4L133.22,53.4L133.22,46.86L134.23,46.86L134.23,47.65C134.99,47 135.74,46.68 136.48,46.68C137.15,46.68 137.66,46.89 138.03,47.31C138.39,47.73 138.57,48.34 138.57,49.14L138.57,53.4Z" style="fill:rgb(9,31,63);fill-rule:nonzero;"/>
                    <path d="M141.08,45.56L139.94,45.56L139.94,44.5L141.08,44.5L141.08,45.56ZM141.02,53.41L140.01,53.41L140.01,46.87L141.02,46.87L141.02,53.41Z" style="fill:rgb(9,31,63);fill-rule:nonzero;"/>
                    <path d="M148.46,46.87L145.71,53.41L144.93,53.41L142.19,46.87L143.28,46.87L145.36,51.97L147.41,46.87L148.46,46.87Z" style="fill:rgb(9,31,63);fill-rule:nonzero;"/>
                    <path d="M152.3,53.55C151.22,53.55 150.39,53.26 149.8,52.67C149.21,52.08 148.91,51.25 148.91,50.17C148.91,49.09 149.19,48.25 149.76,47.62C150.33,46.99 151.08,46.67 152.02,46.67C152.87,46.67 153.54,46.93 154.01,47.45C154.48,47.97 154.72,48.7 154.72,49.66L154.72,50.22L149.94,50.22C149.94,51.01 150.15,51.61 150.57,52.03C150.99,52.45 151.57,52.66 152.32,52.66C153.07,52.66 153.8,52.4 154.54,51.88L154.59,51.88L154.59,52.98C153.67,53.35 152.91,53.54 152.31,53.54L152.3,53.55ZM149.93,49.45L153.73,49.45C153.7,48.15 153.11,47.5 151.96,47.5C151.38,47.5 150.91,47.67 150.55,48.02C150.19,48.37 149.98,48.84 149.93,49.45Z" style="fill:rgb(9,31,63);fill-rule:nonzero;"/>
                    <path d="M155.67,53.4L155.67,46.86L156.68,46.86L156.68,47.87C157.49,47.2 158.23,46.86 158.92,46.86C159.16,46.86 159.4,46.88 159.65,46.92L159.65,47.99L159.61,47.99C159.29,47.91 158.97,47.87 158.65,47.87C158,47.87 157.35,48.15 156.69,48.7L156.69,53.4L155.67,53.4Z" style="fill:rgb(9,31,63);fill-rule:nonzero;"/>
                    <path d="M162.58,53.56C161.77,53.56 161.01,53.38 160.3,53.02L160.3,51.84L160.34,51.84C161.11,52.42 161.88,52.71 162.64,52.71C163.7,52.71 164.24,52.37 164.24,51.69C164.24,51.42 164.17,51.22 164.03,51.07C163.89,50.92 163.6,50.8 163.15,50.69C162.78,50.62 162.35,50.52 161.86,50.41C161.38,50.29 161,50.09 160.74,49.8C160.48,49.51 160.34,49.14 160.34,48.68C160.34,48.1 160.57,47.63 161.04,47.26C161.51,46.89 162.13,46.71 162.91,46.71C163.69,46.71 164.42,46.87 165.02,47.18L165.02,48.3L164.98,48.3C164.31,47.8 163.6,47.55 162.86,47.55C162.4,47.55 162.03,47.64 161.77,47.81C161.51,47.98 161.37,48.22 161.37,48.52C161.37,48.79 161.44,49 161.58,49.14C161.72,49.28 162.01,49.41 162.44,49.52L163.7,49.8C164.22,49.92 164.62,50.12 164.88,50.41C165.14,50.7 165.27,51.08 165.27,51.54C165.27,52.14 165.03,52.62 164.54,53C164.06,53.37 163.4,53.56 162.59,53.56L162.58,53.56Z" style="fill:rgb(9,31,63);fill-rule:nonzero;"/>
                    <path d="M167.44,45.56L166.3,45.56L166.3,44.5L167.44,44.5L167.44,45.56ZM167.38,53.41L166.37,53.41L166.37,46.87L167.38,46.87L167.38,53.41Z" style="fill:rgb(9,31,63);fill-rule:nonzero;"/>
                    <path d="M171.61,53.53C170.27,53.53 169.61,52.79 169.61,51.3L169.61,47.7L168.87,47.7L168.87,46.87L169.61,46.87L169.61,44.99L170.61,44.99L170.61,46.87L172.88,46.87L172.88,47.7L170.61,47.7L170.61,50.73C170.61,51.42 170.66,51.86 170.75,52.06C170.84,52.26 170.99,52.41 171.18,52.51C171.37,52.6 171.61,52.65 171.91,52.65C172.21,52.65 172.5,52.58 172.84,52.44L172.87,52.44L172.87,53.37C172.42,53.48 171.99,53.54 171.6,53.54L171.61,53.53Z" style="fill:rgb(9,31,63);fill-rule:nonzero;"/>
                    <path d="M179.95,46.87L176.16,55.82L175.08,55.82L176.28,53.12L173.68,46.86L174.77,46.86L176.83,51.84L178.9,46.86L179.95,46.86L179.95,46.87Z" style="fill:rgb(9,31,63);fill-rule:nonzero;"/>
                </g>
            </g>
        </g>
    </g>
</svg>
