<?xml version="1.0" encoding="utf-8"?>
<!-- Generator: Adobe Illustrator 21.1.0, SVG Export Plug-In . SVG Version: 6.00 Build 0)  -->
<svg version="1.1" id="Layer_1" xmlns="http://www.w3.org/2000/svg" xmlns:xlink="http://www.w3.org/1999/xlink" x="0px" y="0px"
	 viewBox="0 0 100 100" style="enable-background:new 0 0 100 100;" xml:space="preserve">
<style type="text/css">
	.st0{fill:#091F3F;}
</style>
<g>
	<path class="st0" d="M69.7,0H30.3C13.6,0,0,13.6,0,30.3v39.5C0,86.4,13.6,100,30.3,100h39.5c16.7,0,30.3-13.6,30.3-30.3V30.3
		C100,13.6,86.4,0,69.7,0z M92.4,69.7c0,12.5-10.1,22.6-22.6,22.6H30.3c-12.5,0-22.6-10.1-22.6-22.6V30.3
		c0-12.5,10.1-22.6,22.6-22.6h39.5c12.5,0,22.6,10.1,22.6,22.6V69.7z"/>
	<path class="st0" d="M50,25c-13.8,0-25,11.2-25,25c0,13.8,11.2,25,25,25c13.8,0,25-11.2,25-25C75,36.2,63.8,25,50,25z M50,67.3
		c-9.6,0-17.3-7.8-17.3-17.3c0-9.6,7.8-17.3,17.3-17.3S67.3,40.4,67.3,50C67.3,59.6,59.6,67.3,50,67.3z"/>
	<circle class="st0" cx="76.7" cy="23.3" r="6"/>
</g>
</svg>
