<?xml version="1.0" encoding="UTF-8" standalone="no"?>
<!DOCTYPE svg PUBLIC "-//W3C//DTD SVG 1.1//EN" "http://www.w3.org/Graphics/SVG/1.1/DTD/svg11.dtd">
<svg width="100%" height="100%" viewBox="0 0 1252 1594" version="1.1" xmlns="http://www.w3.org/2000/svg" xmlns:xlink="http://www.w3.org/1999/xlink" xml:space="preserve" xmlns:serif="http://www.serif.com/" style="fill-rule:evenodd;clip-rule:evenodd;">
    <g>
        <path d="M649.79,1116.53C649.79,1090.02 627.973,1068.2 601.46,1068.2C574.947,1068.2 553.13,1090.02 553.13,1116.53C553.13,1143.04 574.947,1164.86 601.46,1164.86C627.973,1164.86 649.79,1143.04 649.79,1116.53" style="fill:none;fill-rule:nonzero;stroke:white;stroke-width:2px;"/>
        <path d="M606.4,1226.4C606.637,1226.42 606.849,1226.24 606.88,1226C608.807,1212.77 614.74,1201.77 624.68,1193C624.783,1192.9 624.841,1192.77 624.841,1192.63C624.841,1192.39 624.667,1192.18 624.43,1192.14C611.123,1189.92 597.74,1189.69 584.28,1191.46C563.88,1194.14 548.65,1204.22 543.92,1224.83C542.72,1230.05 542.5,1236.22 542.5,1241.62L542.5,1406.22C542.5,1406.51 542.739,1406.75 543.03,1406.75L584.95,1406.75C585.283,1406.75 585.45,1406.58 585.45,1406.25C585.877,1330.58 585.96,1278.16 585.7,1249C585.65,1242.98 584.8,1236 587.63,1231.37C591.04,1225.79 600.54,1225.98 606.4,1226.4" style="fill:rgb(9,31,63);fill-rule:nonzero;stroke:white;stroke-width:2px;"/>
        <path d="M816.24,1361.55C816.23,1371.55 807.27,1376.08 798.8,1373.25C793.62,1371.52 791.09,1367.91 788.95,1363.02C770.077,1320 751.247,1276.96 732.46,1233.91C729.9,1228.03 727.483,1222.91 725.21,1218.56C712.28,1193.75 685.8,1187.54 660.03,1191.29C635.26,1194.89 618.57,1209.59 618.54,1236.51C618.48,1293.08 618.473,1349.66 618.52,1406.25C618.52,1406.58 618.687,1406.75 619.02,1406.75L660.99,1406.75C661.33,1406.75 661.5,1406.58 661.5,1406.24C661.5,1351.49 661.503,1296.73 661.51,1241.98C661.51,1235.77 661.97,1230.76 667.45,1227.94C673.93,1224.61 682.06,1226.99 686.14,1233.09C686.6,1233.78 687.98,1236.75 690.28,1241.98C708.387,1283.21 726.507,1324.44 744.64,1365.65C748.96,1375.48 751.813,1381.5 753.2,1383.71C767.44,1406.43 796.8,1409.36 821.31,1405.27C844.51,1401.39 859.03,1388.67 859.21,1363.75C859.49,1323 859.583,1282.24 859.49,1241.49C859.48,1234.89 860.46,1229.3 866.94,1227.21C876.85,1224 883.05,1230.2 886.73,1238.51C911.51,1294.45 936.31,1350.39 961.13,1406.33C961.257,1406.61 961.473,1406.75 961.78,1406.75L1006.74,1406.75C1006.91,1406.75 1007.05,1406.61 1007.05,1406.44C1007.05,1406.39 1007.04,1406.35 1007.02,1406.31C981.86,1349.39 956.673,1292.49 931.46,1235.62C928.913,1229.88 926.48,1224.78 924.16,1220.31C915.14,1202.92 900.767,1193.11 881.04,1190.89C847.46,1187.11 816.23,1199.48 816.24,1238.5C816.26,1279.52 816.26,1320.54 816.24,1361.55" style="fill:rgb(9,31,63);fill-rule:nonzero;stroke:white;stroke-width:2px;"/>
        <path d="M256.19,1234.81C278.13,1244.28 276.79,1277.56 254.91,1285.67C249.217,1287.78 243.997,1288.82 239.25,1288.79C213.957,1288.59 188.667,1288.7 163.38,1289.11C160.7,1289.16 157.71,1289.99 155.01,1290.46C138.76,1293.34 132.13,1305.82 132,1321.26C131.753,1349.55 131.777,1377.89 132.07,1406.27C132.075,1406.54 132.295,1406.75 132.56,1406.75L174.24,1406.75C174.593,1406.75 174.77,1406.57 174.77,1406.22C174.68,1383.74 175.42,1361.04 174.67,1338.6C174.51,1333.66 174.673,1330.19 175.16,1328.18C176.02,1324.62 179.93,1324.53 183.25,1324.54C197.663,1324.6 212.077,1324.58 226.49,1324.49C237.463,1324.42 244.127,1324.3 246.48,1324.12C280.6,1321.58 309.7,1303.32 314.73,1267.43C321.22,1221.14 284.85,1194.88 242.74,1194.2C222.66,1193.87 185.723,1193.84 131.93,1194.1C131.643,1194.11 131.5,1194.25 131.5,1194.54L131.5,1230.72C131.5,1231.02 131.65,1231.17 131.95,1231.18C166.797,1231.52 201.623,1231.5 236.43,1231.13C243.737,1231.05 250.323,1232.28 256.19,1234.81" style="fill:rgb(9,31,63);fill-rule:nonzero;stroke:white;stroke-width:2px;"/>
        <path d="M455.34,1322.38C455.256,1322.26 455.211,1322.11 455.211,1321.96C455.211,1321.61 455.452,1321.31 455.79,1321.23C487.75,1313.87 508.96,1286.03 506.55,1253.23C503.65,1213.8 470.18,1194.64 433.74,1194.17C410.313,1193.87 373.303,1193.85 322.71,1194.11C322.403,1194.11 322.25,1194.26 322.25,1194.56L322.25,1230.7C322.25,1230.99 322.393,1231.14 322.68,1231.14C357.267,1231.5 391.853,1231.56 426.44,1231.31C443.58,1231.19 461.49,1237 463.08,1256.59C464.84,1278.25 448.14,1289.07 428,1288.84C395.24,1288.46 370.077,1288.59 352.51,1289.23C346.923,1289.44 341.39,1291.09 335.91,1294.18C325.5,1300.07 322.58,1311.71 322.57,1323.01C322.53,1350.76 322.627,1378.54 322.86,1406.33C322.86,1406.61 323.003,1406.75 323.29,1406.75L365.23,1406.75C365.521,1406.75 365.76,1406.51 365.76,1406.22C365.573,1381.51 365.597,1356.7 365.83,1331.81C365.89,1325.59 367.43,1324.55 373.74,1324.58C385.013,1324.63 396.28,1324.6 407.54,1324.5C407.933,1324.5 408.24,1324.66 408.46,1324.98L463.86,1406.34C464.047,1406.61 464.303,1406.75 464.63,1406.75L511.248,1406.75C511.418,1406.75 511.558,1406.61 511.558,1406.44C511.558,1406.38 511.538,1406.31 511.5,1406.26L455.34,1322.38" style="fill:rgb(9,31,63);fill-rule:nonzero;stroke:white;stroke-width:2px;"/>
        <path d="M1036.79,1333.5L1154.25,1333.5C1154.56,1333.5 1154.72,1333.35 1154.74,1333.04C1155.57,1318.7 1154.4,1305.53 1151.24,1293.53C1139.97,1250.76 1099.27,1233.47 1058.24,1241.47C1011.42,1250.6 985.75,1293.42 994.71,1339.23C1003.74,1385.36 1042.54,1409.92 1087.83,1404.85C1121.2,1401.12 1146.45,1378.96 1152.54,1345.56C1152.54,1345.55 1152.54,1345.54 1152.55,1345.53C1152.56,1345.37 1152.43,1345.22 1152.27,1345.2L1152.24,1345.2L1113.37,1345.26C1112.98,1345.26 1112.72,1345.44 1112.57,1345.8C1110.66,1350.57 1109.22,1353.72 1108.24,1355.25C1099.15,1369.51 1083.44,1374.6 1067.19,1372.03C1047.91,1368.97 1038.63,1352.34 1036.46,1333.87C1036.43,1333.62 1036.54,1333.5 1036.79,1333.5" style="fill:none;fill-rule:nonzero;stroke:white;stroke-width:2px;"/>
        <path d="M592.91,1473.25C592.815,1473.25 592.725,1473.29 592.66,1473.36L567.12,1500.45C567.054,1500.52 566.964,1500.56 566.87,1500.56C566.68,1500.56 566.523,1500.4 566.52,1500.21L566.49,1451.63C566.49,1451.44 566.332,1451.28 566.14,1451.28L558.1,1451.19C557.908,1451.19 557.75,1451.35 557.75,1451.54L557.75,1529.65C557.75,1529.84 557.908,1530 558.1,1530L566.15,1530C566.342,1530 566.5,1529.84 566.5,1529.65L566.5,1510.26C566.501,1510.17 566.537,1510.08 566.6,1510.02L571.42,1505.2C571.485,1505.14 571.574,1505.1 571.666,1505.1C571.767,1505.1 571.864,1505.14 571.93,1505.22L594.03,1529.92C594.098,1530 594.197,1530.04 594.3,1530.04L604.92,1529.92C605.11,1529.92 605.265,1529.76 605.265,1529.57C605.265,1529.48 605.231,1529.39 605.17,1529.33L578.44,1499.66C578.323,1499.53 578.327,1499.32 578.45,1499.19L603.23,1473.84C603.291,1473.78 603.325,1473.69 603.325,1473.6C603.325,1473.41 603.17,1473.25 602.98,1473.25L592.91,1473.25" style="fill:none;fill-rule:nonzero;stroke:white;stroke-width:2px;"/>
        <path d="M183.94,1468.8C187.13,1490.33 192,1511.75 196.35,1533.11C196.43,1533.49 196.663,1533.68 197.05,1533.68L210.92,1533.78C211.25,1533.78 211.543,1533.57 211.64,1533.25L236.05,1452.76C236.067,1452.7 236.075,1452.65 236.075,1452.59C236.075,1452.27 235.812,1452 235.49,1452L220.32,1452C220.033,1452 219.857,1452.14 219.79,1452.41C214.24,1473.46 207.98,1494.58 204.01,1515.97C203.93,1516.38 203.863,1516.38 203.81,1515.96C201.09,1494.73 196.19,1473.61 191.96,1452.6C191.889,1452.25 191.586,1452 191.24,1452L176.53,1452C176.157,1452 175.933,1452.18 175.86,1452.55C170.26,1479.91 165.42,1499.53 164.12,1515.22C164.112,1515.26 164.074,1515.29 164.032,1515.29C163.997,1515.29 163.965,1515.27 163.95,1515.24C158.957,1494.23 153.63,1473.35 147.97,1452.58C147.876,1452.24 147.564,1452 147.21,1452L132.16,1452C131.7,1452 131.537,1452.22 131.67,1452.65L156.03,1532.82C156.203,1533.39 156.731,1533.78 157.32,1533.77L170.72,1533.7C171.093,1533.69 171.317,1533.51 171.39,1533.15C175.73,1511.78 180.72,1490.36 183.82,1468.8C183.86,1468.54 183.9,1468.54 183.94,1468.8" style="fill:none;fill-rule:nonzero;stroke:white;stroke-width:2px;"/>
        <path d="M263.02,1504.5C272.02,1504.51 284.22,1505.67 292.43,1503.52C316.85,1497.13 319.18,1462.25 295.41,1453.9C290.47,1452.16 284.7,1452.05 279.25,1452.03C268.75,1452 258.337,1451.99 248.01,1452.01C247.73,1452.01 247.5,1452.24 247.5,1452.52L247.5,1533.12C247.5,1533.54 247.707,1533.75 248.12,1533.75L261.87,1533.75C262.29,1533.75 262.5,1533.54 262.5,1533.13L262.5,1505.01C262.5,1504.67 262.673,1504.5 263.02,1504.5" style="fill:none;fill-rule:nonzero;stroke:white;stroke-width:2px;"/>
        <path d="M336.5,1452.52C336.5,1452.24 336.27,1452.01 335.99,1452.01L322.01,1452.01C321.73,1452.01 321.5,1452.24 321.5,1452.52L321.5,1533.24C321.5,1533.52 321.73,1533.75 322.01,1533.75L335.99,1533.75C336.27,1533.75 336.5,1533.52 336.5,1533.24L336.5,1452.52" style="fill:rgb(9,31,63);fill-rule:nonzero;stroke:white;stroke-width:2px;"/>
        <path d="M818.515,1453.26C818.515,1453.11 818.398,1453 818.256,1453L808.776,1452.96L808.775,1452.96C808.633,1452.96 808.515,1453.08 808.515,1453.22L808.485,1461.72C808.485,1461.87 808.602,1461.98 808.744,1461.98L818.224,1462.02L818.225,1462.02C818.367,1462.02 818.485,1461.9 818.485,1461.76L818.515,1453.26" style="fill:rgb(9,31,63);fill-rule:nonzero;stroke:white;stroke-width:2px;"/>
        <path d="M1046.22,1453.3C1046.22,1453.13 1046.09,1453 1045.92,1453L1036.8,1453C1036.63,1453 1036.5,1453.13 1036.5,1453.3L1036.5,1461.7C1036.5,1461.87 1036.63,1462 1036.8,1462L1046.03,1462C1046.19,1462 1046.33,1461.87 1046.33,1461.7L1046.22,1453.3" style="fill:rgb(9,31,63);fill-rule:nonzero;stroke:white;stroke-width:2px;"/>
        <path d="M377.67,1507.8C380.72,1519.15 389.55,1528.28 401.25,1530.55C435.78,1537.24 449.14,1505.41 441.56,1477.2C438.82,1467 433.027,1459.93 424.18,1455.99C415.84,1452.28 403.95,1452.04 395.54,1455.55C375.85,1463.76 372.75,1489.5 377.67,1507.8" style="fill:none;fill-rule:nonzero;stroke:white;stroke-width:2px;"/>
        <path d="M682.68,1501.68C682.84,1516.03 688.64,1528.29 704.01,1530.76C725.84,1534.27 739.87,1523.49 739.83,1500.99C739.81,1485.66 739.77,1470.33 739.71,1454.98C739.71,1454.66 739.55,1454.5 739.23,1454.5L731.03,1454.49C730.69,1454.49 730.52,1454.66 730.52,1455C730.473,1469.75 730.47,1484.5 730.51,1499.25C730.55,1511.93 727.88,1522.1 713.36,1523.4C696.26,1524.93 691.74,1513.7 691.75,1499C691.757,1484.35 691.757,1469.68 691.75,1455.01C691.75,1454.67 691.58,1454.5 691.24,1454.5L683.03,1454.49C682.69,1454.49 682.517,1454.66 682.51,1455.01C682.443,1470.57 682.5,1486.13 682.68,1501.68" style="fill:rgb(9,31,63);fill-rule:nonzero;stroke:white;stroke-width:2px;"/>
        <path d="M1073.75,1472.74L1073.75,1457.8C1073.75,1457.49 1073.6,1457.33 1073.29,1457.32L1065.71,1457.06C1065.37,1457.05 1065.2,1457.21 1065.21,1457.54L1065.27,1472.74C1065.27,1473.08 1065.1,1473.25 1064.76,1473.25L1059.25,1473.25C1058.92,1473.25 1058.75,1473.42 1058.75,1473.75L1058.75,1480.02C1058.75,1480.41 1058.95,1480.6 1059.34,1480.59L1064.39,1480.46C1064.78,1480.45 1064.98,1480.65 1064.99,1481.04C1065.14,1492.37 1065.25,1503.68 1065.3,1514.98C1065.38,1531.14 1081.03,1532.67 1093.02,1529.56C1093.34,1529.48 1093.5,1529.27 1093.5,1528.94L1093.5,1521.99C1093.5,1521.7 1093.27,1521.47 1092.98,1521.47C1092.91,1521.47 1092.84,1521.48 1092.78,1521.51C1088.72,1523.25 1084.95,1523.75 1081.48,1523.01C1074.32,1521.47 1074.16,1515.67 1073.94,1508.81C1073.65,1499.63 1073.61,1490.4 1073.84,1481.13C1073.85,1480.71 1074.07,1480.5 1074.49,1480.5L1093,1480.5C1093.33,1480.5 1093.5,1480.33 1093.5,1480L1093.5,1473.88C1093.5,1473.5 1093.31,1473.31 1092.94,1473.31L1074.24,1473.22C1073.91,1473.22 1073.75,1473.06 1073.75,1472.74" style="fill:rgb(9,31,63);fill-rule:nonzero;stroke:white;stroke-width:2px;"/>
        <path d="M454.94,1499.06C462.47,1505.53 472.86,1505.28 481.82,1508.93C482.133,1509.05 482.404,1509.27 482.6,1509.55C486.2,1514.76 484.75,1520.9 478.53,1522.71C468.64,1525.58 459.43,1522.36 451.29,1516.47C450.93,1516.21 450.75,1516.3 450.75,1516.75L450.75,1526.2C450.75,1526.49 450.88,1526.7 451.14,1526.83C459.66,1530.9 468.6,1532.05 477.96,1530.3C486.91,1528.62 494.24,1522.27 493.4,1512.61C492.56,1503.05 485.46,1499.73 476.81,1498.12C472.74,1497.36 463.9,1495.79 461.31,1492.33C457.67,1487.46 461.51,1481.13 466.95,1480.14C475.683,1478.53 483.553,1480.4 490.56,1485.73C490.662,1485.81 490.789,1485.86 490.92,1485.86C491.238,1485.86 491.5,1485.59 491.5,1485.28L491.5,1476.56C491.5,1476.27 491.37,1476.07 491.11,1475.96C479.87,1470.77 456.93,1468.71 451.77,1484.23C450.25,1488.78 450.98,1495.66 454.94,1499.06" style="fill:none;fill-rule:nonzero;stroke:white;stroke-width:2px;"/>
        <path d="M759.25,1479.26L759.25,1474C759.25,1473.5 759,1473.25 758.5,1473.25L751.12,1473.25C750.707,1473.25 750.5,1473.46 750.5,1473.87L750.5,1529.21C750.5,1529.73 750.76,1529.99 751.28,1529.99L758.62,1530C759.04,1530 759.25,1529.79 759.25,1529.38L759.25,1488.27C759.25,1487.98 759.357,1487.72 759.57,1487.51C764.79,1482.4 770.76,1479.97 777.48,1480.22C784.63,1480.49 786.73,1485.6 787.42,1492.16C788.69,1504.36 787.99,1517.19 788.01,1529.49C788.01,1529.83 788.177,1530 788.51,1530L796.24,1530C796.525,1530 796.76,1529.77 796.76,1529.48C796.787,1517.11 796.72,1504.72 796.56,1492.32C796.39,1479.16 789.6,1470.45 775.73,1472.11C769.46,1472.86 764.84,1475.92 759.88,1479.58C759.46,1479.89 759.25,1479.79 759.25,1479.26" style="fill:rgb(9,31,63);fill-rule:nonzero;stroke:white;stroke-width:2px;"/>
        <path d="M934.13,1516.97C919.92,1527.76 894.73,1526.08 895.17,1503.06C895.175,1502.75 895.436,1502.5 895.75,1502.5L935.72,1502.5C935.993,1502.5 936.14,1502.36 936.16,1502.09C937.23,1486.3 932.01,1472.88 914.09,1471.91C893.51,1470.8 884.59,1488.68 886.45,1506.79C888.48,1526.6 905.66,1534.05 923.45,1530.18C925.183,1529.8 928.993,1528.56 934.88,1526.45C935.127,1526.36 935.25,1526.18 935.25,1525.92L935.25,1517.52C935.251,1517.44 935.239,1517.37 935.214,1517.29C935.093,1516.93 934.694,1516.74 934.33,1516.86C934.258,1516.89 934.19,1516.92 934.13,1516.97" style="fill:none;fill-rule:nonzero;stroke:white;stroke-width:2px;"/>
        <path d="M538.75,1524.27L538.75,1529.37C538.75,1529.79 538.96,1530 539.38,1530L546.91,1530C547.263,1530 547.44,1529.83 547.44,1529.48C547.587,1508.71 547.577,1495.28 547.41,1489.19C546.84,1468.25 519.28,1471.03 506.32,1474.52C505.94,1474.62 505.75,1474.87 505.75,1475.26L505.75,1483.46C505.75,1483.49 505.753,1483.52 505.76,1483.56C505.812,1483.79 506.048,1483.93 506.283,1483.88C506.313,1483.87 506.342,1483.86 506.37,1483.85C516.07,1479.42 538.29,1474.77 538.74,1491.75C538.767,1492.69 538.307,1493.16 537.36,1493.17C528.12,1493.24 513.32,1494.65 506.69,1500.22C497.27,1508.16 499.58,1525.57 511.38,1530.1C520.18,1533.48 530.82,1529.96 538.07,1523.95C538.144,1523.89 538.236,1523.86 538.33,1523.86C538.557,1523.86 538.745,1524.04 538.75,1524.27" style="fill:none;fill-rule:nonzero;stroke:white;stroke-width:2px;"/>
        <path d="M645.4,1524.31L645.46,1529.45C645.467,1529.76 645.627,1529.92 645.94,1529.92L653.41,1530.03C653.797,1530.04 653.99,1529.85 653.99,1529.46C654.017,1518.27 654.01,1507.07 653.97,1495.87C653.95,1489.24 653.47,1484.76 652.53,1482.43C647.11,1468.95 624.02,1471.36 612.73,1474.67C612.41,1474.76 612.25,1474.97 612.25,1475.3L612.25,1483.24C612.25,1483.69 612.467,1483.85 612.9,1483.71C621.66,1480.85 628.23,1478.95 637.25,1480.54C643.57,1481.66 645.29,1486.97 645.38,1492.59L645.38,1492.6C645.38,1492.85 645.174,1493.07 644.92,1493.07C636.04,1493.32 622.58,1494.16 615.03,1498.78C605.24,1504.77 605.16,1520.44 613.47,1527.34C623.43,1535.61 635.51,1530.2 644.86,1524.03C645.213,1523.8 645.393,1523.89 645.4,1524.31" style="fill:none;fill-rule:nonzero;stroke:white;stroke-width:2px;"/>
        <path d="M1013.02,1507.75C1019.09,1509.56 1019.93,1516.29 1016.19,1520.72C1015.02,1522.11 1011.12,1523.28 1009.41,1523.48C1000.5,1524.51 992.52,1522.18 985.48,1516.51C985.373,1516.42 985.238,1516.37 985.1,1516.37C984.771,1516.37 984.5,1516.64 984.5,1516.97L984.5,1526C984.5,1526.35 984.657,1526.6 984.97,1526.75C993.357,1530.84 1002.19,1532.05 1011.48,1530.39C1021.2,1528.65 1029,1521.5 1027.14,1511.09C1023.82,1492.61 993.46,1501.61 993.9,1488.03C994.047,1483.58 996.447,1480.93 1001.1,1480.1C1009.81,1478.55 1017.63,1480.46 1024.56,1485.81C1024.63,1485.87 1024.73,1485.9 1024.82,1485.9C1025.06,1485.9 1025.25,1485.7 1025.25,1485.47L1025.25,1476.53C1025.25,1476.22 1025.11,1476 1024.83,1475.87C1017.65,1472.62 1010.1,1471.45 1002.17,1472.36C992.36,1473.5 983.89,1480.4 985.1,1490.98C986.65,1504.53 1003.12,1504.79 1013.02,1507.75" style="fill:rgb(9,31,63);fill-rule:nonzero;stroke:white;stroke-width:2px;"/>
        <path d="M817.76,1473.53C817.76,1473.39 817.643,1473.27 817.5,1473.27L809.5,1473.27C809.357,1473.27 809.24,1473.39 809.24,1473.53L809.24,1529.73C809.24,1529.87 809.357,1529.99 809.5,1529.99L817.5,1529.99C817.643,1529.99 817.76,1529.87 817.76,1529.73L817.76,1473.53" style="fill:rgb(9,31,63);fill-rule:nonzero;stroke:white;stroke-width:2px;"/>
        <path d="M855.65,1516.65C855.604,1516.78 855.483,1516.86 855.35,1516.86C855.217,1516.86 855.096,1516.78 855.05,1516.65L837.46,1473.45C837.411,1473.33 837.291,1473.25 837.16,1473.25L828.32,1473.25C828.147,1473.25 828.007,1473.4 828.007,1473.57C828.007,1473.61 828.015,1473.65 828.03,1473.69L851.51,1529.8C851.558,1529.92 851.672,1530 851.8,1530L858.15,1530C858.278,1530 858.392,1529.92 858.44,1529.8L882.04,1473.69C882.055,1473.65 882.063,1473.61 882.063,1473.57C882.063,1473.4 881.923,1473.25 881.75,1473.25L873.32,1473.25C873.189,1473.25 873.069,1473.33 873.02,1473.45L855.65,1516.65" style="fill:rgb(9,31,63);fill-rule:nonzero;stroke:white;stroke-width:2px;"/>
        <path d="M954.32,1488.44C961.407,1482.79 969.467,1481.01 978.5,1483.09C978.53,1483.1 978.56,1483.1 978.59,1483.1C978.815,1483.1 979,1482.91 979,1482.69L979,1474.53C979,1474.14 978.807,1473.92 978.42,1473.85C968.12,1472.16 961.91,1475.87 953.92,1481.53C953.567,1481.78 953.383,1481.69 953.37,1481.26L953.21,1473.72C953.203,1473.41 953.04,1473.25 952.72,1473.25L945,1473.25C944.726,1473.25 944.5,1473.48 944.5,1473.75L944.5,1529.39C944.5,1529.78 944.693,1529.97 945.08,1529.97L952.69,1530.01C953.09,1530.02 953.29,1529.82 953.29,1529.41C953.237,1516.91 953.23,1504.44 953.27,1492.01C953.27,1490.37 952.9,1489.58 954.32,1488.44" style="fill:rgb(9,31,63);fill-rule:nonzero;stroke:white;stroke-width:2px;"/>
        <path d="M1045.75,1473.77C1045.75,1473.49 1045.52,1473.25 1045.23,1473.25L1037.51,1473.25C1037.22,1473.25 1036.99,1473.49 1036.99,1473.77L1036.99,1529.49C1036.99,1529.78 1037.22,1530.01 1037.51,1530.01L1045.23,1530.01C1045.52,1530.01 1045.75,1529.78 1045.75,1529.49L1045.75,1473.77" style="fill:rgb(9,31,63);fill-rule:nonzero;stroke:white;stroke-width:2px;"/>
        <path d="M1127.9,1515.53C1127.85,1515.65 1127.72,1515.73 1127.59,1515.73C1127.46,1515.73 1127.34,1515.65 1127.28,1515.53L1109.83,1473.44C1109.78,1473.31 1109.65,1473.23 1109.51,1473.23L1100.8,1473.3L1100.79,1473.3C1100.61,1473.3 1100.45,1473.45 1100.45,1473.64C1100.45,1473.68 1100.46,1473.73 1100.48,1473.77L1122.73,1527.4C1122.77,1527.49 1122.77,1527.58 1122.73,1527.67L1112.62,1550.27C1112.6,1550.31 1112.59,1550.36 1112.59,1550.41C1112.59,1550.6 1112.74,1550.75 1112.93,1550.75L1121.57,1550.75C1121.71,1550.75 1121.84,1550.67 1121.89,1550.54L1154.48,1473.72C1154.5,1473.68 1154.51,1473.63 1154.51,1473.59C1154.51,1473.4 1154.36,1473.25 1154.17,1473.25L1145.72,1473.25C1145.58,1473.25 1145.45,1473.33 1145.4,1473.46L1127.9,1515.53" style="fill:rgb(9,31,63);fill-rule:nonzero;stroke:white;stroke-width:2px;"/>
        <path d="M401.3,314.57C406.18,314.783 410.867,315.837 415.36,317.73C415.7,317.87 415.99,317.803 416.23,317.53C423.65,309.05 431.36,299.74 438.54,292.13C484.04,243.85 538.54,205.07 598.61,176.95C598.917,176.81 599.04,176.573 598.98,176.24C594.56,150.8 616.56,131.29 641.24,139.36C641.573,139.467 641.837,139.377 642.03,139.09C654.203,121.55 667.603,105 682.23,89.44C682.503,89.14 682.44,88.973 682.04,88.94C596.6,81.453 515.333,95.96 438.24,132.46C437.927,132.607 437.697,132.84 437.55,133.16C411.94,190.36 399.42,251.41 400.82,314.08C400.825,314.343 401.037,314.56 401.3,314.57" style="fill:rgb(9,31,63);fill-rule:nonzero;stroke:white;stroke-width:2px;"/>
        <path d="M694.05,95.62C679.103,111.253 665.45,127.957 653.09,145.73C652.917,145.983 652.923,146.23 653.11,146.47L658.12,152.82C658.299,153.047 658.599,153.139 658.87,153.05C703.363,138.517 748.99,129.92 795.75,127.26C800.923,126.96 810.973,126.687 825.9,126.44C826.333,126.433 826.353,126.343 825.96,126.17C785.34,108.45 743.047,96.693 699.08,90.9C698.78,90.86 698.52,90.937 698.3,91.13C696.7,92.5 695.11,94.51 694.05,95.62" style="fill:rgb(9,31,63);fill-rule:nonzero;stroke:white;stroke-width:2px;"/>
        <path d="M582.96,351.37C586.507,352.23 589.84,353.607 592.96,355.5C593.233,355.668 593.583,355.639 593.82,355.43C638.17,317 690.87,290.79 747.7,276.58C748.013,276.5 748.197,276.297 748.25,275.97C751.5,254.68 771.06,243.41 790.74,252.1C791.06,252.24 791.337,252.18 791.57,251.92C822.59,218.22 857.68,190.07 896.16,165.33C896.473,165.123 896.477,164.917 896.17,164.71C883.383,156.15 870.193,148.303 856.6,141.17C855.18,140.423 853.66,140.02 852.04,139.96C831.52,139.167 814.193,139.123 800.06,139.83C753.06,142.177 707.233,150.68 662.58,165.34C662.388,165.403 662.264,165.594 662.28,165.8C662.92,172.84 661.59,179.64 657.74,185.73C649.807,198.29 637.857,203.16 621.89,200.34C621.583,200.287 621.363,200.4 621.23,200.68C598.403,248.24 585.613,298.427 582.86,351.24C582.854,351.303 582.898,351.36 582.96,351.37" style="fill:rgb(9,31,63);fill-rule:nonzero;stroke:white;stroke-width:2px;"/>
        <path d="M419.3,142.27C312.92,199.46 233.33,295.76 196.38,410.69C196.278,411.015 196.314,411.37 196.48,411.67C225.96,465.257 261.157,514.77 302.07,560.21C302.191,560.347 302.395,560.373 302.54,560.27C308.36,556.277 314.76,553.69 321.74,552.51C322.312,552.417 322.746,551.933 322.78,551.35C326.14,491.14 344.15,432.39 373.8,380.09C374.127,379.51 374.073,378.967 373.64,378.46C355.46,357.34 360.87,327.45 387.37,316.86C387.69,316.727 387.87,316.487 387.91,316.14C388.24,312.84 387.77,308.56 387.76,306.3C387.62,249.2 398.91,195.39 419.65,142.58C419.81,142.16 419.693,142.057 419.3,142.27" style="fill:rgb(9,31,63);fill-rule:nonzero;stroke:white;stroke-width:2px;"/>
        <path d="M805.06,266.13C847.5,261.68 887.08,261.58 929.06,268.09C929.375,268.139 929.687,267.981 929.83,267.7C938,251.5 957.24,247.25 971.8,257.82C972.099,258.035 972.502,258.039 972.8,257.83L988.55,246.85C988.917,246.597 988.953,246.303 988.66,245.97C964.753,218.703 938.073,194.5 908.62,173.36C908.333,173.153 908.037,173.143 907.73,173.33C868.317,197.35 832.897,226.26 801.47,260.06C801.23,260.32 801.2,260.6 801.38,260.9L804.36,265.79C804.52,266.05 804.753,266.163 805.06,266.13" style="fill:rgb(9,31,63);fill-rule:nonzero;stroke:white;stroke-width:2px;"/>
        <path d="M570.13,350.68C572.73,296.44 586.45,243.68 609.8,194.72C609.907,194.5 609.873,194.3 609.7,194.12L604.63,188.8C604.445,188.605 604.155,188.548 603.91,188.66C535.68,220.45 474.57,266.56 427.05,324.87C426.843,325.123 426.853,325.37 427.08,325.61C447.44,347.17 437.55,379.18 409.89,387.98C409.603,388.073 409.493,388.263 409.56,388.55C421.213,441.63 442.203,490.673 472.53,535.68C472.737,535.98 473.007,536.06 473.34,535.92C477.593,534.153 482.03,533.257 486.65,533.23C486.977,533.23 487.183,533.07 487.27,532.75C499.93,484.4 520.61,440.24 551.12,400.64C551.34,400.353 551.347,400.067 551.14,399.78C538.7,382.24 546.43,359.79 566.15,352.34C567.06,351.99 568.46,351.77 569.58,351.41C569.927,351.29 570.11,351.047 570.13,350.68" style="fill:rgb(9,31,63);fill-rule:nonzero;stroke:white;stroke-width:2px;"/>
        <path d="M983.12,280.49C989.313,282.563 995.44,284.653 1001.5,286.76C1009.61,289.57 1018.46,293.48 1027,296.73C1027.37,296.87 1027.44,296.777 1027.23,296.45C1018.07,282.73 1008.31,269.453 997.94,256.62C997.72,256.353 997.47,256.317 997.19,256.51L980.7,267.88C980.427,268.073 980.35,268.327 980.47,268.64C981.89,272.293 982.65,276.077 982.75,279.99C982.755,280.218 982.904,280.418 983.12,280.49" style="fill:rgb(9,31,63);fill-rule:nonzero;stroke:white;stroke-width:2px;"/>
        <path d="M718.25,441.58C721.23,442.513 724.003,443.863 726.57,445.63C726.903,445.857 727.237,445.857 727.57,445.63C759.637,423.457 794.33,406.687 831.65,395.32C831.977,395.22 832.15,395 832.17,394.66C833.12,378.28 846.5,369.18 862.21,371.68C862.55,371.733 862.81,371.617 862.99,371.33C881.66,342.38 904.35,316.09 929.83,292.9C930.11,292.64 930.163,292.343 929.99,292.01C928.27,288.623 927.33,285.04 927.17,281.26C927.15,280.927 926.98,280.737 926.66,280.69C886.8,274.39 848.04,274.42 807.84,278.78C807.527,278.813 807.353,278.987 807.32,279.3C805.01,300.42 786.79,312.68 766.77,305.55C766.45,305.437 766.193,305.523 766,305.81C738.58,346.49 721.16,392.55 718.01,441.22C717.997,441.383 718.098,441.534 718.25,441.58" style="fill:rgb(9,31,63);fill-rule:nonzero;stroke:white;stroke-width:2px;"/>
        <path d="M623.85,537.06C630.1,535.92 632.89,536.22 637.64,537.15C637.993,537.217 638.27,537.1 638.47,536.8C652.623,515.267 669.107,495.7 687.92,478.1C688.173,477.867 688.233,477.59 688.1,477.27C681.52,461.91 688.93,446.25 704.71,441.52C705.057,441.413 705.243,441.177 705.27,440.81C708.37,389.64 726.77,341.11 755.37,298.59C755.537,298.33 755.54,298.073 755.38,297.82L750.22,289.72C750.067,289.473 749.847,289.383 749.56,289.45C695.51,302.93 645.1,328.29 602.94,364.8C602.673,365.027 602.627,365.293 602.8,365.6C613.02,383.48 604.94,404.48 585.6,411.1C585.247,411.22 585.09,411.467 585.13,411.84C590.517,455.673 603.153,497.28 623.04,536.66C623.187,536.961 623.522,537.126 623.85,537.06" style="fill:rgb(9,31,63);fill-rule:nonzero;stroke:white;stroke-width:2px;"/>
        <path d="M950.68,378.81C954.667,378.897 958.623,378.923 962.55,378.89C962.857,378.89 963.087,378.753 963.24,378.48C969.62,367.107 979.277,363.183 992.21,366.71C992.59,366.81 992.923,366.72 993.21,366.44C1008.87,351.067 1025.63,336.99 1043.48,324.21C1043.8,323.977 1043.86,323.687 1043.66,323.34L1040.38,317.63C1040.24,317.395 1040.04,317.204 1039.8,317.08C1020.41,307.44 1000.39,299.387 979.73,292.92C979.383,292.807 979.113,292.907 978.92,293.22C969.8,307.71 953.48,310.89 939.13,302.32C938.863,302.16 938.613,302.183 938.38,302.39C913.747,324.73 892.317,349.807 874.09,377.62C873.91,377.9 873.92,378.177 874.12,378.45L878.1,383.8C878.24,384 878.433,384.08 878.68,384.04C902.513,380.033 926.513,378.29 950.68,378.81" style="fill:rgb(9,31,63);fill-rule:nonzero;stroke:white;stroke-width:2px;"/>
        <path d="M1006.69,384.04C1031.67,388.507 1055.87,395.607 1079.3,405.34C1079.75,405.527 1079.9,405.387 1079.74,404.92C1071.82,381.047 1062,357.98 1050.29,335.72C1050.12,335.393 1049.88,335.34 1049.58,335.56C1033.14,347.527 1017.61,360.577 1002.98,374.71C1002.71,374.97 1002.68,375.26 1002.89,375.58C1004.57,378.147 1005.78,380.917 1006.53,383.89C1006.55,383.97 1006.6,384.02 1006.69,384.04" style="fill:rgb(9,31,63);fill-rule:nonzero;stroke:white;stroke-width:2px;"/>
        <path d="M336,551.94C351.707,555.087 363.247,562.79 370.62,575.05C380.01,590.69 379.34,609.41 369.62,624.91C369.393,625.27 369.443,625.59 369.77,625.87C400.657,652.163 433.557,675.64 468.47,696.3C468.843,696.52 469.18,696.477 469.48,696.17C472.62,693.017 476.193,690.48 480.2,688.56C480.513,688.413 480.643,688.17 480.59,687.83C479.3,679.12 477.65,669.68 476.82,661.7C474.593,640.287 474.407,618.83 476.26,597.33C476.29,597.025 476.113,596.737 475.83,596.63C453.85,588.14 446.15,562.34 461.97,544.13C462.19,543.877 462.21,543.607 462.03,543.32C459.03,538.547 456.043,533.767 453.07,528.98C426.17,485.76 407.337,439.227 396.57,389.38C396.557,389.307 396.502,389.248 396.43,389.23L385.55,386.42C385.277,386.353 385.07,386.443 384.93,386.69C355.803,437.69 339.343,492.577 335.55,551.35C335.525,551.629 335.721,551.885 336,551.94" style="fill:rgb(9,31,63);fill-rule:nonzero;stroke:white;stroke-width:2px;"/>
        <path d="M833.05,513.85C837.183,514.95 840.743,517.027 843.73,520.08C843.977,520.327 844.257,520.387 844.57,520.26C862.677,512.747 881.2,506.473 900.14,501.44C900.467,501.353 900.66,501.147 900.72,500.82C902.633,490.6 908.707,484.693 918.94,483.1C919.241,483.05 919.491,482.839 919.59,482.55C929.377,452.437 944.05,424.94 963.61,400.06C963.823,399.793 963.873,399.5 963.76,399.18L961.22,392.15C961.12,391.863 960.92,391.713 960.62,391.7C934.093,390.46 907.753,392.09 881.6,396.59C881.24,396.65 881.027,396.857 880.96,397.21C877.893,412.657 868.417,420.043 852.53,419.37C852.143,419.357 851.87,419.53 851.71,419.89C838.543,449.723 832.28,480.99 832.92,513.69C832.925,513.763 832.977,513.826 833.05,513.85" style="fill:rgb(9,31,63);fill-rule:nonzero;stroke:white;stroke-width:2px;"/>
        <path d="M932.14,486.75C934.447,488.35 936.34,490.347 937.82,492.74C938.02,493.073 938.313,493.207 938.7,493.14C992.24,484.26 1045.77,484.333 1099.28,493.36C1099.59,493.413 1099.73,493.283 1099.69,492.97C1096.64,468.983 1091.79,445.37 1085.14,422.13C1085.04,421.783 1084.82,421.537 1084.49,421.39C1059.15,410.023 1032.81,401.83 1005.46,396.81C1005.14,396.75 1004.91,396.87 1004.77,397.17C999.19,409.09 986.04,414.06 974.05,408.41C973.73,408.263 973.463,408.327 973.25,408.6C954.903,431.993 941.13,457.83 931.93,486.11C931.852,486.348 931.938,486.609 932.14,486.75" style="fill:rgb(9,31,63);fill-rule:nonzero;stroke:white;stroke-width:2px;"/>
        <path d="M745.94,563.76C752.82,562.96 757.27,563.43 763.08,566.64C763.407,566.827 763.72,566.803 764.02,566.57C777.567,556.263 791.783,546.977 806.67,538.71C806.955,538.553 807.12,538.238 807.09,537.91C806.07,527.303 810.237,519.64 819.59,514.92C819.91,514.76 820.077,514.497 820.09,514.13C820.34,506.12 820.07,497.38 820.71,490.11C823.023,463.783 829.5,438.48 840.14,414.2C840.273,413.9 840.233,413.623 840.02,413.37L835.57,408C835.35,407.747 835.08,407.667 834.76,407.76C799.22,418.62 766.17,434.593 735.61,455.68C735.306,455.882 735.181,456.273 735.31,456.62C740.3,470.03 734.36,484.52 721,489.93C720.674,490.065 720.482,490.407 720.54,490.75C724.693,516.323 732.89,540.52 745.13,563.34C745.303,563.66 745.573,563.8 745.94,563.76" style="fill:rgb(9,31,63);fill-rule:nonzero;stroke:white;stroke-width:2px;"/>
        <path d="M499.92,536.18C519.68,546.2 524.85,567.49 512.32,586.05C512.167,586.283 512.183,586.503 512.37,586.71C532.657,608.983 554.743,629.303 578.63,647.67C578.91,647.883 579.187,647.883 579.46,647.67C583.907,644.21 588.94,642.197 594.56,641.63C594.921,641.594 595.218,641.325 595.29,640.97C599.203,621.623 605.017,602.87 612.73,584.71C612.871,584.376 612.787,583.989 612.52,583.75C600.29,572.9 600.16,555.27 611.52,543.61C611.736,543.387 611.792,543.051 611.66,542.77C607.047,533.05 604.183,526.94 603.07,524.44C587.323,489.107 577.08,451.92 572.34,412.88C572.292,412.513 572.006,412.219 571.64,412.16C568.187,411.607 564.89,410.547 561.75,408.98C561.423,408.813 561.15,408.877 560.93,409.17C531.81,447.19 511.447,489.467 499.84,536C499.822,536.071 499.855,536.146 499.92,536.18" style="fill:rgb(9,31,63);fill-rule:nonzero;stroke:white;stroke-width:2px;"/>
        <path d="M600.7,927.67C482.35,872.02 366.25,777.24 331.24,646.74C331.14,646.393 330.91,646.217 330.55,646.21C290.76,646.01 267.85,602.35 292.11,570.24C292.348,569.927 292.331,569.488 292.07,569.2C253.663,526.013 220.197,479.277 191.67,428.99C191.6,428.872 191.472,428.799 191.335,428.799C191.162,428.799 191.008,428.914 190.96,429.08C158.11,550.91 175.5,682.05 240.55,789.94C360.23,988.45 606.98,1069.7 820.76,978.79C821.18,978.61 821.16,978.533 820.7,978.56C746.35,982.39 667.72,959.19 600.7,927.67" style="fill:rgb(9,31,63);fill-rule:nonzero;stroke:white;stroke-width:2px;"/>
        <path d="M688.97,626.09C695.42,622.82 700.37,622.82 707.34,623.99C707.7,624.057 707.99,623.94 708.21,623.64C715.163,614.16 722.66,605.127 730.7,596.54C730.94,596.287 730.993,596 730.86,595.68C727.067,586.793 728.107,578.61 733.98,571.13C734.32,570.694 734.372,570.099 734.11,569.62C720.95,545.307 712.167,519.5 707.76,492.2C707.705,491.88 707.458,491.625 707.14,491.56C703.607,490.833 700.297,489.54 697.21,487.68C696.893,487.485 696.482,487.526 696.21,487.78C678.597,504.5 663.057,522.96 649.59,543.16C649.397,543.447 649.413,543.723 649.64,543.99C659.813,555.997 660.21,568.43 650.83,581.29C650.61,581.583 650.61,581.88 650.83,582.18C662.123,597.733 674.55,612.323 688.11,625.95C688.363,626.21 688.65,626.257 688.97,626.09" style="fill:rgb(9,31,63);fill-rule:nonzero;stroke:white;stroke-width:2px;"/>
        <path d="M926.33,569.23C929.623,570.037 932.477,571.467 934.89,573.52C935.46,574 936.35,575.52 937.44,575.19C984.64,560.763 1032.31,554.15 1080.44,555.35C1083.55,555.423 1091.06,555.807 1102.97,556.5C1103.32,556.52 1103.49,556.357 1103.49,556.01C1103.57,539.71 1102.85,523.45 1101.32,507.23C1101.29,506.85 1101.08,506.627 1100.7,506.56C1047.51,497.16 994.25,496.883 940.93,505.73C940.669,505.778 940.46,505.975 940.4,506.23C938.487,514.677 933.373,520.093 925.06,522.48C924.72,522.573 924.533,522.8 924.5,523.16C923.047,538.433 923.52,553.637 925.92,568.77C925.95,568.992 926.113,569.175 926.33,569.23" style="fill:rgb(9,31,63);fill-rule:nonzero;stroke:white;stroke-width:2px;"/>
        <path d="M911.43,520.54C908.1,518.48 906.66,516.84 903.98,514.11C903.733,513.863 903.443,513.783 903.11,513.87C884.91,518.657 867.117,524.663 849.73,531.89C849.417,532.023 849.267,532.26 849.28,532.6C849.633,541.327 846.203,547.967 838.99,552.52C838.687,552.709 838.541,553.075 838.63,553.42C842.75,569.04 848.667,583.94 856.38,598.12C856.587,598.493 856.9,598.657 857.32,598.61C862.547,598.003 867.23,599.233 871.37,602.3C871.638,602.501 871.999,602.528 872.29,602.37C882.963,596.717 893.88,591.573 905.04,586.94C905.357,586.807 905.571,586.503 905.59,586.16C905.91,580.293 908.39,575.617 913.03,572.13C913.287,571.933 913.415,571.612 913.36,571.3C910.58,554.7 910.057,538.02 911.79,521.26C911.817,520.947 911.697,520.707 911.43,520.54" style="fill:rgb(9,31,63);fill-rule:nonzero;stroke:white;stroke-width:2px;"/>
        <path d="M802.29,635.17C808.33,632.43 814.42,632.6 820.31,635.55C820.65,635.723 820.97,635.697 821.27,635.47L841.35,620.73C841.559,620.578 841.667,620.319 841.63,620.06C840.95,614.72 842.16,609.907 845.26,605.62C845.487,605.3 845.507,604.967 845.32,604.62C836.873,589.213 830.467,573.007 826.1,556C826.027,555.713 825.847,555.55 825.56,555.51C820.98,554.81 816.963,552.947 813.51,549.92C813.257,549.7 812.987,549.673 812.7,549.84C798.62,557.767 785.127,566.59 772.22,576.31C771.967,576.503 771.893,576.75 772,577.05C774.833,585.05 773.807,592.41 768.92,599.13C768.7,599.43 768.707,599.73 768.94,600.03C778.833,612.523 789.637,624.183 801.35,635.01C801.63,635.27 801.943,635.323 802.29,635.17" style="fill:rgb(9,31,63);fill-rule:nonzero;stroke:white;stroke-width:2px;"/>
        <path d="M950.8,632.24C955.31,632.25 958.31,632.63 962.26,635.73C964.12,637.19 965.5,636.09 967.41,635.51C1009.93,622.51 1053.47,616.77 1098.02,618.29C1098.4,618.303 1098.61,618.123 1098.66,617.75C1100.81,601.837 1102.27,585.86 1103.02,569.82C1103.03,569.5 1102.88,569.327 1102.56,569.3C1047.55,565.067 993.743,571.11 941.15,587.43C940.837,587.53 940.66,587.743 940.62,588.07C940.027,592.637 938.057,596.5 934.71,599.66C934.499,599.86 934.432,600.17 934.54,600.44C938.773,611.353 943.93,621.807 950.01,631.8C950.177,632.073 950.477,632.24 950.8,632.24" style="fill:rgb(9,31,63);fill-rule:nonzero;stroke:white;stroke-width:2px;"/>
        <path d="M607.69,643.21C622.11,649.43 629.25,663.49 624.72,678.71C624.587,679.163 624.727,679.507 625.14,679.74L657.35,697.89C657.692,698.083 658.122,698.021 658.39,697.74C662.89,693.1 668.363,690.477 674.81,689.87C675.13,689.843 675.343,689.68 675.45,689.38L684.42,664.57C684.493,664.36 684.443,664.125 684.29,663.96C676.577,655.907 674.933,646.613 679.36,636.08C679.533,635.667 679.46,635.303 679.14,634.99C664.873,620.743 651.83,605.447 640.01,589.1C639.797,588.8 639.513,588.71 639.16,588.83C634.38,590.437 629.52,590.717 624.58,589.67C624.153,589.583 623.877,589.747 623.75,590.16L607.46,642.73C607.404,642.924 607.503,643.132 607.69,643.21" style="fill:rgb(9,31,63);fill-rule:nonzero;stroke:white;stroke-width:2px;"/>
        <path d="M570.86,657.92C545.83,638.25 524.22,617.75 502.42,594.92C502.14,594.627 501.823,594.573 501.47,594.76C497.737,596.727 493.763,597.893 489.55,598.26C489.169,598.294 488.869,598.603 488.85,598.98C488.36,608.67 487.66,618.93 487.72,628.02C487.847,647.087 489.683,666.027 493.23,684.84C493.297,685.187 493.503,685.363 493.85,685.37C516.5,685.8 532.81,704.71 528.05,727.28C527.977,727.613 528.097,727.853 528.41,728C545.877,735.973 563.603,743.31 581.59,750.01C581.943,750.143 582.23,750.057 582.45,749.75C585.483,745.503 589.307,742.16 593.92,739.72C594.207,739.567 594.33,739.327 594.29,739C593.703,734.493 593.103,729.983 592.49,725.47C591.24,716.34 590.93,707.15 590.25,697.89C590.23,697.55 590.057,697.327 589.73,697.22C573.64,691.97 563.95,674.97 571.13,659.02C571.323,658.58 571.233,658.213 570.86,657.92" style="fill:rgb(9,31,63);fill-rule:nonzero;stroke:white;stroke-width:2px;"/>
        <path d="M900.24,652.98C906.207,650.747 911.757,651.457 916.89,655.11C917.154,655.308 917.509,655.343 917.81,655.2L936.25,646.82C936.538,646.686 936.758,646.44 936.86,646.14L939.22,639.23C939.313,638.977 939.287,638.733 939.14,638.5C932.407,627.673 926.78,616.3 922.26,604.38C922.14,604.053 921.903,603.873 921.55,603.84C917.37,603.427 913.77,601.78 910.75,598.9C910.483,598.647 910.183,598.59 909.85,598.73C899.33,603.137 889.01,607.963 878.89,613.21C878.543,613.39 878.397,613.673 878.45,614.06C879.063,618.62 878.213,622.873 875.9,626.82C875.707,627.14 875.73,627.447 875.97,627.74C883.157,636.62 890.913,644.967 899.24,652.78C899.533,653.053 899.867,653.12 900.24,652.98" style="fill:rgb(9,31,63);fill-rule:nonzero;stroke:white;stroke-width:2px;"/>
        <path d="M723.05,656.73C734.483,665.497 746.31,673.697 758.53,681.33C758.83,681.517 759.12,681.497 759.4,681.27C765.067,676.683 771.497,675.353 778.69,677.28C779.051,677.372 779.434,677.256 779.68,676.98L792.97,661.71C793.163,661.483 793.2,661.233 793.08,660.96C790.767,655.713 790.707,650.443 792.9,645.15C793.04,644.81 792.973,644.513 792.7,644.26C780.34,632.867 768.967,620.56 758.58,607.34C758.347,607.047 758.05,606.95 757.69,607.05C751.743,608.71 746.04,608.137 740.58,605.33C740.247,605.157 739.953,605.207 739.7,605.48C732.287,613.4 725.37,621.73 718.95,630.47C718.715,630.789 718.723,631.23 718.97,631.54C724.703,638.847 725.97,646.927 722.77,655.78C722.637,656.167 722.73,656.483 723.05,656.73" style="fill:rgb(9,31,63);fill-rule:nonzero;stroke:white;stroke-width:2px;"/>
        <path d="M966.7,654.92C994.33,687.12 1029.79,710.74 1068.18,727.53C1068.51,727.677 1068.75,727.58 1068.89,727.24C1081.49,696.313 1090.65,664.393 1096.37,631.48C1096.42,631.18 1096.3,631.027 1096,631.02C1052.54,629.707 1010.09,635.523 968.65,648.47C968.35,648.563 968.157,648.763 968.07,649.07L966.57,654.3C966.503,654.533 966.547,654.74 966.7,654.92" style="fill:rgb(9,31,63);fill-rule:nonzero;stroke:white;stroke-width:2px;"/>
        <path d="M830.2,659.26L859.54,678.82C859.808,678.996 860.158,678.996 860.43,678.82C866.297,674.993 872.387,674.633 878.7,677.74C878.973,677.873 879.24,677.857 879.5,677.69L890.1,670.72C890.447,670.493 890.59,670.177 890.53,669.77C890.203,667.55 890.41,665.377 891.15,663.25C891.247,662.966 891.168,662.651 890.95,662.45C881.903,653.99 873.48,644.947 865.68,635.32C865.454,635.038 865.09,634.907 864.74,634.98C858.893,636.207 853.57,635.11 848.77,631.69C848.49,631.49 848.213,631.49 847.94,631.69L829.9,644.94C829.62,645.147 829.537,645.417 829.65,645.75C831.117,650.017 831.227,654.327 829.98,658.68C829.915,658.898 830.005,659.135 830.2,659.26" style="fill:rgb(9,31,63);fill-rule:nonzero;stroke:white;stroke-width:2px;"/>
        <path d="M343.95,644.83C367.51,730.52 428.46,800.64 499.28,852.72C552.047,891.533 609.793,921.397 672.52,942.31C701.69,952.04 731.14,959.6 761.72,963.43C761.783,963.426 761.833,963.373 761.833,963.31C761.833,963.262 761.804,963.219 761.76,963.2C648.33,935.08 549.42,861.79 501.15,753.8C501.01,753.487 500.77,753.35 500.43,753.39C474.27,756.71 454.7,734.83 461.62,709.2C461.733,708.78 461.603,708.46 461.23,708.24C425.583,686.987 391.983,662.883 360.43,635.93C360.137,635.677 359.84,635.67 359.54,635.91C354.933,639.483 349.867,642.217 344.34,644.11C343.98,644.23 343.85,644.47 343.95,644.83" style="fill:rgb(9,31,63);fill-rule:nonzero;stroke:white;stroke-width:2px;"/>
        <path d="M923.09,668.74L922.73,671.97C922.69,672.31 922.81,672.583 923.09,672.79C957.64,697.65 996.55,715.33 1037.48,726.76C1037.95,726.893 1037.97,726.843 1037.54,726.61C1006.76,710.08 979.39,689.08 956.64,662.81C956.427,662.563 956.16,662.47 955.84,662.53C950.567,663.463 945.96,662.21 942.02,658.77C941.74,658.517 941.427,658.467 941.08,658.62C935.233,661.22 929.447,663.837 923.72,666.47C923.113,666.743 922.89,667.223 923.05,667.91C923.11,668.183 923.123,668.46 923.09,668.74" style="fill:rgb(9,31,63);fill-rule:nonzero;stroke:white;stroke-width:2px;"/>
        <path d="M688.32,692.72C697.847,698.247 702.233,706.623 701.48,717.85C701.447,718.257 701.62,718.533 702,718.68L732.66,730.43C733.01,730.566 733.409,730.46 733.64,730.17C738.173,724.457 744.163,721.64 751.61,721.72C751.93,721.72 752.16,721.577 752.3,721.29L757.08,711.52C757.227,711.233 757.197,710.963 756.99,710.71C752.797,705.583 751.247,699.71 752.34,693.09C752.389,692.8 752.259,692.507 752.01,692.35C739.17,684.33 726.76,675.693 714.78,666.44C714.534,666.249 714.193,666.233 713.93,666.4C708.67,669.807 702.917,671.017 696.67,670.03C696.23,669.963 695.933,670.14 695.78,670.56L688.07,692.03C687.963,692.33 688.047,692.56 688.32,692.72" style="fill:rgb(9,31,63);fill-rule:nonzero;stroke:white;stroke-width:2px;"/>
        <path d="M793.95,701.24L821.59,713.8C821.897,713.94 822.17,713.89 822.41,713.65C827.93,708.123 834.513,706.513 842.16,708.82C842.487,708.92 842.77,708.85 843.01,708.61L853.39,698.57C853.71,698.263 853.81,697.893 853.69,697.46C853.03,695.04 852.907,692.59 853.32,690.11C853.375,689.754 853.214,689.398 852.91,689.21C842.583,682.95 832.527,676.29 822.74,669.23C822.473,669.037 822.203,669.027 821.93,669.2C815.83,673.1 809.427,673.557 802.72,670.57C802.395,670.422 802.007,670.508 801.77,670.78L789.85,684.57C789.643,684.81 789.63,685.06 789.81,685.32C792.977,689.813 794.183,694.807 793.43,700.3C793.37,700.74 793.543,701.053 793.95,701.24" style="fill:rgb(9,31,63);fill-rule:nonzero;stroke:white;stroke-width:2px;"/>
        <path d="M888.31,694.38C940.74,720.38 997.17,736.53 1055.21,744.61C1055.22,744.612 1055.23,744.613 1055.24,744.613C1055.34,744.613 1055.41,744.535 1055.41,744.44C1055.41,744.357 1055.35,744.284 1055.27,744.27C1005.18,732.69 957.12,712.62 915.17,682.62C914.879,682.416 914.506,682.378 914.19,682.52C908.49,685.133 902.973,684.793 897.64,681.5C897.359,681.324 896.996,681.328 896.71,681.51L887.92,687.28C887.551,687.52 887.347,687.946 887.39,688.38L887.87,693.74C887.897,694.033 888.043,694.247 888.31,694.38" style="fill:rgb(9,31,63);fill-rule:nonzero;stroke:white;stroke-width:2px;"/>
        <path d="M609.41,736.75C624.477,738.537 633.72,746.62 637.14,761C637.61,763 637.47,765.3 637.79,767.48C637.837,767.78 638.007,767.967 638.3,768.04L655.95,772.56C656.25,772.64 656.48,772.543 656.64,772.27C659.52,767.317 663.537,763.603 668.69,761.13C669.023,760.977 669.18,760.717 669.16,760.35L668.08,738.69C668.067,738.41 667.93,738.21 667.67,738.09C655.663,732.697 650.403,723.337 651.89,710.01C651.93,709.697 651.813,709.463 651.54,709.31L617.97,690.39C617.717,690.243 617.48,690.273 617.26,690.48C613.373,694.033 608.86,696.433 603.72,697.68C603.313,697.78 603.117,698.037 603.13,698.45C603.59,710.977 604.843,723.417 606.89,735.77C606.95,736.117 607.15,736.33 607.49,736.41C608.11,736.557 608.75,736.67 609.41,736.75" style="fill:rgb(9,31,63);fill-rule:nonzero;stroke:white;stroke-width:2px;"/>
        <path d="M854.9,725.97C901.76,741.097 949.627,749.4 998.5,750.88C1004.79,751.067 1011.07,751.227 1017.35,751.36C1017.42,751.367 1017.47,751.343 1017.49,751.29C1017.5,751.257 1017.51,751.227 1017.5,751.2C1017.49,751.093 1017.42,751.027 1017.28,751C970.433,741.813 925.61,726.743 882.81,705.79C882.486,705.637 882.104,705.68 881.83,705.9C875.917,710.6 869.447,711.363 862.42,708.19C862.102,708.045 861.723,708.113 861.47,708.36L852.54,717C852.253,717.28 852.2,717.6 852.38,717.96C853.473,720.193 854.083,722.56 854.21,725.06C854.235,725.476 854.509,725.837 854.9,725.97" style="fill:rgb(9,31,63);fill-rule:nonzero;stroke:white;stroke-width:2px;"/>
        <path d="M773.46,742.98L797.24,748.95C797.58,749.03 797.85,748.933 798.05,748.66C802.763,742.253 809.19,739.517 817.33,740.45C817.643,740.483 817.887,740.367 818.06,740.1L820.34,736.42C820.54,736.09 820.533,735.672 820.32,735.35C818.553,732.677 817.62,729.727 817.52,726.5C817.507,726.153 817.343,725.907 817.03,725.76L787.55,712.39C787.29,712.27 787.05,712.303 786.83,712.49C781.663,716.903 775.657,718.567 768.81,717.48C768.548,717.439 768.288,717.573 768.17,717.81L764.27,725.76C764.137,726.033 764.187,726.263 764.42,726.45C769.553,730.497 772.383,735.79 772.91,742.33C772.937,742.683 773.12,742.9 773.46,742.98" style="fill:rgb(9,31,63);fill-rule:nonzero;stroke:white;stroke-width:2px;"/>
        <path d="M693.67,733.13C690.163,736.183 686.087,738.24 681.44,739.3C681.117,739.377 680.892,739.673 680.91,740L681.88,758.31C681.893,758.543 682.013,758.677 682.24,758.71C695.76,760.877 703.697,768.703 706.05,782.19C706.085,782.415 706.269,782.592 706.5,782.62L722.51,785.05C722.943,785.11 723.37,784.899 723.58,784.52C726.813,778.76 731.6,774.927 737.94,773.02C738.18,772.947 738.317,772.783 738.35,772.53L739.65,762.71C739.697,762.39 739.58,762.14 739.3,761.96C732.593,757.553 729.143,751.297 728.95,743.19C728.939,742.904 728.758,742.649 728.49,742.54L696.8,730.39C696.567,730.303 696.353,730.34 696.16,730.5C695.21,731.26 694.36,732.53 693.67,733.13" style="fill:rgb(9,31,63);fill-rule:nonzero;stroke:white;stroke-width:2px;"/>
        <path d="M838.15,744.05C836.15,744.37 833.57,743.76 831.42,743.61C831.107,743.583 830.86,743.703 830.68,743.97L829,746.49C828.8,746.79 828.817,747.083 829.05,747.37C831.03,749.777 832.34,752.5 832.98,755.54C833.04,755.813 833.207,755.97 833.48,756.01C882.04,764.023 930.877,766.307 979.99,762.86C980.223,762.847 980.223,762.83 979.99,762.81C935.843,759.91 892.743,751.647 850.69,738.02C850.183,737.855 849.624,737.991 849.25,738.37C846.203,741.477 842.503,743.37 838.15,744.05" style="fill:rgb(9,31,63);fill-rule:nonzero;stroke:white;stroke-width:2px;"/>
        <path d="M513.19,749.08C561.68,859.23 668.61,932.15 784.43,955.31C785.277,955.477 785.297,955.41 784.49,955.11C708.28,926.92 644.06,872.22 611.51,796.75C611.39,796.462 611.102,796.278 610.79,796.29C591.35,797.03 576.49,783.98 577.58,763.89C577.597,763.556 577.394,763.247 577.08,763.13C558.587,756.263 540.373,748.727 522.44,740.52C522.171,740.398 521.848,740.476 521.66,740.71C519.327,743.683 516.58,746.207 513.42,748.28C513.16,748.451 513.063,748.791 513.19,749.08" style="fill:rgb(9,31,63);fill-rule:nonzero;stroke:white;stroke-width:2px;"/>
        <path d="M751.58,773.56C758.893,776.367 763.77,781.497 766.21,788.95C766.33,789.33 766.593,789.53 767,789.55L782.17,790.34C782.597,790.367 782.903,790.187 783.09,789.8C786.443,782.947 791.92,779.03 799.52,778.05C799.853,778.01 800.073,777.83 800.18,777.51L801.27,774.28C801.39,773.927 801.313,773.627 801.04,773.38C797.74,770.347 795.727,766.62 795,762.2C794.94,761.807 794.717,761.56 794.33,761.46L769.95,755.32C769.664,755.242 769.356,755.359 769.19,755.61C765.257,761.39 759.79,764.553 752.79,765.1C752.437,765.131 752.151,765.408 752.11,765.76L751.23,772.98C751.196,773.231 751.342,773.473 751.58,773.56" style="fill:rgb(9,31,63);fill-rule:nonzero;stroke:white;stroke-width:2px;"/>
        <path d="M805.86,818.19C804.15,872.46 834.77,918.12 877.61,949.37C877.863,949.557 878.123,949.567 878.39,949.4C951.68,904.43 1009.74,843.42 1050.09,767.54C1050.28,767.167 1050.17,767.013 1049.76,767.08C1044.33,767.973 1038.89,768.857 1033.45,769.73C1023.17,771.39 1013.32,774.61 1003.24,777.47C944.193,794.25 883.623,803.313 821.53,804.66C820.917,804.673 820.487,804.957 820.24,805.51C817.467,811.73 812.813,815.777 806.28,817.65C806.007,817.723 805.867,817.903 805.86,818.19" style="fill:rgb(9,31,63);fill-rule:nonzero;stroke:white;stroke-width:2px;"/>
        <path d="M813.44,781.81C816.547,784.323 818.85,787.227 820.35,790.52C820.49,790.82 820.723,790.967 821.05,790.96C864.56,790.37 906.48,785.43 948.71,777.46C949.45,777.32 949.443,777.25 948.69,777.25C908.81,777.37 871.35,775.08 831.51,768.72C831.183,768.667 830.93,768.78 830.75,769.06C826.903,775.12 821.333,778.283 814.04,778.55C813.72,778.563 813.467,778.7 813.28,778.96C812.447,780.107 812.5,781.057 813.44,781.81" style="fill:rgb(9,31,63);fill-rule:nonzero;stroke:white;stroke-width:2px;"/>
        <path d="M680.78,811.02C667.19,811.1 656.15,802.46 653.65,789.06C653.46,788.07 653.98,786.38 652.51,785.97C647.87,784.683 641.773,783.14 634.22,781.34C633.847,781.247 633.56,781.367 633.36,781.7C630.927,785.647 627.773,788.907 623.9,791.48C623.623,791.665 623.517,792.025 623.65,792.33C659.38,874.52 734.43,930.8 819.96,952.63C820.58,952.79 820.603,952.727 820.03,952.44C760.13,922.42 706.65,875.09 681.5,811.5C681.385,811.211 681.099,811.02 680.78,811.02" style="fill:rgb(9,31,63);fill-rule:nonzero;stroke:white;stroke-width:2px;"/>
        <path d="M703.25,796.64C700.43,801.77 697.85,803.99 693.92,807.07C693.653,807.283 693.583,807.543 693.71,807.85C719.3,869.6 772.28,916.1 832,944C832.593,944.273 832.617,944.233 832.07,943.88C786.63,914.36 750.88,872.83 740.07,818.35C740.003,818.017 739.81,817.787 739.49,817.66C738.443,817.26 737.407,816.887 736.38,816.54C728.33,813.84 723.05,807.5 721.22,799.2C721.16,798.92 720.987,798.76 720.7,798.72L704.02,796.26C703.673,796.207 703.417,796.333 703.25,796.64" style="fill:rgb(9,31,63);fill-rule:nonzero;stroke:white;stroke-width:2px;"/>
        <path d="M752.89,816.93C763.14,867.21 797.44,907 840.06,933.75C840.16,933.81 840.17,933.797 840.09,933.71C837.623,930.957 834.497,927.327 830.71,922.82C805.53,892.82 791.63,856.13 793.07,816.79C793.09,816.41 792.927,816.133 792.58,815.96C787.74,813.5 784.333,809.743 782.36,804.69C782.213,804.317 781.94,804.12 781.54,804.1L766.2,803.32C765.773,803.293 765.477,803.477 765.31,803.87C762.863,809.51 758.857,813.607 753.29,816.16C752.95,816.313 752.817,816.57 752.89,816.93" style="fill:rgb(9,31,63);fill-rule:nonzero;stroke:white;stroke-width:2px;"/>
        <path d="M619.19,1116.53C619.19,1106.8 611.186,1098.8 601.46,1098.8C591.734,1098.8 583.73,1106.8 583.73,1116.53C583.73,1126.26 591.734,1134.26 601.46,1134.26C611.186,1134.26 619.19,1126.26 619.19,1116.53" style="fill:none;fill-rule:nonzero;stroke:white;stroke-width:2px;"/>
        <path d="M1112.59,1300.99C1112.42,1298.51 1111.26,1295.86 1110.6,1293.85C1104.81,1276.21 1088.5,1270.55 1071.31,1272.12C1054.34,1273.66 1042.64,1284.76 1038,1301.11C1037.93,1301.37 1038.03,1301.5 1038.3,1301.5L1112.12,1301.5C1112.38,1301.5 1112.59,1301.29 1112.59,1301.03L1112.59,1300.99" style="fill:none;fill-rule:nonzero;stroke:white;stroke-width:2px;"/>
        <path d="M262.41,1465.56L262.5,1491.3C262.5,1491.59 262.739,1491.83 263.03,1491.83L283.77,1491.75C290.639,1491.72 296.271,1486.27 296.25,1479.67L296.25,1476.95C296.227,1470.34 290.552,1464.93 283.678,1464.95L283.67,1464.95L262.93,1465.03C262.643,1465.04 262.41,1465.27 262.41,1465.56" style="fill:none;fill-rule:nonzero;stroke:white;stroke-width:2px;"/>
        <path d="M390.7,1513.64C397.38,1523.16 409.41,1525.99 419.89,1521.07C434.14,1514.4 435.34,1494.63 432.85,1481.52C430.943,1471.51 425.827,1465.14 417.5,1462.4C406.36,1458.74 393.93,1462.79 388.83,1473.81C383.78,1484.72 383.76,1503.73 390.7,1513.64" style="fill:none;fill-rule:nonzero;stroke:white;stroke-width:2px;"/>
        <path d="M927.47,1495.27C928.43,1472.23 895.68,1474.95 895.26,1495.25C895.253,1495.58 895.42,1495.75 895.76,1495.75L926.97,1495.75C927.237,1495.75 927.459,1495.54 927.47,1495.27" style="fill:none;fill-rule:nonzero;stroke:white;stroke-width:2px;"/>
        <path d="M513.44,1520.81C521.43,1525.87 531.68,1522.05 538.44,1516.59C538.636,1516.43 538.75,1516.19 538.75,1515.94L538.75,1500.78C538.75,1500.49 538.603,1500.35 538.31,1500.36C528.86,1500.66 506.71,1500.61 510.61,1516.67C510.98,1518.19 512.21,1520.03 513.44,1520.81" style="fill:none;fill-rule:nonzero;stroke:white;stroke-width:2px;"/>
        <path d="M620.44,1521.06C628.24,1525.62 638.39,1522.1 644.85,1516.63C645.117,1516.4 645.25,1516.12 645.25,1515.77L645.25,1500.77C645.25,1500.46 645.097,1500.32 644.79,1500.34C634.52,1500.93 614.5,1500.88 616.74,1515.33C617.14,1517.95 618.373,1519.86 620.44,1521.06" style="fill:none;fill-rule:nonzero;stroke:white;stroke-width:2px;"/>
    </g>
    <path d="M649.79,1116.53C649.79,1143.04 627.973,1164.86 601.46,1164.86C574.947,1164.86 553.13,1143.04 553.13,1116.53C553.13,1090.02 574.947,1068.2 601.46,1068.2C627.973,1068.2 649.79,1090.02 649.79,1116.53ZM619.19,1116.53C619.19,1106.8 611.186,1098.8 601.46,1098.8C591.734,1098.8 583.73,1106.8 583.73,1116.53C583.73,1126.26 591.734,1134.26 601.46,1134.26C611.186,1134.26 619.19,1126.26 619.19,1116.53Z" style="fill:rgb(9,31,63);fill-rule:nonzero;stroke:white;stroke-width:1px;stroke-linejoin:round;stroke-miterlimit:2;"/>
    <path d="M606.4,1226.4C600.54,1225.98 591.04,1225.79 587.63,1231.37C584.8,1236 585.65,1242.98 585.7,1249C585.96,1278.16 585.877,1330.58 585.45,1406.25C585.45,1406.58 585.283,1406.75 584.95,1406.75L543.03,1406.75C542.739,1406.75 542.5,1406.51 542.5,1406.22L542.5,1241.62C542.5,1236.22 542.72,1230.05 543.92,1224.83C548.65,1204.22 563.88,1194.14 584.28,1191.46C597.74,1189.69 611.123,1189.92 624.43,1192.14C624.667,1192.18 624.841,1192.39 624.841,1192.63C624.841,1192.77 624.783,1192.9 624.68,1193C614.74,1201.77 608.807,1212.77 606.88,1226C606.849,1226.24 606.637,1226.42 606.4,1226.4Z" style="fill:rgb(9,31,63);fill-rule:nonzero;stroke:white;stroke-width:1px;stroke-linejoin:round;stroke-miterlimit:2;"/>
    <path d="M798.8,1373.25C807.27,1376.08 816.23,1371.55 816.24,1361.55C816.26,1320.54 816.26,1279.52 816.24,1238.5C816.23,1199.48 847.46,1187.11 881.04,1190.89C900.767,1193.11 915.14,1202.92 924.16,1220.31C926.48,1224.78 928.913,1229.88 931.46,1235.62C956.673,1292.49 981.86,1349.39 1007.02,1406.31C1007.04,1406.35 1007.05,1406.39 1007.05,1406.44C1007.05,1406.61 1006.91,1406.75 1006.74,1406.75L961.78,1406.75C961.473,1406.75 961.257,1406.61 961.13,1406.33C936.31,1350.39 911.51,1294.45 886.73,1238.51C883.05,1230.2 876.85,1224 866.94,1227.21C860.46,1229.3 859.48,1234.89 859.49,1241.49C859.583,1282.24 859.49,1323 859.21,1363.75C859.03,1388.67 844.51,1401.39 821.31,1405.27C796.8,1409.36 767.44,1406.43 753.2,1383.71C751.813,1381.5 748.96,1375.48 744.64,1365.65C726.507,1324.44 708.387,1283.21 690.28,1241.98C687.98,1236.75 686.6,1233.78 686.14,1233.09C682.06,1226.99 673.93,1224.61 667.45,1227.94C661.97,1230.76 661.51,1235.77 661.51,1241.98C661.503,1296.73 661.5,1351.49 661.5,1406.24C661.5,1406.58 661.33,1406.75 660.99,1406.75L619.02,1406.75C618.687,1406.75 618.52,1406.58 618.52,1406.25C618.473,1349.66 618.48,1293.08 618.54,1236.51C618.57,1209.59 635.26,1194.89 660.03,1191.29C685.8,1187.54 712.28,1193.75 725.21,1218.56C727.483,1222.91 729.9,1228.03 732.46,1233.91C751.247,1276.96 770.077,1320 788.95,1363.02C791.09,1367.91 793.62,1371.52 798.8,1373.25Z" style="fill:rgb(9,31,63);fill-rule:nonzero;stroke:white;stroke-width:1px;stroke-linejoin:round;stroke-miterlimit:2;"/>
    <path d="M256.19,1234.81C250.323,1232.28 243.737,1231.05 236.43,1231.13C201.623,1231.5 166.797,1231.52 131.95,1231.18C131.65,1231.17 131.5,1231.02 131.5,1230.72L131.5,1194.54C131.5,1194.25 131.643,1194.11 131.93,1194.1C185.723,1193.84 222.66,1193.87 242.74,1194.2C284.85,1194.88 321.22,1221.14 314.73,1267.43C309.7,1303.32 280.6,1321.58 246.48,1324.12C244.127,1324.3 237.463,1324.42 226.49,1324.49C212.077,1324.58 197.663,1324.6 183.25,1324.54C179.93,1324.53 176.02,1324.62 175.16,1328.18C174.673,1330.19 174.51,1333.66 174.67,1338.6C175.42,1361.04 174.68,1383.74 174.77,1406.22C174.77,1406.57 174.593,1406.75 174.24,1406.75L132.56,1406.75C132.295,1406.75 132.075,1406.54 132.07,1406.27C131.777,1377.89 131.753,1349.55 132,1321.26C132.13,1305.82 138.76,1293.34 155.01,1290.46C157.71,1289.99 160.7,1289.16 163.38,1289.11C188.667,1288.7 213.957,1288.59 239.25,1288.79C243.997,1288.82 249.217,1287.78 254.91,1285.67C276.79,1277.56 278.13,1244.28 256.19,1234.81Z" style="fill:rgb(9,31,63);fill-rule:nonzero;stroke:white;stroke-width:1px;stroke-linejoin:round;stroke-miterlimit:2;"/>
    <path d="M455.34,1322.38L511.5,1406.26C511.538,1406.31 511.558,1406.38 511.558,1406.44C511.558,1406.61 511.418,1406.75 511.248,1406.75L464.63,1406.75C464.303,1406.75 464.047,1406.61 463.86,1406.34L408.46,1324.98C408.24,1324.66 407.933,1324.5 407.54,1324.5C396.28,1324.6 385.013,1324.63 373.74,1324.58C367.43,1324.55 365.89,1325.59 365.83,1331.81C365.597,1356.7 365.573,1381.51 365.76,1406.22C365.76,1406.51 365.521,1406.75 365.23,1406.75L323.29,1406.75C323.003,1406.75 322.86,1406.61 322.86,1406.33C322.627,1378.54 322.53,1350.76 322.57,1323.01C322.58,1311.71 325.5,1300.07 335.91,1294.18C341.39,1291.09 346.923,1289.44 352.51,1289.23C370.077,1288.59 395.24,1288.46 428,1288.84C448.14,1289.07 464.84,1278.25 463.08,1256.59C461.49,1237 443.58,1231.19 426.44,1231.31C391.853,1231.56 357.267,1231.5 322.68,1231.14C322.393,1231.14 322.25,1230.99 322.25,1230.7L322.25,1194.56C322.25,1194.26 322.403,1194.11 322.71,1194.11C373.303,1193.85 410.313,1193.87 433.74,1194.17C470.18,1194.64 503.65,1213.8 506.55,1253.23C508.96,1286.03 487.75,1313.87 455.79,1321.23C455.452,1321.31 455.211,1321.61 455.211,1321.96C455.211,1322.11 455.256,1322.26 455.34,1322.38Z" style="fill:rgb(9,31,63);fill-rule:nonzero;stroke:white;stroke-width:1px;stroke-linejoin:round;stroke-miterlimit:2;"/>
    <path d="M1036.46,1333.87C1038.63,1352.34 1047.91,1368.97 1067.19,1372.03C1083.44,1374.6 1099.15,1369.51 1108.24,1355.25C1109.22,1353.72 1110.66,1350.57 1112.57,1345.8C1112.72,1345.44 1112.98,1345.26 1113.37,1345.26L1152.24,1345.2L1152.27,1345.2C1152.43,1345.22 1152.56,1345.37 1152.55,1345.53C1152.54,1345.54 1152.54,1345.55 1152.54,1345.56C1146.45,1378.96 1121.2,1401.12 1087.83,1404.85C1042.54,1409.92 1003.74,1385.36 994.71,1339.23C985.75,1293.42 1011.42,1250.6 1058.24,1241.47C1099.27,1233.47 1139.97,1250.76 1151.24,1293.53C1154.4,1305.53 1155.57,1318.7 1154.74,1333.04C1154.72,1333.35 1154.56,1333.5 1154.25,1333.5L1036.79,1333.5C1036.54,1333.5 1036.43,1333.62 1036.46,1333.87ZM1112.59,1300.99C1112.42,1298.51 1111.26,1295.86 1110.6,1293.85C1104.81,1276.21 1088.5,1270.55 1071.31,1272.12C1054.34,1273.66 1042.64,1284.76 1038,1301.11C1037.93,1301.37 1038.03,1301.5 1038.3,1301.5L1112.12,1301.5C1112.38,1301.5 1112.59,1301.29 1112.59,1301.03L1112.59,1300.99Z" style="fill:rgb(9,31,63);fill-rule:nonzero;stroke:white;stroke-width:1px;stroke-linejoin:round;stroke-miterlimit:2;"/>
    <path d="M592.91,1473.25L602.98,1473.25C603.17,1473.25 603.325,1473.41 603.325,1473.6C603.325,1473.69 603.291,1473.78 603.23,1473.84L578.45,1499.19C578.327,1499.32 578.323,1499.53 578.44,1499.66L605.17,1529.33C605.231,1529.39 605.265,1529.48 605.265,1529.57C605.265,1529.76 605.11,1529.92 604.92,1529.92L594.3,1530.04C594.197,1530.04 594.098,1530 594.03,1529.92L571.93,1505.22C571.864,1505.14 571.767,1505.1 571.666,1505.1C571.574,1505.1 571.485,1505.14 571.42,1505.2L566.6,1510.02C566.537,1510.08 566.501,1510.17 566.5,1510.26L566.5,1529.65C566.5,1529.84 566.342,1530 566.15,1530L558.1,1530C557.908,1530 557.75,1529.84 557.75,1529.65L557.75,1451.54C557.75,1451.35 557.908,1451.19 558.1,1451.19L566.14,1451.28C566.332,1451.28 566.49,1451.44 566.49,1451.63L566.52,1500.21C566.523,1500.4 566.68,1500.56 566.87,1500.56C566.964,1500.56 567.054,1500.52 567.12,1500.45L592.66,1473.36C592.725,1473.29 592.815,1473.25 592.91,1473.25Z" style="fill:rgb(9,31,63);fill-rule:nonzero;stroke:white;stroke-width:1px;stroke-linejoin:round;stroke-miterlimit:2;"/>
    <path d="M183.82,1468.8C180.72,1490.36 175.73,1511.78 171.39,1533.15C171.317,1533.51 171.093,1533.69 170.72,1533.7L157.32,1533.77C156.731,1533.78 156.203,1533.39 156.03,1532.82L131.67,1452.65C131.537,1452.22 131.7,1452 132.16,1452L147.21,1452C147.564,1452 147.876,1452.24 147.97,1452.58C153.63,1473.35 158.957,1494.23 163.95,1515.24C163.965,1515.27 163.997,1515.29 164.032,1515.29C164.074,1515.29 164.112,1515.26 164.12,1515.22C165.42,1499.53 170.26,1479.91 175.86,1452.55C175.933,1452.18 176.157,1452 176.53,1452L191.24,1452C191.586,1452 191.889,1452.25 191.96,1452.6C196.19,1473.61 201.09,1494.73 203.81,1515.96C203.863,1516.38 203.93,1516.38 204.01,1515.97C207.98,1494.58 214.24,1473.46 219.79,1452.41C219.857,1452.14 220.033,1452 220.32,1452L235.49,1452C235.812,1452 236.075,1452.27 236.075,1452.59C236.075,1452.65 236.067,1452.7 236.05,1452.76L211.64,1533.25C211.543,1533.57 211.25,1533.78 210.92,1533.78L197.05,1533.68C196.663,1533.68 196.43,1533.49 196.35,1533.11C192,1511.75 187.13,1490.33 183.94,1468.8C183.9,1468.54 183.86,1468.54 183.82,1468.8Z" style="fill:rgb(9,31,63);fill-rule:nonzero;stroke:white;stroke-width:1px;stroke-linejoin:round;stroke-miterlimit:2;"/>
    <path d="M262.5,1505.01L262.5,1533.13C262.5,1533.54 262.29,1533.75 261.87,1533.75L248.12,1533.75C247.707,1533.75 247.5,1533.54 247.5,1533.12L247.5,1452.52C247.5,1452.24 247.73,1452.01 248.01,1452.01C258.337,1451.99 268.75,1452 279.25,1452.03C284.7,1452.05 290.47,1452.16 295.41,1453.9C319.18,1462.25 316.85,1497.13 292.43,1503.52C284.22,1505.67 272.02,1504.51 263.02,1504.5C262.673,1504.5 262.5,1504.67 262.5,1505.01ZM262.41,1465.56L262.5,1491.3C262.5,1491.59 262.739,1491.83 263.03,1491.83L283.77,1491.75C290.639,1491.72 296.271,1486.27 296.25,1479.67L296.25,1476.95C296.227,1470.34 290.552,1464.93 283.678,1464.95L283.67,1464.95L262.93,1465.03C262.643,1465.04 262.41,1465.27 262.41,1465.56Z" style="fill:rgb(9,31,63);fill-rule:nonzero;stroke:white;stroke-width:1px;stroke-linejoin:round;stroke-miterlimit:2;"/>
    <path d="M336.5,1452.52C336.5,1452.24 336.271,1452.01 335.99,1452.01L322.01,1452.01C321.729,1452.01 321.5,1452.24 321.5,1452.52L321.5,1533.24C321.5,1533.52 321.729,1533.75 322.01,1533.75L335.99,1533.75C336.271,1533.75 336.5,1533.52 336.5,1533.24L336.5,1452.52Z" style="fill:rgb(9,31,63);stroke:white;stroke-width:1px;stroke-linejoin:round;stroke-miterlimit:2;"/>
    <g transform="matrix(0.999994,0.00349065,-0.00349065,0.999994,813.5,1457.49)">
        <path d="M5,-4.25C5,-4.393 4.883,-4.51 4.74,-4.51L-4.74,-4.51C-4.883,-4.51 -5,-4.393 -5,-4.25L-5,4.25C-5,4.393 -4.883,4.51 -4.74,4.51L4.74,4.51C4.883,4.51 5,4.393 5,4.25L5,-4.25Z" style="fill:rgb(9,31,63);stroke:white;stroke-width:1px;stroke-linejoin:round;stroke-miterlimit:2;"/>
    </g>
    <path d="M1046.22,1453.3L1046.33,1461.7C1046.33,1461.87 1046.19,1462 1046.03,1462L1036.8,1462C1036.63,1462 1036.5,1461.87 1036.5,1461.7L1036.5,1453.3C1036.5,1453.13 1036.63,1453 1036.8,1453L1045.92,1453C1046.09,1453 1046.22,1453.13 1046.22,1453.3Z" style="fill:rgb(9,31,63);fill-rule:nonzero;stroke:white;stroke-width:1px;stroke-linejoin:round;stroke-miterlimit:2;"/>
    <path d="M401.25,1530.55C389.55,1528.28 380.72,1519.15 377.67,1507.8C372.75,1489.5 375.85,1463.76 395.54,1455.55C403.95,1452.04 415.84,1452.28 424.18,1455.99C433.027,1459.93 438.82,1467 441.56,1477.2C449.14,1505.41 435.78,1537.24 401.25,1530.55ZM390.7,1513.64C397.38,1523.16 409.41,1525.99 419.89,1521.07C434.14,1514.4 435.34,1494.63 432.85,1481.52C430.943,1471.51 425.827,1465.14 417.5,1462.4C406.36,1458.74 393.93,1462.79 388.83,1473.81C383.78,1484.72 383.76,1503.73 390.7,1513.64Z" style="fill:rgb(9,31,63);fill-rule:nonzero;stroke:white;stroke-width:1px;stroke-linejoin:round;stroke-miterlimit:2;"/>
    <path d="M704.01,1530.76C688.64,1528.29 682.84,1516.03 682.68,1501.68C682.5,1486.13 682.443,1470.57 682.51,1455.01C682.517,1454.66 682.69,1454.49 683.03,1454.49L691.24,1454.5C691.58,1454.5 691.75,1454.67 691.75,1455.01C691.757,1469.68 691.757,1484.35 691.75,1499C691.74,1513.7 696.26,1524.93 713.36,1523.4C727.88,1522.1 730.55,1511.93 730.51,1499.25C730.47,1484.5 730.473,1469.75 730.52,1455C730.52,1454.66 730.69,1454.49 731.03,1454.49L739.23,1454.5C739.55,1454.5 739.71,1454.66 739.71,1454.98C739.77,1470.33 739.81,1485.66 739.83,1500.99C739.87,1523.49 725.84,1534.27 704.01,1530.76Z" style="fill:rgb(9,31,63);fill-rule:nonzero;stroke:white;stroke-width:1px;stroke-linejoin:round;stroke-miterlimit:2;"/>
    <path d="M1074.24,1473.22L1092.94,1473.31C1093.31,1473.31 1093.5,1473.5 1093.5,1473.88L1093.5,1480C1093.5,1480.33 1093.33,1480.5 1093,1480.5L1074.49,1480.5C1074.07,1480.5 1073.85,1480.71 1073.84,1481.13C1073.61,1490.4 1073.65,1499.63 1073.94,1508.81C1074.16,1515.67 1074.32,1521.47 1081.48,1523.01C1084.95,1523.75 1088.72,1523.25 1092.78,1521.51C1092.84,1521.48 1092.91,1521.47 1092.98,1521.47C1093.27,1521.47 1093.5,1521.7 1093.5,1521.99L1093.5,1528.94C1093.5,1529.27 1093.34,1529.48 1093.02,1529.56C1081.03,1532.67 1065.38,1531.14 1065.3,1514.98C1065.25,1503.68 1065.14,1492.37 1064.99,1481.04C1064.98,1480.65 1064.78,1480.45 1064.39,1480.46L1059.34,1480.59C1058.95,1480.6 1058.75,1480.41 1058.75,1480.02L1058.75,1473.75C1058.75,1473.42 1058.92,1473.25 1059.25,1473.25L1064.76,1473.25C1065.1,1473.25 1065.27,1473.08 1065.27,1472.74L1065.21,1457.54C1065.2,1457.21 1065.37,1457.05 1065.71,1457.06L1073.29,1457.32C1073.6,1457.33 1073.75,1457.49 1073.75,1457.8L1073.75,1472.74C1073.75,1473.06 1073.91,1473.22 1074.24,1473.22Z" style="fill:rgb(9,31,63);fill-rule:nonzero;stroke:white;stroke-width:1px;stroke-linejoin:round;stroke-miterlimit:2;"/>
    <path d="M454.94,1499.06C450.98,1495.66 450.25,1488.78 451.77,1484.23C456.93,1468.71 479.87,1470.77 491.11,1475.96C491.37,1476.07 491.5,1476.27 491.5,1476.56L491.5,1485.28C491.5,1485.59 491.238,1485.86 490.92,1485.86C490.789,1485.86 490.662,1485.81 490.56,1485.73C483.553,1480.4 475.683,1478.53 466.95,1480.14C461.51,1481.13 457.67,1487.46 461.31,1492.33C463.9,1495.79 472.74,1497.36 476.81,1498.12C485.46,1499.73 492.56,1503.05 493.4,1512.61C494.24,1522.27 486.91,1528.62 477.96,1530.3C468.6,1532.05 459.66,1530.9 451.14,1526.83C450.88,1526.7 450.75,1526.49 450.75,1526.2L450.75,1516.75C450.75,1516.3 450.93,1516.21 451.29,1516.47C459.43,1522.36 468.64,1525.58 478.53,1522.71C484.75,1520.9 486.2,1514.76 482.6,1509.55C482.404,1509.27 482.133,1509.05 481.82,1508.93C472.86,1505.28 462.47,1505.53 454.94,1499.06Z" style="fill:rgb(9,31,63);fill-rule:nonzero;stroke:white;stroke-width:1px;stroke-linejoin:round;stroke-miterlimit:2;"/>
    <path d="M759.88,1479.58C764.84,1475.92 769.46,1472.86 775.73,1472.11C789.6,1470.45 796.39,1479.16 796.56,1492.32C796.72,1504.72 796.787,1517.11 796.76,1529.48C796.76,1529.77 796.525,1530 796.24,1530L788.51,1530C788.177,1530 788.01,1529.83 788.01,1529.49C787.99,1517.19 788.69,1504.36 787.42,1492.16C786.73,1485.6 784.63,1480.49 777.48,1480.22C770.76,1479.97 764.79,1482.4 759.57,1487.51C759.357,1487.72 759.25,1487.98 759.25,1488.27L759.25,1529.38C759.25,1529.79 759.04,1530 758.62,1530L751.28,1529.99C750.76,1529.99 750.5,1529.73 750.5,1529.21L750.5,1473.87C750.5,1473.46 750.707,1473.25 751.12,1473.25L758.5,1473.25C759,1473.25 759.25,1473.5 759.25,1474L759.25,1479.26C759.25,1479.79 759.46,1479.89 759.88,1479.58Z" style="fill:rgb(9,31,63);fill-rule:nonzero;stroke:white;stroke-width:1px;stroke-linejoin:round;stroke-miterlimit:2;"/>
    <path d="M895.17,1503.06C894.73,1526.08 919.92,1527.76 934.13,1516.97C934.19,1516.92 934.258,1516.89 934.33,1516.86C934.694,1516.74 935.093,1516.93 935.214,1517.29C935.239,1517.37 935.251,1517.44 935.25,1517.52L935.25,1525.92C935.25,1526.18 935.127,1526.36 934.88,1526.45C928.993,1528.56 925.183,1529.8 923.45,1530.18C905.66,1534.05 888.48,1526.6 886.45,1506.79C884.59,1488.68 893.51,1470.8 914.09,1471.91C932.01,1472.88 937.23,1486.3 936.16,1502.09C936.14,1502.36 935.993,1502.5 935.72,1502.5L895.75,1502.5C895.436,1502.5 895.175,1502.75 895.17,1503.06ZM927.47,1495.27C928.43,1472.23 895.68,1474.95 895.26,1495.25C895.253,1495.58 895.42,1495.75 895.76,1495.75L926.97,1495.75C927.237,1495.75 927.459,1495.54 927.47,1495.27Z" style="fill:rgb(9,31,63);fill-rule:nonzero;stroke:white;stroke-width:1px;stroke-linejoin:round;stroke-miterlimit:2;"/>
    <path d="M538.75,1524.27C538.745,1524.04 538.557,1523.86 538.33,1523.86C538.236,1523.86 538.144,1523.89 538.07,1523.95C530.82,1529.96 520.18,1533.48 511.38,1530.1C499.58,1525.57 497.27,1508.16 506.69,1500.22C513.32,1494.65 528.12,1493.24 537.36,1493.17C538.307,1493.16 538.767,1492.69 538.74,1491.75C538.29,1474.77 516.07,1479.42 506.37,1483.85C506.342,1483.86 506.313,1483.87 506.283,1483.88C506.048,1483.93 505.812,1483.79 505.76,1483.56C505.753,1483.52 505.75,1483.49 505.75,1483.46L505.75,1475.26C505.75,1474.87 505.94,1474.62 506.32,1474.52C519.28,1471.03 546.84,1468.25 547.41,1489.19C547.577,1495.28 547.587,1508.71 547.44,1529.48C547.44,1529.83 547.263,1530 546.91,1530L539.38,1530C538.96,1530 538.75,1529.79 538.75,1529.37L538.75,1524.27ZM513.44,1520.81C521.43,1525.87 531.68,1522.05 538.44,1516.59C538.636,1516.43 538.75,1516.19 538.75,1515.94L538.75,1500.78C538.75,1500.49 538.603,1500.35 538.31,1500.36C528.86,1500.66 506.71,1500.61 510.61,1516.67C510.98,1518.19 512.21,1520.03 513.44,1520.81Z" style="fill:rgb(9,31,63);fill-rule:nonzero;stroke:white;stroke-width:1px;stroke-linejoin:round;stroke-miterlimit:2;"/>
    <path d="M644.86,1524.03C635.51,1530.2 623.43,1535.61 613.47,1527.34C605.16,1520.44 605.24,1504.77 615.03,1498.78C622.58,1494.16 636.04,1493.32 644.92,1493.07C645.174,1493.07 645.38,1492.85 645.38,1492.6L645.38,1492.59C645.29,1486.97 643.57,1481.66 637.25,1480.54C628.23,1478.95 621.66,1480.85 612.9,1483.71C612.467,1483.85 612.25,1483.69 612.25,1483.24L612.25,1475.3C612.25,1474.97 612.41,1474.76 612.73,1474.67C624.02,1471.36 647.11,1468.95 652.53,1482.43C653.47,1484.76 653.95,1489.24 653.97,1495.87C654.01,1507.07 654.017,1518.27 653.99,1529.46C653.99,1529.85 653.797,1530.04 653.41,1530.03L645.94,1529.92C645.627,1529.92 645.467,1529.76 645.46,1529.45L645.4,1524.31C645.393,1523.89 645.213,1523.8 644.86,1524.03ZM620.44,1521.06C628.24,1525.62 638.39,1522.1 644.85,1516.63C645.117,1516.4 645.25,1516.12 645.25,1515.77L645.25,1500.77C645.25,1500.46 645.097,1500.32 644.79,1500.34C634.52,1500.93 614.5,1500.88 616.74,1515.33C617.14,1517.95 618.373,1519.86 620.44,1521.06Z" style="fill:rgb(9,31,63);fill-rule:nonzero;stroke:white;stroke-width:1px;stroke-linejoin:round;stroke-miterlimit:2;"/>
    <path d="M1016.19,1520.72C1019.93,1516.29 1019.09,1509.56 1013.02,1507.75C1003.12,1504.79 986.65,1504.53 985.1,1490.98C983.89,1480.4 992.36,1473.5 1002.17,1472.36C1010.1,1471.45 1017.65,1472.62 1024.83,1475.87C1025.11,1476 1025.25,1476.22 1025.25,1476.53L1025.25,1485.47C1025.25,1485.7 1025.06,1485.9 1024.82,1485.9C1024.73,1485.9 1024.63,1485.87 1024.56,1485.81C1017.63,1480.46 1009.81,1478.55 1001.1,1480.1C996.447,1480.93 994.047,1483.58 993.9,1488.03C993.46,1501.61 1023.82,1492.61 1027.14,1511.09C1029,1521.5 1021.2,1528.65 1011.48,1530.39C1002.19,1532.05 993.357,1530.84 984.97,1526.75C984.657,1526.6 984.5,1526.35 984.5,1526L984.5,1516.97C984.5,1516.64 984.771,1516.37 985.1,1516.37C985.238,1516.37 985.373,1516.42 985.48,1516.51C992.52,1522.18 1000.5,1524.51 1009.41,1523.48C1011.12,1523.28 1015.02,1522.11 1016.19,1520.72Z" style="fill:rgb(9,31,63);fill-rule:nonzero;stroke:white;stroke-width:1px;stroke-linejoin:round;stroke-miterlimit:2;"/>
    <path d="M817.76,1473.53C817.76,1473.39 817.643,1473.27 817.5,1473.27L809.5,1473.27C809.357,1473.27 809.24,1473.39 809.24,1473.53L809.24,1529.73C809.24,1529.87 809.357,1529.99 809.5,1529.99L817.5,1529.99C817.643,1529.99 817.76,1529.87 817.76,1529.73L817.76,1473.53Z" style="fill:rgb(9,31,63);stroke:white;stroke-width:1px;stroke-linejoin:round;stroke-miterlimit:2;"/>
    <path d="M855.65,1516.65L873.02,1473.45C873.069,1473.33 873.189,1473.25 873.32,1473.25L881.75,1473.25C881.923,1473.25 882.063,1473.4 882.063,1473.57C882.063,1473.61 882.055,1473.65 882.04,1473.69L858.44,1529.8C858.392,1529.92 858.278,1530 858.15,1530L851.8,1530C851.672,1530 851.558,1529.92 851.51,1529.8L828.03,1473.69C828.015,1473.65 828.007,1473.61 828.007,1473.57C828.007,1473.4 828.147,1473.25 828.32,1473.25L837.16,1473.25C837.291,1473.25 837.411,1473.33 837.46,1473.45L855.05,1516.65C855.096,1516.78 855.217,1516.86 855.35,1516.86C855.483,1516.86 855.604,1516.78 855.65,1516.65Z" style="fill:rgb(9,31,63);fill-rule:nonzero;stroke:white;stroke-width:1px;stroke-linejoin:round;stroke-miterlimit:2;"/>
    <path d="M954.32,1488.44C952.9,1489.58 953.27,1490.37 953.27,1492.01C953.23,1504.44 953.237,1516.91 953.29,1529.41C953.29,1529.82 953.09,1530.02 952.69,1530.01L945.08,1529.97C944.693,1529.97 944.5,1529.78 944.5,1529.39L944.5,1473.75C944.5,1473.48 944.726,1473.25 945,1473.25L952.72,1473.25C953.04,1473.25 953.203,1473.41 953.21,1473.72L953.37,1481.26C953.383,1481.69 953.567,1481.78 953.92,1481.53C961.91,1475.87 968.12,1472.16 978.42,1473.85C978.807,1473.92 979,1474.14 979,1474.53L979,1482.69C979,1482.91 978.815,1483.1 978.59,1483.1C978.56,1483.1 978.53,1483.1 978.5,1483.09C969.467,1481.01 961.407,1482.79 954.32,1488.44Z" style="fill:rgb(9,31,63);fill-rule:nonzero;stroke:white;stroke-width:1px;stroke-linejoin:round;stroke-miterlimit:2;"/>
    <path d="M1045.75,1473.77C1045.75,1473.48 1045.52,1473.25 1045.23,1473.25L1037.51,1473.25C1037.22,1473.25 1036.99,1473.48 1036.99,1473.77L1036.99,1529.49C1036.99,1529.78 1037.22,1530.01 1037.51,1530.01L1045.23,1530.01C1045.52,1530.01 1045.75,1529.78 1045.75,1529.49L1045.75,1473.77Z" style="fill:rgb(9,31,63);stroke:white;stroke-width:1px;stroke-linejoin:round;stroke-miterlimit:2;"/>
    <path d="M1127.9,1515.53L1145.4,1473.46C1145.45,1473.33 1145.58,1473.25 1145.72,1473.25L1154.17,1473.25C1154.36,1473.25 1154.51,1473.4 1154.51,1473.59C1154.51,1473.63 1154.5,1473.68 1154.48,1473.72L1121.89,1550.54C1121.84,1550.67 1121.71,1550.75 1121.57,1550.75L1112.93,1550.75C1112.74,1550.75 1112.59,1550.6 1112.59,1550.41C1112.59,1550.36 1112.6,1550.31 1112.62,1550.27L1122.73,1527.67C1122.77,1527.58 1122.77,1527.49 1122.73,1527.4L1100.48,1473.77C1100.46,1473.73 1100.45,1473.68 1100.45,1473.64C1100.45,1473.45 1100.61,1473.3 1100.79,1473.3L1100.8,1473.3L1109.51,1473.23C1109.65,1473.23 1109.78,1473.31 1109.83,1473.44L1127.28,1515.53C1127.34,1515.65 1127.46,1515.73 1127.59,1515.73C1127.72,1515.73 1127.85,1515.65 1127.9,1515.53Z" style="fill:rgb(9,31,63);fill-rule:nonzero;stroke:white;stroke-width:1px;stroke-linejoin:round;stroke-miterlimit:2;"/>
</svg>
