<?xml version="1.0" encoding="utf-8"?>
<!-- Generator: Adobe Illustrator 21.1.0, SVG Export Plug-In . SVG Version: 6.00 Build 0)  -->
<svg version="1.1" id="Layer_1" xmlns="http://www.w3.org/2000/svg" xmlns:xlink="http://www.w3.org/1999/xlink" x="0px" y="0px"
	 viewBox="0 0 100 64.8" style="enable-background:new 0 0 100 64.8;" xml:space="preserve">
<style type="text/css">
	.st0{fill:#091F3F;}
	.st1{fill:none;}
</style>
<g id="Logo_Big">
	<path class="st0" d="M28.3,50.7c-0.3-0.3-0.6-0.7-0.9-1.1C27.7,50,28,50.3,28.3,50.7c0.3,0.3,0.6,0.7,0.9,1
		C28.9,51.4,28.6,51,28.3,50.7z M79.2,12c-0.7-0.5-1.3-1-2-1.4C77.9,11,78.5,11.5,79.2,12c1.7,1.4,3.3,3,4.6,4.8
		C82.5,14.9,80.9,13.3,79.2,12z M85,18.6c-0.4-0.6-0.8-1.3-1.3-1.8C84.2,17.4,84.6,18,85,18.6c0.3,0.6,0.7,1.3,1,1.9
		C85.7,19.8,85.4,19.2,85,18.6z M86.8,22.5c0.5,1.3,0.8,2.7,1,4.2h0v0C87.7,25.3,87.3,23.9,86.8,22.5z M28.3,50.7
		c-0.3-0.3-0.6-0.7-0.9-1.1C27.7,50,28,50.3,28.3,50.7c0.3,0.3,0.6,0.7,0.9,1C28.9,51.4,28.6,51,28.3,50.7z M28.3,50.7
		c-0.3-0.3-0.6-0.7-0.9-1.1C27.7,50,28,50.3,28.3,50.7c0.3,0.3,0.6,0.7,0.9,1C28.9,51.4,28.6,51,28.3,50.7z"/>
	<path class="st1" d="M58.1,5.6h0.3h0.3h0.7c3.8,0,7.5,0.6,11.1,1.7c0.1,0.1,0.3,0.1,0.5,0.2"/>
	<path class="st1" d="M75,52c0.6-0.4,1.1-0.9,1.6-1.3c0.2-0.2,0.5-0.4,0.7-0.6"/>
	<path class="st1" d="M38.3,25.3L38.3,25.3L38.3,25.3L27,26.1c0.7-1.4,1.4-2.8,2.3-4.1"/>
	<path class="st1" d="M34,16.7c-0.6,0.6-1.2,1.1-1.7,1.7"/>
	<path class="st0" d="M91.6,27.1c-0.3-3.3-1.3-6.6-2.8-9.6c-1.7-3.1-3.8-5.8-6.5-8c-2.9-2.4-6.3-4.4-9.9-5.7
		c-4.2-1.5-8.6-2.3-13-2.3h-1.7L57.6,0c-8.8,0.2-17.4,2.7-24.9,7.4c-3.7,2.3-7.1,5.2-10,8.5c-2.8,3.2-5,7-6.5,10.9L0,28l17.1,12.9
		c0.7,4.4,2.5,8.5,5.3,12c2.8,3.4,6.3,6.2,10.2,8.1c4.1,2,8.5,3.2,13,3.6c4.7,0.5,9.5,0.1,14.1-0.9l0.4-0.1l0.4-0.1l0.4-0.1l0.4-0.1
		h0.1l0.1,1.3c3.9-1,7.6-2.5,11.1-4.5c3.2-1.7,6.1-3.9,8.8-6.4c2.5-2.3,4.7-4.9,6.5-7.7c1.7-2.6,3.1-5.6,4-8.6l8.1-1.1L91.6,27.1z
		 M87.9,26.7L87.9,26.7L77.6,39.5l7.9-1.1c-0.4,1.1-1,2.3-1.5,3.3c-0.6,1.1-1.3,2.2-2,3.1c-0.8,1-1.6,2.1-2.5,3
		c-0.7,0.7-1.4,1.4-2.1,2.1c-0.2,0.2-0.5,0.5-0.7,0.7c-0.5,0.5-1.1,0.9-1.6,1.3c-0.4,0.3-0.8,0.6-1.3,0.9c-0.4,0.3-0.9,0.6-1.3,0.9
		c-0.9,0.6-1.8,1.1-2.8,1.6c-1,0.5-2,1-3.1,1.4c-0.5,0.2-1,0.4-1.6,0.6c-0.6,0.2-1.1,0.4-1.6,0.6c-0.7,0.2-1.5,0.4-2.2,0.6v0.2
		l0.1,0.8h-0.1l-0.3,0.1l-0.3,0.1l-0.3,0.1c-0.1,0-0.2,0.1-0.3,0.1c-3.9,0.8-7.9,1-11.9,0.6c-3.8-0.4-7.5-1.4-11-3.1
		c-2.9-1.4-5.5-3.3-7.7-5.7c-0.3-0.3-0.6-0.7-0.9-1c-0.3-0.3-0.6-0.7-0.8-1.1c-1.9-2.6-3.2-5.6-3.9-8.7l14.8-15.5L27,26.1h0
		c0.7-1.4,1.5-2.8,2.3-4.1c0.9-1.3,1.9-2.5,2.9-3.6c0.6-0.6,1.1-1.2,1.7-1.7c1.7-1.7,3.7-3.1,5.7-4.3c2.2-1.4,4.6-2.5,7.1-3.4
		c1.2-0.4,2.4-0.8,3.6-1c0.9-0.3,1.9-0.5,2.9-0.6c0.7-0.1,1.3-0.2,2-0.3c0.8-0.1,1.6-0.2,2.4-0.2c0.1,0,0.3,0,0.4,0L58,5.6h1.5
		c3.8,0,7.5,0.6,11.1,1.7c0.1,0.1,0.3,0.1,0.5,0.2c0.2,0,0.3,0.1,0.5,0.2c0.1,0,0.2,0.1,0.3,0.1c0.6,0.2,1.1,0.4,1.6,0.7
		c0.5,0.2,1,0.5,1.5,0.8h0c0.7,0.4,1.4,0.8,2.1,1.3c0.7,0.4,1.3,0.9,2,1.4c1.7,1.4,3.3,3,4.6,4.8c0,0,0,0,0,0
		c0.5,0.6,0.9,1.2,1.3,1.8c0.3,0.6,0.7,1.3,1,1.9c0.3,0.6,0.6,1.3,0.8,2C87.3,23.9,87.7,25.3,87.9,26.7L87.9,26.7z"/>
	<path class="st0" d="M58,6.8L58,6.8c-0.3,0-0.5,0.1-0.8,0.1c0.1,0,0.2,0,0.3-0.1C57.8,6.8,57.9,6.8,58,6.8z"/>
	<polygon class="st0" points="61.2,59.6 61.2,59.5 61.1,58.7 61.2,59.6 	"/>
	<path class="st0" d="M63.3,57.9c-0.7,0.2-1.5,0.4-2.2,0.6v0C61.9,58.3,62.6,58.1,63.3,57.9z"/>
	<path class="st0" d="M84,41.8c-0.6,1.1-1.3,2.2-2,3.1c-0.8,1-1.6,2.1-2.5,3c0.9-1,1.7-2,2.5-3C82.7,43.9,83.4,42.9,84,41.8z"/>
	<polygon class="st0" points="38.3,25.3 23.5,40.9 38.3,25.3 	"/>
	<polygon class="st0" points="87.9,26.7 87.9,26.7 87.9,26.7 	"/>
</g>
</svg>
