<?xml version="1.0" encoding="UTF-8" standalone="no"?>
<!DOCTYPE svg PUBLIC "-//W3C//DTD SVG 1.1//EN" "http://www.w3.org/Graphics/SVG/1.1/DTD/svg11.dtd">
<svg width="100%" height="100%" viewBox="0 0 300 110" version="1.1" xmlns="http://www.w3.org/2000/svg" xmlns:xlink="http://www.w3.org/1999/xlink" xml:space="preserve" xmlns:serif="http://www.serif.com/" style="fill-rule:evenodd;clip-rule:evenodd;stroke-linejoin:round;stroke-miterlimit:2;">
    <g>
        <g>
            <g>
                <path d="M51.6,84.2C42.5,101 24.7,109 11.9,102C-0.9,95.1 -3.9,75.8 5.2,59C14.3,42.2 32.1,34.2 44.9,41.1C57.7,48.1 60.7,67.4 51.6,84.2ZM43.2,43.2C31.3,36.7 14.8,44.2 6.3,59.8C-2.2,75.4 0.6,93.3 12.5,99.8C24.4,106.3 40.9,98.8 49.4,83.2C57.8,67.6 55.1,49.7 43.2,43.2Z" style="fill:rgb(9,31,63);fill-rule:nonzero;"/>
                <path d="M43.4,79.5C36.4,92.3 22.9,98.4 13.1,93.1C3.3,87.8 1.1,73.1 8,60.3C15,47.5 28.5,41.4 38.3,46.7C48.1,52 50.4,66.6 43.4,79.5ZM36.5,49.1C27.8,44.4 15.7,49.8 9.5,61.2C3.3,72.6 5.3,85.7 14,90.4C22.7,95.1 34.8,89.7 41,78.3C47.2,66.9 45.2,53.8 36.5,49.1Z" style="fill:rgb(9,31,63);fill-rule:nonzero;"/>
                <path d="M67.6,29.4C61.7,40.3 50.2,45.5 41.9,41C33.6,36.5 31.7,24.1 37.6,13.2C43.5,2.3 55,-2.9 63.3,1.6C71.6,6.1 73.5,18.6 67.6,29.4ZM62.2,2.9C54.5,-1.3 43.8,3.5 38.3,13.7C32.8,23.8 34.6,35.4 42.3,39.6C50,43.8 60.7,39 66.2,28.8C71.7,18.7 69.9,7.1 62.2,2.9Z" style="fill:rgb(9,31,63);fill-rule:nonzero;"/>
                <path d="M62.3,26.4C57.8,34.7 49,38.6 42.7,35.2C36.4,31.8 34.9,22.3 39.4,14C43.9,5.7 52.7,1.7 59,5.1C65.3,8.6 66.8,18.1 62.3,26.4ZM57.8,6.7C52.2,3.6 44.3,7.2 40.3,14.6C36.3,22 37.6,30.5 43.2,33.5C48.8,36.6 56.7,33 60.7,25.6C64.8,18.2 63.5,9.8 57.8,6.7Z" style="fill:rgb(9,31,63);fill-rule:nonzero;"/>
                <path d="M55.9,22.9C53.3,27.7 48.3,29.9 44.7,28C41.1,26 40.2,20.6 42.8,15.8C45.4,11 50.4,8.8 54,10.7C57.6,12.7 58.5,18.1 55.9,22.9ZM52.7,12C49.7,10.4 45.6,12.2 43.4,16.2C41.3,20.1 42,24.6 45,26.2C48,27.8 52.1,26 54.3,22C56.3,18.1 55.6,13.6 52.7,12Z" style="fill:rgb(9,31,63);fill-rule:nonzero;"/>
                <path d="M20.7,67.9C18.8,71.4 15,73.1 12.3,71.7C9.6,70.2 9,66.2 10.9,62.6C12.8,59.1 16.6,57.4 19.3,58.8C22,60.3 22.6,64.4 20.7,67.9ZM18.3,59.8C16.1,58.6 13,60 11.4,62.9C9.8,65.8 10.3,69.2 12.6,70.4C14.8,71.6 17.9,70.2 19.5,67.3C21,64.4 20.5,61 18.3,59.8Z" style="fill:rgb(9,31,63);fill-rule:nonzero;"/>
                <path d="M39.3,76.2C37.4,79.8 33.6,81.4 30.9,80C28.2,78.5 27.6,74.5 29.5,70.9C31.4,67.4 35.2,65.7 37.9,67.1C40.6,68.6 41.2,72.6 39.3,76.2ZM36.9,68.1C34.7,66.9 31.6,68.3 30,71.2C28.4,74.1 28.9,77.5 31.2,78.7C33.4,79.9 36.5,78.5 38.1,75.6C39.6,72.6 39.1,69.3 36.9,68.1Z" style="fill:rgb(9,31,63);fill-rule:nonzero;"/>
                <path d="M35.2,60.2C33.3,63.7 29.5,65.4 26.8,64C24.1,62.5 23.5,58.5 25.4,54.9C27.3,51.4 31.1,49.7 33.8,51.1C36.5,52.6 37.1,56.6 35.2,60.2ZM32.7,52C30.5,50.8 27.4,52.2 25.8,55.1C24.2,58 24.7,61.4 27,62.6C29.2,63.8 32.3,62.4 33.9,59.5C35.5,56.6 35,53.3 32.7,52Z" style="fill:rgb(9,31,63);fill-rule:nonzero;"/>
                <g transform="matrix(0.4771,-0.8789,0.8789,0.4771,-48.5097,57.564)">
                    <ellipse cx="24.1" cy="69.5" rx="3" ry="2.3" style="fill:rgb(9,31,63);"/>
                </g>
                <g transform="matrix(0.4336,-0.9011,0.9011,0.4336,-39.9738,59.8752)">
                    <rect x="14.3" y="61.2" width="26.7" height="1" style="fill:rgb(9,31,63);"/>
                </g>
                <g transform="matrix(0.9981,-0.0615471,0.0615471,0.9981,-4.4708,1.6107)">
                    <rect x="23.4" y="65" width="1" height="16.8" style="fill:rgb(9,31,63);"/>
                </g>
            </g>
        </g>
        <g>
            <path d="M75.5,48.9L80.7,72.4L80.8,72.4L86,48.9L93.8,48.9L82.9,93.2C82.5,94.9 81.9,96.3 81.2,97.4C80.5,98.5 79.7,99.4 78.7,100.1C77.8,100.8 76.8,101.2 75.7,101.5C74.6,101.8 73.5,101.9 72.4,101.9L70.3,101.9L70.3,94.8L72,94.8C72.7,94.8 73.4,94.7 73.9,94.5C74.4,94.3 74.9,93.9 75.3,93.2C75.7,92.5 76.1,91.5 76.5,90.2C76.8,88.9 77.2,87.1 77.7,85L67.4,49L75.5,49L75.5,48.9Z" style="fill:rgb(9,31,63);fill-rule:nonzero;"/>
            <path d="M111.2,82.8L111,82.8C110,84.2 109,85.3 108,86C107,86.7 105.6,87.1 103.7,87.1C102.8,87.1 101.9,87 101,86.7C100.1,86.4 99.2,85.9 98.4,85.2C97.6,84.5 96.9,83.5 96.4,82.2C95.9,80.9 95.6,79.2 95.6,77.1C95.6,75 95.8,73.1 96.1,71.5C96.4,69.9 97.1,68.5 98,67.5C98.9,66.4 100.1,65.6 101.7,65.1C103.2,64.6 105.2,64.3 107.6,64.3C108.1,64.3 108.7,64.3 109.2,64.4C109.7,64.4 110.4,64.5 111.2,64.5L111.2,60.6C111.2,59.3 110.9,58.2 110.4,57.4C109.9,56.6 108.9,56.1 107.4,56.1C106.4,56.1 105.5,56.4 104.7,57.1C103.9,57.7 103.3,58.7 103.1,59.9L95.7,59.9C95.9,56.5 97.1,53.8 99.1,51.7C100.1,50.7 101.3,49.9 102.7,49.4C104.1,48.8 105.6,48.5 107.4,48.5C109,48.5 110.5,48.7 111.9,49.2C113.3,49.7 114.5,50.4 115.5,51.4C116.5,52.4 117.3,53.6 117.9,55.1C118.5,56.6 118.8,58.3 118.8,60.3L118.8,86.5L111.2,86.5L111.2,82.8ZM111.2,70.4C110.4,70.3 109.7,70.2 109.1,70.2C107.5,70.2 106.1,70.6 104.9,71.4C103.7,72.2 103.2,73.6 103.2,75.6C103.2,77 103.5,78.2 104.2,79.1C104.9,80 105.9,80.4 107.1,80.4C108.4,80.4 109.4,80 110.1,79.1C110.8,78.3 111.2,77.1 111.2,75.5L111.2,70.4Z" style="fill:rgb(9,31,63);fill-rule:nonzero;"/>
            <path d="M132.4,75.8C132.4,77 132.7,77.9 133.4,78.5C134.1,79.1 135,79.5 136.1,79.5C137.5,79.5 138.5,79.1 139,78.2C139.5,77.4 139.8,76.5 139.9,75.7L147.5,75.7C147.5,77.3 147.2,78.8 146.7,80.2C146.2,81.6 145.4,82.8 144.4,83.8C143.4,84.8 142.2,85.7 140.8,86.3C139.4,86.9 137.9,87.2 136.1,87.2C133.8,87.2 131.8,86.7 130.1,85.7C128.4,84.7 127.1,83.4 126.2,81.8C125.7,80.8 125.3,79.7 125.1,78.4C124.9,77.1 124.8,75.7 124.8,74.2L124.8,61.6C124.8,60.1 124.9,58.7 125.1,57.4C125.3,56.1 125.7,55 126.2,54C127.1,52.4 128.4,51.1 130.1,50.1C131.8,49.1 133.8,48.6 136.1,48.6C137.8,48.6 139.4,48.9 140.8,49.5C142.2,50.1 143.4,50.9 144.4,52C145.4,53.1 146.1,54.3 146.6,55.8C147.1,57.3 147.4,58.9 147.4,60.6L139.8,60.6C139.8,59.1 139.5,57.9 138.8,57.2C138.1,56.5 137.2,56.1 136.1,56.1C135,56.1 134.1,56.5 133.4,57.2C132.7,57.9 132.4,59 132.4,60.4L132.4,75.8Z" style="fill:rgb(9,31,63);fill-rule:nonzero;"/>
            <path d="M151.7,28.7L159.4,28.7L159.4,52.5L159.5,52.5C160.3,51.3 161.2,50.3 162.4,49.6C163.5,48.8 164.9,48.4 166.7,48.4C167.6,48.4 168.6,48.6 169.5,48.9C170.4,49.2 171.3,49.8 172,50.5C172.7,51.2 173.3,52.2 173.8,53.4C174.2,54.6 174.5,56 174.5,57.7L174.5,86.6L166.9,86.6L166.9,60.5C166.9,59.1 166.6,58 165.9,57.2C165.3,56.4 164.3,56 163.1,56C161.7,56 160.7,56.4 160.1,57.3C159.6,58.2 159.3,59.5 159.3,61.2L159.3,86.6L151.7,86.6L151.7,28.7Z" style="fill:rgb(9,31,63);fill-rule:nonzero;"/>
            <path d="M180.8,28.7L188.4,28.7L188.4,41.2L180.8,41.2L180.8,28.7ZM180.8,48.9L188.4,48.9L188.4,86.6L180.8,86.6L180.8,48.9Z" style="fill:rgb(9,31,63);fill-rule:nonzero;"/>
            <path d="M201.5,70.6L201.5,75.7C201.5,76.9 201.8,77.8 202.5,78.4C203.2,79 204.1,79.4 205.2,79.4C206.6,79.4 207.6,79 208.1,78.1C208.6,77.3 208.9,76.4 209,75.6L216.6,75.6C216.6,77.2 216.3,78.7 215.8,80.1C215.3,81.5 214.5,82.7 213.5,83.7C212.5,84.7 211.3,85.6 209.9,86.2C208.5,86.8 206.9,87.1 205.2,87.1C202.9,87.1 200.9,86.6 199.2,85.6C197.5,84.6 196.2,83.3 195.3,81.7C194.8,80.7 194.4,79.6 194.2,78.3C194,77 193.9,75.6 193.9,74.1L193.9,61.6C193.9,60.1 194,58.7 194.2,57.4C194.4,56.1 194.8,55 195.3,54C196.2,52.4 197.5,51.1 199.2,50.1C200.9,49.1 202.9,48.6 205.2,48.6C206.9,48.6 208.5,48.9 209.9,49.5C211.3,50.1 212.5,50.9 213.5,52C214.5,53.1 215.2,54.3 215.7,55.8C216.2,57.2 216.5,58.8 216.5,60.4L216.5,70.8L201.5,70.8L201.5,70.6ZM201.5,64.7L208.9,64.7L208.9,60.4C208.9,59 208.6,57.9 207.9,57.2C207.2,56.5 206.3,56.1 205.2,56.1C204.1,56.1 203.2,56.5 202.5,57.2C201.8,57.9 201.5,59 201.5,60.4L201.5,64.7Z" style="fill:rgb(9,31,63);fill-rule:nonzero;"/>
            <path d="M235.5,28.7L243.1,28.7L243.1,76C243.1,77.4 243.4,78.4 243.9,78.9C244.4,79.4 245.4,79.8 246.8,79.9L246.8,87C245.1,87 243.5,86.9 242.1,86.6C240.7,86.3 239.5,85.8 238.5,85C237.5,84.2 236.8,83.2 236.3,81.8C235.8,80.4 235.5,78.6 235.5,76.4L235.5,28.7Z" style="fill:rgb(9,31,63);fill-rule:nonzero;"/>
            <path d="M264.2,82.8L264,82.8C263,84.2 262,85.3 261,86C260,86.7 258.6,87.1 256.7,87.1C255.8,87.1 254.9,87 254,86.7C253.1,86.4 252.2,85.9 251.4,85.2C250.6,84.5 249.9,83.5 249.4,82.2C248.9,80.9 248.6,79.2 248.6,77.1C248.6,75 248.8,73.1 249.1,71.5C249.4,69.9 250.1,68.5 251,67.5C251.9,66.4 253.1,65.6 254.7,65.1C256.2,64.6 258.2,64.3 260.6,64.3C261.1,64.3 261.7,64.3 262.2,64.4C262.7,64.4 263.4,64.5 264.2,64.5L264.2,60.6C264.2,59.3 263.9,58.2 263.4,57.4C262.9,56.6 261.9,56.1 260.4,56.1C259.4,56.1 258.5,56.4 257.7,57.1C256.9,57.7 256.3,58.7 256.1,59.9L248.7,59.9C248.9,56.5 250.1,53.8 252.1,51.7C253.1,50.7 254.3,49.9 255.7,49.4C257.1,48.8 258.6,48.5 260.4,48.5C262,48.5 263.5,48.7 264.9,49.2C266.3,49.7 267.5,50.4 268.5,51.4C269.5,52.4 270.3,53.6 270.9,55.1C271.5,56.6 271.8,58.3 271.8,60.3L271.8,86.5L264.2,86.5L264.2,82.8ZM264.1,70.4C263.3,70.3 262.6,70.2 262,70.2C260.4,70.2 259,70.6 257.8,71.4C256.6,72.2 256.1,73.6 256.1,75.6C256.1,77 256.4,78.2 257.1,79.1C257.8,80 258.8,80.4 260,80.4C261.3,80.4 262.3,80 263,79.1C263.7,78.3 264.1,77.1 264.1,75.5L264.1,70.4Z" style="fill:rgb(9,31,63);fill-rule:nonzero;"/>
            <path d="M277.3,28.7L284.9,28.7L284.9,52.3L285,52.3C285.8,51.1 286.8,50.1 288,49.4C289.2,48.7 290.5,48.4 292,48.4C293.8,48.4 295.3,48.7 296.3,49.4C297.3,50 298.1,50.9 298.8,51.9C299.3,52.7 299.6,53.7 299.8,55C299.9,56.3 300,58.3 300,61L300,75.3C300,77.4 299.9,79 299.7,80.3C299.5,81.5 299.2,82.6 298.7,83.4C297.4,85.8 295.2,87 292.1,87C290.2,87 288.8,86.6 287.8,85.9C286.8,85.2 285.8,84.2 284.9,83.2L284.9,86.6L277.3,86.6L277.3,28.7ZM292.4,60.5C292.4,59.3 292.1,58.3 291.6,57.4C291.1,56.5 290.1,56.1 288.7,56.1C287.6,56.1 286.7,56.5 286,57.3C285.3,58.1 284.9,59 284.9,60.2L284.9,74.8C284.9,76.2 285.2,77.3 285.9,78.2C286.6,79.1 287.5,79.5 288.6,79.5C289.9,79.5 290.8,79 291.4,78.1C292,77.2 292.3,75.9 292.3,74.4L292.3,60.5L292.4,60.5Z" style="fill:rgb(9,31,63);fill-rule:nonzero;"/>
        </g>
        <g>
            <path d="M116.6,103.8C116.6,104.8 116.5,109.9 112.4,109.9C110.5,109.9 108.2,108.5 108.2,103.8C108.2,99.1 110.4,97.7 112.4,97.7C114.3,97.7 116.6,99.1 116.6,103.8ZM109.8,103.8C109.8,105.5 110.1,108.5 112.4,108.5C114.7,108.5 115,105.6 115,103.8C115,102.1 114.7,99.1 112.4,99.1C110.1,99.1 109.8,102.1 109.8,103.8Z" style="fill:rgb(9,31,63);fill-rule:nonzero;"/>
            <path d="M119.1,97.9L126.5,97.9L126.5,99.3L120.6,99.3L120.6,102.8L125.6,102.8L125.6,104.2L120.6,104.2L120.6,109.7L119.1,109.7L119.1,97.9Z" style="fill:rgb(9,31,63);fill-rule:nonzero;"/>
            <path d="M139.8,106C140.1,107.4 140.8,108.5 142.4,108.5C143.6,108.5 144.6,107.8 144.6,106.5C144.6,105.1 143.4,104.7 142.2,104.2C140.5,103.5 138.9,103 138.9,100.8C138.9,98.8 140.5,97.7 142.4,97.7C144.4,97.7 145.5,98.8 146,100.7L144.6,101.1C144.3,99.9 143.7,99.1 142.4,99.1C141.4,99.1 140.5,99.6 140.5,100.7C140.5,101.8 141.2,102.1 142.1,102.5L144.6,103.6C145.7,104.2 146.2,105.1 146.2,106.4C146.2,108.6 144.6,109.9 142.5,109.9C140.3,109.9 138.9,108.5 138.6,106.4L139.8,106Z" style="fill:rgb(9,31,63);fill-rule:nonzero;"/>
            <path d="M154.9,97.6L156.3,98.3L152.5,105.1L152.5,109.7L151,109.7L151,105.1L147.2,98.3L148.6,97.6L151.7,103.7L154.9,97.6Z" style="fill:rgb(9,31,63);fill-rule:nonzero;"/>
            <path d="M157.8,97.9L159.7,97.9L164.3,107.8L164.2,104.7L164.2,97.9L165.7,97.9L165.7,109.7L163.8,109.7L159.2,99.8L159.3,102.9L159.3,109.7L157.8,109.7L157.8,97.9Z" style="fill:rgb(9,31,63);fill-rule:nonzero;"/>
            <path d="M170.8,99.3L167.5,99.3L167.5,97.9L175.5,97.9L175.5,99.3L172.3,99.3L172.3,109.7L170.8,109.7L170.8,99.3Z" style="fill:rgb(9,31,63);fill-rule:nonzero;"/>
            <path d="M177.3,97.9L178.8,97.9L178.8,102.8L183.5,102.8L183.5,97.9L185,97.9L185,109.7L183.5,109.7L183.5,104.2L178.8,104.2L178.8,109.7L177.3,109.7L177.3,97.9Z" style="fill:rgb(9,31,63);fill-rule:nonzero;"/>
            <path d="M187.7,97.9L195.1,97.9L195.1,99.3L189.3,99.3L189.3,102.8L194.1,102.8L194.1,104.2L189.3,104.2L189.3,108.4L195.1,108.4L195.1,109.8L187.7,109.8L187.7,97.9Z" style="fill:rgb(9,31,63);fill-rule:nonzero;"/>
            <path d="M200,99.3L196.7,99.3L196.7,97.9L204.7,97.9L204.7,99.3L201.5,99.3L201.5,109.7L200,109.7L200,99.3Z" style="fill:rgb(9,31,63);fill-rule:nonzero;"/>
            <path d="M207.3,108.4L209,108.4L209,99.3L207.3,99.3L207.3,97.9L212.1,97.9L212.1,99.3L210.4,99.3L210.4,108.4L212.1,108.4L212.1,109.8L207.3,109.8L207.3,108.4Z" style="fill:rgb(9,31,63);fill-rule:nonzero;"/>
            <path d="M222.5,107.5C221.5,109 220.4,110 218.6,110C215.2,110 214.1,106.8 214.1,103.9C214.1,99.2 216.6,97.8 218.5,97.8C220.3,97.8 221.4,98.8 222.2,100.3L220.8,101C220.3,100 219.6,99.2 218.5,99.2C216.1,99.2 215.7,102.1 215.7,103.9C215.7,105.7 216.1,108.6 218.5,108.6C219.9,108.6 220.6,107.8 221.3,106.7L222.5,107.5Z" style="fill:rgb(9,31,63);fill-rule:nonzero;"/>
            <path d="M234.7,109.7L234.7,108.3L235.9,108.3L235.9,99.2L234.7,99.2L234.7,97.8L238.4,97.8C241.4,97.8 242.7,98.9 242.7,100.9C242.7,101.9 242.3,102.8 241.4,103.3C242.7,103.7 243.4,104.8 243.4,106.2C243.4,108.3 242,109.6 239.5,109.6L234.7,109.6L234.7,109.7ZM239.1,103C240.4,103 241.1,102.2 241.1,101.1C241.1,99.7 240.1,99.3 239,99.3L237.4,99.3L237.4,103L239.1,103ZM239.2,108.4C240.5,108.4 241.8,108.1 241.8,106.5C241.8,105.3 241,104.4 239.6,104.4L237.5,104.4L237.5,108.4L239.2,108.4Z" style="fill:rgb(9,31,63);fill-rule:nonzero;"/>
            <path d="M245.4,108.4L247.1,108.4L247.1,99.3L245.4,99.3L245.4,97.9L250.2,97.9L250.2,99.3L248.5,99.3L248.5,108.4L250.2,108.4L250.2,109.8L245.4,109.8L245.4,108.4Z" style="fill:rgb(9,31,63);fill-rule:nonzero;"/>
            <path d="M260.6,103.8C260.6,104.8 260.5,109.9 256.4,109.9C254.5,109.9 252.2,108.5 252.2,103.8C252.2,99.1 254.4,97.7 256.4,97.7C258.3,97.7 260.6,99.1 260.6,103.8ZM253.8,103.8C253.8,105.5 254.1,108.5 256.4,108.5C258.7,108.5 259,105.6 259,103.8C259,102.1 258.7,99.1 256.4,99.1C254.1,99.1 253.8,102.1 253.8,103.8Z" style="fill:rgb(9,31,63);fill-rule:nonzero;"/>
            <path d="M263,97.9L264.5,97.9L264.5,108.3L270.7,108.3L270.7,109.7L263,109.7L263,97.9Z" style="fill:rgb(9,31,63);fill-rule:nonzero;"/>
            <path d="M279.9,103.8C279.9,104.8 279.8,109.9 275.7,109.9C273.8,109.9 271.5,108.5 271.5,103.8C271.5,99.1 273.7,97.7 275.7,97.7C277.6,97.7 279.9,99.1 279.9,103.8ZM273.1,103.8C273.1,105.5 273.4,108.5 275.7,108.5C278,108.5 278.3,105.6 278.3,103.8C278.3,102.1 278,99.1 275.7,99.1C273.5,99.1 273.1,102.1 273.1,103.8Z" style="fill:rgb(9,31,63);fill-rule:nonzero;"/>
            <path d="M289.6,108.6C288.6,109.4 287.2,109.9 286,109.9C282.5,109.9 281.5,106.7 281.5,103.8C281.5,100.9 282.5,97.7 285.9,97.7C287.5,97.7 288.9,98.6 289.7,100L288.4,100.8C287.8,99.8 287,99.1 285.8,99.1C283.5,99.1 283.1,102 283.1,103.8C283.1,105.6 283.5,108.4 285.9,108.4C286.7,108.4 287.4,108.2 288.1,107.8L288.1,104.7L285.3,104.7L285.3,103.3L289.6,103.3L289.6,108.6Z" style="fill:rgb(9,31,63);fill-rule:nonzero;"/>
            <path d="M298.6,97.6L300,98.3L296.2,105.1L296.2,109.7L294.7,109.7L294.7,105.1L290.9,98.3L292.3,97.6L295.4,103.7L298.6,97.6Z" style="fill:rgb(9,31,63);fill-rule:nonzero;"/>
        </g>
    </g>
</svg>
