<?xml version="1.0" encoding="UTF-8" standalone="no"?>
<!DOCTYPE svg PUBLIC "-//W3C//DTD SVG 1.1//EN" "http://www.w3.org/Graphics/SVG/1.1/DTD/svg11.dtd">
<svg width="100%" height="100%" viewBox="0 0 2865 731" version="1.1" xmlns="http://www.w3.org/2000/svg" xmlns:xlink="http://www.w3.org/1999/xlink" xml:space="preserve" xmlns:serif="http://www.serif.com/" style="fill-rule:evenodd;clip-rule:evenodd;stroke-linejoin:round;stroke-miterlimit:2;">
    <path d="M1412.12,0L1425.99,0C1453.76,1.813 1477.89,11.02 1498.36,27.62C1528.73,52.24 1544.67,85.097 1546.18,126.19C1546.19,126.59 1546.4,126.79 1546.8,126.79L1672.21,126.79C1672.55,126.79 1672.72,126.62 1672.72,126.28L1672.74,0L1679.76,0C1715.11,2.667 1744.29,16.7 1767.28,42.1C1816.82,96.83 1808.53,183.13 1750,227.76C1729.64,243.287 1706.3,251.967 1679.98,253.8C1679.87,253.807 1679.81,253.867 1679.81,253.98L1679.81,253.99C1679.82,254.143 1679.9,254.217 1680.06,254.21C1682.95,254.11 1685.82,254.253 1688.67,254.64C1713.46,257.987 1735.07,267.323 1753.51,282.65C1789.66,312.68 1806.13,358.58 1797.46,404.72C1782.73,483.17 1699.08,528.14 1625.26,498.43C1578.72,479.7 1548.07,435.5 1545.95,385.75C1545.89,384.3 1546.05,382.8 1545.94,381.34C1545.91,380.953 1545.71,380.76 1545.32,380.76L1419.7,380.76C1419.39,380.76 1419.13,381.017 1419.13,381.33L1419.13,506.5C1419.13,507.34 1418.71,507.75 1417.86,507.73C1384.93,506.837 1356.73,495.67 1333.25,474.23C1274.36,420.45 1279.65,325.73 1343.53,278.64C1363.96,263.58 1386.76,255.347 1411.94,253.94C1412.61,253.9 1412.62,253.857 1411.95,253.81C1377.74,251.283 1349.15,237.83 1326.17,213.45C1296.62,182.09 1285.57,137.49 1296.01,95.68C1302.74,68.72 1318.66,44.08 1341.04,26.71C1361.65,10.723 1385.35,1.82 1412.12,0ZM1419.6,253.75C1458.24,253.59 1494.83,271.8 1518.7,301.98C1536.41,324.373 1545.55,350.37 1546.1,379.97C1546.11,380.295 1546.38,380.56 1546.7,380.56L1672.21,380.57C1672.5,380.57 1672.74,380.331 1672.74,380.04L1672.74,254.27C1672.74,253.963 1672.58,253.81 1672.27,253.81C1631.17,253.73 1593.03,233.76 1569.4,200.56C1554.02,178.953 1546.16,154.6 1545.83,127.5C1545.83,127.16 1545.66,126.99 1545.32,126.99L1419.57,126.99C1419.33,126.99 1419.13,127.189 1419.13,127.43L1419.13,253.28C1419.13,253.538 1419.34,253.75 1419.6,253.75Z" style="fill:rgb(9,31,63);fill-rule:nonzero;"/>
    <path d="M144.68,289.19C132.53,284.5 120.03,282.53 107.43,279.83C85.937,275.203 67.763,269.87 52.91,263.83C31.75,255.21 12.58,240.31 0.66,220.72C0.49,220.439 0.4,220.114 0.4,219.78L0.4,147.22C0.4,146.408 0.618,145.614 1.03,144.92C11.69,126.93 27.79,112.23 45.83,100.96C53.95,95.893 63.233,91.933 73.68,89.08C93.63,83.62 114.61,82.52 137.16,83.95C150.213,84.777 162.667,87.183 174.52,91.17C187.99,95.7 199.56,102.96 210.7,111.84C221.87,120.74 232.12,131.32 239.3,143.44C240.25,145.05 240.75,146.76 240.75,148.64C240.77,163.713 240.773,178.08 240.76,191.74C240.76,192.162 240.417,192.51 240,192.51C240,192.51 169.05,192.5 169.05,192.5C168.726,192.5 168.46,192.234 168.46,191.91C168.46,191.907 168.46,191.903 168.46,191.9C168.487,184.147 168.48,176.397 168.44,168.65C168.44,167.517 168.163,166.457 167.61,165.47C162.22,155.8 153.1,149.2 142.69,145.74C128.957,141.173 114.973,141.04 100.74,145.34C90.21,148.53 79.93,155.47 74.25,165.11C73.577,166.243 73.247,167.493 73.26,168.86C73.32,176.853 73.327,184.717 73.28,192.45C73.267,193.797 73.627,195.047 74.36,196.2C81.09,206.78 92.54,212.13 104.25,215.28C119.93,219.48 135.277,223.367 150.29,226.94C164.843,230.393 178.73,235.073 191.95,240.98C211.67,249.78 227.99,262.28 239.51,280.95C240.357,282.317 240.777,283.797 240.77,285.39C240.75,311.857 240.757,337.54 240.79,362.44C240.8,363.15 240.47,364.13 240.16,364.65C230.1,381.35 215.99,394.79 199.9,405.77C186.88,414.65 172.007,420.523 155.28,423.39C129.4,427.823 103.793,427.303 78.46,421.83C63.86,418.67 49.66,412.44 37.27,403.33C22.53,392.49 10.16,379.91 0.84,364.33C0.552,363.853 0.4,363.303 0.4,362.74L0.4,313.73C0.4,313.483 0.523,313.36 0.77,313.36L72.72,313.36C73.107,313.36 73.3,313.553 73.3,313.94C73.307,322.633 73.303,331.683 73.29,341.09C73.29,341.817 73.46,342.5 73.8,343.14C77.867,350.773 83.99,356.603 92.17,360.63C106.797,367.843 121.993,369.327 137.76,365.08C149.74,361.86 159.38,355.16 166.68,344.98C167.78,343.44 168.367,341.747 168.44,339.9C168.853,329.033 168.783,318.833 168.23,309.3C168.197,308.74 168.04,308.2 167.76,307.68C162.76,298.57 154.34,292.93 144.68,289.19Z" style="fill:rgb(9,31,63);fill-rule:nonzero;"/>
    <path d="M2777.52,362.17C2804.45,358.65 2829.36,347.95 2852.7,333.48C2853.65,332.887 2854.17,333.15 2854.26,334.27C2854.29,334.597 2854.32,334.913 2854.37,335.22C2857.67,355.333 2861.11,375.253 2864.7,394.98C2864.79,395.467 2864.62,395.837 2864.19,396.09C2852.56,402.99 2840.09,408.667 2826.76,413.12C2789.51,425.56 2751.47,428.457 2712.66,421.81C2699.25,419.517 2686.71,415.983 2675.06,411.21C2634.04,394.417 2605.5,365.79 2589.43,325.33C2578.26,297.19 2575.08,264.96 2577.97,234.39C2581.39,198.35 2595.29,163.97 2619.79,137.53C2649.48,105.5 2691.07,88.44 2734.49,84.87C2752.12,83.417 2769.78,83.77 2787.49,85.93C2813.49,89.103 2837.14,96.737 2858.43,108.83C2858.84,109.057 2859,109.4 2858.92,109.86L2847.56,175.77C2847.51,176.085 2847.23,176.317 2846.91,176.317C2846.77,176.317 2846.63,176.273 2846.52,176.19C2837.81,169.937 2828.55,164.43 2818.76,159.67C2791.49,146.39 2760.95,142 2731.39,147.98C2724.4,149.393 2717.79,151.493 2711.54,154.28C2680.55,168.1 2663.19,196.06 2658.07,230.04C2653.93,257.56 2656.38,288.25 2668.95,312.87C2690.08,354.27 2733.52,367.92 2777.52,362.17Z" style="fill:rgb(9,31,63);fill-rule:nonzero;"/>
    <path d="M2074.18,363.32C2088.28,362.74 2102.82,359.56 2114.47,351.86C2136.52,337.29 2142.3,312.31 2142.29,287.4C2142.25,220.44 2142.25,154.74 2142.29,90.3C2142.29,89.889 2142.63,89.55 2143.04,89.55L2219.9,89.58C2220.31,89.58 2220.52,89.787 2220.52,90.2C2220.56,161.633 2220.55,228.813 2220.5,291.74C2220.48,325.56 2209.11,359.38 2185.11,383.65C2173.51,395.383 2159.48,404.697 2143.02,411.59C2125.23,419.037 2105.41,423.427 2083.54,424.76C2048.14,426.92 2010,422.37 1979.05,404.47C1949.76,387.517 1931.08,362.143 1923.03,328.35C1920.26,316.73 1918.88,304.373 1918.88,291.28C1918.87,224.187 1918.87,157.177 1918.87,90.25C1918.87,89.861 1919.19,89.54 1919.58,89.54L1996.1,89.59C1996.35,89.59 1996.55,89.789 1996.55,90.03C1996.53,154.803 1996.53,218.683 1996.56,281.67C1996.56,301.29 1998.26,320.02 2009.51,336.66C2024.02,358.12 2049.58,364.34 2074.18,363.32Z" style="fill:rgb(9,31,63);fill-rule:nonzero;"/>
    <path d="M2477.38,244.34C2508.94,255.17 2532.03,277.57 2535.25,312.33C2536.13,321.823 2535.76,331.133 2534.14,340.26C2529.93,363.927 2517.64,382.447 2497.25,395.82C2480.71,406.67 2461.17,412.81 2441.14,416.1C2426.37,418.52 2410.32,419.733 2392.98,419.74C2357.59,419.753 2322.2,419.763 2286.82,419.77C2286.5,419.77 2286.24,419.513 2286.24,419.2L2286.24,89.82C2286.24,89.672 2286.36,89.55 2286.51,89.55C2324.76,89.523 2363,89.527 2401.23,89.56C2411.61,89.567 2422.7,90.44 2434.5,92.18C2447.21,94.053 2459.34,97.41 2470.89,102.25C2504.79,116.44 2522.78,144.97 2520.8,182.08C2519.31,210.17 2502.23,231.61 2477.32,243.14C2476.35,243.593 2476.37,243.993 2477.38,244.34ZM2426.27,150.03C2417.07,146.697 2407.56,145.01 2397.74,144.97C2385.81,144.917 2373.91,144.923 2362.04,144.99C2361.74,144.99 2361.49,145.238 2361.49,145.54L2361.48,221.44C2361.48,221.764 2361.75,222.03 2362.07,222.03C2372.01,222.13 2382.01,222.123 2392.06,222.01C2403.74,221.877 2414.25,220.07 2423.58,216.59C2435.79,212.02 2444.9,202.91 2447.34,189.71C2450.55,172.34 2443.24,156.2 2426.27,150.03ZM2435,357.7C2455.33,349.58 2463.91,330.82 2459.55,309.82C2453.92,282.69 2424.75,274.95 2400.74,274.31C2389.81,274.023 2376.94,273.937 2362.12,274.05C2361.77,274.055 2361.48,274.343 2361.48,274.69L2361.49,363.81C2361.49,364.084 2361.72,364.31 2361.99,364.31C2378.12,364.37 2394.38,364.82 2410.49,363.5C2418.85,362.82 2427.02,360.887 2435,357.7Z" style="fill:rgb(9,31,63);fill-rule:nonzero;"/>
    <path d="M493.41,246.83C492.837,247.023 492.817,247.26 493.35,247.54C507.937,255.16 519.913,265.137 529.28,277.47C532.29,281.43 531.67,286.04 531.65,290.73C531.57,314.45 531.553,338.43 531.6,362.67C531.6,363.057 531.5,363.436 531.31,363.77C513.72,393.98 482.89,414.19 448.22,418.39C443.933,418.91 437.28,419.173 428.26,419.18C384.053,419.207 339.953,419.2 295.96,419.16C295.48,419.16 295.24,418.923 295.24,418.45L295.23,91.01C295.23,90.543 295.46,90.31 295.92,90.31C343.68,90.29 389.397,90.293 433.07,90.32C454.757,90.333 474.233,95.887 491.5,106.98C506.353,116.52 518.377,129.207 527.57,145.04C528.15,146.05 528.15,147.24 528.15,148.36C528.203,169.933 528.22,191.53 528.2,213.15C528.2,213.496 528.103,213.832 527.92,214.12C527.053,215.467 526.317,216.563 525.71,217.41C516.99,229.397 506.377,239.133 493.87,246.62C493.723,246.707 493.57,246.777 493.41,246.83ZM419.31,225.15C435.27,225.13 450.14,217.51 458.74,204.05C458.94,203.73 459.04,203.383 459.04,203.01C459,192.797 459.003,182.227 459.05,171.3C459.057,169.953 458.703,168.687 457.99,167.5C451.57,156.77 441.55,149.97 429.52,147.3C425.467,146.4 420.36,145.983 414.2,146.05C400.04,146.203 385.67,146.217 371.09,146.09C370.67,146.09 370.46,146.3 370.46,146.72L370.47,224.53C370.47,224.843 370.727,225.1 371.04,225.1C387.173,225.153 403.263,225.17 419.31,225.15ZM420.38,363.53C437.28,363.46 452.05,356.28 461.41,341.74C462.003,340.82 462.297,339.823 462.29,338.75C462.27,326.297 462.263,312.727 462.27,298.04C462.27,297.667 462.17,297.323 461.97,297.01C453.11,283.38 436.7,276.13 420.78,276.13C404.533,276.137 388.007,276.123 371.2,276.09C371.197,276.09 371.193,276.09 371.19,276.09C370.795,276.09 370.47,276.415 370.47,276.81C370.47,276.81 370.46,363.22 370.46,363.22C370.46,363.407 370.613,363.56 370.8,363.56C387.82,363.613 404.347,363.603 420.38,363.53Z" style="fill:rgb(9,31,63);fill-rule:nonzero;"/>
    <path d="M746.98,241.5C760.14,191.31 784.79,143.21 815.93,101.8C818.763,98.027 821.72,94.333 824.8,90.72C825.04,90.44 825.343,90.3 825.71,90.3L908.8,90.31C908.981,90.31 909.13,90.454 909.13,90.63L909.13,419.01C909.13,419.103 909.053,419.18 908.96,419.18L839.97,419.18C839.581,419.18 839.26,418.859 839.26,418.47L839.23,194.24C839.23,192.447 838.717,192.283 837.69,193.75C823.877,213.31 812.183,234.203 802.61,256.43C789.857,286.023 779.027,317.987 770.12,352.32C770.033,352.666 769.722,352.911 769.37,352.91L724.11,352.91C723.77,352.91 723.557,352.747 723.47,352.42C713.38,314.12 700.44,275.53 683.46,240.42C675.373,223.687 665.983,207.92 655.29,193.12C654.563,192.12 654.2,192.237 654.2,193.47L654.22,418.48C654.22,418.869 653.899,419.19 653.51,419.19L584.52,419.18C584.394,419.18 584.29,419.072 584.29,418.94L584.29,90.76C584.29,90.508 584.493,90.3 584.74,90.3L667.71,90.3C668.24,90.3 668.745,90.543 669.08,90.96C704.953,135.34 730.847,185.523 746.76,241.51C746.765,241.529 746.775,241.546 746.788,241.559C746.832,241.601 746.905,241.596 746.951,241.548C746.964,241.534 746.974,241.518 746.98,241.5Z" style="fill:rgb(9,31,63);fill-rule:nonzero;"/>
    <path d="M1040.7,222.27L1158.99,222.27C1159.25,222.27 1159.46,222.482 1159.46,222.74L1159.46,278.96C1159.46,279.48 1159.2,279.74 1158.68,279.74L1040.82,279.74C1040.35,279.74 1040.11,279.98 1040.11,280.46L1040.16,361.15C1040.16,361.435 1040.39,361.67 1040.68,361.67L1170.66,361.69C1170.92,361.69 1171.13,361.902 1171.13,362.16L1171.13,419.01C1171.13,419.109 1171.05,419.19 1170.95,419.19L965.54,419.18C965.189,419.18 964.9,418.896 964.9,418.55L964.89,90.83C964.89,90.539 965.129,90.3 965.42,90.3L1167.44,90.3C1167.69,90.3 1167.82,90.43 1167.82,90.69L1167.82,147.27C1167.82,147.302 1167.82,147.333 1167.81,147.364C1167.76,147.733 1167.41,147.993 1167.03,147.94C1167,147.936 1166.97,147.929 1166.94,147.92C1166.6,147.82 1166.25,147.77 1165.88,147.77C1124.7,147.763 1083.02,147.76 1040.85,147.76C1040.45,147.76 1040.12,148.094 1040.12,148.5L1040.14,221.7C1040.14,222.08 1040.33,222.27 1040.7,222.27Z" style="fill:rgb(9,31,63);fill-rule:nonzero;"/>
    <path d="M410.77,644.83C391.22,639.58 376.25,650.9 373.27,670.26C370.63,687.36 374.79,707.9 392.92,713.59C404.34,717.18 417.19,713.17 426.78,706.12C427.213,705.807 427.47,705.913 427.55,706.44L429.25,717.05C429.323,717.53 429.16,717.9 428.76,718.16C403.34,734.91 369.15,726.53 361.41,694.85C355.35,670.05 363.73,638.92 392.44,633.03C404.01,630.66 417.53,632.41 427.41,639.35C427.717,639.563 427.843,639.857 427.79,640.23L426.09,651.87C426.084,651.91 426.073,651.95 426.057,651.987C425.956,652.218 425.678,652.324 425.442,652.221C425.406,652.205 425.371,652.184 425.34,652.16C421,648.713 416.143,646.27 410.77,644.83Z" style="fill:rgb(9,31,63);fill-rule:nonzero;"/>
    <path d="M612.96,702.2C605.12,720.28 588.15,728.64 569,726.17C539.62,722.37 530.11,693.21 534.45,667.77C538.83,642.17 560.44,627.52 585.92,633.21C613.12,639.29 620.69,668.31 616.08,692.21C615.433,695.563 614.393,698.893 612.96,702.2ZM548.13,665.67C544.34,680.31 546.02,702.58 561.21,711.31C569.93,716.31 581.23,716.27 589.68,711.33C603.37,703.34 605.84,684.65 603.68,670.48C601.84,658.44 595.31,647.92 583.17,644.64C575.62,642.6 566.6,643.54 560.1,647.92C554.14,651.933 550.15,657.85 548.13,665.67Z" style="fill:rgb(9,31,63);fill-rule:nonzero;"/>
    <path d="M647.85,718.95C639.403,712.583 634.067,703.54 631.84,691.82C629.78,680.94 630.37,668.68 634.33,658.2C639.88,643.52 652.17,633.9 668.01,632.26C678.47,631.18 689.78,633.62 698.2,640.19C712.77,651.56 716.42,671.46 713.83,689.48C711.56,705.31 702.22,719.24 686.71,724.33C674.2,728.44 658.77,727.18 647.85,718.95ZM669.08,643.85C645.9,646.23 641.08,672.42 644.85,690.79C647.56,703.96 656.77,714.18 670.54,714.93C697.35,716.4 704.84,689.46 700.52,668.25C697.28,652.34 685.93,642.12 669.08,643.85Z" style="fill:rgb(9,31,63);fill-rule:nonzero;"/>
    <path d="M856.49,632.39C865.657,631.303 874.097,632.727 881.81,636.66C898.73,645.28 904.64,664.96 903.67,682.86C902.36,707.08 888.13,726.05 862.37,726.53C837.46,726.99 821.84,709.18 820.09,685.34C819.29,674.49 820.53,663.21 825.48,653.77C832.073,641.183 842.41,634.057 856.49,632.39ZM865.41,643.84C851.17,642.12 839.56,649.83 835.16,663.51C829.55,680.93 833.02,710.1 855.59,714.33C867.17,716.503 876.41,713.383 883.31,704.97C890.54,696.16 891.79,681.92 890.14,670.84C888.08,656.9 879.97,645.59 865.41,643.84Z" style="fill:rgb(9,31,63);fill-rule:nonzero;"/>
    <path d="M1198.34,695.78C1192.37,717.09 1175.52,728.15 1153.93,726.37C1132.35,724.6 1118.97,707.61 1116.99,687.02C1115.63,672.93 1117.78,657.06 1127.37,645.95C1135.9,636.043 1147.19,631.443 1161.24,632.15C1173.08,632.75 1182.53,637.193 1189.59,645.48C1200.97,658.83 1202.83,679.76 1198.34,695.78ZM1133.13,660.39C1128.69,671.683 1128.33,683.333 1132.06,695.34C1134.44,703 1139.06,708.607 1145.93,712.16C1153.04,715.84 1162.56,715.93 1169.91,712.81C1179.75,708.64 1184.98,699.25 1186.74,688.94C1188.58,678.17 1187.52,665.79 1181.94,656.51C1170.56,637.59 1141.21,639.81 1133.13,660.39Z" style="fill:rgb(9,31,63);fill-rule:nonzero;"/>
    <path d="M1589.97,639.2C1590.25,639.375 1590.41,639.706 1590.36,640.04L1588.63,652.05C1588.61,652.223 1588.46,652.352 1588.28,652.352C1588.21,652.352 1588.13,652.327 1588.07,652.28C1576.96,643.64 1561.58,640.29 1549.52,647.53C1536.09,655.59 1533.6,673.86 1535.87,688.58C1538.88,708.09 1554.35,718.84 1573.74,713.67C1579.35,712.17 1584.65,709.6 1589.63,705.96C1589.68,705.924 1589.74,705.905 1589.79,705.905C1589.92,705.905 1590.04,706 1590.06,706.13L1591.72,716.77C1591.83,717.477 1591.59,718.023 1590.99,718.41C1581.16,724.703 1570.78,727.363 1559.85,726.39C1540.64,724.68 1527.61,711.63 1523.57,693.16C1517.84,667.02 1528.42,636.42 1557.8,632.53C1569.69,630.957 1580.41,633.18 1589.97,639.2Z" style="fill:rgb(9,31,63);fill-rule:nonzero;"/>
    <path d="M2006.12,687.16C2006.12,686.809 2005.84,686.52 2005.49,686.52L1985.88,686.53C1985.45,686.53 1985.2,686.317 1985.13,685.89L1983.56,675.63C1983.56,675.614 1983.56,675.599 1983.56,675.583C1983.53,675.266 1983.78,674.985 1984.1,674.962C1984.11,674.961 1984.13,674.96 1984.14,674.96L2017.91,675.04C2018.32,675.04 2018.53,675.247 2018.53,675.66L2018.53,717.26C2018.53,717.631 2018.33,717.975 2018.01,718.16C1991.89,733.56 1953.57,729.16 1945.27,694.97C1941.76,680.54 1942.99,662.34 1951.57,649.58C1962.14,633.84 1980.66,629.67 1998.41,633.15C2003.96,634.243 2009.21,636.383 2014.16,639.57C2014.41,639.723 2014.51,639.947 2014.46,640.24L2012.71,651.95C2012.67,652.205 2012.45,652.396 2012.19,652.396C2012.08,652.396 2011.97,652.359 2011.88,652.29C2000.87,643.95 1984.81,640.5 1972.35,646.75C1959.79,653.04 1956.06,667.7 1956.52,681.32C1957,695.66 1962.62,709.54 1977.8,713.58C1987.02,716.033 1996.07,715.233 2004.96,711.18C2005.71,710.84 2006.09,710.26 2006.09,709.44C2006.09,702.64 2006.1,695.213 2006.12,687.16Z" style="fill:rgb(9,31,63);fill-rule:nonzero;"/>
    <path d="M2561.82,652.19C2553.02,645.46 2542.26,642.51 2531.47,644.01C2518.77,645.76 2510.55,654.67 2507.88,666.99C2504.94,680.57 2506.26,698.26 2517.23,707.95C2527.31,716.86 2544.32,716.71 2555.76,710.74C2556.07,710.58 2556.22,710.327 2556.22,709.98L2556.27,687.27C2556.27,686.859 2555.93,686.52 2555.52,686.52L2535.95,686.52C2535.56,686.52 2535.34,686.327 2535.28,685.94L2533.64,675.46C2533.64,675.437 2533.63,675.413 2533.63,675.39C2533.63,675.161 2533.82,674.972 2534.05,674.97L2567.95,675C2568.34,675 2568.66,675.316 2568.66,675.7L2568.66,717.06C2568.66,717.447 2568.51,717.76 2568.22,718C2567.59,718.507 2566.89,718.957 2566.13,719.35C2551.87,726.803 2537.42,728.527 2522.79,724.52C2503.81,719.33 2494.72,702.14 2493.69,683.59C2492.75,666.44 2497.54,649.17 2511.9,639.2C2526.14,629.3 2550.48,629.74 2564.21,639.61C2564.47,639.8 2564.6,640.115 2564.56,640.43L2562.85,651.78C2562.8,652.093 2562.53,652.328 2562.22,652.328C2562.07,652.328 2561.93,652.279 2561.82,652.19Z" style="fill:rgb(9,31,63);fill-rule:nonzero;"/>
    <path d="M336,647.51C329.67,644.18 322,642.64 315.07,644.67C306.22,647.26 303.46,658.78 310.58,664.78C312.813,666.66 315.25,668.22 317.89,669.46C322.783,671.76 327.463,674.057 331.93,676.35C343.17,682.12 348.64,690.07 347.44,703.02C346.653,711.533 342.59,717.86 335.25,722C323.27,728.76 305.83,726.04 293.88,720.35C293.507,720.171 293.292,719.769 293.35,719.36L294.99,707.85C295.057,707.35 295.307,707.23 295.74,707.49C301.63,710.96 307.18,713.44 314.15,714.55C325.74,716.4 336.66,711.71 334.86,697.95C334.21,693.04 329.84,689.41 325.66,687.29C320.893,684.877 316.14,682.547 311.4,680.3C302.69,676.17 295.09,670.14 294.31,659.69C293.2,644.68 302.35,634.98 316.51,633.07C324.96,631.93 334.78,633.33 342.23,637.61C342.537,637.79 342.663,638.057 342.61,638.41L340.92,649.78C340.853,650.233 340.617,650.35 340.21,650.13C338.78,649.37 337.48,648.28 336,647.51Z" style="fill:rgb(9,31,63);fill-rule:nonzero;"/>
    <path d="M1661.92,697.61L1625.58,697.6C1625.43,697.6 1625.29,697.696 1625.24,697.84L1615.32,724.65C1615.27,724.794 1615.13,724.89 1614.98,724.89L1602.57,724.88C1602.57,724.88 1602.57,724.88 1602.57,724.88C1602.37,724.88 1602.21,724.718 1602.21,724.52C1602.21,724.476 1602.21,724.431 1602.23,724.39L1637.57,633.66C1637.62,633.52 1637.76,633.428 1637.91,633.43L1650,633.42C1650.15,633.418 1650.29,633.51 1650.34,633.65L1685.19,722.74C1685.21,722.781 1685.21,722.824 1685.21,722.868C1685.21,723.037 1685.1,723.184 1684.93,723.22L1673.17,725.74C1673,725.777 1672.82,725.683 1672.76,725.52L1662.26,697.84C1662.21,697.7 1662.07,697.608 1661.92,697.61ZM1629.58,686.04C1629.57,686.078 1629.56,686.119 1629.56,686.16C1629.56,686.341 1629.71,686.49 1629.89,686.49C1629.89,686.49 1629.89,686.49 1629.89,686.49L1657.53,686.49C1657.53,686.49 1657.53,686.49 1657.53,686.49C1657.71,686.49 1657.86,686.341 1657.86,686.16C1657.86,686.119 1657.86,686.078 1657.84,686.04L1644.02,649.13C1643.97,649 1643.85,648.913 1643.71,648.913C1643.57,648.913 1643.45,649 1643.4,649.13L1629.58,686.04Z" style="fill:rgb(9,31,63);fill-rule:nonzero;"/>
    <path d="M502.73,683.14L458.22,683.06C457.825,683.06 457.5,683.385 457.5,683.78L457.51,724.2C457.51,724.673 457.273,724.91 456.8,724.91L446.09,724.89C445.39,724.883 445.04,724.533 445.04,723.84L445.04,634.5C445.04,634.027 445.277,633.79 445.75,633.79L457.02,633.78C457.289,633.78 457.51,634.001 457.51,634.27L457.51,670.59C457.51,671.045 457.885,671.42 458.34,671.42L503.01,671.43C503.186,671.43 503.33,671.286 503.33,671.11L503.32,634.48C503.32,634.096 503.636,633.78 504.02,633.78L515.26,633.79C515.733,633.79 515.97,634.03 515.97,634.51L515.96,723.02C515.96,723.22 516.007,723.41 516.1,723.59C516.167,723.723 516.193,723.86 516.18,724C516.107,724.587 515.777,724.88 515.19,724.88L503.74,724.91C503.515,724.91 503.33,724.72 503.33,724.49L503.32,683.73C503.32,683.337 503.123,683.14 502.73,683.14Z" style="fill:rgb(9,31,63);fill-rule:nonzero;"/>
    <path d="M745.09,712.97L776.71,713.01C777.263,713.01 777.58,713.283 777.66,713.83L779.17,724.56C779.172,724.573 779.173,724.587 779.173,724.6C779.173,724.765 779.037,724.9 778.873,724.9C778.872,724.9 778.871,724.9 778.87,724.9L732.78,724.89C732.06,724.89 731.783,724.543 731.95,723.85C732.01,723.577 732.04,723.297 732.04,723.01C732.113,695.617 732.107,666.12 732.02,634.52C732.02,634.033 732.263,633.79 732.75,633.79L744.25,633.78C744.563,633.78 744.72,633.937 744.72,634.25L744.72,712.6C744.72,712.847 744.843,712.97 745.09,712.97Z" style="fill:rgb(9,31,63);fill-rule:nonzero;"/>
    <path d="M933.54,724.88L921.73,724.91C921.5,724.91 921.31,724.72 921.31,724.49L921.3,634.2C921.3,633.97 921.49,633.78 921.72,633.78L968.28,633.79C968.51,633.79 968.7,633.98 968.7,634.21L968.71,644.83C968.71,645.06 968.52,645.25 968.29,645.25L934.36,645.31C934.13,645.31 933.94,645.5 933.94,645.73L933.93,672.54C933.93,672.77 934.12,672.96 934.35,672.96L960.9,672.98C961.106,672.977 961.286,673.127 961.32,673.33L963.01,683.92C963.014,683.943 963.016,683.967 963.016,683.99C963.016,684.219 962.829,684.408 962.6,684.41L934.34,684.42C934.11,684.42 933.92,684.61 933.92,684.84L933.96,724.46C933.96,724.69 933.77,724.88 933.54,724.88Z" style="fill:rgb(9,31,63);fill-rule:nonzero;"/>
    <path d="M1053.52,676.61C1065.71,680.643 1070.91,689.507 1069.11,703.2C1066.95,719.58 1051.68,724.64 1037.48,724.84C1030.09,724.947 1022.45,724.95 1014.55,724.85C1014.15,724.843 1013.95,724.64 1013.95,724.24L1013.98,634.31C1013.98,633.983 1014.14,633.82 1014.46,633.82C1022.23,633.74 1030.15,633.75 1038.21,633.85C1054.81,634.07 1066.75,642.66 1065.34,660.38C1064.76,667.71 1059.88,672.72 1053.47,675.95C1052.96,676.21 1052.97,676.43 1053.52,676.61ZM1026.33,645.1L1026.43,671.28C1026.43,671.594 1026.7,671.85 1027.01,671.85L1038.11,671.82C1046.4,671.788 1053.2,666.042 1053.18,659.087C1053.18,659.085 1053.18,659.082 1053.18,659.08L1053.18,657.1C1053.15,650.145 1046.3,644.448 1038.01,644.48L1026.91,644.51C1026.91,644.51 1026.91,644.51 1026.91,644.51C1026.59,644.51 1026.33,644.772 1026.33,645.09C1026.33,645.093 1026.33,645.097 1026.33,645.1ZM1026.29,682.84L1026.45,713.8C1026.45,714.003 1026.62,714.17 1026.82,714.17L1039.85,714.1C1039.85,714.1 1039.85,714.1 1039.86,714.1C1049.35,714.05 1057.12,707.451 1057.08,699.48L1057.06,696.84C1057.02,688.871 1049.18,682.353 1039.69,682.4L1026.66,682.47C1026.46,682.47 1026.29,682.637 1026.29,682.84Z" style="fill:rgb(9,31,63);fill-rule:nonzero;"/>
    <path d="M1098.92,634.12C1098.92,633.938 1098.77,633.79 1098.59,633.79L1086.83,633.79C1086.65,633.79 1086.5,633.938 1086.5,634.12L1086.5,724.56C1086.5,724.742 1086.65,724.89 1086.83,724.89L1098.59,724.89C1098.77,724.89 1098.92,724.742 1098.92,724.56L1098.92,634.12Z" style="fill:rgb(9,31,63);"/>
    <path d="M1297.91,653.1L1270.28,724.76C1270.15,725.12 1269.88,725.3 1269.49,725.3L1260.69,725.28C1260.26,725.28 1259.97,725.08 1259.82,724.68L1232.17,652.97C1231.9,652.257 1231.73,652.283 1231.67,653.05L1226.32,724.3C1226.29,724.687 1226.08,724.88 1225.7,724.88L1214.81,724.91C1214.81,724.91 1214.8,724.91 1214.8,724.91C1214.62,724.91 1214.48,724.766 1214.48,724.59C1214.48,724.58 1214.48,724.57 1214.48,724.56L1221.67,634.28C1221.69,633.999 1221.93,633.779 1222.22,633.78L1236.54,633.79C1236.95,633.79 1237.24,633.983 1237.39,634.37L1264.92,706.74C1265.25,707.6 1265.57,707.6 1265.9,706.74L1293.38,634.37C1293.53,633.977 1293.81,633.78 1294.23,633.78L1308.24,633.79C1308.71,633.79 1308.97,634.023 1309,634.49L1316.03,724.42C1316.03,724.433 1316.03,724.447 1316.03,724.46C1316.03,724.707 1315.83,724.91 1315.58,724.91C1315.58,724.91 1315.57,724.91 1315.57,724.91L1304.7,724.88C1304.24,724.88 1303.99,724.65 1303.95,724.19L1298.46,653.18C1298.4,652.34 1298.22,652.313 1297.91,653.1Z" style="fill:rgb(9,31,63);fill-rule:nonzero;"/>
    <path d="M1347.93,713.2L1385.04,713.11C1385.28,713.11 1385.47,713.304 1385.47,713.54L1385.53,724.47C1385.53,724.706 1385.34,724.9 1385.1,724.9L1335.3,724.89C1335.06,724.89 1334.87,724.696 1334.87,724.46L1334.87,634.22C1334.87,633.984 1335.06,633.79 1335.3,633.79L1383.78,633.78C1384.02,633.78 1384.21,633.974 1384.21,634.21L1384.21,644.9C1384.21,645.136 1384.02,645.33 1383.78,645.33L1347.96,645.23C1347.72,645.23 1347.53,645.424 1347.53,645.66L1347.51,670.97C1347.51,671.206 1347.7,671.4 1347.94,671.4L1375.65,671.43C1375.86,671.427 1376.05,671.581 1376.08,671.79L1377.76,682.65C1377.76,682.673 1377.77,682.697 1377.77,682.72C1377.77,682.954 1377.57,683.148 1377.34,683.15L1347.95,683.05C1347.71,683.05 1347.52,683.244 1347.52,683.48L1347.5,712.77C1347.5,713.006 1347.69,713.2 1347.93,713.2Z" style="fill:rgb(9,31,63);fill-rule:nonzero;"/>
    <path d="M1399.81,634.1C1399.81,633.908 1399.97,633.75 1400.16,633.75L1430.56,633.75C1454.52,633.75 1474.23,652.872 1474.23,676.11L1474.23,682.41C1474.23,705.648 1454.52,724.77 1430.56,724.77L1400.16,724.77C1399.97,724.77 1399.81,724.612 1399.81,724.42L1399.81,634.1ZM1438.08,712.17C1446.27,710.27 1454.03,705.22 1457.49,697.58C1461.94,687.767 1462.56,677.29 1459.34,666.15C1455.43,652.63 1442.69,645.48 1429.01,645.31C1423.46,645.243 1418.07,645.243 1412.84,645.31C1412.63,645.31 1412.46,645.477 1412.46,645.68L1412.46,712.94C1412.46,713.194 1412.67,713.405 1412.93,713.41C1421.45,713.59 1430.02,714.03 1438.08,712.17Z" style="fill:rgb(9,31,63);fill-rule:nonzero;"/>
    <path d="M1504.51,634.06C1504.51,633.911 1504.39,633.79 1504.24,633.79L1492.16,633.79C1492.01,633.79 1491.89,633.911 1491.89,634.06L1491.89,724.62C1491.89,724.769 1492.01,724.89 1492.16,724.89L1504.24,724.89C1504.39,724.89 1504.51,724.769 1504.51,724.62L1504.51,634.06Z" style="fill:rgb(9,31,63);"/>
    <path d="M1744.14,713.35L1745.79,724.43C1745.79,724.45 1745.8,724.47 1745.8,724.49C1745.8,724.707 1745.62,724.887 1745.4,724.89L1699.11,724.9C1698.89,724.9 1698.71,724.719 1698.71,724.5L1698.71,634.18C1698.71,633.961 1698.89,633.78 1699.11,633.78L1710.9,633.79C1711.12,633.79 1711.3,633.971 1711.3,634.19L1711.29,712.56C1711.29,712.779 1711.47,712.96 1711.69,712.96L1743.75,713.01C1743.94,713.013 1744.11,713.157 1744.14,713.35Z" style="fill:rgb(9,31,63);fill-rule:nonzero;"/>
    <path d="M1803.25,713.2L1840.01,713.2C1840.28,713.2 1840.51,713.426 1840.51,713.7L1840.56,724.4C1840.56,724.674 1840.33,724.9 1840.06,724.9L1790.66,724.89C1790.39,724.89 1790.16,724.664 1790.16,724.39L1790.16,634.29C1790.16,634.016 1790.39,633.79 1790.66,633.79L1838.74,633.78C1839.01,633.78 1839.24,634.006 1839.24,634.28L1839.23,644.82C1839.23,645.094 1839,645.32 1838.73,645.32L1803.25,645.23C1802.98,645.23 1802.75,645.456 1802.75,645.73L1802.74,670.91C1802.74,671.184 1802.97,671.41 1803.24,671.41L1830.7,671.44C1830.94,671.442 1831.15,671.62 1831.19,671.86L1832.93,682.5C1832.93,682.526 1832.94,682.553 1832.94,682.58C1832.94,682.854 1832.71,683.08 1832.44,683.08C1832.43,683.08 1832.43,683.08 1832.43,683.08L1803.24,683.04C1802.97,683.04 1802.74,683.266 1802.74,683.54L1802.75,712.7C1802.75,712.974 1802.98,713.2 1803.25,713.2Z" style="fill:rgb(9,31,63);fill-rule:nonzero;"/>
    <path d="M1914.26,700.66L1914.26,634.26C1914.26,633.933 1914.42,633.77 1914.74,633.77L1925.52,633.8C1925.83,633.8 1925.99,633.957 1925.99,634.27L1925.93,724C1925.92,724.573 1925.63,724.863 1925.06,724.87C1922.55,724.91 1919.92,724.91 1917.17,724.87C1916.68,724.863 1916.27,724.69 1915.94,724.35C1915.57,723.96 1915.41,723.34 1915.07,722.87C1899.01,700.19 1883.05,677.583 1867.2,655.05C1866.89,654.603 1866.73,654.653 1866.73,655.2L1866.73,724.21C1866.73,724.677 1866.5,724.907 1866.04,724.9L1855.68,724.88C1855.22,724.88 1854.99,724.647 1854.99,724.18L1855.03,634.26C1855.03,634.002 1855.24,633.79 1855.49,633.79L1865.73,633.78C1866.14,633.78 1866.46,633.947 1866.7,634.28L1913.79,700.81C1914.1,701.25 1914.26,701.2 1914.26,700.66Z" style="fill:rgb(9,31,63);fill-rule:nonzero;"/>
    <path d="M2051.75,634.32C2051.75,634.033 2051.52,633.8 2051.23,633.8L2039.63,633.8C2039.34,633.8 2039.11,634.033 2039.11,634.32L2039.11,724.36C2039.11,724.647 2039.34,724.88 2039.63,724.88L2051.23,724.88C2051.52,724.88 2051.75,724.647 2051.75,724.36L2051.75,634.32Z" style="fill:rgb(9,31,63);"/>
    <path d="M2085.76,655.34C2085.37,654.793 2085.18,654.853 2085.18,655.52L2085.18,724.24C2085.18,724.68 2084.96,724.9 2084.51,724.9L2074.2,724.89C2073.74,724.89 2073.51,724.663 2073.51,724.21L2073.5,634.52C2073.5,634.027 2073.74,633.78 2074.23,633.78L2083.91,633.79C2084.45,633.79 2084.88,634.013 2085.2,634.46L2131.98,700.55C2132.06,700.663 2132.2,700.733 2132.34,700.74C2132.6,700.74 2132.73,700.663 2132.73,700.51C2132.74,677.797 2132.72,655.76 2132.68,634.4C2132.68,633.993 2132.88,633.79 2133.29,633.79L2143.7,633.78C2144.15,633.78 2144.37,634.003 2144.37,634.45L2144.37,724.26C2144.37,724.68 2144.16,724.89 2143.74,724.89L2135.44,724.91C2135.05,724.91 2134.74,724.75 2134.51,724.43L2085.76,655.34Z" style="fill:rgb(9,31,63);fill-rule:nonzero;"/>
    <path d="M2178.34,645.72L2178.33,670.99C2178.33,671.226 2178.52,671.42 2178.76,671.42L2206.55,671.43C2206.76,671.427 2206.95,671.581 2206.98,671.79L2208.67,682.64C2208.67,682.663 2208.68,682.687 2208.68,682.71C2208.68,682.944 2208.48,683.138 2208.25,683.14L2178.76,683.1C2178.52,683.1 2178.33,683.294 2178.33,683.53L2178.33,712.79C2178.33,713.026 2178.52,713.22 2178.76,713.22L2215.87,713.16C2215.87,713.16 2215.88,713.16 2215.88,713.16C2216.12,713.16 2216.31,713.354 2216.31,713.59C2216.31,713.59 2216.31,713.59 2216.31,713.59L2216.44,724.45C2216.44,724.453 2216.44,724.457 2216.44,724.46C2216.44,724.696 2216.25,724.89 2216.01,724.89C2216.01,724.89 2166.3,724.89 2166.3,724.89C2166.06,724.89 2165.87,724.696 2165.87,724.46L2165.87,634.22C2165.87,633.984 2166.06,633.79 2166.3,633.79L2214.58,633.78C2214.82,633.78 2215.01,633.974 2215.01,634.21L2215,644.88C2215,645.116 2214.81,645.31 2214.57,645.31L2178.77,645.29C2178.53,645.29 2178.34,645.484 2178.34,645.72Z" style="fill:rgb(9,31,63);fill-rule:nonzero;"/>
    <path d="M2243.96,713.19L2280.71,713.15C2280.98,713.15 2281.2,713.369 2281.21,713.64L2281.34,724.38C2281.34,724.383 2281.34,724.387 2281.34,724.39C2281.34,724.664 2281.11,724.89 2280.84,724.89C2280.84,724.89 2231.32,724.9 2231.32,724.9C2231.05,724.9 2230.82,724.674 2230.82,724.4L2230.82,634.28C2230.82,634.006 2231.05,633.78 2231.32,633.78L2279.48,633.78C2279.75,633.78 2279.98,634.006 2279.98,634.28L2279.91,644.83C2279.91,645.104 2279.68,645.33 2279.41,645.33L2243.97,645.24C2243.7,645.24 2243.47,645.466 2243.47,645.74L2243.45,670.91C2243.45,671.184 2243.68,671.41 2243.95,671.41L2271.5,671.43C2271.75,671.433 2271.96,671.616 2271.99,671.86L2273.61,682.57C2273.61,682.596 2273.62,682.623 2273.62,682.65C2273.62,682.923 2273.39,683.148 2273.12,683.15L2243.96,683.06C2243.69,683.06 2243.46,683.286 2243.46,683.56L2243.46,712.69C2243.46,712.964 2243.69,713.19 2243.96,713.19Z" style="fill:rgb(9,31,63);fill-rule:nonzero;"/>
    <path d="M2308.39,687.31L2308.39,724.25C2308.39,724.683 2308.18,724.9 2307.75,724.9L2296.46,724.9C2296,724.9 2295.77,724.67 2295.77,724.21L2295.77,634.3C2295.77,633.953 2295.94,633.78 2296.29,633.78C2304.86,633.767 2313.15,633.777 2321.15,633.81C2333.48,633.85 2345.62,638.35 2349.53,650.53C2351.74,657.41 2351.47,665.52 2348.21,672.03C2344.95,678.537 2339.52,682.72 2331.92,684.58C2331.89,684.589 2331.85,684.601 2331.82,684.615C2331.53,684.751 2331.39,685.1 2331.53,685.389C2331.54,685.421 2331.56,685.451 2331.58,685.48L2357.77,722.44C2358.02,722.793 2357.94,723.017 2357.51,723.11L2345.5,725.68C2345.05,725.773 2344.7,725.633 2344.44,725.26L2317.64,686.85C2317.49,686.637 2317.25,686.51 2316.99,686.51L2309.19,686.52C2308.66,686.52 2308.39,686.783 2308.39,687.31ZM2308.47,645.04L2308.31,675.54C2308.31,675.683 2308.43,675.8 2308.57,675.8L2321.78,675.87C2330.82,675.915 2338.3,669.456 2338.34,661.56L2338.36,659.34C2338.36,659.339 2338.36,659.337 2338.36,659.336C2338.4,651.437 2330.99,644.897 2321.95,644.85C2321.94,644.85 2321.94,644.85 2321.94,644.85L2308.73,644.78C2308.59,644.78 2308.47,644.897 2308.47,645.04Z" style="fill:rgb(9,31,63);fill-rule:nonzero;"/>
    <path d="M2383.61,634.18C2383.61,633.965 2383.43,633.79 2383.22,633.79L2371.36,633.79C2371.14,633.79 2370.97,633.965 2370.97,634.18L2370.97,724.5C2370.97,724.715 2371.14,724.89 2371.36,724.89L2383.22,724.89C2383.43,724.89 2383.61,724.715 2383.61,724.5L2383.61,634.18Z" style="fill:rgb(9,31,63);"/>
    <path d="M2463.83,700.7C2464.22,701.24 2464.41,701.18 2464.41,700.52L2464.41,634.56C2464.41,634.04 2464.67,633.78 2465.19,633.78L2475.29,633.79C2475.8,633.79 2476.05,634.043 2476.05,634.55L2476.05,724.17C2476.05,724.643 2475.81,724.883 2475.33,724.89L2467.35,724.9C2466.84,724.9 2466.44,724.693 2466.15,724.28L2417.26,654.99C2416.97,654.583 2416.83,654.63 2416.83,655.13C2416.87,678.317 2416.85,700.607 2416.76,722C2416.76,722.667 2416.84,723.323 2417,723.97C2417.01,723.998 2417.01,724.026 2417.01,724.054C2417.06,724.457 2416.78,724.828 2416.38,724.875C2416.35,724.878 2416.32,724.88 2416.29,724.88L2405.81,724.9C2405.42,724.907 2405.22,724.71 2405.22,724.31L2405.22,634.28C2405.22,633.947 2405.39,633.78 2405.72,633.78L2415.75,633.79C2416.23,633.79 2416.61,633.983 2416.88,634.37L2463.83,700.7Z" style="fill:rgb(9,31,63);fill-rule:nonzero;"/>
</svg>
