<?xml version="1.0" encoding="UTF-8" standalone="no"?>
<!DOCTYPE svg PUBLIC "-//W3C//DTD SVG 1.1//EN" "http://www.w3.org/Graphics/SVG/1.1/DTD/svg11.dtd">
<svg width="100%" height="100%" viewBox="0 0 2883 727" version="1.1" xmlns="http://www.w3.org/2000/svg" xmlns:xlink="http://www.w3.org/1999/xlink" xml:space="preserve" xmlns:serif="http://www.serif.com/" style="fill-rule:evenodd;clip-rule:evenodd;stroke-linejoin:round;stroke-miterlimit:2;">
    <path d="M1142.82,0L1197.6,0L1197.67,128.99C1197.67,129.462 1198.06,129.85 1198.53,129.85L1376.72,129.87C1377.05,129.87 1377.32,130.141 1377.32,130.47L1377.34,173.27C1377.35,173.677 1377.14,173.88 1376.73,173.88L1202.01,173.87C1201.86,173.87 1201.79,173.947 1201.82,174.1C1205.02,194.46 1209.99,214.447 1216.73,234.06C1231.98,278.447 1257.15,316.293 1292.26,347.6C1318.77,371.24 1349.11,389.627 1383.29,402.76C1383.57,402.868 1383.76,403.143 1383.76,403.45L1383.76,452.94C1383.76,452.959 1383.76,452.979 1383.76,452.998C1383.72,453.203 1383.53,453.347 1383.33,453.315C1383.31,453.312 1383.29,453.307 1383.27,453.3C1326.76,434.987 1278.45,404.33 1238.33,361.33C1212.2,333.323 1191.93,301.27 1177.52,265.17C1175.5,260.11 1169.23,258.41 1165.12,262.01C1164.13,262.877 1163.14,264.523 1162.16,266.95C1146.17,306.457 1122.8,341.38 1092.03,371.72C1053.94,409.28 1009.04,436.467 957.33,453.28C956.857,453.433 956.62,453.263 956.62,452.77L956.62,403.56C956.62,403.213 956.783,402.977 957.11,402.85C1006.15,383.883 1046.87,354.587 1079.27,314.96C1111.83,275.14 1130.64,225.46 1138.42,174.38C1138.47,174.04 1138.33,173.87 1137.98,173.87L963.45,173.88C963.22,173.88 963.03,173.69 963.03,173.46L963.03,130.29C963.03,130.003 963.173,129.86 963.46,129.86L1142.02,129.85C1142.54,129.85 1142.8,129.59 1142.8,129.07L1142.82,0Z" style="fill:rgb(9,31,63);fill-rule:nonzero;"/>
    <path d="M2131.79,0L2186.63,0L2186.66,129.1C2186.66,129.517 2187,129.86 2187.42,129.86L2365.75,129.85C2366.18,129.85 2366.4,130.067 2366.4,130.5L2366.41,173.43C2366.41,173.73 2366.26,173.88 2365.95,173.88L2191.43,173.87C2191.05,173.87 2190.89,174.06 2190.94,174.44C2198.54,224.27 2217.2,273.63 2248.42,312.83C2280.74,353.41 2322.93,383.7 2372.28,402.75C2372.61,402.877 2372.77,403.117 2372.77,403.47L2372.79,452.72C2372.79,453.227 2372.55,453.403 2372.07,453.25C2313.45,434.137 2263.82,401.98 2223.19,356.78C2199.17,330.05 2180.36,299.43 2166.42,265.01C2164.41,260.07 2157.73,258.3 2153.96,262.18C2152.95,263.213 2151.95,264.947 2150.96,267.38C2136.06,303.873 2115.21,336.147 2088.41,364.2C2048.87,405.6 2001.54,435.29 1946.43,453.27C1945.93,453.437 1945.68,453.253 1945.68,452.72L1945.68,403.51C1945.68,403.143 1945.85,402.897 1946.19,402.77C2011.76,377.75 2069.89,328.56 2100.1,264.7C2113.34,236.727 2122.47,206.647 2127.49,174.46C2127.55,174.067 2127.38,173.87 2126.99,173.87L1952.58,173.88C1952.28,173.88 1952.03,173.632 1952.03,173.33L1952.04,130.77C1952.04,130.15 1952.35,129.84 1952.96,129.84L2130.95,129.86C2131.5,129.86 2131.77,129.587 2131.77,129.04L2131.79,0Z" style="fill:rgb(9,31,63);fill-rule:nonzero;"/>
    <path d="M2505.75,0L2546.11,0L2546.09,62.16C2546.08,62.553 2545.88,62.75 2545.49,62.75L2506.28,62.76C2505.93,62.76 2505.76,62.587 2505.76,62.24L2505.75,0Z" style="fill:rgb(9,31,63);fill-rule:nonzero;"/>
    <path d="M2611.7,0L2652.1,0L2652.09,62.23C2652.09,62.577 2651.91,62.75 2651.56,62.75L2612.26,62.76C2611.91,62.76 2611.74,62.587 2611.74,62.24L2611.7,0Z" style="fill:rgb(9,31,63);fill-rule:nonzero;"/>
    <path d="M2757.4,0L2814.34,0C2805.67,22.767 2794.13,43.917 2779.7,63.45C2774.31,70.743 2768.42,77.603 2762.03,84.03C2761.65,84.41 2761.44,84.617 2761.39,84.65C2760.5,85.177 2760.57,85.44 2761.6,85.44C2794.44,85.42 2827.21,85.417 2859.92,85.43C2860.1,85.43 2860.24,85.574 2860.24,85.75L2860.23,195.53C2860.23,195.877 2860.06,196.05 2859.71,196.05L2811.81,196.06C2811.62,196.06 2811.52,195.963 2811.52,195.77C2811.49,177.623 2811.49,159.327 2811.54,140.88C2811.55,137.26 2811.09,134.507 2810.15,132.62C2806.95,126.17 2801.6,124.25 2794.52,124.25C2692.79,124.263 2590.17,124.283 2486.67,124.31C2486.4,124.31 2486.27,124.443 2486.27,124.71L2486.27,195.52C2486.27,195.873 2486.09,196.05 2485.73,196.05L2438.2,196.06C2437.8,196.06 2437.6,195.857 2437.6,195.45L2437.65,86.12C2437.65,85.64 2437.89,85.4 2438.38,85.4L2691.48,85.43C2691.87,85.43 2692.22,85.323 2692.53,85.11C2707.58,74.9 2720.74,62.28 2731.48,47.46C2742.13,32.767 2750.77,16.947 2757.4,0Z" style="fill:rgb(9,31,63);fill-rule:nonzero;"/>
    <path d="M410.31,727L325.03,727C333.883,685.593 332.937,645.01 322.19,605.25C305.57,543.75 266.91,490.61 213.56,455.97C152.12,416.07 77.08,404.47 6.14,423.42C6.102,423.43 6.063,423.435 6.024,423.435C5.805,423.435 5.616,423.276 5.58,423.06C2.493,404.947 0.633,386.72 0,368.38L0,349.98C2.68,271.853 26.94,201.787 72.78,139.78C76.78,134.367 80.857,129.193 85.01,124.26C134.297,65.693 195.94,25.86 269.94,4.76C270.237,4.679 270.557,4.763 270.78,4.98L367.29,101.48C367.543,101.733 367.49,101.863 367.13,101.87C313.197,102.343 264.343,117.767 220.57,148.14C168.07,184.56 131,239.71 116.59,302.38C116.303,303.62 116.07,304.867 115.89,306.12C115.843,306.44 115.98,306.62 116.3,306.66C177.507,314.087 233.123,335.137 283.15,369.81C315.33,392.117 343.397,419.1 367.35,450.76C367.583,451.067 367.817,451.067 368.05,450.76C429.25,370.4 518.6,318.52 619.2,306.72C619.474,306.686 619.682,306.45 619.682,306.174C619.682,306.136 619.678,306.098 619.67,306.06C608.297,254.24 583.61,209.977 545.61,173.27C498.15,127.42 434.1,102.14 368.37,101.91C368.223,101.909 368.102,101.787 368.102,101.64C368.102,101.569 368.13,101.501 368.18,101.45L464.67,4.97C464.874,4.767 465.17,4.69 465.44,4.77C531.453,23.39 588.077,57.533 635.31,107.2C639.817,111.94 644.14,116.777 648.28,121.71C695.88,178.463 724.097,243.373 732.93,316.44C737.123,351.12 736.093,386.617 729.84,422.93C729.773,423.317 729.55,423.46 729.17,423.36C691.65,413.433 654.187,411.813 616.78,418.5C508.8,437.79 424.39,523.72 407.58,632.25C402.7,663.77 403.61,695.353 410.31,727Z" style="fill:rgb(9,31,63);fill-rule:nonzero;"/>
    <path d="M1673.98,215.58C1673.71,237.827 1672.4,258.623 1670.07,277.97C1667.63,298.28 1663.29,317.36 1655.46,335.91C1645.29,359.97 1629.46,381.41 1610.04,399.54C1598.69,410.15 1585.29,418.98 1571.16,425.91C1571.15,425.913 1571.15,425.916 1571.14,425.919C1570.99,425.981 1570.81,425.902 1570.75,425.745C1570.74,425.74 1570.74,425.735 1570.74,425.73L1558.67,386.97C1558.55,386.602 1558.72,386.2 1559.06,386.02C1568.15,381.213 1576.39,375.267 1583.77,368.18C1588.25,363.873 1592.97,358.657 1597.93,352.53C1611.44,335.83 1620.44,318.24 1625.1,297.5C1627.29,287.73 1629.06,277.84 1630.07,267.79C1632.15,247.003 1633.2,227.693 1633.22,209.86C1633.29,145.807 1633.31,81.027 1633.26,15.52C1633.26,15.235 1633.5,15 1633.78,15L1870.26,15C1870.53,15 1870.76,15.23 1870.76,15.51L1870.78,58.2C1870.78,58.37 1870.64,58.51 1870.46,58.51L1684.96,58.52C1684.61,58.52 1684.44,58.693 1684.44,59.04L1684.44,132.46C1684.44,132.807 1684.61,132.98 1684.96,132.98L1868.79,132.98C1869.24,132.98 1869.41,133.197 1869.32,133.63C1863.35,162.83 1856.02,190.95 1847.34,217.99C1834.38,258.39 1817.43,296.57 1793.68,331.15C1793.52,331.377 1793.53,331.593 1793.72,331.8C1820.75,361.71 1851.61,386.53 1888.55,402.59C1888.81,402.705 1888.98,402.965 1888.98,403.25L1888.98,446.22C1888.98,446.607 1888.8,446.733 1888.43,446.6C1857.89,435.4 1830.14,419.597 1805.19,399.19C1792.6,388.897 1780.4,377.443 1768.58,364.83C1768.5,364.742 1768.38,364.691 1768.26,364.691C1768.13,364.691 1768.01,364.75 1767.93,364.85C1747.95,388.9 1724.16,409.9 1698.84,428.3C1686.69,437.127 1673.97,444.86 1660.67,451.5C1660.63,451.521 1660.58,451.532 1660.53,451.532C1660.35,451.532 1660.21,451.388 1660.21,451.212C1660.21,451.212 1660.21,451.211 1660.21,451.21L1660.21,405.55C1660.21,405.177 1660.37,404.89 1660.68,404.69C1675.49,395.397 1690.61,383.833 1706.06,370C1719.43,358.027 1731.03,345.917 1740.86,333.67C1741.07,333.41 1741.07,333.15 1740.86,332.89C1728.52,317.097 1717.41,301.25 1707.53,285.35C1694.02,263.61 1683.62,240.17 1674.39,215.5C1674.12,214.793 1673.99,214.82 1673.98,215.58ZM1722.07,224.84C1733.38,251.44 1748.63,275.13 1765.8,298.17C1766.05,298.51 1766.28,298.5 1766.51,298.14C1788.65,262.87 1804.38,222.39 1815.4,182.27C1816.99,176.49 1812.82,172.26 1807.21,172.26C1771.77,172.267 1737.27,172.28 1703.71,172.3C1703.7,172.3 1703.68,172.301 1703.67,172.303C1703.52,172.324 1703.41,172.461 1703.43,172.608C1703.43,172.622 1703.44,172.636 1703.44,172.65C1708.66,190.53 1714.87,207.927 1722.07,224.84Z" style="fill:rgb(9,31,63);fill-rule:nonzero;"/>
    <path d="M1498.52,48.3C1498.52,48.3 1498.51,48.3 1498.51,48.3C1498.24,48.3 1498.02,48.521 1498.02,48.79C1498.02,48.79 1498.02,48.79 1498.02,48.79L1498.02,452C1498.02,452.34 1497.85,452.51 1497.5,452.51L1453.78,452.51C1453.45,452.51 1453.29,452.35 1453.29,452.03L1453.29,15.45C1453.29,15.302 1453.41,15.18 1453.55,15.18L1599.46,15.18C1599.65,15.18 1599.81,15.338 1599.81,15.53C1599.78,27.89 1599.78,40.6 1599.81,53.66C1599.81,55.133 1599.57,56.523 1599.09,57.83C1587.92,87.977 1576.83,117.933 1565.8,147.7C1565.65,148.104 1565.72,148.559 1565.99,148.9C1582.88,170.46 1596.17,196.68 1598.01,223.85C1599.04,239.05 1597.73,254.77 1594.08,271.01C1587.5,300.32 1571.64,326.15 1545.29,341.46C1545.27,341.471 1545.25,341.48 1545.23,341.489C1544.92,341.623 1544.56,341.484 1544.43,341.182C1544.42,341.162 1544.42,341.141 1544.41,341.12L1532.84,304.02C1532.73,303.673 1532.82,303.387 1533.1,303.16C1553.11,287.02 1558.86,260.38 1559.71,234.89C1560.25,218.39 1555.15,203.54 1546.53,188.9C1538.82,175.793 1529.4,163.907 1518.28,153.24C1518.01,152.973 1517.94,152.663 1518.07,152.31C1529.58,121.237 1541.07,90.187 1552.56,59.16C1553.07,57.787 1553.22,56.413 1553.01,55.04C1552.17,49.6 1548.08,48.24 1543.17,48.28C1528.04,48.387 1513.16,48.393 1498.52,48.3Z" style="fill:rgb(9,31,63);fill-rule:nonzero;"/>
    <path d="M2703.58,198.36C2704.45,197.753 2704.36,197.45 2703.29,197.45L2526.06,197.44C2525.72,197.44 2525.44,197.16 2525.44,196.82L2525.38,162.32C2525.38,162.018 2525.63,161.77 2525.93,161.77L2765.71,161.77C2766,161.77 2766.15,161.917 2766.15,162.21L2766.14,196.95C2766.14,197.23 2766.04,197.463 2765.83,197.65C2748.3,213.797 2729.78,227.17 2710.27,237.77C2701.27,242.657 2690.39,247.833 2677.64,253.3C2677.25,253.467 2677.05,253.767 2677.05,254.2L2677.06,274.45C2677.06,274.87 2677.27,275.08 2677.7,275.08L2869.01,275.08C2869.24,275.08 2869.43,275.274 2869.43,275.51L2869.42,313.51C2869.42,313.823 2869.16,314.08 2868.85,314.08L2677.27,314.07C2677.14,314.07 2677.04,314.174 2677.04,314.3C2677.08,331.847 2677.08,349.207 2677.04,366.38C2677.01,377.88 2675.73,389.043 2673.18,399.87C2665.66,431.83 2638.91,447.4 2608.89,453.97C2593.22,457.403 2576.69,459.45 2559.32,460.11C2558.91,460.123 2558.7,459.923 2558.7,459.51L2558.7,421.77C2558.7,421.403 2558.88,421.21 2559.25,421.19C2567.18,420.737 2575.07,419.907 2582.93,418.7C2596.18,416.68 2607.65,411.153 2617.35,402.12C2620.1,399.56 2622.46,395.45 2623.88,391.93C2626.96,384.337 2628.49,375.91 2628.48,366.65C2628.45,349.597 2628.45,332.307 2628.49,314.78C2628.49,314.391 2628.17,314.07 2627.78,314.07L2431.01,314.08C2430.83,314.08 2430.68,313.936 2430.68,313.76L2430.67,275.43C2430.67,275.238 2430.82,275.08 2431.01,275.08L2628.07,275.08C2628.34,275.08 2628.47,274.947 2628.47,274.68L2628.46,233.29C2628.46,232.95 2628.63,232.743 2628.96,232.67C2644.27,229.257 2657.92,224.503 2669.91,218.41C2681.8,212.37 2693.02,205.687 2703.58,198.36Z" style="fill:rgb(9,31,63);fill-rule:nonzero;"/>
    <path d="M1042.41,546.4C1069.46,564.21 1075.66,600.22 1074.41,630.6C1073.37,655.88 1065.71,683.59 1044.51,699.08C1032.49,707.86 1017.24,711.41 1002.67,710C951.64,705.05 939.7,651.15 943.76,608.57C945.77,587.51 953.04,565.08 969.71,550.84C989.15,534.23 1020.58,532.03 1042.41,546.4ZM972.12,607.37C969.72,630.81 970.8,675.41 997.79,685.82C1002.62,687.687 1007.74,688.263 1013.15,687.55C1039.7,684.07 1045.56,650.88 1046.15,629.03C1046.73,607.92 1044.66,578.7 1027.08,565.27C1019.02,559.11 1007.8,557.83 998.24,561.21C980.31,567.56 973.93,589.64 972.12,607.37Z" style="fill:rgb(9,31,63);fill-rule:nonzero;"/>
    <path d="M1114.89,658.25C1114.94,658.232 1114.99,658.224 1115.04,658.224C1115.25,658.224 1115.43,658.368 1115.48,658.57C1118.56,672.07 1125.84,684.53 1140.11,687.44C1146.81,688.807 1153.6,688.463 1160.47,686.41C1173.24,682.6 1177.38,672.44 1176.26,660.02C1175.43,650.83 1170.67,645.59 1162.98,641.74C1159.01,639.753 1155.06,638.14 1151.13,636.9C1138.2,632.82 1125.14,628.85 1113.85,621.4C1103.65,614.67 1097.9,604.79 1096.24,592.55C1095.5,587.143 1095.38,582.117 1095.88,577.47C1098.2,555.92 1113.43,541.68 1134.38,538.04C1147.65,535.733 1159.85,536.927 1170.99,541.62C1186.35,548.09 1196.01,562.04 1200.63,578.15C1200.69,578.364 1200.56,578.587 1200.35,578.65L1175.5,586.13C1175.09,586.257 1174.83,586.11 1174.74,585.69C1171.66,571.68 1164.18,559.22 1148.15,558.91C1134.01,558.63 1122.5,565.1 1122.08,580.51C1121.64,596.53 1131.8,602.78 1145.41,607.12C1152.64,609.427 1159.81,611.77 1166.92,614.15C1183.96,619.85 1198.85,629.94 1202.17,648.59C1207.45,678.24 1193.87,703.31 1163.26,708.86C1140.32,713.02 1114.5,708.72 1099.94,689.06C1095.51,683.087 1092.19,675.857 1089.98,667.37C1089.92,667.116 1090.06,666.854 1090.3,666.77L1114.89,658.25Z" style="fill:rgb(9,31,63);fill-rule:nonzero;"/>
    <path d="M2465.89,658.25C2466.23,658.13 2466.44,658.247 2466.51,658.6C2469.56,674.1 2479.55,687.38 2496.29,688.15C2516.68,689.08 2531.1,679.13 2526.9,656.89C2524.94,646.49 2514.98,641.31 2505.78,638.17C2481.45,629.88 2451.13,623.53 2447.29,592.63C2446.54,586.57 2446.22,579.56 2447.48,573.52C2453.4,545.06 2479.5,534.36 2506.4,537.48C2530.21,540.23 2545.13,555.84 2551.64,578.02C2551.74,578.353 2551.62,578.573 2551.28,578.68L2526.48,586.14C2526.07,586.26 2525.82,586.11 2525.73,585.69C2523.09,572.79 2516.09,560.65 2502.24,559.16C2488.83,557.72 2474.41,562.99 2473.23,578.32C2472.48,588.21 2474.96,596.26 2483.86,601.56C2487.63,603.8 2491.61,605.6 2495.81,606.96C2516.95,613.81 2545.62,619.87 2552.22,644.52C2554.55,653.22 2554.89,662.24 2553.24,671.58C2548.55,698.16 2526.6,709.52 2501.52,710.2C2471.29,711.02 2448.76,697.46 2441.03,667.31C2440.96,667.043 2441.05,666.867 2441.32,666.78L2465.89,658.25Z" style="fill:rgb(9,31,63);fill-rule:nonzero;"/>
    <path d="M2341.75,633L2341.76,706.51C2341.76,706.79 2341.53,707.02 2341.24,707.02L2316.24,707.04C2315.87,707.04 2315.69,706.853 2315.69,706.48L2315.69,540.28C2315.69,539.94 2315.86,539.77 2316.2,539.77C2332.29,539.683 2350.74,539.677 2371.54,539.75C2395.17,539.84 2418.33,546.93 2423.9,572.38C2429.08,596.08 2419.84,619.71 2395.36,627.46C2394.95,627.593 2394.83,627.857 2395.01,628.25L2430,706.71C2430.01,706.726 2430.01,706.743 2430.02,706.76C2430.04,706.883 2429.96,707.007 2429.83,707.035C2429.81,707.038 2429.8,707.04 2429.78,707.04L2401.96,707.03C2401.69,707.029 2401.44,706.863 2401.34,706.61L2370.68,632.58C2370.56,632.3 2370.34,632.16 2370.03,632.16L2342.5,632.26C2342,632.26 2341.75,632.507 2341.75,633ZM2398.48,587.74C2399.59,569.56 2388.28,561.71 2371.37,561.57C2361.86,561.49 2352.16,561.48 2342.26,561.54C2341.93,561.54 2341.76,561.707 2341.76,562.04L2341.76,610.03C2341.76,610.398 2342.06,610.7 2342.43,610.7C2351,610.687 2359.92,610.673 2369.21,610.66C2384.66,610.64 2397.44,604.69 2398.48,587.74Z" style="fill:rgb(9,31,63);fill-rule:nonzero;"/>
    <path d="M1300.85,657.8L1254.32,657.8C1254.15,657.798 1254,657.914 1253.95,658.08L1240.84,706.75C1240.8,706.916 1240.64,707.032 1240.47,707.03L1215.96,707.04C1215.75,707.036 1215.59,706.866 1215.59,706.66C1215.59,706.626 1215.59,706.593 1215.6,706.56L1262.49,540.01C1262.54,539.844 1262.69,539.728 1262.86,539.73L1294.5,539.73C1294.67,539.728 1294.83,539.844 1294.87,540.01L1341.93,706.56C1341.94,706.593 1341.94,706.626 1341.94,706.66C1341.94,706.866 1341.78,707.036 1341.57,707.04L1314.48,707.04C1314.31,707.037 1314.16,706.922 1314.12,706.76L1301.21,658.08C1301.17,657.918 1301.02,657.803 1300.85,657.8ZM1276.44,561.94C1271.22,586.77 1264.82,611.12 1258.88,635.91C1258.81,636.19 1258.92,636.33 1259.21,636.33L1295.69,636.33C1296.03,636.327 1296.3,636.048 1296.3,635.71C1296.3,635.653 1296.3,635.595 1296.28,635.54C1289.35,611.1 1283.43,586.587 1278.53,562C1278.47,561.693 1278.3,561.48 1278.02,561.36C1277.67,561.207 1277.33,561.19 1277,561.31C1276.69,561.417 1276.51,561.627 1276.44,561.94Z" style="fill:rgb(9,31,63);fill-rule:nonzero;"/>
    <path d="M1447.52,539.74L1477.12,539.72C1477.12,539.72 1477.12,539.72 1477.12,539.72C1477.3,539.72 1477.44,539.864 1477.44,540.04C1477.44,540.113 1477.41,540.183 1477.37,540.24L1424.71,606.2C1424.63,606.302 1424.62,606.446 1424.68,606.56L1482.09,706.56C1482.12,706.609 1482.13,706.664 1482.13,706.72C1482.13,706.893 1481.99,707.036 1481.82,707.04L1452.31,707.03C1452.19,707.031 1452.09,706.97 1452.03,706.87L1407.57,626.98C1407.51,626.88 1407.41,626.818 1407.29,626.818C1407.19,626.818 1407.1,626.863 1407.04,626.94L1389.45,648.5C1389.4,648.557 1389.38,648.627 1389.38,648.7L1389.37,706.73C1389.37,706.906 1389.23,707.05 1389.05,707.05L1363.4,707.05C1363.22,707.05 1363.08,706.906 1363.08,706.73L1363.08,540.04C1363.08,539.864 1363.22,539.72 1363.4,539.72L1389.05,539.76C1389.23,539.76 1389.37,539.904 1389.37,540.08L1389.37,615.17C1389.38,615.342 1389.52,615.48 1389.69,615.48C1389.79,615.48 1389.88,615.436 1389.94,615.36L1447.26,539.87C1447.32,539.788 1447.42,539.739 1447.52,539.74Z" style="fill:rgb(9,31,63);fill-rule:nonzero;"/>
    <path d="M1574.24,657.8L1527.74,657.8C1527.58,657.799 1527.43,657.911 1527.39,658.07L1514.25,706.77C1514.21,706.929 1514.06,707.041 1513.9,707.04L1489.37,707.03C1489.37,707.03 1489.37,707.03 1489.37,707.03C1489.17,707.03 1489.01,706.868 1489.01,706.67C1489.01,706.636 1489.01,706.603 1489.02,706.57L1535.9,540C1535.94,539.848 1536.08,539.743 1536.24,539.74L1567.91,539.73C1568.07,539.733 1568.21,539.838 1568.25,539.99L1615.38,706.6C1615.39,706.633 1615.39,706.666 1615.39,706.7C1615.39,706.898 1615.23,707.06 1615.03,707.06C1615.03,707.06 1615.03,707.06 1615.03,707.06L1587.89,707.02C1587.73,707.021 1587.58,706.909 1587.54,706.75L1574.59,658.07C1574.55,657.911 1574.4,657.799 1574.24,657.8ZM1548.05,570.11C1544.44,586.663 1539.17,608.54 1532.24,635.74C1532.23,635.779 1532.23,635.82 1532.23,635.86C1532.23,636.123 1532.44,636.34 1532.7,636.34C1532.71,636.34 1532.71,636.34 1532.71,636.34L1569.21,636.33C1569.72,636.33 1569.91,636.083 1569.77,635.59C1562.92,611.723 1557.02,587.323 1552.05,562.39C1551.97,562.01 1551.8,561.703 1551.54,561.47C1551.22,561.183 1550.85,561.133 1550.43,561.32C1550.11,561.46 1549.91,561.7 1549.84,562.04C1549.25,564.66 1548.65,567.35 1548.05,570.11Z" style="fill:rgb(9,31,63);fill-rule:nonzero;"/>
    <path d="M1720.35,704.42C1702.51,696.31 1693.62,680.11 1691.16,661C1690.74,657.753 1690.53,652.243 1690.52,644.47C1690.5,610.003 1690.49,575.287 1690.5,540.32C1690.5,540.013 1690.75,539.76 1691.06,539.76L1716.95,539.72C1717.1,539.72 1717.22,539.846 1717.22,540C1717.19,575.947 1717.2,613.11 1717.25,651.49C1717.26,656.303 1717.99,661.323 1719.45,666.55C1722.75,678.35 1730.78,685.56 1742.97,687.35C1755.17,689.14 1768.61,686.48 1775.62,675.68C1781.89,666 1782.13,654.54 1782.11,642.91C1782.06,611.637 1782.04,577.427 1782.04,540.28C1782.04,540 1782.27,539.77 1782.55,539.77L1806.44,539.72C1806.79,539.72 1806.97,539.897 1806.97,540.25C1807,578.05 1806.99,615.097 1806.94,651.39C1806.9,678.16 1794.27,701.32 1766.79,708C1752.39,711.51 1734.41,710.81 1720.35,704.42Z" style="fill:rgb(9,31,63);fill-rule:nonzero;"/>
    <path d="M1936.55,670.46C1933.88,627.01 1934.42,583.63 1934.59,540.44C1934.6,539.96 1934.84,539.723 1935.32,539.73L1958.6,539.82C1958.89,539.825 1959.12,540.068 1959.12,540.36L1959.13,706.64C1959.13,706.907 1959,707.04 1958.73,707.04L1927.19,707.03C1926.74,707.03 1926.43,706.823 1926.25,706.41C1911.42,672.323 1897.17,639.16 1883.49,606.92C1878.56,595.287 1873.3,581.773 1867.71,566.38C1867.58,566.027 1867.34,565.797 1866.97,565.69C1866.34,565.497 1865.71,565.477 1865.09,565.63C1864.7,565.723 1864.52,565.967 1864.54,566.36C1865.39,583.627 1865.83,599.507 1865.87,614C1865.94,644.46 1865.96,675.337 1865.92,706.63C1865.92,706.855 1865.74,707.04 1865.51,707.04L1841.75,707.02C1841.61,707.02 1841.49,706.898 1841.49,706.75L1841.46,540.51C1841.46,540.082 1841.81,539.73 1842.24,539.73L1880.98,539.71C1881.37,539.71 1881.64,539.887 1881.79,540.24C1892.94,566.033 1903.95,591.743 1914.82,617.37C1921.09,632.13 1927.37,649.937 1933.66,670.79C1933.75,671.097 1933.96,671.25 1934.29,671.25L1935.81,671.25C1936.34,671.25 1936.58,670.987 1936.55,670.46Z" style="fill:rgb(9,31,63);fill-rule:nonzero;"/>
    <path d="M2020.82,540C2020.82,539.851 2020.7,539.73 2020.55,539.73L1994.25,539.73C1994.1,539.73 1993.98,539.851 1993.98,540L1993.98,706.76C1993.98,706.909 1994.1,707.03 1994.25,707.03L2020.55,707.03C2020.7,707.03 2020.82,706.909 2020.82,706.76L2020.82,540Z" style="fill:rgb(9,31,63);"/>
    <path d="M2105.62,680.27L2107.02,680.27C2107.51,680.27 2107.8,680.033 2107.9,679.56C2118,632.35 2130.23,586.5 2142.04,540.13C2142.1,539.895 2142.31,539.729 2142.54,539.73L2167.94,539.73C2168.26,539.73 2168.38,539.887 2168.29,540.2L2121.61,706.7C2121.55,706.927 2121.4,707.04 2121.17,707.04L2088.81,707.03C2088.53,707.032 2088.28,706.842 2088.2,706.57L2041.99,540.18C2041.98,540.151 2041.98,540.12 2041.98,540.09C2041.98,539.898 2042.14,539.74 2042.33,539.74C2042.33,539.74 2042.33,539.74 2042.33,539.74L2070.05,539.73C2070.34,539.731 2070.6,539.934 2070.67,540.22C2078.04,569.407 2085.62,599.287 2093.4,629.86C2095.28,637.233 2099.06,653.803 2104.75,679.57C2104.86,680.037 2105.15,680.27 2105.62,680.27Z" style="fill:rgb(9,31,63);fill-rule:nonzero;"/>
    <path d="M2216.12,563.12L2216.13,606.68C2216.13,606.867 2216.28,607.02 2216.47,607.02L2272.15,607.01C2272.34,607.01 2272.49,607.163 2272.49,607.35L2272.5,629.73C2272.5,629.917 2272.35,630.07 2272.16,630.07L2216.46,630.05C2216.27,630.05 2216.12,630.203 2216.12,630.39L2216.13,683.6C2216.13,683.787 2216.28,683.94 2216.47,683.94L2291.93,683.95C2292.12,683.95 2292.27,684.103 2292.27,684.29L2292.28,706.67C2292.28,706.857 2292.13,707.01 2291.94,707.01L2189.82,707C2189.63,707 2189.48,706.847 2189.48,706.66L2189.45,540.06C2189.45,539.873 2189.6,539.72 2189.79,539.72L2290.37,539.76C2290.56,539.76 2290.71,539.913 2290.71,540.1L2290.69,562.46C2290.69,562.647 2290.54,562.8 2290.35,562.8L2216.46,562.78C2216.27,562.78 2216.12,562.933 2216.12,563.12Z" style="fill:rgb(9,31,63);fill-rule:nonzero;"/>
    <path d="M2607.26,540.34C2607.26,540.02 2607,539.76 2606.68,539.76L2580.92,539.76C2580.6,539.76 2580.34,540.02 2580.34,540.34L2580.34,706.46C2580.34,706.78 2580.6,707.04 2580.92,707.04L2606.68,707.04C2607,707.04 2607.26,706.78 2607.26,706.46L2607.26,540.34Z" style="fill:rgb(9,31,63);"/>
    <path d="M2702,563.65L2702,706.64C2702,706.854 2701.82,707.03 2701.61,707.03L2675.49,707.02C2675.28,707.02 2675.1,706.844 2675.1,706.63L2675.11,563.65C2675.11,563.436 2674.93,563.26 2674.72,563.26L2630.2,563.26C2629.99,563.26 2629.81,563.084 2629.81,562.87L2629.82,540.12C2629.82,539.906 2630,539.73 2630.21,539.73L2747.3,539.75C2747.51,539.75 2747.69,539.926 2747.69,540.14L2747.7,562.87C2747.7,563.084 2747.52,563.26 2747.31,563.26L2702.39,563.26C2702.18,563.26 2702,563.436 2702,563.65Z" style="fill:rgb(9,31,63);fill-rule:nonzero;"/>
    <path d="M2821.25,611.72C2821.34,611.907 2821.43,611.907 2821.52,611.72L2855.56,540.21C2855.71,539.89 2855.96,539.73 2856.31,539.73L2882.44,539.73C2882.63,539.733 2882.78,539.89 2882.78,540.08C2882.78,540.132 2882.77,540.183 2882.75,540.23C2866.43,572.07 2850.09,603.977 2833.72,635.95C2833.07,637.23 2832.74,638.61 2832.74,640.09C2832.77,662.603 2832.77,684.803 2832.75,706.69C2832.75,706.893 2832.59,707.06 2832.39,707.06L2806.23,707.02C2806.02,707.02 2805.84,706.844 2805.84,706.63L2805.85,638.5C2805.85,638.04 2805.74,637.584 2805.53,637.17L2756.71,540.26C2756.54,539.913 2756.64,539.74 2757.02,539.74L2785.47,539.73C2785.84,539.73 2786.11,539.897 2786.27,540.23L2821.25,611.72Z" style="fill:rgb(9,31,63);fill-rule:nonzero;"/>
</svg>
