<?xml version="1.0" encoding="UTF-8" standalone="no"?>
<!DOCTYPE svg PUBLIC "-//W3C//DTD SVG 1.1//EN" "http://www.w3.org/Graphics/SVG/1.1/DTD/svg11.dtd">
<svg width="100%" height="100%" viewBox="0 0 41 56" version="1.1" xmlns="http://www.w3.org/2000/svg" xmlns:xlink="http://www.w3.org/1999/xlink" xml:space="preserve" xmlns:serif="http://www.serif.com/" style="fill-rule:evenodd;clip-rule:evenodd;stroke-linejoin:round;stroke-miterlimit:2;">
    <g transform="matrix(0.886154,0,0,0.79732,1.86738,4.68614)">
        <rect id="Artboard2" x="-2.107" y="-5.877" width="46.092" height="69.407" style="fill:none;"/>
        <clipPath id="_clip1">
            <rect id="Artboard21" serif:id="Artboard2" x="-2.107" y="-5.877" width="46.092" height="69.407"/>
        </clipPath>
        <g clip-path="url(#_clip1)">
            <g transform="matrix(1.08889,0,0,1.1437,0.529095,-2.68116)">
                <rect id="Artboard1" x="-2.757" y="-3.196" width="252.432" height="61.34" style="fill:none;"/>
                <g transform="matrix(1.03635,0,0,1.09662,-2.66179,-3.13543)">
                    <g id="Artboard11" serif:id="Artboard1">
                        <g>
                            <g transform="matrix(0.922507,0,0,0.910052,0.254722,-0.550924)">
                                <path d="M22.2,23.6L24.6,40.8L32.4,27.8L29,42.1L37.4,34.1L33,44.7L40,39.5C36.7,48.4 33.9,53.3 22.1,57.3C10.3,53.3 7.5,48.3 4.2,39.5L11.2,44.7L6.9,34L15.3,42L12,27.7L19.8,40.7L22.2,23.6Z" style="fill:rgb(9,31,63);fill-rule:nonzero;"/>
                            </g>
                            <g transform="matrix(0.922507,0,0,0.910052,0.254722,-0.550924)">
                                <path d="M9.9,17.8C6.3,17.8 4.2,15.9 4.2,12.7L4.2,5L7.2,5L7.2,12.6C7.2,14.5 8.2,15.5 10,15.5C11.8,15.5 12.8,14.5 12.8,12.7L12.8,5L15.8,5L15.8,12.6C15.7,15.8 13.4,17.8 9.9,17.8" style="fill:rgb(9,31,63);fill-rule:nonzero;"/>
                            </g>
                            <g transform="matrix(0.922507,0,0,0.910052,0.254722,-0.550924)">
                                <path d="M21,10.1L22.1,10.1C23.5,10.1 24.3,9.6 24.3,8.6C24.3,7.6 23.6,7.2 22.2,7.2L21,7.2L21,10.1ZM21,15.5L22.3,15.5C23.5,15.5 24.8,15.2 24.8,13.8C24.8,12.4 23.4,12 22.2,12L21,12L21,15.5ZM22.3,17.6L18.2,17.6L18.2,5L22.4,5C25.5,5 27.2,6.2 27.2,8.3C27.2,9.4 26.6,10.3 25.5,10.8C27,11.3 27.8,12.3 27.8,13.8C27.7,16.3 25.8,17.6 22.3,17.6" style="fill:rgb(9,31,63);fill-rule:nonzero;"/>
                            </g>
                            <g transform="matrix(0.922507,0,0,0.910052,0.254722,-0.550924)">
                                <path d="M36,17.8C31.9,17.8 29.3,15.3 29.3,11.3C29.3,7.4 32,4.8 36.1,4.8C37.6,4.8 38.9,5.1 40,5.7L40,5.8L39.6,8.4L39.4,8.3C38.3,7.6 37.3,7.2 36.2,7.2C33.8,7.2 32.3,8.8 32.3,11.4C32.3,14 33.8,15.6 36.2,15.6C37.3,15.6 38.5,15.3 39.6,14.6L39.8,14.5L40.2,16.9L40.1,17C38.9,17.4 37.5,17.8 36,17.8" style="fill:rgb(9,31,63);fill-rule:nonzero;"/>
                            </g>
                            <g transform="matrix(0.922507,0,0,0.910052,0.254722,-0.550924)">
                                <path d="M0,1L0,33.9C0,47.7 7.5,57.7 22.2,61.7C36.9,57.8 44.4,47.8 44.4,33.9L44.4,1L0,1ZM22.2,59.9C8.3,56 1.6,46.8 1.6,33.7L1.6,2.7L42.7,2.7L42.7,33.7C42.7,46.8 36.1,56 22.2,59.9" style="fill:rgb(9,31,63);fill-rule:nonzero;"/>
                            </g>
                            <g transform="matrix(0.922507,0,0,0.910052,0.254722,-0.550924)">
                                <path d="M22.2,22.1C25.3,22.1 25.7,23.4 28.2,23.3C30.7,23.3 31.1,22.1 34.2,22.1C37.3,22.1 37.7,23.4 40.2,23.3L40.2,20.4C37.7,20.4 37.3,19.2 34.2,19.2C31.1,19.2 30.7,20.4 28.2,20.4C25.7,20.4 25.3,19.2 22.2,19.2C19.1,19.2 18.7,20.4 16.2,20.4C13.7,20.4 13.3,19.2 10.2,19.2C7.1,19.2 6.7,20.4 4.2,20.4L4.2,23.3C6.7,23.3 7.1,22.1 10.2,22.1C13.3,22.1 13.7,23.4 16.2,23.3C18.7,23.3 19.1,22.1 22.2,22.1" style="fill:rgb(9,31,63);fill-rule:nonzero;"/>
                            </g>
                            <g transform="matrix(0.922507,0,0,0.910052,0.254722,-0.550924)">
                                <path d="M24.2,27.3C25.7,27.7 26.4,28.3 28.3,28.3C30.8,28.3 31.2,27.1 34.3,27.1C37.4,27.1 37.8,28.4 40.3,28.3L40.3,25.4C37.8,25.4 37.4,24.2 34.3,24.2C31.2,24.2 30.8,25.4 28.3,25.4C26.3,25.4 25.6,24.6 23.8,24.3L24.2,27.3Z" style="fill:rgb(9,31,63);fill-rule:nonzero;"/>
                            </g>
                            <g transform="matrix(0.922507,0,0,0.910052,0.254722,-0.550924)">
                                <path d="M16.2,28.3C18,28.3 18.8,27.6 20.2,27.3L20.6,24.3C18.8,24.6 18.1,25.4 16.1,25.4C13.6,25.4 13.2,24.2 10.1,24.2C7,24.2 6.6,25.4 4.1,25.4L4.1,28.3C6.6,28.3 7,27.1 10.1,27.1C13.2,27.1 13.7,28.3 16.2,28.3" style="fill:rgb(9,31,63);fill-rule:nonzero;"/>
                            </g>
                            <g transform="matrix(0.922507,0,0,0.910052,0.254722,-0.550924)">
                                <path d="M24.9,32.5C25.7,32.8 26.4,33.1 27.4,33.3L29.1,30.4C28.8,30.4 28.5,30.5 28.2,30.5C26.5,30.5 25.7,29.9 24.5,29.6L24.9,32.5Z" style="fill:rgb(9,31,63);fill-rule:nonzero;"/>
                            </g>
                            <g transform="matrix(0.922507,0,0,0.910052,0.254722,-0.550924)">
                                <path d="M32.8,32.2C33.2,32.1 33.7,32.1 34.2,32.1C37.3,32.1 37.7,33.4 40.2,33.3L40.2,30.4C37.7,30.4 37.3,29.2 34.2,29.2L33.5,29.2L32.8,32.2Z" style="fill:rgb(9,31,63);fill-rule:nonzero;"/>
                            </g>
                            <g transform="matrix(0.922507,0,0,0.910052,0.254722,-0.550924)">
                                <path d="M11.6,32.2L10.9,29.3L10.2,29.3C7.1,29.3 6.7,30.5 4.2,30.5L4.2,33.4C6.7,33.4 7.1,32.2 10.2,32.2C10.7,32.1 11.2,32.1 11.6,32.2" style="fill:rgb(9,31,63);fill-rule:nonzero;"/>
                            </g>
                            <g transform="matrix(0.922507,0,0,0.910052,0.254722,-0.550924)">
                                <path d="M17,33.3C18,33.2 18.7,32.8 19.5,32.5L19.9,29.5C18.6,29.9 17.9,30.4 16.2,30.4C15.9,30.4 15.6,30.4 15.3,30.3L17,33.3Z" style="fill:rgb(9,31,63);fill-rule:nonzero;"/>
                            </g>
                        </g>
                    </g>
                </g>
            </g>
        </g>
    </g>
</svg>
