<?xml version="1.0" encoding="UTF-8" standalone="no"?>
<!DOCTYPE svg PUBLIC "-//W3C//DTD SVG 1.1//EN" "http://www.w3.org/Graphics/SVG/1.1/DTD/svg11.dtd">
<svg xmlns="http://www.w3.org/2000/svg" version="1.1" viewBox="0.00 0.00 2883.00 727.00">
<path fill="#313f85" d="
  M 1142.82 0.00
  L 1197.60 0.00
  L 1197.67 128.99
  A 0.86 0.86 0.0 0 0 1198.53 129.85
  L 1376.72 129.87
  A 0.60 0.60 0.0 0 1 1377.32 130.47
  L 1377.34 173.27
  Q 1377.35 173.88 1376.73 173.88
  L 1202.01 173.87
  Q 1201.78 173.87 1201.82 174.10
  Q 1206.62 204.64 1216.73 234.06
  Q 1239.60 300.64 1292.26 347.60
  Q 1332.02 383.06 1383.29 402.76
  A 0.74 0.73 -79.7 0 1 1383.76 403.45
  L 1383.76 452.94
  A 0.38 0.37 -81.0 0 1 1383.27 453.30
  Q 1298.51 425.83 1238.33 361.33
  Q 1199.13 319.32 1177.52 265.17
  C 1175.50 260.11 1169.23 258.41 1165.12 262.01
  Q 1163.63 263.31 1162.16 266.95
  Q 1138.18 326.21 1092.03 371.72
  Q 1034.89 428.06 957.33 453.28
  Q 956.62 453.51 956.62 452.77
  L 956.62 403.56
  Q 956.62 403.04 957.11 402.85
  Q 1030.67 374.40 1079.27 314.96
  C 1111.83 275.14 1130.64 225.46 1138.42 174.38
  Q 1138.50 173.87 1137.98 173.87
  L 963.45 173.88
  A 0.42 0.42 0.0 0 1 963.03 173.46
  L 963.03 130.29
  Q 963.03 129.86 963.46 129.86
  L 1142.02 129.85
  Q 1142.80 129.85 1142.80 129.07
  L 1142.82 0.00
  Z"
/>
<path fill="#313f85" d="
  M 2131.79 0.00
  L 2186.63 0.00
  L 2186.66 129.10
  A 0.76 0.76 0.0 0 0 2187.42 129.86
  L 2365.75 129.85
  Q 2366.40 129.85 2366.40 130.50
  L 2366.41 173.43
  Q 2366.41 173.88 2365.95 173.88
  L 2191.43 173.87
  Q 2190.86 173.87 2190.94 174.44
  C 2198.54 224.27 2217.20 273.63 2248.42 312.83
  C 2280.74 353.41 2322.93 383.70 2372.28 402.75
  Q 2372.77 402.94 2372.77 403.47
  L 2372.79 452.72
  Q 2372.79 453.48 2372.07 453.25
  Q 2284.14 424.58 2223.19 356.78
  C 2199.17 330.05 2180.36 299.43 2166.42 265.01
  C 2164.41 260.07 2157.73 258.30 2153.96 262.18
  Q 2152.45 263.73 2150.96 267.38
  Q 2128.61 322.12 2088.41 364.20
  Q 2029.10 426.30 1946.43 453.27
  Q 1945.68 453.52 1945.68 452.72
  L 1945.68 403.51
  Q 1945.68 402.96 1946.19 402.77
  C 2011.76 377.75 2069.89 328.56 2100.10 264.70
  Q 2119.96 222.74 2127.49 174.46
  Q 2127.58 173.87 2126.99 173.87
  L 1952.58 173.88
  A 0.55 0.55 0.0 0 1 1952.03 173.33
  L 1952.04 130.77
  Q 1952.04 129.84 1952.96 129.84
  L 2130.95 129.86
  Q 2131.77 129.86 2131.77 129.04
  L 2131.79 0.00
  Z"
/>
<path fill="#313f85" d="
  M 2505.75 0.00
  L 2546.11 0.00
  L 2546.09 62.16
  Q 2546.08 62.75 2545.49 62.75
  L 2506.28 62.76
  Q 2505.76 62.76 2505.76 62.24
  L 2505.75 0.00
  Z"
/>
<path fill="#313f85" d="
  M 2611.70 0.00
  L 2652.10 0.00
  L 2652.09 62.23
  Q 2652.09 62.75 2651.56 62.75
  L 2612.26 62.76
  Q 2611.74 62.76 2611.74 62.24
  L 2611.70 0.00
  Z"
/>
<path fill="#313f85" d="
  M 2757.40 0.00
  L 2814.34 0.00
  Q 2801.34 34.15 2779.70 63.45
  Q 2771.62 74.39 2762.03 84.03
  Q 2761.46 84.60 2761.39 84.65
  Q 2760.05 85.44 2761.60 85.44
  Q 2810.86 85.41 2859.92 85.43
  A 0.32 0.32 0.0 0 1 2860.24 85.75
  L 2860.23 195.53
  Q 2860.23 196.05 2859.71 196.05
  L 2811.81 196.06
  Q 2811.52 196.06 2811.52 195.77
  Q 2811.47 168.55 2811.54 140.88
  Q 2811.56 135.45 2810.15 132.62
  C 2806.95 126.17 2801.60 124.25 2794.52 124.25
  Q 2641.92 124.27 2486.67 124.31
  Q 2486.27 124.31 2486.27 124.71
  L 2486.27 195.52
  Q 2486.27 196.05 2485.73 196.05
  L 2438.20 196.06
  Q 2437.60 196.06 2437.60 195.45
  L 2437.65 86.12
  Q 2437.65 85.40 2438.38 85.40
  L 2691.48 85.43
  Q 2692.06 85.43 2692.53 85.11
  C 2707.58 74.90 2720.74 62.28 2731.48 47.46
  Q 2747.46 25.42 2757.40 0.00
  Z"
/>
<path fill="#313f85" d="
  M 410.31 727.00
  L 325.03 727.00
  Q 338.31 664.89 322.19 605.25
  C 305.57 543.75 266.91 490.61 213.56 455.97
  C 152.12 416.07 77.08 404.47 6.14 423.42
  A 0.45 0.45 0.0 0 1 5.58 423.06
  Q 0.95 395.89 0.00 368.38
  L 0.00 349.98
  Q 4.02 232.79 72.78 139.78
  Q 78.78 131.66 85.01 124.26
  Q 158.94 36.41 269.94 4.76
  A 0.88 0.87 59.4 0 1 270.78 4.98
  L 367.29 101.48
  Q 367.67 101.86 367.13 101.87
  Q 286.23 102.58 220.57 148.14
  C 168.07 184.56 131.00 239.71 116.59 302.38
  Q 116.16 304.24 115.89 306.12
  Q 115.82 306.60 116.30 306.66
  Q 208.11 317.80 283.15 369.81
  Q 331.42 403.27 367.35 450.76
  Q 367.70 451.22 368.05 450.76
  C 429.25 370.40 518.60 318.52 619.20 306.72
  A 0.55 0.55 0.0 0 0 619.67 306.06
  Q 602.61 228.33 545.61 173.27
  C 498.15 127.42 434.10 102.14 368.37 101.91
  A 0.27 0.27 0.0 0 1 368.18 101.45
  L 464.67 4.97
  A 0.79 0.77 -59.0 0 1 465.44 4.77
  Q 564.46 32.70 635.31 107.20
  Q 642.07 114.31 648.28 121.71
  Q 719.68 206.84 732.93 316.44
  Q 739.22 368.46 729.84 422.93
  Q 729.74 423.51 729.17 423.36
  Q 672.89 408.47 616.78 418.50
  C 508.80 437.79 424.39 523.72 407.58 632.25
  Q 400.26 679.53 410.31 727.00
  Z"
/>
<path fill="#313f85" d="
  M 1673.98 215.58
  Q 1673.57 248.95 1670.07 277.97
  C 1667.63 298.28 1663.29 317.36 1655.46 335.91
  C 1645.29 359.97 1629.46 381.41 1610.04 399.54
  C 1598.69 410.15 1585.29 418.98 1571.16 425.91
  A 0.31 0.30 67.9 0 1 1570.74 425.73
  L 1558.67 386.97
  A 0.80 0.80 0.0 0 1 1559.06 386.02
  Q 1572.70 378.81 1583.77 368.18
  Q 1590.49 361.72 1597.93 352.53
  C 1611.44 335.83 1620.44 318.24 1625.10 297.50
  C 1627.29 287.73 1629.06 277.84 1630.07 267.79
  Q 1633.19 236.61 1633.22 209.86
  Q 1633.33 113.78 1633.26 15.52
  A 0.52 0.52 0.0 0 1 1633.78 15.00
  L 1870.26 15.00
  A 0.51 0.50 90.0 0 1 1870.76 15.51
  L 1870.78 58.20
  A 0.32 0.31 0.0 0 1 1870.46 58.51
  L 1684.96 58.52
  Q 1684.44 58.52 1684.44 59.04
  L 1684.44 132.46
  Q 1684.44 132.98 1684.96 132.98
  L 1868.79 132.98
  Q 1869.46 132.98 1869.32 133.63
  Q 1860.36 177.43 1847.34 217.99
  C 1834.38 258.39 1817.43 296.57 1793.68 331.15
  Q 1793.44 331.49 1793.72 331.80
  C 1820.75 361.71 1851.61 386.53 1888.55 402.59
  A 0.72 0.72 0.0 0 1 1888.98 403.25
  L 1888.98 446.22
  Q 1888.98 446.80 1888.43 446.60
  Q 1842.62 429.80 1805.19 399.19
  Q 1786.31 383.75 1768.58 364.83
  A 0.43 0.43 0.0 0 0 1767.93 364.85
  C 1747.95 388.90 1724.16 409.90 1698.84 428.30
  Q 1680.62 441.54 1660.67 451.50
  A 0.32 0.32 0.0 0 1 1660.21 451.21
  L 1660.21 405.55
  Q 1660.21 404.99 1660.68 404.69
  Q 1682.89 390.75 1706.06 370.00
  Q 1726.11 352.04 1740.86 333.67
  Q 1741.17 333.28 1740.86 332.89
  Q 1722.35 309.20 1707.53 285.35
  C 1694.02 263.61 1683.62 240.17 1674.39 215.50
  Q 1673.99 214.44 1673.98 215.58
  Z
  M 1722.07 224.84
  C 1733.38 251.44 1748.63 275.13 1765.80 298.17
  Q 1766.17 298.68 1766.51 298.14
  C 1788.65 262.87 1804.38 222.39 1815.40 182.27
  C 1816.99 176.49 1812.82 172.26 1807.21 172.26
  Q 1754.05 172.27 1703.71 172.30
  A 0.28 0.27 -7.8 0 0 1703.44 172.65
  Q 1711.27 199.47 1722.07 224.84
  Z"
/>
<path fill="#313f85" d="
  M 1498.52 48.30
  A 0.49 0.49 0.0 0 0 1498.02 48.79
  L 1498.02 452.00
  Q 1498.02 452.51 1497.50 452.51
  L 1453.78 452.51
  Q 1453.29 452.51 1453.29 452.03
  L 1453.29 15.45
  A 0.27 0.26 90.0 0 1 1453.55 15.18
  L 1599.46 15.18
  A 0.35 0.35 0.0 0 1 1599.81 15.53
  Q 1599.76 34.07 1599.81 53.66
  Q 1599.81 55.87 1599.09 57.83
  Q 1582.34 103.05 1565.80 147.70
  A 1.25 1.24 36.3 0 0 1565.99 148.90
  C 1582.88 170.46 1596.17 196.68 1598.01 223.85
  Q 1599.55 246.65 1594.08 271.01
  C 1587.50 300.32 1571.64 326.15 1545.29 341.46
  A 0.61 0.60 -23.5 0 1 1544.41 341.12
  L 1532.84 304.02
  Q 1532.68 303.50 1533.10 303.16
  C 1553.11 287.02 1558.86 260.38 1559.71 234.89
  C 1560.25 218.39 1555.15 203.54 1546.53 188.90
  Q 1534.96 169.24 1518.28 153.24
  Q 1517.87 152.84 1518.07 152.31
  Q 1535.33 105.70 1552.56 59.16
  Q 1553.32 57.10 1553.01 55.04
  C 1552.17 49.60 1548.08 48.24 1543.17 48.28
  Q 1520.48 48.44 1498.52 48.30
  Z"
/>
<path fill="#313f85" d="
  M 2703.58 198.36
  Q 2704.89 197.45 2703.29 197.45
  L 2526.06 197.44
  A 0.62 0.62 0.0 0 1 2525.44 196.82
  L 2525.38 162.32
  A 0.55 0.55 0.0 0 1 2525.93 161.77
  L 2765.71 161.77
  Q 2766.15 161.77 2766.15 162.21
  L 2766.14 196.95
  Q 2766.14 197.37 2765.83 197.65
  Q 2739.53 221.87 2710.27 237.77
  Q 2696.77 245.10 2677.64 253.30
  Q 2677.05 253.55 2677.05 254.20
  L 2677.06 274.45
  Q 2677.06 275.08 2677.70 275.08
  L 2869.01 275.08
  A 0.43 0.42 -90.0 0 1 2869.43 275.51
  L 2869.42 313.51
  A 0.57 0.57 0.0 0 1 2868.85 314.08
  L 2677.27 314.07
  A 0.23 0.23 0.0 0 0 2677.04 314.30
  Q 2677.10 340.62 2677.04 366.38
  Q 2677.00 383.63 2673.18 399.87
  C 2665.66 431.83 2638.91 447.40 2608.89 453.97
  Q 2585.38 459.12 2559.32 460.11
  Q 2558.70 460.13 2558.70 459.51
  L 2558.70 421.77
  Q 2558.70 421.22 2559.25 421.19
  Q 2571.14 420.51 2582.93 418.70
  Q 2602.80 415.67 2617.35 402.12
  C 2620.10 399.56 2622.46 395.45 2623.88 391.93
  Q 2628.50 380.54 2628.48 366.65
  Q 2628.43 341.07 2628.49 314.78
  A 0.71 0.71 0.0 0 0 2627.78 314.07
  L 2431.01 314.08
  A 0.33 0.32 0.0 0 1 2430.68 313.76
  L 2430.67 275.43
  A 0.35 0.34 90.0 0 1 2431.01 275.08
  L 2628.07 275.08
  Q 2628.47 275.08 2628.47 274.68
  L 2628.46 233.29
  Q 2628.46 232.78 2628.96 232.67
  Q 2651.93 227.55 2669.91 218.41
  Q 2687.74 209.35 2703.58 198.36
  Z"
/>
<path fill="#313f85" d="
  M 1042.41 546.40
  C 1069.46 564.21 1075.66 600.22 1074.41 630.60
  C 1073.37 655.88 1065.71 683.59 1044.51 699.08
  C 1032.49 707.86 1017.24 711.41 1002.67 710.00
  C 951.64 705.05 939.70 651.15 943.76 608.57
  C 945.77 587.51 953.04 565.08 969.71 550.84
  C 989.15 534.23 1020.58 532.03 1042.41 546.40
  Z
  M 972.12 607.37
  C 969.72 630.81 970.80 675.41 997.79 685.82
  Q 1005.04 688.62 1013.15 687.55
  C 1039.70 684.07 1045.56 650.88 1046.15 629.03
  C 1046.73 607.92 1044.66 578.70 1027.08 565.27
  C 1019.02 559.11 1007.80 557.83 998.24 561.21
  C 980.31 567.56 973.93 589.64 972.12 607.37
  Z"
/>
<path fill="#313f85" d="
  M 1114.89 658.25
  A 0.45 0.45 0.0 0 1 1115.48 658.57
  C 1118.56 672.07 1125.84 684.53 1140.11 687.44
  Q 1150.16 689.49 1160.47 686.41
  C 1173.24 682.60 1177.38 672.44 1176.26 660.02
  C 1175.43 650.83 1170.67 645.59 1162.98 641.74
  Q 1157.03 638.76 1151.13 636.90
  C 1138.20 632.82 1125.14 628.85 1113.85 621.40
  C 1103.65 614.67 1097.90 604.79 1096.24 592.55
  Q 1095.13 584.44 1095.88 577.47
  C 1098.20 555.92 1113.43 541.68 1134.38 538.04
  Q 1154.28 534.58 1170.99 541.62
  C 1186.35 548.09 1196.01 562.04 1200.63 578.15
  A 0.41 0.41 0.0 0 1 1200.35 578.65
  L 1175.50 586.13
  Q 1174.88 586.32 1174.74 585.69
  C 1171.66 571.68 1164.18 559.22 1148.15 558.91
  C 1134.01 558.63 1122.50 565.10 1122.08 580.51
  C 1121.64 596.53 1131.80 602.78 1145.41 607.12
  Q 1156.26 610.58 1166.92 614.15
  C 1183.96 619.85 1198.85 629.94 1202.17 648.59
  C 1207.45 678.24 1193.87 703.31 1163.26 708.86
  C 1140.32 713.02 1114.50 708.72 1099.94 689.06
  Q 1093.30 680.10 1089.98 667.37
  A 0.51 0.50 73.6 0 1 1090.30 666.77
  L 1114.89 658.25
  Z"
/>
<path fill="#313f85" d="
  M 2465.89 658.25
  Q 2466.40 658.07 2466.51 658.60
  C 2469.56 674.10 2479.55 687.38 2496.29 688.15
  C 2516.68 689.08 2531.10 679.13 2526.90 656.89
  C 2524.94 646.49 2514.98 641.31 2505.78 638.17
  C 2481.45 629.88 2451.13 623.53 2447.29 592.63
  C 2446.54 586.57 2446.22 579.56 2447.48 573.52
  C 2453.40 545.06 2479.50 534.36 2506.40 537.48
  C 2530.21 540.23 2545.13 555.84 2551.64 578.02
  Q 2551.79 578.52 2551.28 578.68
  L 2526.48 586.14
  Q 2525.86 586.32 2525.73 585.69
  C 2523.09 572.79 2516.09 560.65 2502.24 559.16
  C 2488.83 557.72 2474.41 562.99 2473.23 578.32
  C 2472.48 588.21 2474.96 596.26 2483.86 601.56
  Q 2489.51 604.92 2495.81 606.96
  C 2516.95 613.81 2545.62 619.87 2552.22 644.52
  Q 2555.71 657.57 2553.24 671.58
  C 2548.55 698.16 2526.60 709.52 2501.52 710.20
  C 2471.29 711.02 2448.76 697.46 2441.03 667.31
  Q 2440.92 666.91 2441.32 666.78
  L 2465.89 658.25
  Z"
/>
<path fill="#313f85" d="
  M 2341.75 633.00
  L 2341.76 706.51
  A 0.52 0.51 0.0 0 1 2341.24 707.02
  L 2316.24 707.04
  Q 2315.69 707.04 2315.69 706.48
  L 2315.69 540.28
  Q 2315.69 539.77 2316.20 539.77
  Q 2340.34 539.64 2371.54 539.75
  C 2395.17 539.84 2418.33 546.93 2423.90 572.38
  C 2429.08 596.08 2419.84 619.71 2395.36 627.46
  Q 2394.74 627.66 2395.01 628.25
  L 2430.00 706.71
  A 0.24 0.23 -12.0 0 1 2429.78 707.04
  L 2401.96 707.03
  A 0.67 0.67 0.0 0 1 2401.34 706.61
  L 2370.68 632.58
  Q 2370.50 632.16 2370.03 632.16
  L 2342.50 632.26
  Q 2341.75 632.26 2341.75 633.00
  Z
  M 2398.48 587.74
  C 2399.59 569.56 2388.28 561.71 2371.37 561.57
  Q 2357.11 561.45 2342.26 561.54
  Q 2341.76 561.54 2341.76 562.04
  L 2341.76 610.03
  A 0.67 0.67 0.0 0 0 2342.43 610.70
  Q 2355.28 610.68 2369.21 610.66
  C 2384.66 610.64 2397.44 604.69 2398.48 587.74
  Z"
/>
<path fill="#313f85" d="
  M 1300.85 657.80
  L 1254.32 657.80
  A 0.38 0.38 0.0 0 0 1253.95 658.08
  L 1240.84 706.75
  A 0.38 0.38 0.0 0 1 1240.47 707.03
  L 1215.96 707.04
  A 0.38 0.38 0.0 0 1 1215.60 706.56
  L 1262.49 540.01
  A 0.38 0.38 0.0 0 1 1262.86 539.73
  L 1294.50 539.73
  A 0.38 0.38 0.0 0 1 1294.87 540.01
  L 1341.93 706.56
  A 0.38 0.38 0.0 0 1 1341.57 707.04
  L 1314.48 707.04
  A 0.38 0.38 0.0 0 1 1314.12 706.76
  L 1301.21 658.08
  A 0.38 0.38 0.0 0 0 1300.85 657.80
  Z
  M 1276.44 561.94
  C 1271.22 586.77 1264.82 611.12 1258.88 635.91
  Q 1258.78 636.33 1259.21 636.33
  L 1295.69 636.33
  A 0.62 0.62 0.0 0 0 1296.28 635.54
  Q 1285.88 598.88 1278.53 562.00
  Q 1278.44 561.54 1278.02 561.36
  Q 1277.50 561.13 1277.00 561.31
  Q 1276.54 561.47 1276.44 561.94
  Z"
/>
<path fill="#313f85" d="
  M 1447.52 539.74
  L 1477.12 539.72
  A 0.32 0.32 0.0 0 1 1477.37 540.24
  L 1424.71 606.20
  A 0.32 0.32 0.0 0 0 1424.68 606.56
  L 1482.09 706.56
  A 0.32 0.32 0.0 0 1 1481.82 707.04
  L 1452.31 707.03
  A 0.32 0.32 0.0 0 1 1452.03 706.87
  L 1407.57 626.98
  A 0.32 0.32 0.0 0 0 1407.04 626.94
  L 1389.45 648.50
  A 0.32 0.32 0.0 0 0 1389.38 648.70
  L 1389.37 706.73
  A 0.32 0.32 0.0 0 1 1389.05 707.05
  L 1363.40 707.05
  A 0.32 0.32 0.0 0 1 1363.08 706.73
  L 1363.08 540.04
  A 0.32 0.32 0.0 0 1 1363.40 539.72
  L 1389.05 539.76
  A 0.32 0.32 0.0 0 1 1389.37 540.08
  L 1389.37 615.17
  A 0.32 0.32 0.0 0 0 1389.94 615.36
  L 1447.26 539.87
  A 0.32 0.32 0.0 0 1 1447.52 539.74
  Z"
/>
<path fill="#313f85" d="
  M 1574.24 657.80
  L 1527.74 657.80
  A 0.36 0.36 0.0 0 0 1527.39 658.07
  L 1514.25 706.77
  A 0.36 0.36 0.0 0 1 1513.90 707.04
  L 1489.37 707.03
  A 0.36 0.36 0.0 0 1 1489.02 706.57
  L 1535.90 540.00
  A 0.36 0.36 0.0 0 1 1536.24 539.74
  L 1567.91 539.73
  A 0.36 0.36 0.0 0 1 1568.25 539.99
  L 1615.38 706.60
  A 0.36 0.36 0.0 0 1 1615.03 707.06
  L 1587.89 707.02
  A 0.36 0.36 0.0 0 1 1587.54 706.75
  L 1574.59 658.07
  A 0.36 0.36 0.0 0 0 1574.24 657.80
  Z
  M 1548.05 570.11
  Q 1542.64 594.94 1532.24 635.74
  A 0.48 0.48 0.0 0 0 1532.71 636.34
  L 1569.21 636.33
  Q 1569.98 636.33 1569.77 635.59
  Q 1559.50 599.79 1552.05 562.39
  Q 1551.93 561.82 1551.54 561.47
  Q 1551.06 561.04 1550.43 561.32
  Q 1549.95 561.53 1549.84 562.04
  Q 1548.95 565.97 1548.05 570.11
  Z"
/>
<path fill="#313f85" d="
  M 1720.35 704.42
  C 1702.51 696.31 1693.62 680.11 1691.16 661.00
  Q 1690.53 656.13 1690.52 644.47
  Q 1690.49 592.77 1690.50 540.32
  A 0.56 0.56 0.0 0 1 1691.06 539.76
  L 1716.95 539.72
  A 0.28 0.27 90.0 0 1 1717.22 540.00
  Q 1717.17 593.92 1717.25 651.49
  Q 1717.26 658.71 1719.45 666.55
  C 1722.75 678.35 1730.78 685.56 1742.97 687.35
  C 1755.17 689.14 1768.61 686.48 1775.62 675.68
  C 1781.89 666.00 1782.13 654.54 1782.11 642.91
  Q 1782.04 596.00 1782.04 540.28
  A 0.51 0.51 0.0 0 1 1782.55 539.77
  L 1806.44 539.72
  Q 1806.97 539.72 1806.97 540.25
  Q 1807.02 596.95 1806.94 651.39
  C 1806.90 678.16 1794.27 701.32 1766.79 708.00
  C 1752.39 711.51 1734.41 710.81 1720.35 704.42
  Z"
/>
<path fill="#313f85" d="
  M 1936.55 670.46
  C 1933.88 627.01 1934.42 583.63 1934.59 540.44
  Q 1934.60 539.72 1935.32 539.73
  L 1958.60 539.82
  A 0.54 0.53 -89.5 0 1 1959.12 540.36
  L 1959.13 706.64
  Q 1959.13 707.04 1958.73 707.04
  L 1927.19 707.03
  Q 1926.52 707.03 1926.25 706.41
  Q 1904.01 655.28 1883.49 606.92
  Q 1876.09 589.47 1867.71 566.38
  Q 1867.52 565.85 1866.97 565.69
  Q 1866.02 565.40 1865.09 565.63
  Q 1864.51 565.77 1864.54 566.36
  Q 1865.81 592.26 1865.87 614.00
  Q 1865.98 659.69 1865.92 706.63
  A 0.41 0.41 0.0 0 1 1865.51 707.04
  L 1841.75 707.02
  A 0.27 0.26 -90.0 0 1 1841.49 706.75
  L 1841.46 540.51
  A 0.78 0.78 0.0 0 1 1842.24 539.73
  L 1880.98 539.71
  Q 1881.56 539.71 1881.79 540.24
  Q 1898.51 578.93 1914.82 617.37
  Q 1924.22 639.51 1933.66 670.79
  Q 1933.80 671.25 1934.29 671.25
  L 1935.81 671.25
  Q 1936.60 671.25 1936.55 670.46
  Z"
/>
<rect fill="#313f85" x="1993.98" y="539.73" width="26.84" height="167.30" rx="0.27"/>
<path fill="#313f85" d="
  M 2105.62 680.27
  L 2107.02 680.27
  Q 2107.75 680.27 2107.90 679.56
  C 2118.00 632.35 2130.23 586.50 2142.04 540.13
  A 0.53 0.51 -82.8 0 1 2142.54 539.73
  L 2167.94 539.73
  Q 2168.42 539.73 2168.29 540.20
  L 2121.61 706.70
  Q 2121.52 707.04 2121.17 707.04
  L 2088.81 707.03
  A 0.63 0.63 0.0 0 1 2088.20 706.57
  L 2041.99 540.18
  A 0.35 0.35 0.0 0 1 2042.33 539.74
  L 2070.05 539.73
  A 0.64 0.64 0.0 0 1 2070.67 540.22
  Q 2081.73 584.00 2093.40 629.86
  Q 2096.22 640.92 2104.75 679.57
  Q 2104.91 680.27 2105.62 680.27
  Z"
/>
<path fill="#313f85" d="
  M 2216.12 563.12
  L 2216.13 606.68
  A 0.34 0.34 0.0 0 0 2216.47 607.02
  L 2272.15 607.01
  A 0.34 0.34 0.0 0 1 2272.49 607.35
  L 2272.50 629.73
  A 0.34 0.34 0.0 0 1 2272.16 630.07
  L 2216.46 630.05
  A 0.34 0.34 0.0 0 0 2216.12 630.39
  L 2216.13 683.60
  A 0.34 0.34 0.0 0 0 2216.47 683.94
  L 2291.93 683.95
  A 0.34 0.34 0.0 0 1 2292.27 684.29
  L 2292.28 706.67
  A 0.34 0.34 0.0 0 1 2291.94 707.01
  L 2189.82 707.00
  A 0.34 0.34 0.0 0 1 2189.48 706.66
  L 2189.45 540.06
  A 0.34 0.34 0.0 0 1 2189.79 539.72
  L 2290.37 539.76
  A 0.34 0.34 0.0 0 1 2290.71 540.10
  L 2290.69 562.46
  A 0.34 0.34 0.0 0 1 2290.35 562.80
  L 2216.46 562.78
  A 0.34 0.34 0.0 0 0 2216.12 563.12
  Z"
/>
<rect fill="#313f85" x="2580.34" y="539.76" width="26.92" height="167.28" rx="0.58"/>
<path fill="#313f85" d="
  M 2702.00 563.65
  L 2702.00 706.64
  A 0.39 0.39 0.0 0 1 2701.61 707.03
  L 2675.49 707.02
  A 0.39 0.39 0.0 0 1 2675.10 706.63
  L 2675.11 563.65
  A 0.39 0.39 0.0 0 0 2674.72 563.26
  L 2630.20 563.26
  A 0.39 0.39 0.0 0 1 2629.81 562.87
  L 2629.82 540.12
  A 0.39 0.39 0.0 0 1 2630.21 539.73
  L 2747.30 539.75
  A 0.39 0.39 0.0 0 1 2747.69 540.14
  L 2747.70 562.87
  A 0.39 0.39 0.0 0 1 2747.31 563.26
  L 2702.39 563.26
  A 0.39 0.39 0.0 0 0 2702.00 563.65
  Z"
/>
<path fill="#313f85" d="
  M 2821.25 611.72
  Q 2821.39 612.00 2821.52 611.72
  L 2855.56 540.21
  Q 2855.79 539.73 2856.31 539.73
  L 2882.44 539.73
  A 0.35 0.35 0.0 0 1 2882.75 540.23
  Q 2858.27 587.99 2833.72 635.95
  Q 2832.74 637.87 2832.74 640.09
  Q 2832.78 673.86 2832.75 706.69
  A 0.37 0.36 90.0 0 1 2832.39 707.06
  L 2806.23 707.02
  A 0.39 0.39 0.0 0 1 2805.84 706.63
  L 2805.85 638.50
  A 2.97 2.91 32.1 0 0 2805.53 637.17
  L 2756.71 540.26
  Q 2756.45 539.74 2757.02 539.74
  L 2785.47 539.73
  Q 2786.03 539.73 2786.27 540.23
  L 2821.25 611.72
  Z"
/>
</svg>
