<?xml version="1.0" encoding="UTF-8" standalone="no"?>
<!DOCTYPE svg PUBLIC "-//W3C//DTD SVG 1.1//EN" "http://www.w3.org/Graphics/SVG/1.1/DTD/svg11.dtd">
<svg xmlns="http://www.w3.org/2000/svg" version="1.1" viewBox="0.00 0.00 2865.00 731.00">
<path fill="#ee2737" d="
  M 1412.12 0.00
  L 1425.99 0.00
  Q 1467.65 2.72 1498.36 27.62
  Q 1543.92 64.55 1546.18 126.19
  Q 1546.20 126.79 1546.80 126.79
  L 1672.21 126.79
  Q 1672.72 126.79 1672.72 126.28
  L 1672.74 0.00
  L 1679.76 0.00
  Q 1732.79 4.00 1767.28 42.10
  C 1816.82 96.83 1808.53 183.13 1750.00 227.76
  Q 1719.46 251.05 1679.98 253.80
  Q 1679.81 253.81 1679.81 253.98
  L 1679.81 253.99
  Q 1679.82 254.22 1680.06 254.21
  Q 1684.39 254.06 1688.67 254.64
  Q 1725.85 259.66 1753.51 282.65
  C 1789.66 312.68 1806.13 358.58 1797.46 404.72
  C 1782.73 483.17 1699.08 528.14 1625.26 498.43
  C 1578.72 479.70 1548.07 435.50 1545.95 385.75
  C 1545.89 384.30 1546.05 382.80 1545.94 381.34
  Q 1545.90 380.76 1545.32 380.76
  L 1419.70 380.76
  A 0.57 0.57 0.0 0 0 1419.13 381.33
  L 1419.13 506.50
  Q 1419.13 507.76 1417.86 507.73
  Q 1368.47 506.39 1333.25 474.23
  C 1274.36 420.45 1279.65 325.73 1343.53 278.64
  Q 1374.17 256.05 1411.94 253.94
  Q 1412.95 253.88 1411.95 253.81
  Q 1360.64 250.02 1326.17 213.45
  C 1296.62 182.09 1285.57 137.49 1296.01 95.68
  C 1302.74 68.72 1318.66 44.08 1341.04 26.71
  Q 1371.96 2.73 1412.12 0.00
  Z
  M 1419.60 253.75
  C 1458.24 253.59 1494.83 271.80 1518.70 301.98
  Q 1545.27 335.57 1546.10 379.97
  A 0.60 0.60 0.0 0 0 1546.70 380.56
  L 1672.21 380.57
  A 0.53 0.53 0.0 0 0 1672.74 380.04
  L 1672.74 254.27
  Q 1672.74 253.81 1672.27 253.81
  C 1631.17 253.73 1593.03 233.76 1569.40 200.56
  Q 1546.33 168.15 1545.83 127.50
  Q 1545.83 126.99 1545.32 126.99
  L 1419.57 126.99
  A 0.44 0.44 0.0 0 0 1419.13 127.43
  L 1419.13 253.28
  A 0.47 0.47 0.0 0 0 1419.60 253.75
  Z"
/>
<path fill="#041e42" d="
  M 144.68 289.19
  C 132.53 284.50 120.03 282.53 107.43 279.83
  Q 75.19 272.89 52.91 263.83
  C 31.75 255.21 12.58 240.31 0.66 220.72
  A 1.84 1.79 -61.3 0 1 0.40 219.78
  L 0.40 147.22
  A 4.53 4.48 60.6 0 1 1.03 144.92
  C 11.69 126.93 27.79 112.23 45.83 100.96
  Q 58.01 93.36 73.68 89.08
  C 93.63 83.62 114.61 82.52 137.16 83.95
  Q 156.74 85.19 174.52 91.17
  C 187.99 95.70 199.56 102.96 210.70 111.84
  C 221.87 120.74 232.12 131.32 239.30 143.44
  C 240.25 145.05 240.75 146.76 240.75 148.64
  Q 240.78 171.25 240.76 191.74
  A 0.77 0.76 -90.0 0 1 240.00 192.51
  L 169.05 192.50
  A 0.59 0.59 0.0 0 1 168.46 191.90
  Q 168.50 180.27 168.44 168.65
  Q 168.44 166.95 167.61 165.47
  C 162.22 155.80 153.10 149.20 142.69 145.74
  Q 122.09 138.89 100.74 145.34
  C 90.21 148.53 79.93 155.47 74.25 165.11
  Q 73.24 166.81 73.26 168.86
  Q 73.35 180.85 73.28 192.45
  Q 73.26 194.47 74.36 196.20
  C 81.09 206.78 92.54 212.13 104.25 215.28
  Q 127.77 221.58 150.29 226.94
  Q 172.12 232.12 191.95 240.98
  C 211.67 249.78 227.99 262.28 239.51 280.95
  Q 240.78 283.00 240.77 285.39
  Q 240.74 325.09 240.79 362.44
  C 240.80 363.15 240.47 364.13 240.16 364.65
  C 230.10 381.35 215.99 394.79 199.90 405.77
  Q 180.37 419.09 155.28 423.39
  Q 116.46 430.04 78.46 421.83
  C 63.86 418.67 49.66 412.44 37.27 403.33
  C 22.53 392.49 10.16 379.91 0.84 364.33
  A 3.11 3.05 -61.0 0 1 0.40 362.74
  L 0.40 313.73
  Q 0.40 313.36 0.77 313.36
  L 72.72 313.36
  Q 73.30 313.36 73.30 313.94
  Q 73.31 326.98 73.29 341.09
  Q 73.29 342.18 73.80 343.14
  Q 79.90 354.59 92.17 360.63
  Q 114.11 371.45 137.76 365.08
  Q 155.73 360.25 166.68 344.98
  Q 168.33 342.67 168.44 339.90
  Q 169.06 323.60 168.23 309.30
  Q 168.18 308.46 167.76 307.68
  C 162.76 298.57 154.34 292.93 144.68 289.19
  Z"
/>
<path fill="#041e42" d="
  M 2777.52 362.17
  C 2804.45 358.65 2829.36 347.95 2852.70 333.48
  Q 2854.12 332.59 2854.26 334.27
  Q 2854.30 334.76 2854.37 335.22
  Q 2859.32 365.39 2864.70 394.98
  Q 2864.83 395.71 2864.19 396.09
  Q 2846.75 406.44 2826.76 413.12
  Q 2770.88 431.78 2712.66 421.81
  Q 2692.54 418.37 2675.06 411.21
  Q 2613.53 386.02 2589.43 325.33
  C 2578.26 297.19 2575.08 264.96 2577.97 234.39
  C 2581.39 198.35 2595.29 163.97 2619.79 137.53
  C 2649.48 105.50 2691.07 88.44 2734.49 84.87
  Q 2760.93 82.69 2787.49 85.93
  Q 2826.49 90.69 2858.43 108.83
  Q 2859.04 109.17 2858.92 109.86
  L 2847.56 175.77
  A 0.66 0.66 0.0 0 1 2846.52 176.19
  Q 2833.45 166.81 2818.76 159.67
  C 2791.49 146.39 2760.95 142.00 2731.39 147.98
  Q 2720.91 150.10 2711.54 154.28
  C 2680.55 168.10 2663.19 196.06 2658.07 230.04
  C 2653.93 257.56 2656.38 288.25 2668.95 312.87
  C 2690.08 354.27 2733.52 367.92 2777.52 362.17
  Z"
/>
<path fill="#041e42" d="
  M 2074.18 363.32
  C 2088.28 362.74 2102.82 359.56 2114.47 351.86
  C 2136.52 337.29 2142.30 312.31 2142.29 287.40
  Q 2142.23 186.96 2142.29 90.30
  A 0.75 0.75 0.0 0 1 2143.04 89.55
  L 2219.90 89.58
  Q 2220.52 89.58 2220.52 90.20
  Q 2220.58 197.35 2220.50 291.74
  C 2220.48 325.56 2209.11 359.38 2185.11 383.65
  Q 2167.71 401.25 2143.02 411.59
  Q 2116.34 422.76 2083.54 424.76
  C 2048.14 426.92 2010.00 422.37 1979.05 404.47
  Q 1935.11 379.04 1923.03 328.35
  Q 1918.88 310.92 1918.88 291.28
  Q 1918.87 190.64 1918.87 90.25
  A 0.71 0.71 0.0 0 1 1919.58 89.54
  L 1996.10 89.59
  A 0.45 0.44 0.0 0 1 1996.55 90.03
  Q 1996.52 187.19 1996.56 281.67
  C 1996.56 301.29 1998.26 320.02 2009.51 336.66
  C 2024.02 358.12 2049.58 364.34 2074.18 363.32
  Z"
/>
<path fill="#041e42" d="
  M 2477.38 244.34
  C 2508.94 255.17 2532.03 277.57 2535.25 312.33
  Q 2536.57 326.57 2534.14 340.26
  Q 2527.83 375.76 2497.25 395.82
  C 2480.71 406.67 2461.17 412.81 2441.14 416.10
  Q 2418.99 419.73 2392.98 419.74
  Q 2339.89 419.76 2286.82 419.77
  A 0.58 0.57 -0.0 0 1 2286.24 419.20
  L 2286.24 89.82
  A 0.27 0.27 0.0 0 1 2286.51 89.55
  Q 2343.88 89.51 2401.23 89.56
  Q 2416.80 89.57 2434.50 92.18
  Q 2453.56 94.99 2470.89 102.25
  C 2504.79 116.44 2522.78 144.97 2520.80 182.08
  C 2519.31 210.17 2502.23 231.61 2477.32 243.14
  Q 2475.86 243.82 2477.38 244.34
  Z
  M 2426.27 150.03
  Q 2412.47 145.03 2397.74 144.97
  Q 2379.85 144.89 2362.04 144.99
  A 0.55 0.55 0.0 0 0 2361.49 145.54
  L 2361.48 221.44
  A 0.59 0.59 0.0 0 0 2362.07 222.03
  Q 2376.98 222.18 2392.06 222.01
  Q 2409.58 221.81 2423.58 216.59
  C 2435.79 212.02 2444.90 202.91 2447.34 189.71
  C 2450.55 172.34 2443.24 156.20 2426.27 150.03
  Z
  M 2435.00 357.70
  C 2455.33 349.58 2463.91 330.82 2459.55 309.82
  C 2453.92 282.69 2424.75 274.95 2400.74 274.31
  Q 2384.35 273.88 2362.12 274.05
  A 0.65 0.64 -0.5 0 0 2361.48 274.69
  L 2361.49 363.81
  A 0.50 0.50 0.0 0 0 2361.99 364.31
  C 2378.12 364.37 2394.38 364.82 2410.49 363.50
  Q 2423.03 362.48 2435.00 357.70
  Z"
/>
<path fill="#041e42" d="
  M 493.41 246.83
  Q 492.55 247.12 493.35 247.54
  Q 515.23 258.97 529.28 277.47
  C 532.29 281.43 531.67 286.04 531.65 290.73
  Q 531.53 326.31 531.60 362.67
  A 2.24 2.21 60.1 0 1 531.31 363.77
  C 513.72 393.98 482.89 414.19 448.22 418.39
  Q 441.79 419.17 428.26 419.18
  Q 361.95 419.22 295.96 419.16
  Q 295.24 419.16 295.24 418.45
  L 295.23 91.01
  Q 295.23 90.31 295.92 90.31
  Q 367.56 90.28 433.07 90.32
  Q 465.60 90.34 491.50 106.98
  Q 513.78 121.29 527.57 145.04
  C 528.15 146.05 528.15 147.24 528.15 148.36
  Q 528.23 180.72 528.20 213.15
  A 1.83 1.78 62.0 0 1 527.92 214.12
  Q 526.62 216.14 525.71 217.41
  Q 512.63 235.39 493.87 246.62
  Q 493.65 246.75 493.41 246.83
  Z
  M 419.31 225.15
  C 435.27 225.13 450.14 217.51 458.74 204.05
  Q 459.04 203.57 459.04 203.01
  Q 458.98 187.69 459.05 171.30
  Q 459.06 169.28 457.99 167.50
  C 451.57 156.77 441.55 149.97 429.52 147.30
  Q 423.44 145.95 414.20 146.05
  Q 392.96 146.28 371.09 146.09
  Q 370.46 146.09 370.46 146.72
  L 370.47 224.53
  A 0.57 0.57 0.0 0 0 371.04 225.10
  Q 395.24 225.18 419.31 225.15
  Z
  M 420.38 363.53
  C 437.28 363.46 452.05 356.28 461.41 341.74
  Q 462.30 340.36 462.29 338.75
  Q 462.26 320.07 462.27 298.04
  Q 462.27 297.48 461.97 297.01
  C 453.11 283.38 436.70 276.13 420.78 276.13
  Q 396.41 276.14 371.20 276.09
  A 0.72 0.72 0.0 0 0 370.47 276.81
  L 370.46 363.22
  A 0.34 0.34 0.0 0 0 370.80 363.56
  Q 396.33 363.64 420.38 363.53
  Z"
/>
<path fill="#041e42" d="
  M 746.98 241.50
  C 760.14 191.31 784.79 143.21 815.93 101.80
  Q 820.18 96.14 824.80 90.72
  Q 825.16 90.30 825.71 90.30
  L 908.80 90.31
  A 0.33 0.32 0.0 0 1 909.13 90.63
  L 909.13 419.01
  A 0.17 0.17 0.0 0 1 908.96 419.18
  L 839.97 419.18
  A 0.71 0.71 0.0 0 1 839.26 418.47
  L 839.23 194.24
  Q 839.23 191.55 837.69 193.75
  Q 816.97 223.09 802.61 256.43
  Q 783.48 300.82 770.12 352.32
  A 0.78 0.77 -82.8 0 1 769.37 352.91
  L 724.11 352.91
  Q 723.60 352.91 723.47 352.42
  C 713.38 314.12 700.44 275.53 683.46 240.42
  Q 671.33 215.32 655.29 193.12
  Q 654.20 191.62 654.20 193.47
  L 654.22 418.48
  A 0.71 0.71 0.0 0 1 653.51 419.19
  L 584.52 419.18
  A 0.24 0.23 -90.0 0 1 584.29 418.94
  L 584.29 90.76
  A 0.46 0.45 -90.0 0 1 584.74 90.30
  L 667.71 90.30
  A 1.77 1.75 70.4 0 1 669.08 90.96
  Q 722.89 157.53 746.76 241.51
  A 0.12 0.11 -46.3 0 0 746.98 241.50
  Z"
/>
<path fill="#041e42" d="
  M 1040.70 222.27
  L 1158.99 222.27
  A 0.47 0.47 0.0 0 1 1159.46 222.74
  L 1159.46 278.96
  Q 1159.46 279.74 1158.68 279.74
  L 1040.82 279.74
  Q 1040.11 279.74 1040.11 280.46
  L 1040.16 361.15
  A 0.52 0.52 0.0 0 0 1040.68 361.67
  L 1170.66 361.69
  A 0.47 0.47 0.0 0 1 1171.13 362.16
  L 1171.13 419.01
  A 0.18 0.18 0.0 0 1 1170.95 419.19
  L 965.54 419.18
  A 0.64 0.63 0.0 0 1 964.90 418.55
  L 964.89 90.83
  A 0.53 0.53 0.0 0 1 965.42 90.30
  L 1167.44 90.30
  Q 1167.82 90.30 1167.82 90.69
  L 1167.82 147.27
  A 0.69 0.68 8.1 0 1 1166.94 147.92
  Q 1166.43 147.77 1165.88 147.77
  Q 1104.11 147.76 1040.85 147.76
  A 0.74 0.73 90.0 0 0 1040.12 148.50
  L 1040.14 221.70
  Q 1040.14 222.27 1040.70 222.27
  Z"
/>
<path fill="#041e42" d="
  M 410.77 644.83
  C 391.22 639.58 376.25 650.90 373.27 670.26
  C 370.63 687.36 374.79 707.90 392.92 713.59
  C 404.34 717.18 417.19 713.17 426.78 706.12
  Q 427.43 705.65 427.55 706.44
  L 429.25 717.05
  Q 429.36 717.77 428.76 718.16
  C 403.34 734.91 369.15 726.53 361.41 694.85
  C 355.35 670.05 363.73 638.92 392.44 633.03
  C 404.01 630.66 417.53 632.41 427.41 639.35
  Q 427.87 639.67 427.79 640.23
  L 426.09 651.87
  A 0.47 0.46 23.6 0 1 425.34 652.16
  Q 418.83 646.99 410.77 644.83
  Z"
/>
<path fill="#041e42" d="
  M 612.96 702.20
  C 605.12 720.28 588.15 728.64 569.00 726.17
  C 539.62 722.37 530.11 693.21 534.45 667.77
  C 538.83 642.17 560.44 627.52 585.92 633.21
  C 613.12 639.29 620.69 668.31 616.08 692.21
  Q 615.11 697.24 612.96 702.20
  Z
  M 548.13 665.67
  C 544.34 680.31 546.02 702.58 561.21 711.31
  C 569.93 716.31 581.23 716.27 589.68 711.33
  C 603.37 703.34 605.84 684.65 603.68 670.48
  C 601.84 658.44 595.31 647.92 583.17 644.64
  C 575.62 642.60 566.60 643.54 560.10 647.92
  Q 551.16 653.94 548.13 665.67
  Z"
/>
<path fill="#041e42" d="
  M 647.85 718.95
  Q 635.18 709.40 631.84 691.82
  C 629.78 680.94 630.37 668.68 634.33 658.20
  C 639.88 643.52 652.17 633.90 668.01 632.26
  C 678.47 631.18 689.78 633.62 698.20 640.19
  C 712.77 651.56 716.42 671.46 713.83 689.48
  C 711.56 705.31 702.22 719.24 686.71 724.33
  C 674.20 728.44 658.77 727.18 647.85 718.95
  Z
  M 669.08 643.85
  C 645.90 646.23 641.08 672.42 644.85 690.79
  C 647.56 703.96 656.77 714.18 670.54 714.93
  C 697.35 716.40 704.84 689.46 700.52 668.25
  C 697.28 652.34 685.93 642.12 669.08 643.85
  Z"
/>
<path fill="#041e42" d="
  M 856.49 632.39
  Q 870.24 630.76 881.81 636.66
  C 898.73 645.28 904.64 664.96 903.67 682.86
  C 902.36 707.08 888.13 726.05 862.37 726.53
  C 837.46 726.99 821.84 709.18 820.09 685.34
  C 819.29 674.49 820.53 663.21 825.48 653.77
  Q 835.37 634.89 856.49 632.39
  Z
  M 865.41 643.84
  C 851.17 642.12 839.56 649.83 835.16 663.51
  C 829.55 680.93 833.02 710.10 855.59 714.33
  Q 872.96 717.59 883.31 704.97
  C 890.54 696.16 891.79 681.92 890.14 670.84
  C 888.08 656.90 879.97 645.59 865.41 643.84
  Z"
/>
<path fill="#041e42" d="
  M 1198.34 695.78
  C 1192.37 717.09 1175.52 728.15 1153.93 726.37
  C 1132.35 724.60 1118.97 707.61 1116.99 687.02
  C 1115.63 672.93 1117.78 657.06 1127.37 645.95
  Q 1140.17 631.09 1161.24 632.15
  Q 1179.00 633.05 1189.59 645.48
  C 1200.97 658.83 1202.83 679.76 1198.34 695.78
  Z
  M 1133.13 660.39
  Q 1126.47 677.33 1132.06 695.34
  Q 1135.63 706.83 1145.93 712.16
  C 1153.04 715.84 1162.56 715.93 1169.91 712.81
  C 1179.75 708.64 1184.98 699.25 1186.74 688.94
  C 1188.58 678.17 1187.52 665.79 1181.94 656.51
  C 1170.56 637.59 1141.21 639.81 1133.13 660.39
  Z"
/>
<path fill="#041e42" d="
  M 1589.97 639.20
  A 0.85 0.84 -70.1 0 1 1590.36 640.04
  L 1588.63 652.05
  A 0.35 0.35 0.0 0 1 1588.07 652.28
  C 1576.96 643.64 1561.58 640.29 1549.52 647.53
  C 1536.09 655.59 1533.60 673.86 1535.87 688.58
  C 1538.88 708.09 1554.35 718.84 1573.74 713.67
  Q 1582.16 711.42 1589.63 705.96
  A 0.27 0.27 0.0 0 1 1590.06 706.13
  L 1591.72 716.77
  Q 1591.89 717.83 1590.99 718.41
  Q 1576.25 727.85 1559.85 726.39
  C 1540.64 724.68 1527.61 711.63 1523.57 693.16
  C 1517.84 667.02 1528.42 636.42 1557.80 632.53
  Q 1575.63 630.17 1589.97 639.20
  Z"
/>
<path fill="#041e42" d="
  M 2006.12 687.16
  A 0.64 0.63 -90.0 0 0 2005.49 686.52
  L 1985.88 686.53
  Q 1985.23 686.53 1985.13 685.89
  L 1983.56 675.63
  A 0.59 0.58 -4.2 0 1 1984.14 674.96
  L 2017.91 675.04
  Q 2018.53 675.04 2018.53 675.66
  L 2018.53 717.26
  A 1.04 1.04 0.0 0 1 2018.01 718.16
  C 1991.89 733.56 1953.57 729.16 1945.27 694.97
  C 1941.76 680.54 1942.99 662.34 1951.57 649.58
  C 1962.14 633.84 1980.66 629.67 1998.41 633.15
  Q 2006.74 634.79 2014.16 639.57
  Q 2014.53 639.80 2014.46 640.24
  L 2012.71 651.95
  A 0.52 0.52 0.0 0 1 2011.88 652.29
  C 2000.87 643.95 1984.81 640.50 1972.35 646.75
  C 1959.79 653.04 1956.06 667.70 1956.52 681.32
  C 1957.00 695.66 1962.62 709.54 1977.80 713.58
  Q 1991.63 717.26 2004.96 711.18
  Q 2006.09 710.67 2006.09 709.44
  Q 2006.09 699.24 2006.12 687.16
  Z"
/>
<path fill="#041e42" d="
  M 2561.82 652.19
  C 2553.02 645.46 2542.26 642.51 2531.47 644.01
  C 2518.77 645.76 2510.55 654.67 2507.88 666.99
  C 2504.94 680.57 2506.26 698.26 2517.23 707.95
  C 2527.31 716.86 2544.32 716.71 2555.76 710.74
  Q 2556.22 710.50 2556.22 709.98
  L 2556.27 687.27
  A 0.75 0.75 0.0 0 0 2555.52 686.52
  L 2535.95 686.52
  Q 2535.37 686.52 2535.28 685.94
  L 2533.64 675.46
  A 0.42 0.42 0.0 0 1 2534.05 674.97
  L 2567.95 675.00
  A 0.71 0.70 -0.0 0 1 2568.66 675.70
  L 2568.66 717.06
  Q 2568.66 717.64 2568.22 718.00
  Q 2567.27 718.76 2566.13 719.35
  Q 2544.74 730.53 2522.79 724.52
  C 2503.81 719.33 2494.72 702.14 2493.69 683.59
  C 2492.75 666.44 2497.54 649.17 2511.90 639.20
  C 2526.14 629.30 2550.48 629.74 2564.21 639.61
  A 0.88 0.87 22.3 0 1 2564.56 640.43
  L 2562.85 651.78
  A 0.64 0.64 0.0 0 1 2561.82 652.19
  Z"
/>
<path fill="#041e42" d="
  M 336.00 647.51
  C 329.67 644.18 322.00 642.64 315.07 644.67
  C 306.22 647.26 303.46 658.78 310.58 664.78
  Q 313.93 667.60 317.89 669.46
  Q 325.23 672.91 331.93 676.35
  C 343.17 682.12 348.64 690.07 347.44 703.02
  Q 346.26 715.79 335.25 722.00
  C 323.27 728.76 305.83 726.04 293.88 720.35
  A 0.95 0.95 0.0 0 1 293.35 719.36
  L 294.99 707.85
  Q 295.09 707.10 295.74 707.49
  C 301.63 710.96 307.18 713.44 314.15 714.55
  C 325.74 716.40 336.66 711.71 334.86 697.95
  C 334.21 693.04 329.84 689.41 325.66 687.29
  Q 318.51 683.67 311.40 680.30
  C 302.69 676.17 295.09 670.14 294.31 659.69
  C 293.20 644.68 302.35 634.98 316.51 633.07
  C 324.96 631.93 334.78 633.33 342.23 637.61
  Q 342.69 637.88 342.61 638.41
  L 340.92 649.78
  Q 340.82 650.46 340.21 650.13
  C 338.78 649.37 337.48 648.28 336.00 647.51
  Z"
/>
<path fill="#041e42" d="
  M 1661.92 697.61
  L 1625.58 697.60
  A 0.36 0.36 0.0 0 0 1625.24 697.84
  L 1615.32 724.65
  A 0.36 0.36 0.0 0 1 1614.98 724.89
  L 1602.57 724.88
  A 0.36 0.36 0.0 0 1 1602.23 724.39
  L 1637.57 633.66
  A 0.36 0.36 0.0 0 1 1637.91 633.43
  L 1650.00 633.42
  A 0.36 0.36 0.0 0 1 1650.34 633.65
  L 1685.19 722.74
  A 0.36 0.36 0.0 0 1 1684.93 723.22
  L 1673.17 725.74
  A 0.36 0.36 0.0 0 1 1672.76 725.52
  L 1662.26 697.84
  A 0.36 0.36 0.0 0 0 1661.92 697.61
  Z
  M 1629.58 686.04
  A 0.33 0.33 0.0 0 0 1629.89 686.49
  L 1657.53 686.49
  A 0.33 0.33 0.0 0 0 1657.84 686.04
  L 1644.02 649.13
  A 0.33 0.33 0.0 0 0 1643.40 649.13
  L 1629.58 686.04
  Z"
/>
<path fill="#041e42" d="
  M 502.73 683.14
  L 458.22 683.06
  A 0.72 0.72 0.0 0 0 457.50 683.78
  L 457.51 724.20
  Q 457.51 724.91 456.80 724.91
  L 446.09 724.89
  Q 445.04 724.88 445.04 723.84
  L 445.04 634.50
  Q 445.04 633.79 445.75 633.79
  L 457.02 633.78
  A 0.49 0.49 0.0 0 1 457.51 634.27
  L 457.51 670.59
  A 0.83 0.83 0.0 0 0 458.34 671.42
  L 503.01 671.43
  A 0.32 0.32 0.0 0 0 503.33 671.11
  L 503.32 634.48
  A 0.70 0.70 0.0 0 1 504.02 633.78
  L 515.26 633.79
  Q 515.97 633.79 515.97 634.51
  L 515.96 723.02
  Q 515.96 723.32 516.10 723.59
  Q 516.20 723.79 516.18 724.00
  Q 516.07 724.88 515.19 724.88
  L 503.74 724.91
  A 0.42 0.41 90.0 0 1 503.33 724.49
  L 503.32 683.73
  Q 503.32 683.14 502.73 683.14
  Z"
/>
<path fill="#041e42" d="
  M 745.09 712.97
  L 776.71 713.01
  Q 777.54 713.01 777.66 713.83
  L 779.17 724.56
  A 0.30 0.30 0.0 0 1 778.87 724.90
  L 732.78 724.89
  Q 731.70 724.89 731.95 723.85
  Q 732.04 723.44 732.04 723.01
  Q 732.15 681.92 732.02 634.52
  Q 732.02 633.79 732.75 633.79
  L 744.25 633.78
  Q 744.72 633.78 744.72 634.25
  L 744.72 712.60
  Q 744.72 712.97 745.09 712.97
  Z"
/>
<path fill="#041e42" d="
  M 933.54 724.88
  L 921.73 724.91
  A 0.42 0.42 0.0 0 1 921.31 724.49
  L 921.30 634.20
  A 0.42 0.42 0.0 0 1 921.72 633.78
  L 968.28 633.79
  A 0.42 0.42 0.0 0 1 968.70 634.21
  L 968.71 644.83
  A 0.42 0.42 0.0 0 1 968.29 645.25
  L 934.36 645.31
  A 0.42 0.42 0.0 0 0 933.94 645.73
  L 933.93 672.54
  A 0.42 0.42 0.0 0 0 934.35 672.96
  L 960.90 672.98
  A 0.42 0.42 0.0 0 1 961.32 673.33
  L 963.01 683.92
  A 0.42 0.42 0.0 0 1 962.60 684.41
  L 934.34 684.42
  A 0.42 0.42 0.0 0 0 933.92 684.84
  L 933.96 724.46
  A 0.42 0.42 0.0 0 1 933.54 724.88
  Z"
/>
<path fill="#041e42" d="
  M 1053.52 676.61
  Q 1071.81 682.66 1069.11 703.20
  C 1066.95 719.58 1051.68 724.64 1037.48 724.84
  Q 1026.40 725.00 1014.55 724.85
  Q 1013.95 724.84 1013.95 724.24
  L 1013.98 634.31
  Q 1013.98 633.82 1014.46 633.82
  Q 1026.12 633.70 1038.21 633.85
  C 1054.81 634.07 1066.75 642.66 1065.34 660.38
  C 1064.76 667.71 1059.88 672.72 1053.47 675.95
  Q 1052.70 676.34 1053.52 676.61
  Z
  M 1026.33 645.10
  L 1026.43 671.28
  A 0.58 0.58 0.0 0 0 1027.01 671.85
  L 1038.11 671.82
  A 15.12 12.68 -0.2 0 0 1053.18 659.08
  L 1053.18 657.10
  A 15.12 12.68 -0.2 0 0 1038.01 644.48
  L 1026.91 644.51
  A 0.58 0.58 0.0 0 0 1026.33 645.10
  Z
  M 1026.29 682.84
  L 1026.45 713.80
  A 0.37 0.37 0.0 0 0 1026.82 714.17
  L 1039.85 714.10
  A 17.30 14.53 -0.3 0 0 1057.08 699.48
  L 1057.06 696.84
  A 17.30 14.53 -0.3 0 0 1039.69 682.40
  L 1026.66 682.47
  A 0.37 0.37 0.0 0 0 1026.29 682.84
  Z"
/>
<rect fill="#041e42" x="1086.50" y="633.79" width="12.42" height="91.10" rx="0.33"/>
<path fill="#041e42" d="
  M 1297.91 653.10
  L 1270.28 724.76
  Q 1270.08 725.30 1269.49 725.30
  L 1260.69 725.28
  Q 1260.05 725.28 1259.82 724.68
  L 1232.17 652.97
  Q 1231.76 651.90 1231.67 653.05
  L 1226.32 724.30
  Q 1226.27 724.88 1225.70 724.88
  L 1214.81 724.91
  A 0.32 0.32 0.0 0 1 1214.48 724.56
  L 1221.67 634.28
  A 0.55 0.54 2.2 0 1 1222.22 633.78
  L 1236.54 633.79
  Q 1237.16 633.79 1237.39 634.37
  L 1264.92 706.74
  Q 1265.41 708.03 1265.90 706.74
  L 1293.38 634.37
  Q 1293.60 633.78 1294.23 633.78
  L 1308.24 633.79
  Q 1308.95 633.79 1309.00 634.49
  L 1316.03 724.42
  A 0.45 0.45 0.0 0 1 1315.57 724.91
  L 1304.70 724.88
  Q 1304.01 724.88 1303.95 724.19
  L 1298.46 653.18
  Q 1298.37 651.92 1297.91 653.10
  Z"
/>
<path fill="#041e42" d="
  M 1347.93 713.20
  L 1385.04 713.11
  A 0.43 0.43 0.0 0 1 1385.47 713.54
  L 1385.53 724.47
  A 0.43 0.43 0.0 0 1 1385.10 724.90
  L 1335.30 724.89
  A 0.43 0.43 0.0 0 1 1334.87 724.46
  L 1334.87 634.22
  A 0.43 0.43 0.0 0 1 1335.30 633.79
  L 1383.78 633.78
  A 0.43 0.43 0.0 0 1 1384.21 634.21
  L 1384.21 644.90
  A 0.43 0.43 0.0 0 1 1383.78 645.33
  L 1347.96 645.23
  A 0.43 0.43 0.0 0 0 1347.53 645.66
  L 1347.51 670.97
  A 0.43 0.43 0.0 0 0 1347.94 671.40
  L 1375.65 671.43
  A 0.43 0.43 0.0 0 1 1376.08 671.79
  L 1377.76 682.65
  A 0.43 0.43 0.0 0 1 1377.34 683.15
  L 1347.95 683.05
  A 0.43 0.43 0.0 0 0 1347.52 683.48
  L 1347.50 712.77
  A 0.43 0.43 0.0 0 0 1347.93 713.20
  Z"
/>
<path fill="#041e42" d="
  M 1399.81 634.10
  A 0.35 0.35 0.0 0 1 1400.16 633.75
  L 1430.56 633.75
  A 43.67 42.36 -0.0 0 1 1474.23 676.11
  L 1474.23 682.41
  A 43.67 42.36 -0.0 0 1 1430.56 724.77
  L 1400.16 724.77
  A 0.35 0.35 0.0 0 1 1399.81 724.42
  L 1399.81 634.10
  Z
  M 1438.08 712.17
  C 1446.27 710.27 1454.03 705.22 1457.49 697.58
  Q 1464.17 682.86 1459.34 666.15
  C 1455.43 652.63 1442.69 645.48 1429.01 645.31
  Q 1420.69 645.21 1412.84 645.31
  A 0.38 0.37 0.0 0 0 1412.46 645.68
  L 1412.46 712.94
  A 0.48 0.47 0.6 0 0 1412.93 713.41
  C 1421.45 713.59 1430.02 714.03 1438.08 712.17
  Z"
/>
<rect fill="#041e42" x="1491.89" y="633.79" width="12.62" height="91.10" rx="0.27"/>
<path fill="#041e42" d="
  M 1744.14 713.35
  L 1745.79 724.43
  A 0.40 0.40 0.0 0 1 1745.40 724.89
  L 1699.11 724.90
  A 0.40 0.40 0.0 0 1 1698.71 724.50
  L 1698.71 634.18
  A 0.40 0.40 0.0 0 1 1699.11 633.78
  L 1710.90 633.79
  A 0.40 0.40 0.0 0 1 1711.30 634.19
  L 1711.29 712.56
  A 0.40 0.40 0.0 0 0 1711.69 712.96
  L 1743.75 713.01
  A 0.40 0.40 0.0 0 1 1744.14 713.35
  Z"
/>
<path fill="#041e42" d="
  M 1803.25 713.20
  L 1840.01 713.20
  A 0.50 0.50 0.0 0 1 1840.51 713.70
  L 1840.56 724.40
  A 0.50 0.50 0.0 0 1 1840.06 724.90
  L 1790.66 724.89
  A 0.50 0.50 0.0 0 1 1790.16 724.39
  L 1790.16 634.29
  A 0.50 0.50 0.0 0 1 1790.66 633.79
  L 1838.74 633.78
  A 0.50 0.50 0.0 0 1 1839.24 634.28
  L 1839.23 644.82
  A 0.50 0.50 0.0 0 1 1838.73 645.32
  L 1803.25 645.23
  A 0.50 0.50 0.0 0 0 1802.75 645.73
  L 1802.74 670.91
  A 0.50 0.50 0.0 0 0 1803.24 671.41
  L 1830.70 671.44
  A 0.50 0.50 0.0 0 1 1831.19 671.86
  L 1832.93 682.50
  A 0.50 0.50 0.0 0 1 1832.43 683.08
  L 1803.24 683.04
  A 0.50 0.50 0.0 0 0 1802.74 683.54
  L 1802.75 712.70
  A 0.50 0.50 0.0 0 0 1803.25 713.20
  Z"
/>
<path fill="#041e42" d="
  M 1914.26 700.66
  L 1914.26 634.26
  Q 1914.26 633.77 1914.74 633.77
  L 1925.52 633.80
  Q 1925.99 633.80 1925.99 634.27
  L 1925.93 724.00
  Q 1925.92 724.86 1925.06 724.87
  Q 1921.29 724.93 1917.17 724.87
  Q 1916.43 724.86 1915.94 724.35
  C 1915.57 723.96 1915.41 723.34 1915.07 722.87
  Q 1890.98 688.85 1867.20 655.05
  Q 1866.73 654.38 1866.73 655.20
  L 1866.73 724.21
  Q 1866.73 724.91 1866.04 724.90
  L 1855.68 724.88
  Q 1854.99 724.88 1854.99 724.18
  L 1855.03 634.26
  A 0.47 0.46 -90.0 0 1 1855.49 633.79
  L 1865.73 633.78
  Q 1866.34 633.78 1866.70 634.28
  L 1913.79 700.81
  Q 1914.26 701.47 1914.26 700.66
  Z"
/>
<rect fill="#041e42" x="2039.11" y="633.80" width="12.64" height="91.08" rx="0.52"/>
<path fill="#041e42" d="
  M 2085.76 655.34
  Q 2085.18 654.52 2085.18 655.52
  L 2085.18 724.24
  Q 2085.18 724.90 2084.51 724.90
  L 2074.20 724.89
  Q 2073.51 724.89 2073.51 724.21
  L 2073.50 634.52
  Q 2073.50 633.78 2074.23 633.78
  L 2083.91 633.79
  Q 2084.72 633.79 2085.20 634.46
  L 2131.98 700.55
  A 0.48 0.46 -15.9 0 0 2132.34 700.74
  Q 2132.73 700.74 2132.73 700.51
  Q 2132.74 666.44 2132.68 634.40
  Q 2132.68 633.79 2133.29 633.79
  L 2143.70 633.78
  Q 2144.37 633.78 2144.37 634.45
  L 2144.37 724.26
  Q 2144.37 724.89 2143.74 724.89
  L 2135.44 724.91
  Q 2134.85 724.91 2134.51 724.43
  L 2085.76 655.34
  Z"
/>
<path fill="#041e42" d="
  M 2178.34 645.72
  L 2178.33 670.99
  A 0.43 0.43 0.0 0 0 2178.76 671.42
  L 2206.55 671.43
  A 0.43 0.43 0.0 0 1 2206.98 671.79
  L 2208.67 682.64
  A 0.43 0.43 0.0 0 1 2208.25 683.14
  L 2178.76 683.10
  A 0.43 0.43 0.0 0 0 2178.33 683.53
  L 2178.33 712.79
  A 0.43 0.43 0.0 0 0 2178.76 713.22
  L 2215.87 713.16
  A 0.43 0.43 0.0 0 1 2216.31 713.59
  L 2216.44 724.45
  A 0.43 0.43 0.0 0 1 2216.01 724.89
  L 2166.30 724.89
  A 0.43 0.43 0.0 0 1 2165.87 724.46
  L 2165.87 634.22
  A 0.43 0.43 0.0 0 1 2166.30 633.79
  L 2214.58 633.78
  A 0.43 0.43 0.0 0 1 2215.01 634.21
  L 2215.00 644.88
  A 0.43 0.43 0.0 0 1 2214.57 645.31
  L 2178.77 645.29
  A 0.43 0.43 0.0 0 0 2178.34 645.72
  Z"
/>
<path fill="#041e42" d="
  M 2243.96 713.19
  L 2280.71 713.15
  A 0.50 0.50 0.0 0 1 2281.21 713.64
  L 2281.34 724.38
  A 0.50 0.50 0.0 0 1 2280.84 724.89
  L 2231.32 724.90
  A 0.50 0.50 0.0 0 1 2230.82 724.40
  L 2230.82 634.28
  A 0.50 0.50 0.0 0 1 2231.32 633.78
  L 2279.48 633.78
  A 0.50 0.50 0.0 0 1 2279.98 634.28
  L 2279.91 644.83
  A 0.50 0.50 0.0 0 1 2279.41 645.33
  L 2243.97 645.24
  A 0.50 0.50 0.0 0 0 2243.47 645.74
  L 2243.45 670.91
  A 0.50 0.50 0.0 0 0 2243.95 671.41
  L 2271.50 671.43
  A 0.50 0.50 0.0 0 1 2271.99 671.86
  L 2273.61 682.57
  A 0.50 0.50 0.0 0 1 2273.12 683.15
  L 2243.96 683.06
  A 0.50 0.50 0.0 0 0 2243.46 683.56
  L 2243.46 712.69
  A 0.50 0.50 0.0 0 0 2243.96 713.19
  Z"
/>
<path fill="#041e42" d="
  M 2308.39 687.31
  L 2308.39 724.25
  Q 2308.39 724.90 2307.75 724.90
  L 2296.46 724.90
  Q 2295.77 724.90 2295.77 724.21
  L 2295.77 634.30
  Q 2295.77 633.78 2296.29 633.78
  Q 2309.15 633.76 2321.15 633.81
  C 2333.48 633.85 2345.62 638.35 2349.53 650.53
  C 2351.74 657.41 2351.47 665.52 2348.21 672.03
  Q 2343.32 681.79 2331.92 684.58
  A 0.59 0.58 -24.7 0 0 2331.58 685.48
  L 2357.77 722.44
  Q 2358.15 722.97 2357.51 723.11
  L 2345.50 725.68
  Q 2344.83 725.82 2344.44 725.26
  L 2317.64 686.85
  A 0.80 0.79 72.1 0 0 2316.99 686.51
  L 2309.19 686.52
  Q 2308.39 686.52 2308.39 687.31
  Z
  M 2308.47 645.04
  L 2308.31 675.54
  A 0.26 0.26 0.0 0 0 2308.57 675.80
  L 2321.78 675.87
  A 16.49 14.40 0.3 0 0 2338.34 661.56
  L 2338.36 659.34
  A 16.49 14.40 0.3 0 0 2321.94 644.85
  L 2308.73 644.78
  A 0.26 0.26 0.0 0 0 2308.47 645.04
  Z"
/>
<rect fill="#041e42" x="2370.97" y="633.79" width="12.64" height="91.10" rx="0.39"/>
<path fill="#041e42" d="
  M 2463.83 700.70
  Q 2464.41 701.51 2464.41 700.52
  L 2464.41 634.56
  Q 2464.41 633.78 2465.19 633.78
  L 2475.29 633.79
  Q 2476.05 633.79 2476.05 634.55
  L 2476.05 724.17
  Q 2476.05 724.88 2475.33 724.89
  L 2467.35 724.90
  Q 2466.59 724.90 2466.15 724.28
  L 2417.26 654.99
  Q 2416.83 654.38 2416.83 655.13
  Q 2416.89 689.91 2416.76 722.00
  Q 2416.76 723.00 2417.00 723.97
  A 0.74 0.73 83.2 0 1 2416.29 724.88
  L 2405.81 724.90
  Q 2405.22 724.91 2405.22 724.31
  L 2405.22 634.28
  Q 2405.22 633.78 2405.72 633.78
  L 2415.75 633.79
  Q 2416.47 633.79 2416.88 634.37
  L 2463.83 700.70
  Z"
/>
</svg>
