<?xml version="1.0" encoding="UTF-8" standalone="no"?>
<!DOCTYPE svg PUBLIC "-//W3C//DTD SVG 1.1//EN" "http://www.w3.org/Graphics/SVG/1.1/DTD/svg11.dtd">
<svg width="100%" height="100%" viewBox="0 0 800 800" version="1.1" xmlns="http://www.w3.org/2000/svg" xmlns:xlink="http://www.w3.org/1999/xlink" xml:space="preserve" xmlns:serif="http://www.serif.com/" style="fill-rule:evenodd;clip-rule:evenodd;stroke-linejoin:round;stroke-miterlimit:2;">
    <path d="M41,521C40,520 36,518 34,516C31,512 30,510 30,507C30,501 34,499 38,503C39,505 41,507 43,508C52,515 51,523 41,521ZM283,515C260,510 244,501 234,485C226,473 220,454 221,442C222,438 222,436 225,433C229,428 229,425 224,420C220,417 220,416 220,408C219,403 219,392 219,385C219,377 219,360 218,348C217,318 218,312 224,309C228,307 236,308 243,312C251,316 266,327 268,330C271,334 272,343 273,374C275,400 275,402 273,408C272,411 270,416 268,418C266,421 264,424 264,424C264,425 266,426 268,428C274,432 275,435 276,445C278,464 289,475 306,474C314,474 319,473 326,468C334,463 335,459 336,442C338,423 338,423 334,393C332,380 333,374 337,367C341,360 341,355 337,351C333,347 331,341 331,333C331,326 332,324 334,319C337,312 337,311 337,304C336,294 337,289 342,284C348,278 353,277 366,277C377,278 379,279 383,286C385,290 385,294 387,306C388,325 388,364 387,374C386,383 384,385 380,390C378,392 376,394 376,395C376,396 378,398 380,401C383,404 385,407 386,410C388,415 387,444 385,456C382,478 371,495 355,507C348,511 337,515 327,516C315,518 294,517 283,515ZM657,514C638,512 631,509 624,502C618,496 616,489 615,475C615,462 615,461 608,451C604,445 600,434 600,428C600,422 601,418 607,409C613,400 614,398 609,386C606,379 606,378 606,366C606,334 616,320 645,309C657,305 660,303 670,294C679,286 685,282 697,278C723,268 762,285 774,311C776,314 778,321 779,327C780,336 780,340 779,361C778,384 778,385 775,393C771,402 771,410 774,416C777,422 779,433 779,444C779,463 775,475 764,486C757,493 756,494 749,496C738,500 735,500 726,499C717,498 713,499 707,504C703,509 699,511 691,513C684,514 662,515 657,514ZM711,459C722,457 730,451 734,440C737,433 736,428 732,415C727,402 727,396 730,387C733,380 733,377 733,366C733,350 732,341 728,336C724,330 721,329 713,329C707,329 706,329 702,331C699,333 695,336 693,338C690,340 685,344 681,347C671,353 666,360 663,371C660,379 660,383 663,401C665,409 666,420 667,425C669,441 673,450 683,456C691,461 697,461 711,459ZM64,512C53,508 39,495 35,488C31,478 30,468 29,440C28,410 28,404 32,399C36,394 38,387 38,381C38,374 37,370 33,364C28,356 27,343 29,335C30,333 33,329 35,326C41,319 41,315 34,309C28,303 27,300 27,293C27,287 30,280 35,276C38,274 41,274 52,273C76,272 82,274 89,283C92,287 92,288 92,293C92,299 91,301 87,306C82,312 82,314 87,322C91,328 92,329 92,337C92,347 91,354 86,360C84,362 83,364 84,366C84,368 91,376 92,376C93,376 140,324 155,307C163,298 170,295 177,297C191,301 196,319 186,330C156,366 138,388 138,389C138,390 139,393 141,396C146,403 192,462 197,468C204,476 207,482 207,489C207,496 205,500 200,504C194,507 185,508 179,505C174,503 173,501 143,464C113,428 110,425 108,425C105,425 94,439 89,446C87,450 87,450 88,466C90,498 89,507 82,512C79,515 70,515 64,512ZM579,512C575,509 572,504 572,500C572,496 575,490 579,488C587,483 599,490 599,500C599,505 596,511 592,513C588,515 583,514 579,512ZM439,512C430,511 424,507 421,500C418,494 418,494 418,480C417,465 418,463 423,456C426,453 425,449 423,446C418,442 418,444 418,374C418,297 417,303 429,291C437,283 453,272 459,270C464,268 470,269 473,273C476,276 476,276 476,286C476,297 477,302 480,302C481,302 484,300 488,298C496,292 505,287 511,284C528,277 553,281 564,294C571,301 576,313 578,324C578,329 579,337 579,341C579,361 570,379 556,386C551,388 550,388 541,388C532,388 531,388 529,390C526,393 526,398 530,401C533,404 533,404 537,403C549,401 554,403 559,412C561,415 566,424 571,432C578,443 580,448 582,453C585,468 582,477 570,483C563,486 556,487 551,485C545,482 538,474 525,452C518,440 508,425 504,418C499,411 494,403 493,400C488,388 490,377 499,370C504,366 508,366 515,367C522,368 526,367 530,363C537,355 534,339 524,332C518,327 507,328 498,334C492,337 483,346 480,351C477,356 477,356 477,405C478,454 478,454 474,458C470,463 470,465 475,467C480,469 481,473 481,485C481,497 479,504 475,507C469,512 455,514 439,512ZM248,304C242,301 237,297 235,295C227,286 235,279 249,284C259,288 268,294 270,300C271,304 271,305 269,307C265,311 260,310 248,304ZM603,305C598,300 599,291 606,287C611,285 615,285 621,286C629,288 631,292 627,298C623,304 616,308 610,308C607,308 605,307 603,305ZM52,263C45,256 52,245 62,248C67,250 69,258 64,263C61,267 56,267 52,263ZM696,425C694,423 694,422 694,420C695,417 698,415 701,415C703,415 706,417 707,420C707,422 707,423 705,425C703,427 701,428 701,428C700,428 698,427 696,425ZM690,392C681,388 681,372 690,368C696,364 705,366 707,372C708,374 709,377 709,380C709,387 707,390 702,392C697,394 694,394 690,392Z" style="fill:rgb(221,221,221);fill-rule:nonzero;"/>
    <path d="M41,521C40,520 36,518 34,516C31,512 30,510 30,507C30,501 34,499 38,503C39,505 41,507 43,508C52,515 51,523 41,521ZM283,515C260,510 244,501 234,485C226,473 220,454 221,442C222,438 222,436 225,433C229,428 229,425 224,420C220,417 220,416 220,408C219,403 219,392 219,385C219,377 219,360 218,348C217,318 218,312 224,309C228,307 236,308 243,312C251,316 266,327 268,330C271,334 272,343 273,374C275,400 275,402 273,408C272,411 270,416 268,418C266,421 264,424 264,424C264,425 266,426 268,428C274,432 275,435 276,445C278,464 289,475 306,474C314,474 319,473 326,468C334,463 335,459 336,442C338,423 338,423 334,393C332,380 333,374 337,367C341,360 341,355 337,351C333,347 331,341 331,333C331,326 332,324 334,319C337,312 337,311 337,304C336,294 337,289 342,284C348,278 353,277 366,277C377,278 379,279 383,286C385,290 385,294 387,306C388,325 388,364 387,374C386,383 384,385 380,390C378,392 376,394 376,395C376,396 378,398 380,401C383,404 385,407 386,410C388,415 387,444 385,456C382,478 371,495 355,507C348,511 337,515 327,516C315,518 294,517 283,515ZM657,514C638,512 631,509 624,502C618,496 616,489 615,475C615,462 615,461 608,451C604,445 600,434 600,428C600,422 601,418 607,409C613,400 614,398 609,386C606,379 606,378 606,366C606,334 616,320 645,309C657,305 660,303 670,294C679,286 685,282 697,278C723,268 762,285 774,311C776,314 778,321 779,327C780,336 780,340 779,361C778,384 778,385 775,393C771,402 771,410 774,416C777,422 779,433 779,444C779,463 775,475 764,486C757,493 756,494 749,496C738,500 735,500 726,499C717,498 713,499 707,504C703,509 699,511 691,513C684,514 662,515 657,514ZM711,459C722,457 730,451 734,440C737,433 736,428 732,415C727,402 727,396 730,387C733,380 733,377 733,366C733,350 732,341 728,336C724,330 721,329 713,329C707,329 706,329 702,331C699,333 695,336 693,338C690,340 685,344 681,347C671,353 666,360 663,371C660,379 660,383 663,401C665,409 666,420 667,425C669,441 673,450 683,456C691,461 697,461 711,459ZM64,512C53,508 39,495 35,488C31,478 30,468 29,440C28,410 28,404 32,399C36,394 38,387 38,381C38,374 37,370 33,364C28,356 27,343 29,335C30,333 33,329 35,326C41,319 41,315 34,309C28,303 27,300 27,293C27,287 30,280 35,276C38,274 41,274 52,273C76,272 82,274 89,283C92,287 92,288 92,293C92,299 91,301 87,306C82,312 82,314 87,322C91,328 92,329 92,337C92,347 91,354 86,360C84,362 83,364 84,366C84,368 91,376 92,376C93,376 140,324 155,307C163,298 170,295 177,297C191,301 196,319 186,330C156,366 138,388 138,389C138,390 139,393 141,396C146,403 192,462 197,468C204,476 207,482 207,489C207,496 205,500 200,504C194,507 185,508 179,505C174,503 173,501 143,464C113,428 110,425 108,425C105,425 94,439 89,446C87,450 87,450 88,466C90,498 89,507 82,512C79,515 70,515 64,512ZM579,512C575,509 572,504 572,500C572,496 575,490 579,488C587,483 599,490 599,500C599,505 596,511 592,513C588,515 583,514 579,512ZM439,512C430,511 424,507 421,500C418,494 418,494 418,480C417,465 418,463 423,456C426,453 425,449 423,446C418,442 418,444 418,374C418,297 417,303 429,291C437,283 453,272 459,270C464,268 470,269 473,273C476,276 476,276 476,286C476,297 477,302 480,302C481,302 484,300 488,298C496,292 505,287 511,284C528,277 553,281 564,294C571,301 576,313 578,324C578,329 579,337 579,341C579,361 570,379 556,386C551,388 550,388 541,388C532,388 531,388 529,390C526,393 526,398 530,401C533,404 533,404 537,403C549,401 554,403 559,412C561,415 566,424 571,432C578,443 580,448 582,453C585,468 582,477 570,483C563,486 556,487 551,485C545,482 538,474 525,452C518,440 508,425 504,418C499,411 494,403 493,400C488,388 490,377 499,370C504,366 508,366 515,367C522,368 526,367 530,363C537,355 534,339 524,332C518,327 507,328 498,334C492,337 483,346 480,351C477,356 477,356 477,405C478,454 478,454 474,458C470,463 470,465 475,467C480,469 481,473 481,485C481,497 479,504 475,507C469,512 455,514 439,512ZM248,304C242,301 237,297 235,295C227,286 235,279 249,284C259,288 268,294 270,300C271,304 271,305 269,307C265,311 260,310 248,304ZM603,305C598,300 599,291 606,287C611,285 615,285 621,286C629,288 631,292 627,298C623,304 616,308 610,308C607,308 605,307 603,305ZM52,263C45,256 52,245 62,248C67,250 69,258 64,263C61,267 56,267 52,263ZM696,425C694,423 694,422 694,420C695,417 698,415 701,415C703,415 706,417 707,420C707,422 707,423 705,425C703,427 701,428 701,428C700,428 698,427 696,425ZM690,392C681,388 681,372 690,368C696,364 705,366 707,372C708,374 709,377 709,380C709,387 707,390 702,392C697,394 694,394 690,392Z" style="fill:rgb(221,221,221);fill-rule:nonzero;"/>
    <path d="M41,521C40,520 36,518 34,516C31,512 30,510 30,507C30,501 34,499 38,503C39,505 41,507 43,508C52,515 51,523 41,521ZM283,515C260,510 244,501 234,485C226,473 220,454 221,442C222,438 222,436 225,433C229,428 229,425 224,420C220,417 220,416 220,408C219,403 219,392 219,385C219,377 219,360 218,348C217,318 218,312 224,309C228,307 236,308 243,312C251,316 266,327 268,330C271,334 272,343 273,374C275,400 275,402 273,408C272,411 270,416 268,418C266,421 264,424 264,424C264,425 266,426 268,428C274,432 275,435 276,445C278,464 289,475 306,474C314,474 319,473 326,468C334,463 335,459 336,442C338,423 338,423 334,393C332,380 333,374 337,367C341,360 341,355 337,351C333,347 331,341 331,333C331,326 332,324 334,319C337,312 337,311 337,304C336,294 337,289 342,284C348,278 353,277 366,277C377,278 379,279 383,286C385,290 385,294 387,306C388,325 388,364 387,374C386,383 384,385 380,390C378,392 376,394 376,395C376,396 378,398 380,401C383,404 385,407 386,410C388,415 387,444 385,456C382,478 371,495 355,507C348,511 337,515 327,516C315,518 294,517 283,515ZM657,514C638,512 631,509 624,502C618,496 616,489 615,475C615,462 615,461 608,451C604,445 600,434 600,428C600,422 601,418 607,409C613,400 614,398 609,386C606,379 606,378 606,366C606,334 616,320 645,309C657,305 660,303 670,294C679,286 685,282 697,278C723,268 762,285 774,311C776,314 778,321 779,327C780,336 780,340 779,361C778,384 778,385 775,393C771,402 771,410 774,416C777,422 779,433 779,444C779,463 775,475 764,486C757,493 756,494 749,496C738,500 735,500 726,499C717,498 713,499 707,504C703,509 699,511 691,513C684,514 662,515 657,514ZM711,459C722,457 730,451 734,440C737,433 736,428 732,415C727,402 727,396 730,387C733,380 733,377 733,366C733,350 732,341 728,336C724,330 721,329 713,329C707,329 706,329 702,331C699,333 695,336 693,338C690,340 685,344 681,347C671,353 666,360 663,371C660,379 660,383 663,401C665,409 666,420 667,425C669,441 673,450 683,456C691,461 697,461 711,459ZM64,512C53,508 39,495 35,488C31,478 30,468 29,440C28,410 28,404 32,399C36,394 38,387 38,381C38,374 37,370 33,364C28,356 27,343 29,335C30,333 33,329 35,326C41,319 41,315 34,309C28,303 27,300 27,293C27,287 30,280 35,276C38,274 41,274 52,273C76,272 82,274 89,283C92,287 92,288 92,293C92,299 91,301 87,306C82,312 82,314 87,322C91,328 92,329 92,337C92,347 91,354 86,360C84,362 83,364 84,366C84,368 91,376 92,376C93,376 140,324 155,307C163,298 170,295 177,297C191,301 196,319 186,330C156,366 138,388 138,389C138,390 139,393 141,396C146,403 192,462 197,468C204,476 207,482 207,489C207,496 205,500 200,504C194,507 185,508 179,505C174,503 173,501 143,464C113,428 110,425 108,425C105,425 94,439 89,446C87,450 87,450 88,466C90,498 89,507 82,512C79,515 70,515 64,512ZM579,512C575,509 572,504 572,500C572,496 575,490 579,488C587,483 599,490 599,500C599,505 596,511 592,513C588,515 583,514 579,512ZM439,512C430,511 424,507 421,500C418,494 418,494 418,480C417,465 418,463 423,456C426,453 425,449 423,446C418,442 418,444 418,374C418,297 417,303 429,291C437,283 453,272 459,270C464,268 470,269 473,273C476,276 476,276 476,286C476,297 477,302 480,302C481,302 484,300 488,298C496,292 505,287 511,284C528,277 553,281 564,294C571,301 576,313 578,324C578,329 579,337 579,341C579,361 570,379 556,386C551,388 550,388 541,388C532,388 531,388 529,390C526,393 526,398 530,401C533,404 533,404 537,403C549,401 554,403 559,412C561,415 566,424 571,432C578,443 580,448 582,453C585,468 582,477 570,483C563,486 556,487 551,485C545,482 538,474 525,452C518,440 508,425 504,418C499,411 494,403 493,400C488,388 490,377 499,370C504,366 508,366 515,367C522,368 526,367 530,363C537,355 534,339 524,332C518,327 507,328 498,334C492,337 483,346 480,351C477,356 477,356 477,405C478,454 478,454 474,458C470,463 470,465 475,467C480,469 481,473 481,485C481,497 479,504 475,507C469,512 455,514 439,512ZM248,304C242,301 237,297 235,295C227,286 235,279 249,284C259,288 268,294 270,300C271,304 271,305 269,307C265,311 260,310 248,304ZM603,305C598,300 599,291 606,287C611,285 615,285 621,286C629,288 631,292 627,298C623,304 616,308 610,308C607,308 605,307 603,305ZM52,263C45,256 52,245 62,248C67,250 69,258 64,263C61,267 56,267 52,263ZM696,425C694,423 694,422 694,420C695,417 698,415 701,415C703,415 706,417 707,420C707,422 707,423 705,425C703,427 701,428 701,428C700,428 698,427 696,425ZM690,392C681,388 681,372 690,368C696,364 705,366 707,372C708,374 709,377 709,380C709,387 707,390 702,392C697,394 694,394 690,392Z" style="fill:rgb(221,221,221);fill-rule:nonzero;"/>
    <path d="M36,516C31,511 31,511 31,507L32,503L33,502C34,502 36,503 38,505C40,506 42,509 44,511C47,513 48,515 48,517L48,520L44,520C40,521 40,520 36,516ZM292,516L292,515L289,515L287,516L286,515C286,514 284,514 282,513C276,513 275,512 273,512C272,511 269,510 267,509C258,507 240,495 240,493C240,492 233,483 232,482L231,481C231,480 225,462 223,459C223,458 222,456 223,455C223,454 223,452 222,451C220,449 222,438 225,433C227,431 228,428 228,427C229,424 229,423 225,420C221,417 221,416 221,411C221,408 221,406 220,406C219,405 219,390 220,388C221,387 221,385 220,385C220,384 219,379 220,373C220,366 219,361 219,361C219,360 218,353 218,346L218,329L217,325L218,325C219,324 219,322 219,320C219,316 220,315 222,312C225,309 225,309 231,309C239,310 240,310 242,312L243,313L244,312L245,312L245,314L247,315C248,315 250,316 252,318L255,320L255,319L257,321L258,323L259,322L260,322L260,323C260,324 262,325 264,327C266,328 268,330 268,330C270,336 271,341 270,341C270,342 270,342 271,343C271,344 272,351 272,364C272,369 272,373 273,373L273,383C273,389 273,393 274,394C275,395 274,404 273,407C273,407 272,409 271,411C270,413 269,416 268,417C267,418 266,419 266,420L266,421L264,421L264,423L263,424L265,427L268,429L268,428L271,431C273,434 274,437 274,439C275,442 275,446 275,449C276,455 279,461 284,466C288,470 294,474 296,474L297,473L298,474L298,475L299,475L300,474L300,475C302,478 322,473 325,469C326,468 327,467 327,467C331,467 337,459 336,455L335,453L337,453L337,440C338,437 339,425 338,424L337,423L338,422C339,421 339,420 338,417C337,416 337,414 337,413C337,410 334,384 333,384L332,383L333,382C333,381 334,379 334,377C334,376 336,371 337,367C342,359 342,355 338,351C333,344 332,343 332,332L332,324C332,324 334,321 335,318C338,313 339,305 337,303C336,301 337,296 337,294C338,293 338,292 338,291L337,290L338,290C338,290 340,288 341,286C345,280 351,278 362,278L370,278C370,279 371,279 373,279C377,279 382,284 383,289L384,294L386,294L385,300C385,303 385,306 386,306L386,312C386,315 387,317 387,317C388,318 387,369 387,370C386,371 386,372 386,373L387,376L386,376C385,377 385,378 385,379C385,382 383,385 379,390C377,392 375,394 375,395C375,396 377,398 379,401C382,404 384,407 385,410C386,414 387,447 386,449C385,449 385,452 385,455C384,458 384,461 384,462C383,463 383,464 383,466C382,471 374,488 370,491C369,493 368,494 368,495L367,497L366,497C365,497 363,499 361,501C359,503 357,505 357,505C356,505 354,506 352,507C349,509 345,511 342,512L336,513L336,515L329,515C326,515 322,515 322,516C321,516 293,517 292,516ZM659,514C659,513 657,513 655,513C654,514 652,513 651,513L651,512L649,512L647,513L647,512C646,512 644,511 642,511C640,510 636,509 634,508L630,506L629,506L629,507L625,501C622,498 620,494 619,492C618,490 617,488 617,488L617,484C617,483 617,482 616,482C615,481 615,473 616,471L617,470L616,469C616,468 615,467 616,465C616,463 615,461 612,456C607,448 603,440 602,436L602,433L600,433L601,426C602,423 602,419 602,418L602,416L603,416C603,416 606,413 609,409C614,400 614,398 610,387C608,383 607,378 607,376C607,375 607,373 606,373L606,360L607,360L607,356C607,354 608,349 609,344C612,334 618,325 626,319C634,314 638,312 639,312C640,312 651,308 657,305C659,304 665,300 669,296C678,287 683,284 693,280C697,279 701,277 703,277C705,276 717,276 719,276C720,277 723,277 725,277C739,279 758,290 766,300C770,305 775,312 774,313L774,314L776,314L776,315C775,316 778,331 779,333C780,335 780,353 779,355C778,355 778,361 778,367L778,378C778,378 778,380 777,381C777,385 774,394 773,396C773,396 772,399 771,402C770,407 770,409 772,412C776,425 777,427 777,429C777,430 777,431 778,431C778,432 779,434 778,435C778,437 778,439 779,439C780,440 780,449 779,450L778,450L778,454L779,457L778,457C778,458 777,460 777,462C776,465 774,469 773,473C769,479 761,490 760,490C759,490 758,491 757,491C755,493 742,498 738,498L736,498L736,500L734,500C732,500 731,500 730,499C730,498 728,498 726,498L722,498C720,496 711,499 707,504C705,506 702,507 701,508L698,509L698,511L695,511C694,511 692,511 691,512L688,512C687,512 686,512 686,513C685,513 683,514 681,513C680,513 677,513 677,514C675,515 660,515 659,514ZM700,461C701,461 703,461 707,460C714,460 721,458 726,453C730,450 736,442 735,440L734,439L735,439L736,438L737,433C737,428 734,415 732,414L731,414L731,413C732,412 731,406 729,403C728,400 729,394 732,386C734,380 734,377 734,373C733,370 734,368 734,367L735,366L734,364L734,356C734,353 734,350 733,350L732,349L733,347L733,344L731,344L732,342C732,341 731,338 725,332C722,329 720,328 716,328C713,327 709,327 707,328C703,329 697,333 697,334L697,335L696,335L696,334L692,338C689,340 684,344 680,347C674,351 671,354 668,358C663,365 660,375 660,382C660,387 664,412 665,414C666,414 666,417 665,419C665,422 665,424 666,424C667,425 667,427 667,428L666,431L668,431L668,433C667,436 671,445 675,450L679,455L680,455L680,454L684,458L685,458L686,457L686,458C686,459 689,460 692,460C699,462 700,462 700,461ZM70,513L68,513C58,511 40,496 36,487C34,482 31,468 31,463C31,460 31,458 30,458L30,444C30,438 30,431 29,431L29,409L30,409L30,405C31,400 31,400 34,397L36,395L35,394L35,393L37,393L38,390C39,388 39,385 39,384L39,381C40,380 40,378 39,377L39,373C38,372 38,370 37,370L36,369L36,368L37,368L35,364C30,357 27,343 30,337C30,335 31,334 31,333C31,333 33,330 36,326C42,319 42,315 35,309C29,303 28,300 28,294C28,283 35,275 44,275C47,275 49,275 50,274C50,273 55,273 62,273L73,273L73,275L76,275C79,275 83,277 87,282C90,286 91,287 91,293L92,299L91,299C90,300 86,306 86,307L86,308L84,308L83,309L83,311L84,312L82,312L82,314C82,315 84,318 86,322C90,328 91,329 91,337C91,347 90,352 86,359C81,365 82,367 88,373L92,377L104,365C104,364 106,362 109,359C112,357 114,354 114,354C114,353 116,351 119,348C122,346 124,343 124,343C124,342 126,340 128,338L133,334L132,333L132,332L133,331C134,331 139,326 145,320C161,302 163,300 168,298C171,297 173,297 176,298C178,298 180,299 181,299C185,300 190,309 190,316C190,322 189,325 185,330C183,332 182,334 182,334C182,334 180,337 177,341C173,344 171,347 171,347C171,347 169,350 166,354C162,357 160,360 160,360C160,360 158,363 155,367C151,370 149,373 149,373C149,374 148,375 146,377L143,379L143,380L144,380L141,383L138,385L139,386L139,387L137,387L137,389C137,391 142,399 143,399L144,399L144,400C143,401 156,417 157,417L158,417L158,418L157,419L165,427L164,427L164,428L172,436L171,436L176,442C178,445 181,448 181,448L182,448L182,449L181,450L184,452L186,454L185,454L189,460C192,463 195,467 196,467C197,468 198,469 199,471C205,481 205,482 206,488L206,495L204,495L205,496L205,498L202,501C198,504 194,506 188,506C182,506 178,504 172,499L168,495L168,494L146,466C133,451 122,439 122,439L121,439L121,438C122,436 110,424 108,424C106,424 101,429 100,431C100,432 99,433 97,435C96,436 93,439 90,442C87,447 87,449 86,454C86,458 86,461 87,461C87,462 88,465 87,468C87,472 87,475 88,475L88,489C88,502 86,508 83,511C81,512 70,514 70,513ZM445,512C445,512 442,511 439,511C430,510 425,506 421,499C419,494 418,492 419,489L419,484C418,483 418,479 418,476L417,469L419,469L419,467C419,465 421,459 424,457C425,456 425,453 426,452C426,449 426,448 424,446C419,442 419,443 419,374L419,308C420,307 422,300 422,299L424,297L427,295L425,295L429,291C432,288 434,287 434,287L435,287L437,285L438,282L439,283L440,283L442,279L443,279L443,280L449,276C452,274 457,272 459,271C464,269 470,270 473,273C475,276 475,277 475,287C475,305 477,306 491,297C496,293 503,289 506,287C509,286 512,284 512,284L512,283L514,284L515,284L515,283L520,282L526,282L526,280L533,280L533,282L539,282C548,283 562,290 566,297C571,304 575,315 576,323C577,327 578,331 578,331C578,332 578,337 577,357C577,358 576,360 576,360C576,360 574,363 573,366C570,374 564,380 558,384L553,387L553,386L552,386L552,388L550,387C549,387 547,387 545,388C543,389 542,389 541,388C538,386 532,387 529,389C525,392 526,400 531,404C534,405 535,405 540,404C548,402 553,404 556,408C557,409 558,411 559,412L560,413L559,413L559,414L569,430C574,439 579,447 580,449L580,452L582,452L582,460C582,467 582,469 580,472L578,476L579,476L576,478C574,480 572,481 570,482L567,483L567,485L561,485C558,485 553,485 552,484C548,483 537,472 536,469C536,468 535,467 535,466C534,466 533,465 533,464C533,462 530,458 529,458L528,458L528,457C528,455 525,450 524,450L523,450L523,449C523,447 505,418 504,418L503,418L503,417C503,415 500,410 499,410L498,410L498,409C498,409 497,405 495,401C488,388 490,378 500,371C504,368 505,367 511,367C515,367 519,368 519,368L520,369L523,368C531,365 536,357 534,347C533,341 532,339 530,339L529,338L529,337L530,336L527,333C522,329 519,328 517,329C516,329 514,329 514,328C513,327 511,327 510,328L507,328L507,330L506,329L504,329L504,331L503,331C502,330 494,335 493,337L493,338L492,338L491,337L486,342C484,345 480,349 479,350L477,353L478,354L478,355L476,355L476,391C476,411 476,427 477,427C478,428 477,451 476,453C476,455 474,457 473,459C469,463 470,465 474,467C476,469 478,470 478,472L479,474L481,474L480,484C480,495 478,503 475,506C474,507 471,509 468,510C462,511 446,513 445,512ZM579,511C576,509 574,507 573,501C572,496 572,496 576,492C578,490 580,488 581,488C583,486 587,486 588,487C588,487 590,488 591,489C595,490 597,494 598,500C599,505 599,505 594,510C592,512 590,513 587,513C584,513 581,512 579,511ZM257,307C256,306 255,306 254,307L253,307L253,306C253,306 250,304 245,302C237,297 233,293 233,289C233,283 239,282 248,285C263,290 274,301 269,306C267,308 260,309 257,307ZM604,305C602,303 601,301 601,298C601,292 603,289 608,287C615,284 627,287 628,292C628,295 625,300 620,304C617,305 615,307 615,307C615,307 613,308 610,308C607,308 606,307 604,305ZM53,263C49,259 49,254 52,251C53,249 55,249 58,249C62,249 63,249 64,251C69,256 65,264 59,265C56,265 55,265 53,263ZM698,425C695,423 695,422 695,420C696,417 698,416 701,416C703,416 705,417 705,420C706,422 706,423 704,425C702,427 701,428 701,428C701,428 699,427 698,425ZM691,392C684,388 682,377 687,371C689,368 690,367 695,367C704,367 709,371 708,381C708,386 706,389 701,392C696,394 696,394 691,392Z" style="fill:rgb(221,221,221);fill-rule:nonzero;"/>
    <path d="M36,516C31,511 31,511 31,507L32,503L33,502C34,502 36,503 38,505C40,506 42,509 44,511C47,513 48,515 48,517L48,520L44,520C40,521 40,520 36,516ZM292,516L292,515L289,515L287,516L286,515C286,514 284,514 282,513C276,513 275,512 273,512C272,511 269,510 267,509C258,507 240,495 240,493C240,492 233,483 232,482L231,481C231,480 225,462 223,459C223,458 222,456 223,455C223,454 223,452 222,451C220,449 222,438 225,433C227,431 228,428 228,427C229,424 229,423 225,420C221,417 221,416 221,411C221,408 221,406 220,406C219,405 219,390 220,388C221,387 221,385 220,385C220,384 219,379 220,373C220,366 219,361 219,361C219,360 218,353 218,346L218,329L217,325L218,325C219,324 219,322 219,320C219,316 220,315 222,312C225,309 225,309 231,309C239,310 240,310 242,312L243,313L244,312L245,312L245,314L247,315C248,315 250,316 252,318L255,320L255,319L257,321L258,323L259,322L260,322L260,323C260,324 262,325 264,327C266,328 268,330 268,330C270,336 271,341 270,341C270,342 270,342 271,343C271,344 272,351 272,364C272,369 272,373 273,373L273,383C273,389 273,393 274,394C275,395 274,404 273,407C273,407 272,409 271,411C270,413 269,416 268,417C267,418 266,419 266,420L266,421L264,421L264,423L263,424L265,427L268,429L268,428L271,431C273,434 274,437 274,439C275,442 275,446 275,449C276,455 279,461 284,466C288,470 294,474 296,474L297,473L298,474L298,475L299,475L300,474L300,475C302,478 322,473 325,469C326,468 327,467 327,467C331,467 337,459 336,455L335,453L337,453L337,440C338,437 339,425 338,424L337,423L338,422C339,421 339,420 338,417C337,416 337,414 337,413C337,410 334,384 333,384L332,383L333,382C333,381 334,379 334,377C334,376 336,371 337,367C342,359 342,355 338,351C333,344 332,343 332,332L332,324C332,324 334,321 335,318C338,313 339,305 337,303C336,301 337,296 337,294C338,293 338,292 338,291L337,290L338,290C338,290 340,288 341,286C345,280 351,278 362,278L370,278C370,279 371,279 373,279C377,279 382,284 383,289L384,294L386,294L385,300C385,303 385,306 386,306L386,312C386,315 387,317 387,317C388,318 387,369 387,370C386,371 386,372 386,373L387,376L386,376C385,377 385,378 385,379C385,382 383,385 379,390C377,392 375,394 375,395C375,396 377,398 379,401C382,404 384,407 385,410C386,414 387,447 386,449C385,449 385,452 385,455C384,458 384,461 384,462C383,463 383,464 383,466C382,471 374,488 370,491C369,493 368,494 368,495L367,497L366,497C365,497 363,499 361,501C359,503 357,505 357,505C356,505 354,506 352,507C349,509 345,511 342,512L336,513L336,515L329,515C326,515 322,515 322,516C321,516 293,517 292,516ZM659,514C659,513 657,513 655,513C654,514 652,513 651,513L651,512L649,512L647,513L647,512C646,512 644,511 642,511C640,510 636,509 634,508L630,506L629,506L629,507L625,501C622,498 620,494 619,492C618,490 617,488 617,488L617,484C617,483 617,482 616,482C615,481 615,473 616,471L617,470L616,469C616,468 615,467 616,465C616,463 615,461 612,456C607,448 603,440 602,436L602,433L600,433L601,426C602,423 602,419 602,418L602,416L603,416C603,416 606,413 609,409C614,400 614,398 610,387C608,383 607,378 607,376C607,375 607,373 606,373L606,360L607,360L607,356C607,354 608,349 609,344C612,334 618,325 626,319C634,314 638,312 639,312C640,312 651,308 657,305C659,304 665,300 669,296C678,287 683,284 693,280C697,279 701,277 703,277C705,276 717,276 719,276C720,277 723,277 725,277C739,279 758,290 766,300C770,305 775,312 774,313L774,314L776,314L776,315C775,316 778,331 779,333C780,335 780,353 779,355C778,355 778,361 778,367L778,378C778,378 778,380 777,381C777,385 774,394 773,396C773,396 772,399 771,402C770,407 770,409 772,412C776,425 777,427 777,429C777,430 777,431 778,431C778,432 779,434 778,435C778,437 778,439 779,439C780,440 780,449 779,450L778,450L778,454L779,457L778,457C778,458 777,460 777,462C776,465 774,469 773,473C769,479 761,490 760,490C759,490 758,491 757,491C755,493 742,498 738,498L736,498L736,500L734,500C732,500 731,500 730,499C730,498 728,498 726,498L722,498C720,496 711,499 707,504C705,506 702,507 701,508L698,509L698,511L695,511C694,511 692,511 691,512L688,512C687,512 686,512 686,513C685,513 683,514 681,513C680,513 677,513 677,514C675,515 660,515 659,514ZM700,461C701,461 703,461 707,460C714,460 721,458 726,453C730,450 736,442 735,440L734,439L735,439L736,438L737,433C737,428 734,415 732,414L731,414L731,413C732,412 731,406 729,403C728,400 729,394 732,386C734,380 734,377 734,373C733,370 734,368 734,367L735,366L734,364L734,356C734,353 734,350 733,350L732,349L733,347L733,344L731,344L732,342C732,341 731,338 725,332C722,329 720,328 716,328C713,327 709,327 707,328C703,329 697,333 697,334L697,335L696,335L696,334L692,338C689,340 684,344 680,347C674,351 671,354 668,358C663,365 660,375 660,382C660,387 664,412 665,414C666,414 666,417 665,419C665,422 665,424 666,424C667,425 667,427 667,428L666,431L668,431L668,433C667,436 671,445 675,450L679,455L680,455L680,454L684,458L685,458L686,457L686,458C686,459 689,460 692,460C699,462 700,462 700,461ZM70,513L68,513C58,511 40,496 36,487C34,482 31,468 31,463C31,460 31,458 30,458L30,444C30,438 30,431 29,431L29,409L30,409L30,405C31,400 31,400 34,397L36,395L35,394L35,393L37,393L38,390C39,388 39,385 39,384L39,381C40,380 40,378 39,377L39,373C38,372 38,370 37,370L36,369L36,368L37,368L35,364C30,357 27,343 30,337C30,335 31,334 31,333C31,333 33,330 36,326C42,319 42,315 35,309C29,303 28,300 28,294C28,283 35,275 44,275C47,275 49,275 50,274C50,273 55,273 62,273L73,273L73,275L76,275C79,275 83,277 87,282C90,286 91,287 91,293L92,299L91,299C90,300 86,306 86,307L86,308L84,308L83,309L83,311L84,312L82,312L82,314C82,315 84,318 86,322C90,328 91,329 91,337C91,347 90,352 86,359C81,365 82,367 88,373L92,377L104,365C104,364 106,362 109,359C112,357 114,354 114,354C114,353 116,351 119,348C122,346 124,343 124,343C124,342 126,340 128,338L133,334L132,333L132,332L133,331C134,331 139,326 145,320C161,302 163,300 168,298C171,297 173,297 176,298C178,298 180,299 181,299C185,300 190,309 190,316C190,322 189,325 185,330C183,332 182,334 182,334C182,334 180,337 177,341C173,344 171,347 171,347C171,347 169,350 166,354C162,357 160,360 160,360C160,360 158,363 155,367C151,370 149,373 149,373C149,374 148,375 146,377L143,379L143,380L144,380L141,383L138,385L139,386L139,387L137,387L137,389C137,391 142,399 143,399L144,399L144,400C143,401 156,417 157,417L158,417L158,418L157,419L165,427L164,427L164,428L172,436L171,436L176,442C178,445 181,448 181,448L182,448L182,449L181,450L184,452L186,454L185,454L189,460C192,463 195,467 196,467C197,468 198,469 199,471C205,481 205,482 206,488L206,495L204,495L205,496L205,498L202,501C198,504 194,506 188,506C182,506 178,504 172,499L168,495L168,494L146,466C133,451 122,439 122,439L121,439L121,438C122,436 110,424 108,424C106,424 101,429 100,431C100,432 99,433 97,435C96,436 93,439 90,442C87,447 87,449 86,454C86,458 86,461 87,461C87,462 88,465 87,468C87,472 87,475 88,475L88,489C88,502 86,508 83,511C81,512 70,514 70,513ZM445,512C445,512 442,511 439,511C430,510 425,506 421,499C419,494 418,492 419,489L419,484C418,483 418,479 418,476L417,469L419,469L419,467C419,465 421,459 424,457C425,456 425,453 426,452C426,449 426,448 424,446C419,442 419,443 419,374L419,308C420,307 422,300 422,299L424,297L427,295L425,295L429,291C432,288 434,287 434,287L435,287L437,285L438,282L439,283L440,283L442,279L443,279L443,280L449,276C452,274 457,272 459,271C464,269 470,270 473,273C475,276 475,277 475,287C475,305 477,306 491,297C496,293 503,289 506,287C509,286 512,284 512,284L512,283L514,284L515,284L515,283L520,282L526,282L526,280L533,280L533,282L539,282C548,283 562,290 566,297C571,304 575,315 576,323C577,327 578,331 578,331C578,332 578,337 577,357C577,358 576,360 576,360C576,360 574,363 573,366C570,374 564,380 558,384L553,387L553,386L552,386L552,388L550,387C549,387 547,387 545,388C543,389 542,389 541,388C538,386 532,387 529,389C525,392 526,400 531,404C534,405 535,405 540,404C548,402 553,404 556,408C557,409 558,411 559,412L560,413L559,413L559,414L569,430C574,439 579,447 580,449L580,452L582,452L582,460C582,467 582,469 580,472L578,476L579,476L576,478C574,480 572,481 570,482L567,483L567,485L561,485C558,485 553,485 552,484C548,483 537,472 536,469C536,468 535,467 535,466C534,466 533,465 533,464C533,462 530,458 529,458L528,458L528,457C528,455 525,450 524,450L523,450L523,449C523,447 505,418 504,418L503,418L503,417C503,415 500,410 499,410L498,410L498,409C498,409 497,405 495,401C488,388 490,378 500,371C504,368 505,367 511,367C515,367 519,368 519,368L520,369L523,368C531,365 536,357 534,347C533,341 532,339 530,339L529,338L529,337L530,336L527,333C522,329 519,328 517,329C516,329 514,329 514,328C513,327 511,327 510,328L507,328L507,330L506,329L504,329L504,331L503,331C502,330 494,335 493,337L493,338L492,338L491,337L486,342C484,345 480,349 479,350L477,353L478,354L478,355L476,355L476,391C476,411 476,427 477,427C478,428 477,451 476,453C476,455 474,457 473,459C469,463 470,465 474,467C476,469 478,470 478,472L479,474L481,474L480,484C480,495 478,503 475,506C474,507 471,509 468,510C462,511 446,513 445,512ZM579,511C576,509 574,507 573,501C572,496 572,496 576,492C578,490 580,488 581,488C583,486 587,486 588,487C588,487 590,488 591,489C595,490 597,494 598,500C599,505 599,505 594,510C592,512 590,513 587,513C584,513 581,512 579,511ZM257,307C256,306 255,306 254,307L253,307L253,306C253,306 250,304 245,302C237,297 233,293 233,289C233,283 239,282 248,285C263,290 274,301 269,306C267,308 260,309 257,307ZM604,305C602,303 601,301 601,298C601,292 603,289 608,287C615,284 627,287 628,292C628,295 625,300 620,304C617,305 615,307 615,307C615,307 613,308 610,308C607,308 606,307 604,305ZM53,263C49,259 49,254 52,251C53,249 55,249 58,249C62,249 63,249 64,251C69,256 65,264 59,265C56,265 55,265 53,263ZM698,425C695,423 695,422 695,420C696,417 698,416 701,416C703,416 705,417 705,420C706,422 706,423 704,425C702,427 701,428 701,428C701,428 699,427 698,425ZM691,392C684,388 682,377 687,371C689,368 690,367 695,367C704,367 709,371 708,381C708,386 706,389 701,392C696,394 696,394 691,392Z" style="fill:rgb(221,221,221);fill-rule:nonzero;"/>
    <path d="M448,511L456,511L460,512L445,512L448,511ZM476,351L476,341L477,343L477,348L476,351ZM627,294L627,291L628,292L628,294L627,294ZM614,286L618,286L620,287L612,287L614,286Z" style="fill:rgb(221,221,221);fill-rule:nonzero;"/>
    <path d="M450,511L456,511L460,512L447,512L450,511ZM613,286L617,286L619,287L612,287L613,286Z" style="fill:rgb(221,221,221);fill-rule:nonzero;"/>
</svg>
