<?xml version="1.0" standalone="no"?>

<!DOCTYPE svg PUBLIC "-//W3C//DTD SVG 20010904//EN"

 "http://www.w3.org/TR/2001/REC-SVG-20010904/DTD/svg10.dtd">

<svg version="1.0" xmlns="http://www.w3.org/2000/svg"

 width="800.000000pt" height="800.000000pt" viewBox="0 0 800.000000 800.000000"

 preserveAspectRatio="xMidYMid meet">

<path fill="#030304" stroke="none" d="
M41 521

C40 520 36 518 34 516

C31 512 30 510 30 507

C30 501 34 499 38 503

C39 505 41 507 43 508

C52 515 51 523 41 521

Z

M283 515

C260 510 244 501 234 485

C226 473 220 454 221 442

C222 438 222 436 225 433

C229 428 229 425 224 420

C220 417 220 416 220 408

C219 403 219 392 219 385

C219 377 219 360 218 348

C217 318 218 312 224 309

C228 307 236 308 243 312

C251 316 266 327 268 330

C271 334 272 343 273 374

C275 400 275 402 273 408

C272 411 270 416 268 418

C266 421 264 424 264 424

C264 425 266 426 268 428

C274 432 275 435 276 445

C278 464 289 475 306 474

C314 474 319 473 326 468

C334 463 335 459 336 442

C338 423 338 423 334 393

C332 380 333 374 337 367

C341 360 341 355 337 351

C333 347 331 341 331 333

C331 326 332 324 334 319

C337 312 337 311 337 304

C336 294 337 289 342 284

C348 278 353 277 366 277

C377 278 379 279 383 286

C385 290 385 294 387 306

C388 325 388 364 387 374

C386 383 384 385 380 390

C378 392 376 394 376 395

C376 396 378 398 380 401

C383 404 385 407 386 410

C388 415 387 444 385 456

C382 478 371 495 355 507

C348 511 337 515 327 516

C315 518 294 517 283 515

Z

M657 514

C638 512 631 509 624 502

C618 496 616 489 615 475

C615 462 615 461 608 451

C604 445 600 434 600 428

C600 422 601 418 607 409

C613 400 614 398 609 386

C606 379 606 378 606 366

C606 334 616 320 645 309

C657 305 660 303 670 294

C679 286 685 282 697 278

C723 268 762 285 774 311

C776 314 778 321 779 327

C780 336 780 340 779 361

C778 384 778 385 775 393

C771 402 771 410 774 416

C777 422 779 433 779 444

C779 463 775 475 764 486

C757 493 756 494 749 496

C738 500 735 500 726 499

C717 498 713 499 707 504

C703 509 699 511 691 513

C684 514 662 515 657 514

Z

M711 459

C722 457 730 451 734 440

C737 433 736 428 732 415

C727 402 727 396 730 387

C733 380 733 377 733 366

C733 350 732 341 728 336

C724 330 721 329 713 329

C707 329 706 329 702 331

C699 333 695 336 693 338

C690 340 685 344 681 347

C671 353 666 360 663 371

C660 379 660 383 663 401

C665 409 666 420 667 425

C669 441 673 450 683 456

C691 461 697 461 711 459

Z

M64 512

C53 508 39 495 35 488

C31 478 30 468 29 440

C28 410 28 404 32 399

C36 394 38 387 38 381

C38 374 37 370 33 364

C28 356 27 343 29 335

C30 333 33 329 35 326

C41 319 41 315 34 309

C28 303 27 300 27 293

C27 287 30 280 35 276

C38 274 41 274 52 273

C76 272 82 274 89 283

C92 287 92 288 92 293

C92 299 91 301 87 306

C82 312 82 314 87 322

C91 328 92 329 92 337

C92 347 91 354 86 360

C84 362 83 364 84 366

C84 368 91 376 92 376

C93 376 140 324 155 307

C163 298 170 295 177 297

C191 301 196 319 186 330

C156 366 138 388 138 389

C138 390 139 393 141 396

C146 403 192 462 197 468

C204 476 207 482 207 489

C207 496 205 500 200 504

C194 507 185 508 179 505

C174 503 173 501 143 464

C113 428 110 425 108 425

C105 425 94 439 89 446

C87 450 87 450 88 466

C90 498 89 507 82 512

C79 515 70 515 64 512

Z

M579 512

C575 509 572 504 572 500

C572 496 575 490 579 488

C587 483 599 490 599 500

C599 505 596 511 592 513

C588 515 583 514 579 512

Z

M439 512

C430 511 424 507 421 500

C418 494 418 494 418 480

C417 465 418 463 423 456

C426 453 425 449 423 446

C418 442 418 444 418 374

C418 297 417 303 429 291

C437 283 453 272 459 270

C464 268 470 269 473 273

C476 276 476 276 476 286

C476 297 477 302 480 302

C481 302 484 300 488 298

C496 292 505 287 511 284

C528 277 553 281 564 294

C571 301 576 313 578 324

C578 329 579 337 579 341

C579 361 570 379 556 386

C551 388 550 388 541 388

C532 388 531 388 529 390

C526 393 526 398 530 401

C533 404 533 404 537 403

C549 401 554 403 559 412

C561 415 566 424 571 432

C578 443 580 448 582 453

C585 468 582 477 570 483

C563 486 556 487 551 485

C545 482 538 474 525 452

C518 440 508 425 504 418

C499 411 494 403 493 400

C488 388 490 377 499 370

C504 366 508 366 515 367

C522 368 526 367 530 363

C537 355 534 339 524 332

C518 327 507 328 498 334

C492 337 483 346 480 351

C477 356 477 356 477 405

C478 454 478 454 474 458

C470 463 470 465 475 467

C480 469 481 473 481 485

C481 497 479 504 475 507

C469 512 455 514 439 512

Z

M248 304

C242 301 237 297 235 295

C227 286 235 279 249 284

C259 288 268 294 270 300

C271 304 271 305 269 307

C265 311 260 310 248 304

Z

M603 305

C598 300 599 291 606 287

C611 285 615 285 621 286

C629 288 631 292 627 298

C623 304 616 308 610 308

C607 308 605 307 603 305

Z

M52 263

C45 256 52 245 62 248

C67 250 69 258 64 263

C61 267 56 267 52 263

Z

M696 425

C694 423 694 422 694 420

C695 417 698 415 701 415

C703 415 706 417 707 420

C707 422 707 423 705 425

C703 427 701 428 701 428

C700 428 698 427 696 425

Z

M690 392

C681 388 681 372 690 368

C696 364 705 366 707 372

C708 374 709 377 709 380

C709 387 707 390 702 392

C697 394 694 394 690 392

Z

"/>

<path fill="#242a32" stroke="none" d="
M41 521

C40 520 36 518 34 516

C31 512 30 510 30 507

C30 501 34 499 38 503

C39 505 41 507 43 508

C52 515 51 523 41 521

Z

M283 515

C260 510 244 501 234 485

C226 473 220 454 221 442

C222 438 222 436 225 433

C229 428 229 425 224 420

C220 417 220 416 220 408

C219 403 219 392 219 385

C219 377 219 360 218 348

C217 318 218 312 224 309

C228 307 236 308 243 312

C251 316 266 327 268 330

C271 334 272 343 273 374

C275 400 275 402 273 408

C272 411 270 416 268 418

C266 421 264 424 264 424

C264 425 266 426 268 428

C274 432 275 435 276 445

C278 464 289 475 306 474

C314 474 319 473 326 468

C334 463 335 459 336 442

C338 423 338 423 334 393

C332 380 333 374 337 367

C341 360 341 355 337 351

C333 347 331 341 331 333

C331 326 332 324 334 319

C337 312 337 311 337 304

C336 294 337 289 342 284

C348 278 353 277 366 277

C377 278 379 279 383 286

C385 290 385 294 387 306

C388 325 388 364 387 374

C386 383 384 385 380 390

C378 392 376 394 376 395

C376 396 378 398 380 401

C383 404 385 407 386 410

C388 415 387 444 385 456

C382 478 371 495 355 507

C348 511 337 515 327 516

C315 518 294 517 283 515

Z

M657 514

C638 512 631 509 624 502

C618 496 616 489 615 475

C615 462 615 461 608 451

C604 445 600 434 600 428

C600 422 601 418 607 409

C613 400 614 398 609 386

C606 379 606 378 606 366

C606 334 616 320 645 309

C657 305 660 303 670 294

C679 286 685 282 697 278

C723 268 762 285 774 311

C776 314 778 321 779 327

C780 336 780 340 779 361

C778 384 778 385 775 393

C771 402 771 410 774 416

C777 422 779 433 779 444

C779 463 775 475 764 486

C757 493 756 494 749 496

C738 500 735 500 726 499

C717 498 713 499 707 504

C703 509 699 511 691 513

C684 514 662 515 657 514

Z

M711 459

C722 457 730 451 734 440

C737 433 736 428 732 415

C727 402 727 396 730 387

C733 380 733 377 733 366

C733 350 732 341 728 336

C724 330 721 329 713 329

C707 329 706 329 702 331

C699 333 695 336 693 338

C690 340 685 344 681 347

C671 353 666 360 663 371

C660 379 660 383 663 401

C665 409 666 420 667 425

C669 441 673 450 683 456

C691 461 697 461 711 459

Z

M64 512

C53 508 39 495 35 488

C31 478 30 468 29 440

C28 410 28 404 32 399

C36 394 38 387 38 381

C38 374 37 370 33 364

C28 356 27 343 29 335

C30 333 33 329 35 326

C41 319 41 315 34 309

C28 303 27 300 27 293

C27 287 30 280 35 276

C38 274 41 274 52 273

C76 272 82 274 89 283

C92 287 92 288 92 293

C92 299 91 301 87 306

C82 312 82 314 87 322

C91 328 92 329 92 337

C92 347 91 354 86 360

C84 362 83 364 84 366

C84 368 91 376 92 376

C93 376 140 324 155 307

C163 298 170 295 177 297

C191 301 196 319 186 330

C156 366 138 388 138 389

C138 390 139 393 141 396

C146 403 192 462 197 468

C204 476 207 482 207 489

C207 496 205 500 200 504

C194 507 185 508 179 505

C174 503 173 501 143 464

C113 428 110 425 108 425

C105 425 94 439 89 446

C87 450 87 450 88 466

C90 498 89 507 82 512

C79 515 70 515 64 512

Z

M579 512

C575 509 572 504 572 500

C572 496 575 490 579 488

C587 483 599 490 599 500

C599 505 596 511 592 513

C588 515 583 514 579 512

Z

M439 512

C430 511 424 507 421 500

C418 494 418 494 418 480

C417 465 418 463 423 456

C426 453 425 449 423 446

C418 442 418 444 418 374

C418 297 417 303 429 291

C437 283 453 272 459 270

C464 268 470 269 473 273

C476 276 476 276 476 286

C476 297 477 302 480 302

C481 302 484 300 488 298

C496 292 505 287 511 284

C528 277 553 281 564 294

C571 301 576 313 578 324

C578 329 579 337 579 341

C579 361 570 379 556 386

C551 388 550 388 541 388

C532 388 531 388 529 390

C526 393 526 398 530 401

C533 404 533 404 537 403

C549 401 554 403 559 412

C561 415 566 424 571 432

C578 443 580 448 582 453

C585 468 582 477 570 483

C563 486 556 487 551 485

C545 482 538 474 525 452

C518 440 508 425 504 418

C499 411 494 403 493 400

C488 388 490 377 499 370

C504 366 508 366 515 367

C522 368 526 367 530 363

C537 355 534 339 524 332

C518 327 507 328 498 334

C492 337 483 346 480 351

C477 356 477 356 477 405

C478 454 478 454 474 458

C470 463 470 465 475 467

C480 469 481 473 481 485

C481 497 479 504 475 507

C469 512 455 514 439 512

Z

M248 304

C242 301 237 297 235 295

C227 286 235 279 249 284

C259 288 268 294 270 300

C271 304 271 305 269 307

C265 311 260 310 248 304

Z

M603 305

C598 300 599 291 606 287

C611 285 615 285 621 286

C629 288 631 292 627 298

C623 304 616 308 610 308

C607 308 605 307 603 305

Z

M52 263

C45 256 52 245 62 248

C67 250 69 258 64 263

C61 267 56 267 52 263

Z

M696 425

C694 423 694 422 694 420

C695 417 698 415 701 415

C703 415 706 417 707 420

C707 422 707 423 705 425

C703 427 701 428 701 428

C700 428 698 427 696 425

Z

M690 392

C681 388 681 372 690 368

C696 364 705 366 707 372

C708 374 709 377 709 380

C709 387 707 390 702 392

C697 394 694 394 690 392

Z

"/>

<path fill="#687789" stroke="none" d="
M41 521

C40 520 36 518 34 516

C31 512 30 510 30 507

C30 501 34 499 38 503

C39 505 41 507 43 508

C52 515 51 523 41 521

Z

M283 515

C260 510 244 501 234 485

C226 473 220 454 221 442

C222 438 222 436 225 433

C229 428 229 425 224 420

C220 417 220 416 220 408

C219 403 219 392 219 385

C219 377 219 360 218 348

C217 318 218 312 224 309

C228 307 236 308 243 312

C251 316 266 327 268 330

C271 334 272 343 273 374

C275 400 275 402 273 408

C272 411 270 416 268 418

C266 421 264 424 264 424

C264 425 266 426 268 428

C274 432 275 435 276 445

C278 464 289 475 306 474

C314 474 319 473 326 468

C334 463 335 459 336 442

C338 423 338 423 334 393

C332 380 333 374 337 367

C341 360 341 355 337 351

C333 347 331 341 331 333

C331 326 332 324 334 319

C337 312 337 311 337 304

C336 294 337 289 342 284

C348 278 353 277 366 277

C377 278 379 279 383 286

C385 290 385 294 387 306

C388 325 388 364 387 374

C386 383 384 385 380 390

C378 392 376 394 376 395

C376 396 378 398 380 401

C383 404 385 407 386 410

C388 415 387 444 385 456

C382 478 371 495 355 507

C348 511 337 515 327 516

C315 518 294 517 283 515

Z

M657 514

C638 512 631 509 624 502

C618 496 616 489 615 475

C615 462 615 461 608 451

C604 445 600 434 600 428

C600 422 601 418 607 409

C613 400 614 398 609 386

C606 379 606 378 606 366

C606 334 616 320 645 309

C657 305 660 303 670 294

C679 286 685 282 697 278

C723 268 762 285 774 311

C776 314 778 321 779 327

C780 336 780 340 779 361

C778 384 778 385 775 393

C771 402 771 410 774 416

C777 422 779 433 779 444

C779 463 775 475 764 486

C757 493 756 494 749 496

C738 500 735 500 726 499

C717 498 713 499 707 504

C703 509 699 511 691 513

C684 514 662 515 657 514

Z

M711 459

C722 457 730 451 734 440

C737 433 736 428 732 415

C727 402 727 396 730 387

C733 380 733 377 733 366

C733 350 732 341 728 336

C724 330 721 329 713 329

C707 329 706 329 702 331

C699 333 695 336 693 338

C690 340 685 344 681 347

C671 353 666 360 663 371

C660 379 660 383 663 401

C665 409 666 420 667 425

C669 441 673 450 683 456

C691 461 697 461 711 459

Z

M64 512

C53 508 39 495 35 488

C31 478 30 468 29 440

C28 410 28 404 32 399

C36 394 38 387 38 381

C38 374 37 370 33 364

C28 356 27 343 29 335

C30 333 33 329 35 326

C41 319 41 315 34 309

C28 303 27 300 27 293

C27 287 30 280 35 276

C38 274 41 274 52 273

C76 272 82 274 89 283

C92 287 92 288 92 293

C92 299 91 301 87 306

C82 312 82 314 87 322

C91 328 92 329 92 337

C92 347 91 354 86 360

C84 362 83 364 84 366

C84 368 91 376 92 376

C93 376 140 324 155 307

C163 298 170 295 177 297

C191 301 196 319 186 330

C156 366 138 388 138 389

C138 390 139 393 141 396

C146 403 192 462 197 468

C204 476 207 482 207 489

C207 496 205 500 200 504

C194 507 185 508 179 505

C174 503 173 501 143 464

C113 428 110 425 108 425

C105 425 94 439 89 446

C87 450 87 450 88 466

C90 498 89 507 82 512

C79 515 70 515 64 512

Z

M579 512

C575 509 572 504 572 500

C572 496 575 490 579 488

C587 483 599 490 599 500

C599 505 596 511 592 513

C588 515 583 514 579 512

Z

M439 512

C430 511 424 507 421 500

C418 494 418 494 418 480

C417 465 418 463 423 456

C426 453 425 449 423 446

C418 442 418 444 418 374

C418 297 417 303 429 291

C437 283 453 272 459 270

C464 268 470 269 473 273

C476 276 476 276 476 286

C476 297 477 302 480 302

C481 302 484 300 488 298

C496 292 505 287 511 284

C528 277 553 281 564 294

C571 301 576 313 578 324

C578 329 579 337 579 341

C579 361 570 379 556 386

C551 388 550 388 541 388

C532 388 531 388 529 390

C526 393 526 398 530 401

C533 404 533 404 537 403

C549 401 554 403 559 412

C561 415 566 424 571 432

C578 443 580 448 582 453

C585 468 582 477 570 483

C563 486 556 487 551 485

C545 482 538 474 525 452

C518 440 508 425 504 418

C499 411 494 403 493 400

C488 388 490 377 499 370

C504 366 508 366 515 367

C522 368 526 367 530 363

C537 355 534 339 524 332

C518 327 507 328 498 334

C492 337 483 346 480 351

C477 356 477 356 477 405

C478 454 478 454 474 458

C470 463 470 465 475 467

C480 469 481 473 481 485

C481 497 479 504 475 507

C469 512 455 514 439 512

Z

M248 304

C242 301 237 297 235 295

C227 286 235 279 249 284

C259 288 268 294 270 300

C271 304 271 305 269 307

C265 311 260 310 248 304

Z

M603 305

C598 300 599 291 606 287

C611 285 615 285 621 286

C629 288 631 292 627 298

C623 304 616 308 610 308

C607 308 605 307 603 305

Z

M52 263

C45 256 52 245 62 248

C67 250 69 258 64 263

C61 267 56 267 52 263

Z

M696 425

C694 423 694 422 694 420

C695 417 698 415 701 415

C703 415 706 417 707 420

C707 422 707 423 705 425

C703 427 701 428 701 428

C700 428 698 427 696 425

Z

M690 392

C681 388 681 372 690 368

C696 364 705 366 707 372

C708 374 709 377 709 380

C709 387 707 390 702 392

C697 394 694 394 690 392

Z

"/>

<path fill="#ff9f00" stroke="none" d="
M36 516

C31 511 31 511 31 507

L32 503

L33 502

C34 502 36 503 38 505

C40 506 42 509 44 511

C47 513 48 515 48 517

L48 520

L44 520

C40 521 40 520 36 516

Z

M292 516

L292 515

L289 515

L287 516

L286 515

C286 514 284 514 282 513

C276 513 275 512 273 512

C272 511 269 510 267 509

C258 507 240 495 240 493

C240 492 233 483 232 482

L231 481

L231 481

C231 480 225 462 223 459

C223 458 222 456 223 455

C223 454 223 452 222 451

C220 449 222 438 225 433

C227 431 228 428 228 427

C229 424 229 423 225 420

C221 417 221 416 221 411

C221 408 221 406 220 406

C219 405 219 390 220 388

C221 387 221 385 220 385

C220 384 219 379 220 373

C220 366 219 361 219 361

C219 360 218 353 218 346

C218 339 218 331 218 329

L217 325

L218 325

C219 324 219 322 219 320

C219 316 220 315 222 312

C225 309 225 309 231 309

C239 310 240 310 242 312

L243 313

L244 312

L245 312

L245 313

L245 314

L247 315

C248 315 250 316 252 318

L255 320

L255 319

L255 319

L257 321

L258 323

L259 322

L260 322

L260 323

C260 324 262 325 264 327

C266 328 268 330 268 330

C270 336 271 341 270 341

C270 342 270 342 271 343

C271 344 272 351 272 364

C272 369 272 373 273 373

C273 374 273 378 273 383

C273 389 273 393 274 394

C275 395 274 404 273 407

C273 407 272 409 271 411

C270 413 269 416 268 417

C267 418 266 419 266 420

L266 421

L265 421

L264 421

L264 423

L263 424

L265 427

L268 429

L268 428

L268 428

L271 431

C273 434 274 437 274 439

C275 442 275 446 275 449

C276 455 279 461 284 466

C288 470 294 474 296 474

L297 473

L298 474

L298 475

L299 475

L300 474

L300 475

C302 478 322 473 325 469

C326 468 327 467 327 467

C331 467 337 459 336 455

L335 453

L336 453

L337 453

L337 447

C337 444 337 441 337 440

C338 437 339 425 338 424

L337 423

L338 422

C339 421 339 420 338 417

C337 416 337 414 337 413

C337 410 334 384 333 384

L332 383

L333 382

C333 381 334 379 334 377

C334 376 336 371 337 367

C342 359 342 355 338 351

C333 344 332 343 332 332

L332 324

L332 324

C332 324 334 321 335 318

C338 313 339 305 337 303

C336 301 337 296 337 294

C338 293 338 292 338 291

L337 290

L338 290

C338 290 340 288 341 286

C345 280 351 278 362 278

C366 278 369 278 370 278

C370 279 371 279 373 279

C377 279 382 284 383 289

L384 294

L385 294

L386 294

L385 300

C385 303 385 306 386 306

C386 307 386 309 386 312

C386 315 387 317 387 317

C388 318 387 369 387 370

C386 371 386 372 386 373

L387 376

L386 376

C385 377 385 378 385 379

C385 382 383 385 379 390

C377 392 375 394 375 395

C375 396 377 398 379 401

C382 404 384 407 385 410

C386 414 387 447 386 449

C385 449 385 452 385 455

C384 458 384 461 384 462

C383 463 383 464 383 466

C382 471 374 488 370 491

C369 493 368 494 368 495

L367 497

L366 497

C365 497 363 499 361 501

C359 503 357 505 357 505

C356 505 354 506 352 507

C349 509 345 511 342 512

L336 513

L336 514

L336 515

L329 515

C326 515 322 515 322 516

C321 516 293 517 292 516

Z

M659 514

C659 513 657 513 655 513

C654 514 652 513 651 513

L651 512

L649 512

L647 513

L647 512

C646 512 644 511 642 511

C640 510 636 509 634 508

L630 506

L629 506

L629 507

L625 501

C622 498 620 494 619 492

C618 490 617 488 617 488

C617 487 617 486 617 484

C617 483 617 482 616 482

C615 481 615 473 616 471

L617 470

L616 469

C616 468 615 467 616 465

C616 463 615 461 612 456

C607 448 603 440 602 436

L602 433

L601 433

L600 433

L601 426

C602 423 602 419 602 418

L602 416

L603 416

C603 416 606 413 609 409

C614 400 614 398 610 387

C608 383 607 378 607 376

C607 375 607 373 606 373

C606 372 606 369 606 366

L606 360

L606 360

L607 360

L607 356

C607 354 608 349 609 344

C612 334 618 325 626 319

C634 314 638 312 639 312

C640 312 651 308 657 305

C659 304 665 300 669 296

C678 287 683 284 693 280

C697 279 701 277 703 277

C705 276 717 276 719 276

C720 277 723 277 725 277

C739 279 758 290 766 300

C770 305 775 312 774 313

L774 314

L775 314

L776 314

L776 315

C775 316 778 331 779 333

C780 335 780 353 779 355

C778 355 778 361 778 367

C778 373 778 378 778 378

C778 378 778 380 777 381

C777 385 774 394 773 396

C773 396 772 399 771 402

C770 407 770 409 772 412

C776 425 777 427 777 429

C777 430 777 431 778 431

C778 432 779 434 778 435

C778 437 778 439 779 439

C780 440 780 449 779 450

L778 450

L778 454

L779 457

L778 457

C778 458 777 460 777 462

C776 465 774 469 773 473

C769 479 761 490 760 490

C759 490 758 491 757 491

C755 493 742 498 738 498

L736 498

L736 499

L736 500

L734 500

C732 500 731 500 730 499

C730 498 728 498 726 498

C725 498 723 498 722 498

C720 496 711 499 707 504

C705 506 702 507 701 508

L698 509

L698 510

L698 511

L695 511

C694 511 692 511 691 512

C690 512 689 512 688 512

C687 512 686 512 686 513

C685 513 683 514 681 513

C680 513 677 513 677 514

C675 515 660 515 659 514

Z

M700 461

C701 461 703 461 707 460

C714 460 721 458 726 453

C730 450 736 442 735 440

L734 439

L735 439

L736 438

L737 433

C737 428 734 415 732 414

L731 414

L731 413

C732 412 731 406 729 403

C728 400 729 394 732 386

C734 380 734 377 734 373

C733 370 734 368 734 367

L735 366

L734 364

C734 363 734 360 734 356

C734 353 734 350 733 350

L732 349

L733 347

L733 344

L732 344

L731 344

L732 342

C732 341 731 338 725 332

C722 329 720 328 716 328

C713 327 709 327 707 328

C703 329 697 333 697 334

L697 335

L696 335

L696 334

L692 338

C689 340 684 344 680 347

C674 351 671 354 668 358

C663 365 660 375 660 382

C660 387 664 412 665 414

C666 414 666 417 665 419

C665 422 665 424 666 424

C667 425 667 427 667 428

L666 431

L667 431

L668 431

L668 433

C667 436 671 445 675 450

L679 455

L680 455

L680 454

L682 456

L684 458

L685 458

L686 457

L686 458

C686 459 689 460 692 460

C699 462 700 462 700 461

Z

M70 513

C69 513 69 513 68 513

C58 511 40 496 36 487

C34 482 31 468 31 463

C31 460 31 458 30 458

C30 457 30 451 30 444

C30 438 30 431 29 431

C29 430 29 425 29 419

L29 409

L29 409

L30 409

L30 405

C31 400 31 400 34 397

L36 395

L35 394

L35 393

L36 393

L37 393

L38 390

C39 388 39 385 39 384

C39 383 39 382 39 381

C40 380 40 378 39 377

C39 376 39 374 39 373

C38 372 38 370 37 370

L36 369

L36 368

L37 368

L35 364

C30 357 27 343 30 337

C30 335 31 334 31 333

C31 333 33 330 36 326

C42 319 42 315 35 309

C29 303 28 300 28 294

C28 283 35 275 44 275

C47 275 49 275 50 274

C50 273 55 273 62 273

L73 273

L73 274

L73 275

L76 275

C79 275 83 277 87 282

C90 286 91 287 91 293

L92 299

L91 299

C90 300 86 306 86 307

L86 308

L84 308

L83 309

L83 311

L84 312

L83 312

L82 312

L82 314

C82 315 84 318 86 322

C90 328 91 329 91 337

C91 347 90 352 86 359

C81 365 82 367 88 373

L92 377

L98 371

C101 368 104 365 104 365

C104 364 106 362 109 359

C112 357 114 354 114 354

C114 353 116 351 119 348

C122 346 124 343 124 343

C124 342 126 340 128 338

L133 334

L132 333

L132 332

L133 331

C134 331 139 326 145 320

C161 302 163 300 168 298

C171 297 173 297 176 298

C178 298 180 299 181 299

C185 300 190 309 190 316

C190 322 189 325 185 330

C183 332 182 334 182 334

C182 334 180 337 177 341

C173 344 171 347 171 347

C171 347 169 350 166 354

C162 357 160 360 160 360

C160 360 158 363 155 367

C151 370 149 373 149 373

C149 374 148 375 146 377

L143 379

L143 380

L144 380

L141 383

L138 385

L139 386

L139 387

L138 387

L137 387

L137 389

C137 391 142 399 143 399

L144 399

L144 400

C143 401 156 417 157 417

L158 417

L158 418

L157 419

L161 423

L165 427

L164 427

L164 428

L168 432

L172 436

L171 436

L171 436

L176 442

C178 445 181 448 181 448

L182 448

L182 449

L181 450

L184 452

L186 454

L186 454

L185 454

L189 460

C192 463 195 467 196 467

C197 468 198 469 199 471

C205 481 205 482 206 488

L206 495

L205 495

L204 495

L205 496

L205 498

L202 501

C198 504 194 506 188 506

C182 506 178 504 172 499

L168 495

L168 494

L168 494

L146 466

C133 451 122 439 122 439

L121 439

L121 438

C122 436 110 424 108 424

C106 424 101 429 100 431

C100 432 99 433 97 435

C96 436 93 439 90 442

C87 447 87 449 86 454

C86 458 86 461 87 461

C87 462 88 465 87 468

C87 472 87 475 88 475

C88 476 88 482 88 489

C88 502 86 508 83 511

C81 512 70 514 70 513

Z

M445 512

C445 512 442 511 439 511

C430 510 425 506 421 499

C419 494 418 492 419 489

C419 487 419 485 419 484

C418 483 418 479 418 476

L417 469

L418 469

L419 469

L419 467

C419 465 421 459 424 457

C425 456 425 453 426 452

C426 449 426 448 424 446

C419 442 419 443 419 374

C419 338 419 309 419 308

C420 307 422 300 422 299

L422 299

L424 297

L427 295

L426 295

L425 295

L429 291

C432 288 434 287 434 287

L435 287

L437 285

L438 282

L439 283

L440 283

L441 281

L442 279

L443 279

L443 280

L449 276

C452 274 457 272 459 271

C464 269 470 270 473 273

C475 276 475 277 475 287

C475 305 477 306 491 297

C496 293 503 289 506 287

C509 286 512 284 512 284

L512 283

L514 284

L515 284

L515 283

L515 283

L520 282

L526 282

L526 281

L526 280

L530 280

L533 280

L533 281

L533 282

L539 282

C548 283 562 290 566 297

C571 304 575 315 576 323

C577 327 578 331 578 331

C578 332 578 337 577 357

C577 358 576 360 576 360

C576 360 574 363 573 366

C570 374 564 380 558 384

L553 387

L553 386

L552 386

L552 387

L552 388

L550 387

C549 387 547 387 545 388

C543 389 542 389 541 388

C538 386 532 387 529 389

C525 392 526 400 531 404

C534 405 535 405 540 404

C548 402 553 404 556 408

C557 409 558 411 559 412

L560 413

L559 413

L559 414

L569 430

C574 439 579 447 580 449

L580 452

L581 452

L582 452

L582 460

C582 467 582 469 580 472

L578 476

L579 476

L579 476

L576 478

C574 480 572 481 570 482

L567 483

L567 484

L567 485

L561 485

C558 485 553 485 552 484

C548 483 537 472 536 469

C536 468 535 467 535 466

C534 466 533 465 533 464

C533 462 530 458 529 458

L528 458

L528 457

C528 455 525 450 524 450

L523 450

L523 449

C523 447 505 418 504 418

L503 418

L503 417

C503 415 500 410 499 410

L498 410

L498 409

C498 409 497 405 495 401

C488 388 490 378 500 371

C504 368 505 367 511 367

C515 367 519 368 519 368

L520 369

L523 368

C531 365 536 357 534 347

C533 341 532 339 530 339

L529 338

L529 337

L530 336

L527 333

C522 329 519 328 517 329

C516 329 514 329 514 328

C513 327 511 327 510 328

L507 328

L507 329

L507 330

L506 329

L504 329

L504 330

L504 331

L503 331

C502 330 494 335 493 337

L493 338

L492 338

L491 337

L486 342

C484 345 480 349 479 350

L477 353

L478 354

L478 355

L477 355

L476 355

L476 391

C476 411 476 427 477 427

C478 428 477 451 476 453

C476 455 474 457 473 459

C469 463 470 465 474 467

C476 469 478 470 478 472

L479 474

L480 474

L481 474

L480 484

C480 495 478 503 475 506

C474 507 471 509 468 510

C462 511 446 513 445 512

Z

M579 511

C576 509 574 507 573 501

C572 496 572 496 576 492

C578 490 580 488 581 488

C583 486 587 486 588 487

C588 487 590 488 591 489

C595 490 597 494 598 500

C599 505 599 505 594 510

C592 512 590 513 587 513

C584 513 581 512 579 511

Z

M257 307

C256 306 255 306 254 307

L253 307

L253 306

C253 306 250 304 245 302

C237 297 233 293 233 289

C233 283 239 282 248 285

C263 290 274 301 269 306

C267 308 260 309 257 307

Z

M604 305

C602 303 601 301 601 298

C601 292 603 289 608 287

C615 284 627 287 628 292

C628 295 625 300 620 304

C617 305 615 307 615 307

C615 307 613 308 610 308

C607 308 606 307 604 305

Z

M53 263

C49 259 49 254 52 251

C53 249 55 249 58 249

C62 249 63 249 64 251

C69 256 65 264 59 265

C56 265 55 265 53 263

Z

M698 425

C695 423 695 422 695 420

C696 417 698 416 701 416

C703 416 705 417 705 420

C706 422 706 423 704 425

C702 427 701 428 701 428

C701 428 699 427 698 425

Z

M691 392

C684 388 682 377 687 371

C689 368 690 367 695 367

C704 367 709 371 708 381

C708 386 706 389 701 392

C696 394 696 394 691 392

Z

"/>

<path fill="#889eb9" stroke="none" d="
M36 516

C31 511 31 511 31 507

L32 503

L33 502

C34 502 36 503 38 505

C40 506 42 509 44 511

C47 513 48 515 48 517

L48 520

L44 520

C40 521 40 520 36 516

Z

M292 516

L292 515

L289 515

L287 516

L286 515

C286 514 284 514 282 513

C276 513 275 512 273 512

C272 511 269 510 267 509

C258 507 240 495 240 493

C240 492 233 483 232 482

L231 481

L231 481

C231 480 225 462 223 459

C223 458 222 456 223 455

C223 454 223 452 222 451

C220 449 222 438 225 433

C227 431 228 428 228 427

C229 424 229 423 225 420

C221 417 221 416 221 411

C221 408 221 406 220 406

C219 405 219 390 220 388

C221 387 221 385 220 385

C220 384 219 379 220 373

C220 366 219 361 219 361

C219 360 218 353 218 346

C218 339 218 331 218 329

L217 325

L218 325

C219 324 219 322 219 320

C219 316 220 315 222 312

C225 309 225 309 231 309

C239 310 240 310 242 312

L243 313

L244 312

L245 312

L245 313

L245 314

L247 315

C248 315 250 316 252 318

L255 320

L255 319

L255 319

L257 321

L258 323

L259 322

L260 322

L260 323

C260 324 262 325 264 327

C266 328 268 330 268 330

C270 336 271 341 270 341

C270 342 270 342 271 343

C271 344 272 351 272 364

C272 369 272 373 273 373

C273 374 273 378 273 383

C273 389 273 393 274 394

C275 395 274 404 273 407

C273 407 272 409 271 411

C270 413 269 416 268 417

C267 418 266 419 266 420

L266 421

L265 421

L264 421

L264 423

L263 424

L265 427

L268 429

L268 428

L268 428

L271 431

C273 434 274 437 274 439

C275 442 275 446 275 449

C276 455 279 461 284 466

C288 470 294 474 296 474

L297 473

L298 474

L298 475

L299 475

L300 474

L300 475

C302 478 322 473 325 469

C326 468 327 467 327 467

C331 467 337 459 336 455

L335 453

L336 453

L337 453

L337 447

C337 444 337 441 337 440

C338 437 339 425 338 424

L337 423

L338 422

C339 421 339 420 338 417

C337 416 337 414 337 413

C337 410 334 384 333 384

L332 383

L333 382

C333 381 334 379 334 377

C334 376 336 371 337 367

C342 359 342 355 338 351

C333 344 332 343 332 332

L332 324

L332 324

C332 324 334 321 335 318

C338 313 339 305 337 303

C336 301 337 296 337 294

C338 293 338 292 338 291

L337 290

L338 290

C338 290 340 288 341 286

C345 280 351 278 362 278

C366 278 369 278 370 278

C370 279 371 279 373 279

C377 279 382 284 383 289

L384 294

L385 294

L386 294

L385 300

C385 303 385 306 386 306

C386 307 386 309 386 312

C386 315 387 317 387 317

C388 318 387 369 387 370

C386 371 386 372 386 373

L387 376

L386 376

C385 377 385 378 385 379

C385 382 383 385 379 390

C377 392 375 394 375 395

C375 396 377 398 379 401

C382 404 384 407 385 410

C386 414 387 447 386 449

C385 449 385 452 385 455

C384 458 384 461 384 462

C383 463 383 464 383 466

C382 471 374 488 370 491

C369 493 368 494 368 495

L367 497

L366 497

C365 497 363 499 361 501

C359 503 357 505 357 505

C356 505 354 506 352 507

C349 509 345 511 342 512

L336 513

L336 514

L336 515

L329 515

C326 515 322 515 322 516

C321 516 293 517 292 516

Z

M659 514

C659 513 657 513 655 513

C654 514 652 513 651 513

L651 512

L649 512

L647 513

L647 512

C646 512 644 511 642 511

C640 510 636 509 634 508

L630 506

L629 506

L629 507

L625 501

C622 498 620 494 619 492

C618 490 617 488 617 488

C617 487 617 486 617 484

C617 483 617 482 616 482

C615 481 615 473 616 471

L617 470

L616 469

C616 468 615 467 616 465

C616 463 615 461 612 456

C607 448 603 440 602 436

L602 433

L601 433

L600 433

L601 426

C602 423 602 419 602 418

L602 416

L603 416

C603 416 606 413 609 409

C614 400 614 398 610 387

C608 383 607 378 607 376

C607 375 607 373 606 373

C606 372 606 369 606 366

L606 360

L606 360

L607 360

L607 356

C607 354 608 349 609 344

C612 334 618 325 626 319

C634 314 638 312 639 312

C640 312 651 308 657 305

C659 304 665 300 669 296

C678 287 683 284 693 280

C697 279 701 277 703 277

C705 276 717 276 719 276

C720 277 723 277 725 277

C739 279 758 290 766 300

C770 305 775 312 774 313

L774 314

L775 314

L776 314

L776 315

C775 316 778 331 779 333

C780 335 780 353 779 355

C778 355 778 361 778 367

C778 373 778 378 778 378

C778 378 778 380 777 381

C777 385 774 394 773 396

C773 396 772 399 771 402

C770 407 770 409 772 412

C776 425 777 427 777 429

C777 430 777 431 778 431

C778 432 779 434 778 435

C778 437 778 439 779 439

C780 440 780 449 779 450

L778 450

L778 454

L779 457

L778 457

C778 458 777 460 777 462

C776 465 774 469 773 473

C769 479 761 490 760 490

C759 490 758 491 757 491

C755 493 742 498 738 498

L736 498

L736 499

L736 500

L734 500

C732 500 731 500 730 499

C730 498 728 498 726 498

C725 498 723 498 722 498

C720 496 711 499 707 504

C705 506 702 507 701 508

L698 509

L698 510

L698 511

L695 511

C694 511 692 511 691 512

C690 512 689 512 688 512

C687 512 686 512 686 513

C685 513 683 514 681 513

C680 513 677 513 677 514

C675 515 660 515 659 514

Z

M700 461

C701 461 703 461 707 460

C714 460 721 458 726 453

C730 450 736 442 735 440

L734 439

L735 439

L736 438

L737 433

C737 428 734 415 732 414

L731 414

L731 413

C732 412 731 406 729 403

C728 400 729 394 732 386

C734 380 734 377 734 373

C733 370 734 368 734 367

L735 366

L734 364

C734 363 734 360 734 356

C734 353 734 350 733 350

L732 349

L733 347

L733 344

L732 344

L731 344

L732 342

C732 341 731 338 725 332

C722 329 720 328 716 328

C713 327 709 327 707 328

C703 329 697 333 697 334

L697 335

L696 335

L696 334

L692 338

C689 340 684 344 680 347

C674 351 671 354 668 358

C663 365 660 375 660 382

C660 387 664 412 665 414

C666 414 666 417 665 419

C665 422 665 424 666 424

C667 425 667 427 667 428

L666 431

L667 431

L668 431

L668 433

C667 436 671 445 675 450

L679 455

L680 455

L680 454

L682 456

L684 458

L685 458

L686 457

L686 458

C686 459 689 460 692 460

C699 462 700 462 700 461

Z

M70 513

C69 513 69 513 68 513

C58 511 40 496 36 487

C34 482 31 468 31 463

C31 460 31 458 30 458

C30 457 30 451 30 444

C30 438 30 431 29 431

C29 430 29 425 29 419

L29 409

L29 409

L30 409

L30 405

C31 400 31 400 34 397

L36 395

L35 394

L35 393

L36 393

L37 393

L38 390

C39 388 39 385 39 384

C39 383 39 382 39 381

C40 380 40 378 39 377

C39 376 39 374 39 373

C38 372 38 370 37 370

L36 369

L36 368

L37 368

L35 364

C30 357 27 343 30 337

C30 335 31 334 31 333

C31 333 33 330 36 326

C42 319 42 315 35 309

C29 303 28 300 28 294

C28 283 35 275 44 275

C47 275 49 275 50 274

C50 273 55 273 62 273

L73 273

L73 274

L73 275

L76 275

C79 275 83 277 87 282

C90 286 91 287 91 293

L92 299

L91 299

C90 300 86 306 86 307

L86 308

L84 308

L83 309

L83 311

L84 312

L83 312

L82 312

L82 314

C82 315 84 318 86 322

C90 328 91 329 91 337

C91 347 90 352 86 359

C81 365 82 367 88 373

L92 377

L98 371

C101 368 104 365 104 365

C104 364 106 362 109 359

C112 357 114 354 114 354

C114 353 116 351 119 348

C122 346 124 343 124 343

C124 342 126 340 128 338

L133 334

L132 333

L132 332

L133 331

C134 331 139 326 145 320

C161 302 163 300 168 298

C171 297 173 297 176 298

C178 298 180 299 181 299

C185 300 190 309 190 316

C190 322 189 325 185 330

C183 332 182 334 182 334

C182 334 180 337 177 341

C173 344 171 347 171 347

C171 347 169 350 166 354

C162 357 160 360 160 360

C160 360 158 363 155 367

C151 370 149 373 149 373

C149 374 148 375 146 377

L143 379

L143 380

L144 380

L141 383

L138 385

L139 386

L139 387

L138 387

L137 387

L137 389

C137 391 142 399 143 399

L144 399

L144 400

C143 401 156 417 157 417

L158 417

L158 418

L157 419

L161 423

L165 427

L164 427

L164 428

L168 432

L172 436

L171 436

L171 436

L176 442

C178 445 181 448 181 448

L182 448

L182 449

L181 450

L184 452

L186 454

L186 454

L185 454

L189 460

C192 463 195 467 196 467

C197 468 198 469 199 471

C205 481 205 482 206 488

L206 495

L205 495

L204 495

L205 496

L205 498

L202 501

C198 504 194 506 188 506

C182 506 178 504 172 499

L168 495

L168 494

L168 494

L146 466

C133 451 122 439 122 439

L121 439

L121 438

C122 436 110 424 108 424

C106 424 101 429 100 431

C100 432 99 433 97 435

C96 436 93 439 90 442

C87 447 87 449 86 454

C86 458 86 461 87 461

C87 462 88 465 87 468

C87 472 87 475 88 475

C88 476 88 482 88 489

C88 502 86 508 83 511

C81 512 70 514 70 513

Z

M445 512

C445 512 442 511 439 511

C430 510 425 506 421 499

C419 494 418 492 419 489

C419 487 419 485 419 484

C418 483 418 479 418 476

L417 469

L418 469

L419 469

L419 467

C419 465 421 459 424 457

C425 456 425 453 426 452

C426 449 426 448 424 446

C419 442 419 443 419 374

C419 338 419 309 419 308

C420 307 422 300 422 299

L422 299

L424 297

L427 295

L426 295

L425 295

L429 291

C432 288 434 287 434 287

L435 287

L437 285

L438 282

L439 283

L440 283

L441 281

L442 279

L443 279

L443 280

L449 276

C452 274 457 272 459 271

C464 269 470 270 473 273

C475 276 475 277 475 287

C475 305 477 306 491 297

C496 293 503 289 506 287

C509 286 512 284 512 284

L512 283

L514 284

L515 284

L515 283

L515 283

L520 282

L526 282

L526 281

L526 280

L530 280

L533 280

L533 281

L533 282

L539 282

C548 283 562 290 566 297

C571 304 575 315 576 323

C577 327 578 331 578 331

C578 332 578 337 577 357

C577 358 576 360 576 360

C576 360 574 363 573 366

C570 374 564 380 558 384

L553 387

L553 386

L552 386

L552 387

L552 388

L550 387

C549 387 547 387 545 388

C543 389 542 389 541 388

C538 386 532 387 529 389

C525 392 526 400 531 404

C534 405 535 405 540 404

C548 402 553 404 556 408

C557 409 558 411 559 412

L560 413

L559 413

L559 414

L569 430

C574 439 579 447 580 449

L580 452

L581 452

L582 452

L582 460

C582 467 582 469 580 472

L578 476

L579 476

L579 476

L576 478

C574 480 572 481 570 482

L567 483

L567 484

L567 485

L561 485

C558 485 553 485 552 484

C548 483 537 472 536 469

C536 468 535 467 535 466

C534 466 533 465 533 464

C533 462 530 458 529 458

L528 458

L528 457

C528 455 525 450 524 450

L523 450

L523 449

C523 447 505 418 504 418

L503 418

L503 417

C503 415 500 410 499 410

L498 410

L498 409

C498 409 497 405 495 401

C488 388 490 378 500 371

C504 368 505 367 511 367

C515 367 519 368 519 368

L520 369

L523 368

C531 365 536 357 534 347

C533 341 532 339 530 339

L529 338

L529 337

L530 336

L527 333

C522 329 519 328 517 329

C516 329 514 329 514 328

C513 327 511 327 510 328

L507 328

L507 329

L507 330

L506 329

L504 329

L504 330

L504 331

L503 331

C502 330 494 335 493 337

L493 338

L492 338

L491 337

L486 342

C484 345 480 349 479 350

L477 353

L478 354

L478 355

L477 355

L476 355

L476 391

C476 411 476 427 477 427

C478 428 477 451 476 453

C476 455 474 457 473 459

C469 463 470 465 474 467

C476 469 478 470 478 472

L479 474

L480 474

L481 474

L480 484

C480 495 478 503 475 506

C474 507 471 509 468 510

C462 511 446 513 445 512

Z

M579 511

C576 509 574 507 573 501

C572 496 572 496 576 492

C578 490 580 488 581 488

C583 486 587 486 588 487

C588 487 590 488 591 489

C595 490 597 494 598 500

C599 505 599 505 594 510

C592 512 590 513 587 513

C584 513 581 512 579 511

Z

M257 307

C256 306 255 306 254 307

L253 307

L253 306

C253 306 250 304 245 302

C237 297 233 293 233 289

C233 283 239 282 248 285

C263 290 274 301 269 306

C267 308 260 309 257 307

Z

M604 305

C602 303 601 301 601 298

C601 292 603 289 608 287

C615 284 627 287 628 292

C628 295 625 300 620 304

C617 305 615 307 615 307

C615 307 613 308 610 308

C607 308 606 307 604 305

Z

M53 263

C49 259 49 254 52 251

C53 249 55 249 58 249

C62 249 63 249 64 251

C69 256 65 264 59 265

C56 265 55 265 53 263

Z

M698 425

C695 423 695 422 695 420

C696 417 698 416 701 416

C703 416 705 417 705 420

C706 422 706 423 704 425

C702 427 701 428 701 428

C701 428 699 427 698 425

Z

M691 392

C684 388 682 377 687 371

C689 368 690 367 695 367

C704 367 709 371 708 381

C708 386 706 389 701 392

C696 394 696 394 691 392

Z

"/>

<path fill="#91a7c1" stroke="none" d="
M448 511

C450 511 454 511 456 511

L460 512

L452 512

L445 512

L448 511

Z

M476 346

L476 341

L477 343

C477 345 477 347 477 348

L476 351

L476 346

Z

M627 292

L627 291

L628 292

L628 293

L628 294

L627 294

L627 292

Z

M614 286

C615 286 617 286 618 286

L620 287

L616 287

L612 287

L614 286

Z

"/>

<path fill="#a1b6cf" stroke="none" d="
M450 511

C452 511 454 511 456 511

L460 512

L453 512

L447 512

L450 511

Z

M613 286

C614 286 616 286 617 286

L619 287

L615 287

L612 287

L613 286

Z

"/>

<path fill="#ffffff" stroke="none" d="
"/>

</svg>

