<?xml version="1.0" encoding="UTF-8" standalone="no"?>
<!DOCTYPE svg PUBLIC "-//W3C//DTD SVG 1.1//EN" "http://www.w3.org/Graphics/SVG/1.1/DTD/svg11.dtd">
<svg width="100%" height="100%" viewBox="0 0 697 212" version="1.1" xmlns="http://www.w3.org/2000/svg" xmlns:xlink="http://www.w3.org/1999/xlink" xml:space="preserve" xmlns:serif="http://www.serif.com/" style="fill-rule:evenodd;clip-rule:evenodd;stroke-linejoin:round;stroke-miterlimit:2;">
    <g>
        <g id="_x31_C_x5F_1_x5F_yoko">
            <g>
                <g>
                    <g>
                        <path d="M285.33,56.42C310,56.42 320.55,69.66 320.55,84.86C320.55,99.22 310.97,114.71 285.33,114.71L260.45,114.71C258.67,114.71 257.69,115.41 257.69,117.1L257.69,151.46L238.54,151.46L238.54,113.87C238.54,103.17 243.73,98.8 255.75,98.8L285.99,98.8C296.86,98.8 301.25,92.32 301.25,85.71C301.25,79.1 296.54,73.04 286.16,73.04L238.39,73.04L238.39,56.42L285.34,56.42L285.33,56.42Z" style="fill:white;fill-rule:nonzero;"/>
                        <path d="M370.81,56.42C395.48,56.42 406.03,69.66 406.03,84.86C406.03,96.69 399.54,109.36 382.82,113.44L408.3,151.46L387.04,151.46L362.04,114.71L345.72,114.71C343.94,114.71 342.96,115.41 342.96,117.1L342.96,151.46L323.81,151.46L323.81,113.87C323.81,103.17 329,98.8 341.02,98.8L371.46,98.8C382.34,98.8 386.72,92.32 386.72,85.57C386.72,78.82 382.01,73.04 371.46,73.04L323.66,73.04L323.66,56.42L370.81,56.42Z" style="fill:white;fill-rule:nonzero;"/>
                        <path d="M448.41,43.43C436.46,43.43 426.74,33.71 426.74,21.76C426.74,9.81 436.46,0.09 448.41,0.09C460.36,0.09 470.08,9.81 470.08,21.76C470.08,33.71 460.36,43.43 448.41,43.43ZM448.41,13.75C444,13.75 440.4,17.34 440.4,21.76C440.4,26.18 443.99,29.76 448.41,29.76C452.83,29.76 456.42,26.17 456.42,21.76C456.42,17.35 452.83,13.75 448.41,13.75Z" style="fill:white;fill-rule:nonzero;"/>
                        <g>
                            <path d="M475.18,151.46L456.03,151.46L456.03,75.43C456.03,63.04 463.98,54.73 480.38,54.73C494.99,54.73 501.97,61.49 506.03,72.33L532.65,133.02C533.79,135.41 535.9,136.96 538.82,136.96C542.07,136.96 544.5,134.85 544.5,131.61L544.5,75.43C544.5,63.04 552.45,54.73 568.69,54.73C583.3,54.73 590.28,61.49 594.66,72.33L629.78,151.46L609.28,151.46L575.34,74.86C574.2,72.47 572.09,70.78 569.17,70.78C565.92,70.78 563.65,72.89 563.65,76.27L563.65,132.31C563.65,144.84 555.15,151.46 539.08,151.46C524.63,151.46 517.71,146.39 513.49,135.55L486.87,74.86C485.73,72.47 483.62,70.78 480.86,70.78C477.45,70.78 475.18,72.89 475.18,76.27L475.18,151.46Z" style="fill:white;fill-rule:nonzero;"/>
                            <path d="M459,55.66C456.43,55.05 453.56,54.73 450.35,54.73L446.48,54.73C430.09,54.73 422.13,63.04 422.13,75.43L422.13,151.46L441.28,151.46L441.28,76.27C441.28,72.89 443.55,70.78 446.96,70.78L449.85,70.78C450.14,70.78 450.41,70.82 450.68,70.85C451.61,64.53 454.48,59.38 458.98,55.67L459,55.66Z" style="fill:white;fill-rule:nonzero;"/>
                        </g>
                        <path d="M660.43,151.01C639.01,151.01 623.47,135.24 623.47,113.51C623.47,91.78 638.96,76.75 661.15,76.75C669.48,76.75 684.58,79.13 692.07,95.07C695.83,103.07 695.82,111.46 695.82,116.47L695.82,118.68L642.62,118.68C644.5,130.54 650.15,136.32 659.86,136.32C664.6,136.32 673.08,134.86 676.6,125.07L677.01,123.94L694.87,123.94L694.34,126.06C690.46,141.68 677.78,151.01 660.44,151.01L660.43,151.01ZM643.32,104.5L677.04,104.5C675.79,98.21 672.4,91.07 660.58,91.07C648.76,91.07 644.82,99.61 643.33,104.5L643.32,104.5Z" style="fill:white;fill-rule:nonzero;"/>
                    </g>
                    <g>
                        <path d="M347.57,203.91L347.57,178.29L339.19,178.29L339.19,175.22L358.85,175.22L358.85,178.29L350.47,178.29L350.47,203.91L347.56,203.91L347.57,203.91Z" style="fill:white;fill-rule:nonzero;"/>
                        <path d="M376.51,203.91L373.75,203.91L373.75,192.12C373.75,189.37 373.45,187.55 372.84,186.66C372.23,185.77 371.24,185.33 369.85,185.33C368.22,185.33 366.48,186.23 364.64,188.04L364.64,203.92L361.88,203.92L361.88,175.22L364.64,175.22L364.64,185.35C366.71,183.27 368.76,182.23 370.79,182.23C372.62,182.23 374.03,182.91 375.02,184.27C376.01,185.63 376.51,187.6 376.51,190.18L376.51,203.91Z" style="fill:white;fill-rule:nonzero;"/>
                        <path d="M389.05,204.4C386.11,204.4 383.82,203.45 382.2,201.55C380.58,199.65 379.77,196.97 379.77,193.5C379.77,190.03 380.55,187.31 382.1,185.28C383.65,183.25 385.72,182.23 388.28,182.23C390.62,182.23 392.43,183.06 393.72,184.73C395.01,186.4 395.65,188.77 395.65,191.86L395.65,193.67L382.58,193.67C382.58,196.21 383.16,198.16 384.31,199.52C385.46,200.88 387.06,201.56 389.09,201.56C391.12,201.56 393.14,200.72 395.16,199.04L395.29,199.04L395.29,202.6C392.77,203.79 390.69,204.39 389.04,204.39L389.05,204.4ZM382.58,191.19L392.96,191.19C392.88,187 391.26,184.9 388.12,184.9C386.53,184.9 385.25,185.46 384.27,186.58C383.29,187.7 382.73,189.24 382.58,191.19Z" style="fill:white;fill-rule:nonzero;"/>
                        <path d="M425.57,192.75C425.57,196.82 424.79,199.79 423.24,201.67C421.68,203.55 419.44,204.49 416.51,204.49C410.48,204.49 407.46,200.58 407.46,192.75L407.46,175.21L410.37,175.21L410.37,193.07C410.37,196.08 410.88,198.25 411.89,199.57C412.9,200.89 414.44,201.56 416.51,201.56C418.58,201.56 420.08,200.91 421.11,199.61C422.14,198.31 422.66,196.16 422.66,193.16L422.66,175.21L425.57,175.21L425.57,192.75Z" style="fill:white;fill-rule:nonzero;"/>
                        <path d="M444.84,203.91L442.08,203.91L442.08,192.1C442.08,189.36 441.78,187.55 441.17,186.66C440.56,185.77 439.57,185.33 438.18,185.33C436.54,185.33 434.8,186.24 432.97,188.05L432.97,203.91L430.21,203.91L430.21,182.83L432.97,182.83L432.97,185.37C435.05,183.28 437.1,182.24 439.12,182.24C440.95,182.24 442.36,182.92 443.35,184.28C444.34,185.64 444.84,187.61 444.84,190.19L444.84,203.92L444.84,203.91Z" style="fill:white;fill-rule:nonzero;"/>
                        <path d="M452.5,178.5L449.38,178.5L449.38,175.09L452.5,175.09L452.5,178.5ZM452.33,203.78L449.57,203.78L449.57,182.7L452.33,182.7L452.33,203.78Z" style="fill:white;fill-rule:nonzero;"/>
                        <path d="M473.78,182.83L466.25,203.91L464.1,203.91L456.62,182.83L459.61,182.83L465.29,199.29L470.89,182.83L473.78,182.83Z" style="fill:white;fill-rule:nonzero;"/>
                        <path d="M483.74,204.4C480.8,204.4 478.51,203.45 476.89,201.55C475.27,199.65 474.46,196.97 474.46,193.5C474.46,190.03 475.24,187.31 476.79,185.28C478.34,183.25 480.41,182.23 482.97,182.23C485.31,182.23 487.12,183.06 488.41,184.73C489.7,186.4 490.34,188.77 490.34,191.86L490.34,193.67L477.27,193.67C477.27,196.21 477.85,198.16 479,199.52C480.15,200.88 481.75,201.56 483.78,201.56C485.81,201.56 487.83,200.72 489.85,199.04L489.98,199.04L489.98,202.6C487.46,203.79 485.38,204.39 483.73,204.39L483.74,204.4ZM477.27,191.19L487.65,191.19C487.57,187 485.95,184.9 482.81,184.9C481.22,184.9 479.94,185.46 478.96,186.58C477.98,187.7 477.42,189.24 477.27,191.19Z" style="fill:white;fill-rule:nonzero;"/>
                        <path d="M494.04,203.92L494.04,182.83L496.8,182.83L496.8,186.08C499.01,183.92 501.05,182.83 502.92,182.83C503.58,182.83 504.24,182.89 504.91,183.02L504.91,186.45L504.8,186.45C503.93,186.2 503.06,186.08 502.17,186.08C500.4,186.08 498.61,186.98 496.8,188.77L496.8,203.92L494.04,203.92Z" style="fill:white;fill-rule:nonzero;"/>
                        <path d="M513.22,204.42C511.01,204.42 508.93,203.84 506.99,202.69L506.99,198.88L507.1,198.88C509.21,200.75 511.3,201.68 513.38,201.68C516.29,201.68 517.75,200.59 517.75,198.4C517.75,197.54 517.56,196.88 517.17,196.4C516.78,195.93 515.98,195.52 514.76,195.19C513.74,194.95 512.56,194.65 511.24,194.28C509.92,193.91 508.89,193.25 508.16,192.31C507.43,191.37 507.07,190.17 507.07,188.7C507.07,186.83 507.71,185.31 508.98,184.12C510.25,182.93 511.95,182.34 514.08,182.34C516.21,182.34 518.2,182.85 519.86,183.87L519.86,187.49L519.75,187.49C517.92,185.89 515.99,185.08 513.94,185.08C512.68,185.08 511.68,185.36 510.95,185.91C510.22,186.46 509.85,187.23 509.85,188.21C509.85,189.08 510.05,189.75 510.44,190.21C510.83,190.67 511.61,191.07 512.78,191.42L516.24,192.32C517.67,192.69 518.74,193.35 519.47,194.29C520.19,195.23 520.55,196.45 520.55,197.94C520.55,199.87 519.89,201.43 518.56,202.63C517.24,203.83 515.46,204.43 513.22,204.43L513.22,204.42Z" style="fill:white;fill-rule:nonzero;"/>
                        <path d="M527.15,178.63L524.03,178.63L524.03,175.22L527.15,175.22L527.15,178.63ZM526.98,203.91L524.22,203.91L524.22,182.83L526.98,182.83L526.98,203.91Z" style="fill:white;fill-rule:nonzero;"/>
                        <path d="M538.35,204.32C534.7,204.32 532.87,201.93 532.87,197.14L532.87,185.52L530.85,185.52L530.85,182.83L532.89,182.83L532.89,176.77L535.63,176.77L535.63,182.83L541.83,182.83L541.83,185.52L535.63,185.52L535.63,195.28C535.63,197.49 535.76,198.93 536.01,199.58C536.26,200.23 536.65,200.71 537.18,201.02C537.7,201.32 538.37,201.48 539.18,201.48C539.95,201.48 540.8,201.26 541.73,200.81L541.82,200.81L541.82,203.8C540.58,204.16 539.42,204.34 538.34,204.34L538.35,204.32Z" style="fill:white;fill-rule:nonzero;"/>
                        <path d="M561.05,182.83L550.67,211.69L547.73,211.69L551.02,203L543.9,182.83L546.89,182.83L552.53,198.88L558.18,182.83L561.06,182.83L561.05,182.83Z" style="fill:white;fill-rule:nonzero;"/>
                        <path d="M577.5,204.49C574.98,204.49 573,203.5 571.54,201.51C570.08,199.53 569.35,196.82 569.35,193.38C569.35,189.94 570.09,187.23 571.56,185.23C573.03,183.23 575.01,182.23 577.51,182.23C580.01,182.23 581.99,183.23 583.46,185.22C584.93,187.21 585.67,189.93 585.67,193.39C585.67,196.85 584.94,199.56 583.47,201.53C582,203.5 580.02,204.49 577.51,204.49L577.5,204.49ZM577.5,185.03C575.8,185.03 574.49,185.75 573.57,187.18C572.65,188.61 572.19,190.68 572.19,193.39C572.19,196.1 572.65,198.12 573.57,199.55C574.49,200.98 575.8,201.7 577.5,201.7C579.2,201.7 580.51,200.98 581.43,199.55C582.35,198.12 582.81,196.07 582.81,193.39C582.81,187.82 581.04,185.03 577.5,185.03Z" style="fill:white;fill-rule:nonzero;"/>
                        <path d="M599.1,177.74L599,177.74C598.04,177.37 597.19,177.18 596.45,177.18C595.04,177.18 594.04,177.57 593.44,178.36C592.85,179.14 592.55,180.43 592.55,182.22L592.55,182.84L597.97,182.84L597.97,185.53L592.65,185.53L592.65,203.93L589.89,203.93L589.89,185.53L587.87,185.53L587.87,182.84L589.89,182.84L589.89,182.02C589.89,179.54 590.41,177.65 591.46,176.33C592.5,175.01 594,174.35 595.94,174.35C596.89,174.35 597.94,174.47 599.1,174.72L599.1,177.74Z" style="fill:white;fill-rule:nonzero;"/>
                        <path d="M618.4,204.49C615.05,204.49 612.42,203.2 610.51,200.62C608.6,198.04 607.65,194.45 607.65,189.86C607.65,185.27 608.61,181.7 610.52,179.1C612.43,176.51 615.06,175.21 618.4,175.21C621.74,175.21 624.38,176.51 626.3,179.1C628.22,181.69 629.17,185.28 629.17,189.86C629.17,194.44 628.21,198 626.3,200.6C624.38,203.19 621.75,204.49 618.4,204.49ZM618.41,178.18C615.97,178.18 614.07,179.2 612.71,181.24C611.35,183.28 610.67,186.15 610.67,189.86C610.67,193.57 611.35,196.44 612.71,198.47C614.07,200.5 615.97,201.52 618.41,201.52C620.85,201.52 622.74,200.5 624.09,198.47C625.45,196.44 626.13,193.57 626.13,189.86C626.13,186.15 625.45,183.25 624.09,181.22C622.73,179.19 620.84,178.18 618.41,178.18Z" style="fill:white;fill-rule:nonzero;"/>
                        <path d="M638.28,204.42C636.07,204.42 633.99,203.84 632.05,202.69L632.05,198.88L632.16,198.88C634.27,200.75 636.36,201.68 638.44,201.68C641.35,201.68 642.81,200.59 642.81,198.4C642.81,197.54 642.62,196.88 642.23,196.4C641.84,195.93 641.04,195.52 639.82,195.19C638.8,194.95 637.62,194.65 636.3,194.28C634.98,193.91 633.95,193.25 633.22,192.31C632.49,191.37 632.13,190.17 632.13,188.7C632.13,186.83 632.77,185.31 634.04,184.12C635.31,182.93 637.01,182.34 639.14,182.34C641.27,182.34 643.26,182.85 644.92,183.87L644.92,187.49L644.81,187.49C642.98,185.89 641.05,185.08 639,185.08C637.74,185.08 636.74,185.36 636.01,185.91C635.28,186.46 634.91,187.23 634.91,188.21C634.91,189.08 635.11,189.75 635.5,190.21C635.89,190.67 636.67,191.07 637.84,191.42L641.3,192.32C642.73,192.69 643.8,193.35 644.53,194.29C645.25,195.23 645.61,196.45 645.61,197.94C645.61,199.87 644.95,201.43 643.62,202.63C642.3,203.83 640.52,204.43 638.28,204.43L638.28,204.42Z" style="fill:white;fill-rule:nonzero;"/>
                        <path d="M659.85,203.91L659.85,201.56C658.38,202.83 657.17,203.63 656.22,203.98C655.27,204.32 654.3,204.49 653.32,204.49C651.74,204.49 650.43,203.87 649.39,202.62C648.35,201.38 647.82,199.8 647.82,197.88C647.82,195.43 648.6,193.59 650.15,192.35C651.7,191.11 654.93,190.38 659.85,190.14L659.85,189.51C659.85,188.04 659.48,186.96 658.75,186.25C658.02,185.55 656.74,185.2 654.9,185.2C653.28,185.2 651.48,185.7 649.5,186.69L649.37,186.69L649.37,183.28C651.32,182.65 653.2,182.33 655.01,182.33C657.63,182.33 659.55,182.91 660.76,184.07C661.98,185.23 662.58,187.04 662.58,189.49L662.58,203.91L659.84,203.91L659.85,203.91ZM659.85,198.89L659.85,192.77C655.96,192.98 653.45,193.5 652.34,194.31C651.23,195.12 650.67,196.25 650.67,197.68C650.67,200.21 651.95,201.47 654.52,201.47C656.26,201.47 658.04,200.61 659.84,198.9L659.85,198.89Z" style="fill:white;fill-rule:nonzero;"/>
                        <path d="M681.61,203.91L677.96,203.91L670.88,194.6L669.24,196.49L669.24,203.92L666.48,203.92L666.48,174.55L669.24,174.55L669.24,193.21L677.52,182.84L680.96,182.84L672.91,192.54L681.6,203.92L681.61,203.91Z" style="fill:white;fill-rule:nonzero;"/>
                        <path d="M693.64,203.81L693.64,201.46C692.17,202.73 690.96,203.53 690.01,203.88C689.06,204.22 688.09,204.39 687.11,204.39C685.53,204.39 684.22,203.77 683.18,202.52C682.14,201.28 681.61,199.7 681.61,197.78C681.61,195.33 682.39,193.49 683.93,192.25C685.48,191.01 688.71,190.28 693.63,190.04L693.63,189.41C693.63,187.94 693.26,186.86 692.53,186.15C691.8,185.45 690.51,185.1 688.68,185.1C687.06,185.1 685.26,185.6 683.28,186.59L683.16,186.59L683.16,183.18C685.11,182.55 686.99,182.23 688.79,182.23C691.41,182.23 693.33,182.81 694.54,183.97C695.76,185.13 696.36,186.94 696.36,189.39L696.36,203.81L693.62,203.81L693.64,203.81ZM693.64,198.8L693.64,192.68C689.75,192.89 687.24,193.41 686.13,194.22C685.02,195.03 684.46,196.16 684.46,197.59C684.46,200.12 685.74,201.38 688.31,201.38C690.05,201.38 691.83,200.52 693.63,198.81L693.64,198.8Z" style="fill:white;fill-rule:nonzero;"/>
                    </g>
                    <g>
                        <path d="M271.57,204.38L265.33,204.38L260.75,180.81L260.11,175.95L259.47,180.81L254.89,204.38L248.66,204.38L238.39,169.26L245.17,169.26L251.08,192.93L251.81,197.21L252.27,192.83L256.81,169.26L263.41,169.26L267.95,192.83L268.41,197.21L269.1,192.93L275.06,169.26L281.84,169.26L271.57,204.38Z" style="fill:white;fill-rule:nonzero;"/>
                        <path d="M301.91,191.87L292.7,191.87L292.7,204.38L286.51,204.38L286.51,169.26L301.91,169.26C309.2,169.26 313.32,174.41 313.32,180.37C313.32,187.44 308.14,191.87 301.91,191.87ZM300.99,174.74L292.69,174.74L292.69,186.38L300.99,186.38C304.43,186.38 306.81,184.41 306.81,180.32C306.81,176.23 304.24,174.74 300.99,174.74Z" style="fill:white;fill-rule:nonzero;"/>
                        <rect x="317.27" y="169.26" width="6.19" height="35.12" style="fill:white;fill-rule:nonzero;"/>
                    </g>
                </g>
                <g transform="matrix(0.224606,0,0,0.220902,-34.798,-16.1533)">
                    <path d="M1117.64,551.37C1117.64,813.917 901.597,1029.96 639.05,1029.96C376.503,1029.96 160.46,813.917 160.46,551.37C160.46,288.823 376.503,72.78 639.05,72.78C901.597,72.78 1117.64,288.823 1117.64,551.37ZM401.3,314.57C406.18,314.783 410.867,315.837 415.36,317.73C415.7,317.87 415.99,317.803 416.23,317.53C423.65,309.05 431.36,299.74 438.54,292.13C484.04,243.85 538.54,205.07 598.61,176.95C598.917,176.81 599.04,176.573 598.98,176.24C594.56,150.8 616.56,131.29 641.24,139.36C641.573,139.467 641.837,139.377 642.03,139.09C654.203,121.55 667.603,105 682.23,89.44C682.503,89.14 682.44,88.973 682.04,88.94C596.6,81.453 515.333,95.96 438.24,132.46C437.927,132.607 437.697,132.84 437.55,133.16C411.94,190.36 399.42,251.41 400.82,314.08C400.825,314.343 401.037,314.56 401.3,314.57ZM694.05,95.62C679.103,111.253 665.45,127.957 653.09,145.73C652.917,145.983 652.923,146.23 653.11,146.47L658.12,152.82C658.299,153.047 658.599,153.139 658.87,153.05C703.363,138.517 748.99,129.92 795.75,127.26C800.923,126.96 810.973,126.687 825.9,126.44C826.333,126.433 826.353,126.343 825.96,126.17C785.34,108.45 743.047,96.693 699.08,90.9C698.78,90.86 698.52,90.937 698.3,91.13C696.7,92.5 695.11,94.51 694.05,95.62ZM582.96,351.37C586.507,352.23 589.84,353.607 592.96,355.5C593.233,355.668 593.583,355.639 593.82,355.43C638.17,317 690.87,290.79 747.7,276.58C748.013,276.5 748.197,276.297 748.25,275.97C751.5,254.68 771.06,243.41 790.74,252.1C791.06,252.24 791.337,252.18 791.57,251.92C822.59,218.22 857.68,190.07 896.16,165.33C896.473,165.123 896.477,164.917 896.17,164.71C883.383,156.15 870.193,148.303 856.6,141.17C855.18,140.423 853.66,140.02 852.04,139.96C831.52,139.167 814.193,139.123 800.06,139.83C753.06,142.177 707.233,150.68 662.58,165.34C662.388,165.403 662.264,165.594 662.28,165.8C662.92,172.84 661.59,179.64 657.74,185.73C649.807,198.29 637.857,203.16 621.89,200.34C621.583,200.287 621.363,200.4 621.23,200.68C598.403,248.24 585.613,298.427 582.86,351.24C582.854,351.303 582.898,351.36 582.96,351.37ZM419.3,142.27C312.92,199.46 233.33,295.76 196.38,410.69C196.278,411.015 196.314,411.37 196.48,411.67C225.96,465.257 261.157,514.77 302.07,560.21C302.191,560.347 302.395,560.373 302.54,560.27C308.36,556.277 314.76,553.69 321.74,552.51C322.312,552.417 322.746,551.933 322.78,551.35C326.14,491.14 344.15,432.39 373.8,380.09C374.127,379.51 374.073,378.967 373.64,378.46C355.46,357.34 360.87,327.45 387.37,316.86C387.69,316.727 387.87,316.487 387.91,316.14C388.24,312.84 387.77,308.56 387.76,306.3C387.62,249.2 398.91,195.39 419.65,142.58C419.81,142.16 419.693,142.057 419.3,142.27ZM805.06,266.13C847.5,261.68 887.08,261.58 929.06,268.09C929.375,268.139 929.687,267.981 929.83,267.7C938,251.5 957.24,247.25 971.8,257.82C972.099,258.035 972.502,258.039 972.8,257.83L988.55,246.85C988.917,246.597 988.953,246.303 988.66,245.97C964.753,218.703 938.073,194.5 908.62,173.36C908.333,173.153 908.037,173.143 907.73,173.33C868.317,197.35 832.897,226.26 801.47,260.06C801.23,260.32 801.2,260.6 801.38,260.9L804.36,265.79C804.52,266.05 804.753,266.163 805.06,266.13ZM570.13,350.68C572.73,296.44 586.45,243.68 609.8,194.72C609.907,194.5 609.873,194.3 609.7,194.12L604.63,188.8C604.445,188.605 604.155,188.548 603.91,188.66C535.68,220.45 474.57,266.56 427.05,324.87C426.843,325.123 426.853,325.37 427.08,325.61C447.44,347.17 437.55,379.18 409.89,387.98C409.603,388.073 409.493,388.263 409.56,388.55C421.213,441.63 442.203,490.673 472.53,535.68C472.737,535.98 473.007,536.06 473.34,535.92C477.593,534.153 482.03,533.257 486.65,533.23C486.977,533.23 487.183,533.07 487.27,532.75C499.93,484.4 520.61,440.24 551.12,400.64C551.34,400.353 551.347,400.067 551.14,399.78C538.7,382.24 546.43,359.79 566.15,352.34C567.06,351.99 568.46,351.77 569.58,351.41C569.927,351.29 570.11,351.047 570.13,350.68ZM983.12,280.49C989.313,282.563 995.44,284.653 1001.5,286.76C1009.61,289.57 1018.46,293.48 1027,296.73C1027.37,296.87 1027.44,296.777 1027.23,296.45C1018.07,282.73 1008.31,269.453 997.94,256.62C997.72,256.353 997.47,256.317 997.19,256.51L980.7,267.88C980.427,268.073 980.35,268.327 980.47,268.64C981.89,272.293 982.65,276.077 982.75,279.99C982.755,280.218 982.904,280.418 983.12,280.49ZM718.25,441.58C721.23,442.513 724.003,443.863 726.57,445.63C726.903,445.857 727.237,445.857 727.57,445.63C759.637,423.457 794.33,406.687 831.65,395.32C831.977,395.22 832.15,395 832.17,394.66C833.12,378.28 846.5,369.18 862.21,371.68C862.55,371.733 862.81,371.617 862.99,371.33C881.66,342.38 904.35,316.09 929.83,292.9C930.11,292.64 930.163,292.343 929.99,292.01C928.27,288.623 927.33,285.04 927.17,281.26C927.15,280.927 926.98,280.737 926.66,280.69C886.8,274.39 848.04,274.42 807.84,278.78C807.527,278.813 807.353,278.987 807.32,279.3C805.01,300.42 786.79,312.68 766.77,305.55C766.45,305.437 766.193,305.523 766,305.81C738.58,346.49 721.16,392.55 718.01,441.22C717.997,441.383 718.098,441.534 718.25,441.58ZM623.85,537.06C630.1,535.92 632.89,536.22 637.64,537.15C637.993,537.217 638.27,537.1 638.47,536.8C652.623,515.267 669.107,495.7 687.92,478.1C688.173,477.867 688.233,477.59 688.1,477.27C681.52,461.91 688.93,446.25 704.71,441.52C705.057,441.413 705.243,441.177 705.27,440.81C708.37,389.64 726.77,341.11 755.37,298.59C755.537,298.33 755.54,298.073 755.38,297.82L750.22,289.72C750.067,289.473 749.847,289.383 749.56,289.45C695.51,302.93 645.1,328.29 602.94,364.8C602.673,365.027 602.627,365.293 602.8,365.6C613.02,383.48 604.94,404.48 585.6,411.1C585.247,411.22 585.09,411.467 585.13,411.84C590.517,455.673 603.153,497.28 623.04,536.66C623.187,536.961 623.522,537.126 623.85,537.06ZM950.68,378.81C954.667,378.897 958.623,378.923 962.55,378.89C962.857,378.89 963.087,378.753 963.24,378.48C969.62,367.107 979.277,363.183 992.21,366.71C992.59,366.81 992.923,366.72 993.21,366.44C1008.87,351.067 1025.63,336.99 1043.48,324.21C1043.8,323.977 1043.86,323.687 1043.66,323.34L1040.38,317.63C1040.24,317.395 1040.04,317.204 1039.8,317.08C1020.41,307.44 1000.39,299.387 979.73,292.92C979.383,292.807 979.113,292.907 978.92,293.22C969.8,307.71 953.48,310.89 939.13,302.32C938.863,302.16 938.613,302.183 938.38,302.39C913.747,324.73 892.317,349.807 874.09,377.62C873.91,377.9 873.92,378.177 874.12,378.45L878.1,383.8C878.24,384 878.433,384.08 878.68,384.04C902.513,380.033 926.513,378.29 950.68,378.81ZM1006.69,384.04C1031.67,388.507 1055.87,395.607 1079.3,405.34C1079.75,405.527 1079.9,405.387 1079.74,404.92C1071.82,381.047 1062,357.98 1050.29,335.72C1050.12,335.393 1049.88,335.34 1049.58,335.56C1033.14,347.527 1017.61,360.577 1002.98,374.71C1002.71,374.97 1002.68,375.26 1002.89,375.58C1004.57,378.147 1005.78,380.917 1006.53,383.89C1006.55,383.97 1006.6,384.02 1006.69,384.04ZM336,551.94C351.707,555.087 363.247,562.79 370.62,575.05C380.01,590.69 379.34,609.41 369.62,624.91C369.393,625.27 369.443,625.59 369.77,625.87C400.657,652.163 433.557,675.64 468.47,696.3C468.843,696.52 469.18,696.477 469.48,696.17C472.62,693.017 476.193,690.48 480.2,688.56C480.513,688.413 480.643,688.17 480.59,687.83C479.3,679.12 477.65,669.68 476.82,661.7C474.593,640.287 474.407,618.83 476.26,597.33C476.29,597.025 476.113,596.737 475.83,596.63C453.85,588.14 446.15,562.34 461.97,544.13C462.19,543.877 462.21,543.607 462.03,543.32C459.03,538.547 456.043,533.767 453.07,528.98C426.17,485.76 407.337,439.227 396.57,389.38C396.557,389.307 396.502,389.248 396.43,389.23L385.55,386.42C385.277,386.353 385.07,386.443 384.93,386.69C355.803,437.69 339.343,492.577 335.55,551.35C335.525,551.629 335.721,551.885 336,551.94ZM833.05,513.85C837.183,514.95 840.743,517.027 843.73,520.08C843.977,520.327 844.257,520.387 844.57,520.26C862.677,512.747 881.2,506.473 900.14,501.44C900.467,501.353 900.66,501.147 900.72,500.82C902.633,490.6 908.707,484.693 918.94,483.1C919.241,483.05 919.491,482.839 919.59,482.55C929.377,452.437 944.05,424.94 963.61,400.06C963.823,399.793 963.873,399.5 963.76,399.18L961.22,392.15C961.12,391.863 960.92,391.713 960.62,391.7C934.093,390.46 907.753,392.09 881.6,396.59C881.24,396.65 881.027,396.857 880.96,397.21C877.893,412.657 868.417,420.043 852.53,419.37C852.143,419.357 851.87,419.53 851.71,419.89C838.543,449.723 832.28,480.99 832.92,513.69C832.925,513.763 832.977,513.826 833.05,513.85ZM932.14,486.75C934.447,488.35 936.34,490.347 937.82,492.74C938.02,493.073 938.313,493.207 938.7,493.14C992.24,484.26 1045.77,484.333 1099.28,493.36C1099.59,493.413 1099.73,493.283 1099.69,492.97C1096.64,468.983 1091.79,445.37 1085.14,422.13C1085.04,421.783 1084.82,421.537 1084.49,421.39C1059.15,410.023 1032.81,401.83 1005.46,396.81C1005.14,396.75 1004.91,396.87 1004.77,397.17C999.19,409.09 986.04,414.06 974.05,408.41C973.73,408.263 973.463,408.327 973.25,408.6C954.903,431.993 941.13,457.83 931.93,486.11C931.852,486.348 931.938,486.609 932.14,486.75ZM745.94,563.76C752.82,562.96 757.27,563.43 763.08,566.64C763.407,566.827 763.72,566.803 764.02,566.57C777.567,556.263 791.783,546.977 806.67,538.71C806.955,538.553 807.12,538.238 807.09,537.91C806.07,527.303 810.237,519.64 819.59,514.92C819.91,514.76 820.077,514.497 820.09,514.13C820.34,506.12 820.07,497.38 820.71,490.11C823.023,463.783 829.5,438.48 840.14,414.2C840.273,413.9 840.233,413.623 840.02,413.37L835.57,408C835.35,407.747 835.08,407.667 834.76,407.76C799.22,418.62 766.17,434.593 735.61,455.68C735.306,455.882 735.181,456.273 735.31,456.62C740.3,470.03 734.36,484.52 721,489.93C720.674,490.065 720.482,490.407 720.54,490.75C724.693,516.323 732.89,540.52 745.13,563.34C745.303,563.66 745.573,563.8 745.94,563.76ZM499.92,536.18C519.68,546.2 524.85,567.49 512.32,586.05C512.167,586.283 512.183,586.503 512.37,586.71C532.657,608.983 554.743,629.303 578.63,647.67C578.91,647.883 579.187,647.883 579.46,647.67C583.907,644.21 588.94,642.197 594.56,641.63C594.921,641.594 595.218,641.325 595.29,640.97C599.203,621.623 605.017,602.87 612.73,584.71C612.871,584.376 612.787,583.989 612.52,583.75C600.29,572.9 600.16,555.27 611.52,543.61C611.736,543.387 611.792,543.051 611.66,542.77C607.047,533.05 604.183,526.94 603.07,524.44C587.323,489.107 577.08,451.92 572.34,412.88C572.292,412.513 572.006,412.219 571.64,412.16C568.187,411.607 564.89,410.547 561.75,408.98C561.423,408.813 561.15,408.877 560.93,409.17C531.81,447.19 511.447,489.467 499.84,536C499.822,536.071 499.855,536.146 499.92,536.18ZM600.7,927.67C482.35,872.02 366.25,777.24 331.24,646.74C331.14,646.393 330.91,646.217 330.55,646.21C290.76,646.01 267.85,602.35 292.11,570.24C292.348,569.927 292.331,569.488 292.07,569.2C253.663,526.013 220.197,479.277 191.67,428.99C191.6,428.872 191.472,428.799 191.335,428.799C191.162,428.799 191.008,428.914 190.96,429.08C158.11,550.91 175.5,682.05 240.55,789.94C360.23,988.45 606.98,1069.7 820.76,978.79C821.18,978.61 821.16,978.533 820.7,978.56C746.35,982.39 667.72,959.19 600.7,927.67ZM688.97,626.09C695.42,622.82 700.37,622.82 707.34,623.99C707.7,624.057 707.99,623.94 708.21,623.64C715.163,614.16 722.66,605.127 730.7,596.54C730.94,596.287 730.993,596 730.86,595.68C727.067,586.793 728.107,578.61 733.98,571.13C734.32,570.694 734.372,570.099 734.11,569.62C720.95,545.307 712.167,519.5 707.76,492.2C707.705,491.88 707.458,491.625 707.14,491.56C703.607,490.833 700.297,489.54 697.21,487.68C696.893,487.485 696.482,487.526 696.21,487.78C678.597,504.5 663.057,522.96 649.59,543.16C649.397,543.447 649.413,543.723 649.64,543.99C659.813,555.997 660.21,568.43 650.83,581.29C650.61,581.583 650.61,581.88 650.83,582.18C662.123,597.733 674.55,612.323 688.11,625.95C688.363,626.21 688.65,626.257 688.97,626.09ZM926.33,569.23C929.623,570.037 932.477,571.467 934.89,573.52C935.46,574 936.35,575.52 937.44,575.19C984.64,560.763 1032.31,554.15 1080.44,555.35C1083.55,555.423 1091.06,555.807 1102.97,556.5C1103.32,556.52 1103.49,556.357 1103.49,556.01C1103.57,539.71 1102.85,523.45 1101.32,507.23C1101.29,506.85 1101.08,506.627 1100.7,506.56C1047.51,497.16 994.25,496.883 940.93,505.73C940.669,505.778 940.46,505.975 940.4,506.23C938.487,514.677 933.373,520.093 925.06,522.48C924.72,522.573 924.533,522.8 924.5,523.16C923.047,538.433 923.52,553.637 925.92,568.77C925.95,568.992 926.113,569.175 926.33,569.23ZM911.43,520.54C908.1,518.48 906.66,516.84 903.98,514.11C903.733,513.863 903.443,513.783 903.11,513.87C884.91,518.657 867.117,524.663 849.73,531.89C849.417,532.023 849.267,532.26 849.28,532.6C849.633,541.327 846.203,547.967 838.99,552.52C838.687,552.709 838.541,553.075 838.63,553.42C842.75,569.04 848.667,583.94 856.38,598.12C856.587,598.493 856.9,598.657 857.32,598.61C862.547,598.003 867.23,599.233 871.37,602.3C871.638,602.501 871.999,602.528 872.29,602.37C882.963,596.717 893.88,591.573 905.04,586.94C905.357,586.807 905.571,586.503 905.59,586.16C905.91,580.293 908.39,575.617 913.03,572.13C913.287,571.933 913.415,571.612 913.36,571.3C910.58,554.7 910.057,538.02 911.79,521.26C911.817,520.947 911.697,520.707 911.43,520.54ZM802.29,635.17C808.33,632.43 814.42,632.6 820.31,635.55C820.65,635.723 820.97,635.697 821.27,635.47L841.35,620.73C841.559,620.578 841.667,620.319 841.63,620.06C840.95,614.72 842.16,609.907 845.26,605.62C845.487,605.3 845.507,604.967 845.32,604.62C836.873,589.213 830.467,573.007 826.1,556C826.027,555.713 825.847,555.55 825.56,555.51C820.98,554.81 816.963,552.947 813.51,549.92C813.257,549.7 812.987,549.673 812.7,549.84C798.62,557.767 785.127,566.59 772.22,576.31C771.967,576.503 771.893,576.75 772,577.05C774.833,585.05 773.807,592.41 768.92,599.13C768.7,599.43 768.707,599.73 768.94,600.03C778.833,612.523 789.637,624.183 801.35,635.01C801.63,635.27 801.943,635.323 802.29,635.17ZM950.8,632.24C955.31,632.25 958.31,632.63 962.26,635.73C964.12,637.19 965.5,636.09 967.41,635.51C1009.93,622.51 1053.47,616.77 1098.02,618.29C1098.4,618.303 1098.61,618.123 1098.66,617.75C1100.81,601.837 1102.27,585.86 1103.02,569.82C1103.03,569.5 1102.88,569.327 1102.56,569.3C1047.55,565.067 993.743,571.11 941.15,587.43C940.837,587.53 940.66,587.743 940.62,588.07C940.027,592.637 938.057,596.5 934.71,599.66C934.499,599.86 934.432,600.17 934.54,600.44C938.773,611.353 943.93,621.807 950.01,631.8C950.177,632.073 950.477,632.24 950.8,632.24ZM607.69,643.21C622.11,649.43 629.25,663.49 624.72,678.71C624.587,679.163 624.727,679.507 625.14,679.74L657.35,697.89C657.692,698.083 658.122,698.021 658.39,697.74C662.89,693.1 668.363,690.477 674.81,689.87C675.13,689.843 675.343,689.68 675.45,689.38L684.42,664.57C684.493,664.36 684.443,664.125 684.29,663.96C676.577,655.907 674.933,646.613 679.36,636.08C679.533,635.667 679.46,635.303 679.14,634.99C664.873,620.743 651.83,605.447 640.01,589.1C639.797,588.8 639.513,588.71 639.16,588.83C634.38,590.437 629.52,590.717 624.58,589.67C624.153,589.583 623.877,589.747 623.75,590.16L607.46,642.73C607.404,642.924 607.503,643.132 607.69,643.21ZM570.86,657.92C545.83,638.25 524.22,617.75 502.42,594.92C502.14,594.627 501.823,594.573 501.47,594.76C497.737,596.727 493.763,597.893 489.55,598.26C489.169,598.294 488.869,598.603 488.85,598.98C488.36,608.67 487.66,618.93 487.72,628.02C487.847,647.087 489.683,666.027 493.23,684.84C493.297,685.187 493.503,685.363 493.85,685.37C516.5,685.8 532.81,704.71 528.05,727.28C527.977,727.613 528.097,727.853 528.41,728C545.877,735.973 563.603,743.31 581.59,750.01C581.943,750.143 582.23,750.057 582.45,749.75C585.483,745.503 589.307,742.16 593.92,739.72C594.207,739.567 594.33,739.327 594.29,739C593.703,734.493 593.103,729.983 592.49,725.47C591.24,716.34 590.93,707.15 590.25,697.89C590.23,697.55 590.057,697.327 589.73,697.22C573.64,691.97 563.95,674.97 571.13,659.02C571.323,658.58 571.233,658.213 570.86,657.92ZM900.24,652.98C906.207,650.747 911.757,651.457 916.89,655.11C917.154,655.308 917.509,655.343 917.81,655.2L936.25,646.82C936.538,646.686 936.758,646.44 936.86,646.14L939.22,639.23C939.313,638.977 939.287,638.733 939.14,638.5C932.407,627.673 926.78,616.3 922.26,604.38C922.14,604.053 921.903,603.873 921.55,603.84C917.37,603.427 913.77,601.78 910.75,598.9C910.483,598.647 910.183,598.59 909.85,598.73C899.33,603.137 889.01,607.963 878.89,613.21C878.543,613.39 878.397,613.673 878.45,614.06C879.063,618.62 878.213,622.873 875.9,626.82C875.707,627.14 875.73,627.447 875.97,627.74C883.157,636.62 890.913,644.967 899.24,652.78C899.533,653.053 899.867,653.12 900.24,652.98ZM723.05,656.73C734.483,665.497 746.31,673.697 758.53,681.33C758.83,681.517 759.12,681.497 759.4,681.27C765.067,676.683 771.497,675.353 778.69,677.28C779.051,677.372 779.434,677.256 779.68,676.98L792.97,661.71C793.163,661.483 793.2,661.233 793.08,660.96C790.767,655.713 790.707,650.443 792.9,645.15C793.04,644.81 792.973,644.513 792.7,644.26C780.34,632.867 768.967,620.56 758.58,607.34C758.347,607.047 758.05,606.95 757.69,607.05C751.743,608.71 746.04,608.137 740.58,605.33C740.247,605.157 739.953,605.207 739.7,605.48C732.287,613.4 725.37,621.73 718.95,630.47C718.715,630.789 718.723,631.23 718.97,631.54C724.703,638.847 725.97,646.927 722.77,655.78C722.637,656.167 722.73,656.483 723.05,656.73ZM966.7,654.92C994.33,687.12 1029.79,710.74 1068.18,727.53C1068.51,727.677 1068.75,727.58 1068.89,727.24C1081.49,696.313 1090.65,664.393 1096.37,631.48C1096.42,631.18 1096.3,631.027 1096,631.02C1052.54,629.707 1010.09,635.523 968.65,648.47C968.35,648.563 968.157,648.763 968.07,649.07L966.57,654.3C966.503,654.533 966.547,654.74 966.7,654.92ZM830.2,659.26L859.54,678.82C859.808,678.996 860.158,678.996 860.43,678.82C866.297,674.993 872.387,674.633 878.7,677.74C878.973,677.873 879.24,677.857 879.5,677.69L890.1,670.72C890.447,670.493 890.59,670.177 890.53,669.77C890.203,667.55 890.41,665.377 891.15,663.25C891.247,662.966 891.168,662.651 890.95,662.45C881.903,653.99 873.48,644.947 865.68,635.32C865.454,635.038 865.09,634.907 864.74,634.98C858.893,636.207 853.57,635.11 848.77,631.69C848.49,631.49 848.213,631.49 847.94,631.69L829.9,644.94C829.62,645.147 829.537,645.417 829.65,645.75C831.117,650.017 831.227,654.327 829.98,658.68C829.915,658.898 830.005,659.135 830.2,659.26ZM343.95,644.83C367.51,730.52 428.46,800.64 499.28,852.72C552.047,891.533 609.793,921.397 672.52,942.31C701.69,952.04 731.14,959.6 761.72,963.43C761.783,963.426 761.833,963.373 761.833,963.31C761.833,963.262 761.804,963.219 761.76,963.2C648.33,935.08 549.42,861.79 501.15,753.8C501.01,753.487 500.77,753.35 500.43,753.39C474.27,756.71 454.7,734.83 461.62,709.2C461.733,708.78 461.603,708.46 461.23,708.24C425.583,686.987 391.983,662.883 360.43,635.93C360.137,635.677 359.84,635.67 359.54,635.91C354.933,639.483 349.867,642.217 344.34,644.11C343.98,644.23 343.85,644.47 343.95,644.83ZM923.09,668.74L922.73,671.97C922.69,672.31 922.81,672.583 923.09,672.79C957.64,697.65 996.55,715.33 1037.48,726.76C1037.95,726.893 1037.97,726.843 1037.54,726.61C1006.76,710.08 979.39,689.08 956.64,662.81C956.427,662.563 956.16,662.47 955.84,662.53C950.567,663.463 945.96,662.21 942.02,658.77C941.74,658.517 941.427,658.467 941.08,658.62C935.233,661.22 929.447,663.837 923.72,666.47C923.113,666.743 922.89,667.223 923.05,667.91C923.11,668.183 923.123,668.46 923.09,668.74ZM688.32,692.72C697.847,698.247 702.233,706.623 701.48,717.85C701.447,718.257 701.62,718.533 702,718.68L732.66,730.43C733.01,730.566 733.409,730.46 733.64,730.17C738.173,724.457 744.163,721.64 751.61,721.72C751.93,721.72 752.16,721.577 752.3,721.29L757.08,711.52C757.227,711.233 757.197,710.963 756.99,710.71C752.797,705.583 751.247,699.71 752.34,693.09C752.389,692.8 752.259,692.507 752.01,692.35C739.17,684.33 726.76,675.693 714.78,666.44C714.534,666.249 714.193,666.233 713.93,666.4C708.67,669.807 702.917,671.017 696.67,670.03C696.23,669.963 695.933,670.14 695.78,670.56L688.07,692.03C687.963,692.33 688.047,692.56 688.32,692.72ZM793.95,701.24L821.59,713.8C821.897,713.94 822.17,713.89 822.41,713.65C827.93,708.123 834.513,706.513 842.16,708.82C842.487,708.92 842.77,708.85 843.01,708.61L853.39,698.57C853.71,698.263 853.81,697.893 853.69,697.46C853.03,695.04 852.907,692.59 853.32,690.11C853.375,689.754 853.214,689.398 852.91,689.21C842.583,682.95 832.527,676.29 822.74,669.23C822.473,669.037 822.203,669.027 821.93,669.2C815.83,673.1 809.427,673.557 802.72,670.57C802.395,670.422 802.007,670.508 801.77,670.78L789.85,684.57C789.643,684.81 789.63,685.06 789.81,685.32C792.977,689.813 794.183,694.807 793.43,700.3C793.37,700.74 793.543,701.053 793.95,701.24ZM888.31,694.38C940.74,720.38 997.17,736.53 1055.21,744.61C1055.22,744.612 1055.23,744.613 1055.24,744.613C1055.34,744.613 1055.41,744.535 1055.41,744.44C1055.41,744.357 1055.35,744.284 1055.27,744.27C1005.18,732.69 957.12,712.62 915.17,682.62C914.879,682.416 914.506,682.378 914.19,682.52C908.49,685.133 902.973,684.793 897.64,681.5C897.359,681.324 896.996,681.328 896.71,681.51L887.92,687.28C887.551,687.52 887.347,687.946 887.39,688.38L887.87,693.74C887.897,694.033 888.043,694.247 888.31,694.38ZM609.41,736.75C624.477,738.537 633.72,746.62 637.14,761C637.61,763 637.47,765.3 637.79,767.48C637.837,767.78 638.007,767.967 638.3,768.04L655.95,772.56C656.25,772.64 656.48,772.543 656.64,772.27C659.52,767.317 663.537,763.603 668.69,761.13C669.023,760.977 669.18,760.717 669.16,760.35L668.08,738.69C668.067,738.41 667.93,738.21 667.67,738.09C655.663,732.697 650.403,723.337 651.89,710.01C651.93,709.697 651.813,709.463 651.54,709.31L617.97,690.39C617.717,690.243 617.48,690.273 617.26,690.48C613.373,694.033 608.86,696.433 603.72,697.68C603.313,697.78 603.117,698.037 603.13,698.45C603.59,710.977 604.843,723.417 606.89,735.77C606.95,736.117 607.15,736.33 607.49,736.41C608.11,736.557 608.75,736.67 609.41,736.75ZM854.9,725.97C901.76,741.097 949.627,749.4 998.5,750.88C1004.79,751.067 1011.07,751.227 1017.35,751.36C1017.42,751.367 1017.47,751.343 1017.49,751.29C1017.5,751.257 1017.51,751.227 1017.5,751.2C1017.49,751.093 1017.42,751.027 1017.28,751C970.433,741.813 925.61,726.743 882.81,705.79C882.486,705.637 882.104,705.68 881.83,705.9C875.917,710.6 869.447,711.363 862.42,708.19C862.102,708.045 861.723,708.113 861.47,708.36L852.54,717C852.253,717.28 852.2,717.6 852.38,717.96C853.473,720.193 854.083,722.56 854.21,725.06C854.235,725.476 854.509,725.837 854.9,725.97ZM773.46,742.98L797.24,748.95C797.58,749.03 797.85,748.933 798.05,748.66C802.763,742.253 809.19,739.517 817.33,740.45C817.643,740.483 817.887,740.367 818.06,740.1L820.34,736.42C820.54,736.09 820.533,735.672 820.32,735.35C818.553,732.677 817.62,729.727 817.52,726.5C817.507,726.153 817.343,725.907 817.03,725.76L787.55,712.39C787.29,712.27 787.05,712.303 786.83,712.49C781.663,716.903 775.657,718.567 768.81,717.48C768.548,717.439 768.288,717.573 768.17,717.81L764.27,725.76C764.137,726.033 764.187,726.263 764.42,726.45C769.553,730.497 772.383,735.79 772.91,742.33C772.937,742.683 773.12,742.9 773.46,742.98ZM693.67,733.13C690.163,736.183 686.087,738.24 681.44,739.3C681.117,739.377 680.892,739.673 680.91,740L681.88,758.31C681.893,758.543 682.013,758.677 682.24,758.71C695.76,760.877 703.697,768.703 706.05,782.19C706.085,782.415 706.269,782.592 706.5,782.62L722.51,785.05C722.943,785.11 723.37,784.899 723.58,784.52C726.813,778.76 731.6,774.927 737.94,773.02C738.18,772.947 738.317,772.783 738.35,772.53L739.65,762.71C739.697,762.39 739.58,762.14 739.3,761.96C732.593,757.553 729.143,751.297 728.95,743.19C728.939,742.904 728.758,742.649 728.49,742.54L696.8,730.39C696.567,730.303 696.353,730.34 696.16,730.5C695.21,731.26 694.36,732.53 693.67,733.13ZM838.15,744.05C836.15,744.37 833.57,743.76 831.42,743.61C831.107,743.583 830.86,743.703 830.68,743.97L829,746.49C828.8,746.79 828.817,747.083 829.05,747.37C831.03,749.777 832.34,752.5 832.98,755.54C833.04,755.813 833.207,755.97 833.48,756.01C882.04,764.023 930.877,766.307 979.99,762.86C980.223,762.847 980.223,762.83 979.99,762.81C935.843,759.91 892.743,751.647 850.69,738.02C850.183,737.855 849.624,737.991 849.25,738.37C846.203,741.477 842.503,743.37 838.15,744.05ZM513.19,749.08C561.68,859.23 668.61,932.15 784.43,955.31C785.277,955.477 785.297,955.41 784.49,955.11C708.28,926.92 644.06,872.22 611.51,796.75C611.39,796.462 611.102,796.278 610.79,796.29C591.35,797.03 576.49,783.98 577.58,763.89C577.597,763.556 577.394,763.247 577.08,763.13C558.587,756.263 540.373,748.727 522.44,740.52C522.171,740.398 521.848,740.476 521.66,740.71C519.327,743.683 516.58,746.207 513.42,748.28C513.16,748.451 513.063,748.791 513.19,749.08ZM751.58,773.56C758.893,776.367 763.77,781.497 766.21,788.95C766.33,789.33 766.593,789.53 767,789.55L782.17,790.34C782.597,790.367 782.903,790.187 783.09,789.8C786.443,782.947 791.92,779.03 799.52,778.05C799.853,778.01 800.073,777.83 800.18,777.51L801.27,774.28C801.39,773.927 801.313,773.627 801.04,773.38C797.74,770.347 795.727,766.62 795,762.2C794.94,761.807 794.717,761.56 794.33,761.46L769.95,755.32C769.664,755.242 769.356,755.359 769.19,755.61C765.257,761.39 759.79,764.553 752.79,765.1C752.437,765.131 752.151,765.408 752.11,765.76L751.23,772.98C751.196,773.231 751.342,773.473 751.58,773.56ZM805.86,818.19C804.15,872.46 834.77,918.12 877.61,949.37C877.863,949.557 878.123,949.567 878.39,949.4C951.68,904.43 1009.74,843.42 1050.09,767.54C1050.28,767.167 1050.17,767.013 1049.76,767.08C1044.33,767.973 1038.89,768.857 1033.45,769.73C1023.17,771.39 1013.32,774.61 1003.24,777.47C944.193,794.25 883.623,803.313 821.53,804.66C820.917,804.673 820.487,804.957 820.24,805.51C817.467,811.73 812.813,815.777 806.28,817.65C806.007,817.723 805.867,817.903 805.86,818.19ZM813.44,781.81C816.547,784.323 818.85,787.227 820.35,790.52C820.49,790.82 820.723,790.967 821.05,790.96C864.56,790.37 906.48,785.43 948.71,777.46C949.45,777.32 949.443,777.25 948.69,777.25C908.81,777.37 871.35,775.08 831.51,768.72C831.183,768.667 830.93,768.78 830.75,769.06C826.903,775.12 821.333,778.283 814.04,778.55C813.72,778.563 813.467,778.7 813.28,778.96C812.447,780.107 812.5,781.057 813.44,781.81ZM680.78,811.02C667.19,811.1 656.15,802.46 653.65,789.06C653.46,788.07 653.98,786.38 652.51,785.97C647.87,784.683 641.773,783.14 634.22,781.34C633.847,781.247 633.56,781.367 633.36,781.7C630.927,785.647 627.773,788.907 623.9,791.48C623.623,791.665 623.517,792.025 623.65,792.33C659.38,874.52 734.43,930.8 819.96,952.63C820.58,952.79 820.603,952.727 820.03,952.44C760.13,922.42 706.65,875.09 681.5,811.5C681.385,811.211 681.099,811.02 680.78,811.02ZM703.25,796.64C700.43,801.77 697.85,803.99 693.92,807.07C693.653,807.283 693.583,807.543 693.71,807.85C719.3,869.6 772.28,916.1 832,944C832.593,944.273 832.617,944.233 832.07,943.88C786.63,914.36 750.88,872.83 740.07,818.35C740.003,818.017 739.81,817.787 739.49,817.66C738.443,817.26 737.407,816.887 736.38,816.54C728.33,813.84 723.05,807.5 721.22,799.2C721.16,798.92 720.987,798.76 720.7,798.72L704.02,796.26C703.673,796.207 703.417,796.333 703.25,796.64ZM752.89,816.93C763.14,867.21 797.44,907 840.06,933.75C840.16,933.81 840.17,933.797 840.09,933.71C837.623,930.957 834.497,927.327 830.71,922.82C805.53,892.82 791.63,856.13 793.07,816.79C793.09,816.41 792.927,816.133 792.58,815.96C787.74,813.5 784.333,809.743 782.36,804.69C782.213,804.317 781.94,804.12 781.54,804.1L766.2,803.32C765.773,803.293 765.477,803.477 765.31,803.87C762.863,809.51 758.857,813.607 753.29,816.16C752.95,816.313 752.817,816.57 752.89,816.93Z" style="fill:white;fill-rule:nonzero;"/>
                </g>
            </g>
        </g>
    </g>
</svg>
