<?xml version="1.0" encoding="UTF-8" standalone="no"?>
<!DOCTYPE svg PUBLIC "-//W3C//DTD SVG 1.1//EN" "http://www.w3.org/Graphics/SVG/1.1/DTD/svg11.dtd">
<svg width="100%" height="100%" viewBox="0 0 100 65" version="1.1" xmlns="http://www.w3.org/2000/svg" xmlns:xlink="http://www.w3.org/1999/xlink" xml:space="preserve" xmlns:serif="http://www.serif.com/" style="fill-rule:evenodd;clip-rule:evenodd;stroke-linejoin:round;stroke-miterlimit:2;">
    <path d="M28.3,50.7C28,50.4 27.7,50 27.4,49.6C27.7,50 28,50.3 28.3,50.7C28.6,51 28.9,51.4 29.2,51.7C28.9,51.4 28.6,51 28.3,50.7ZM79.2,12C78.5,11.5 77.9,11 77.2,10.6C77.9,11 78.5,11.5 79.2,12C80.9,13.4 82.5,15 83.8,16.8C82.5,14.9 80.9,13.3 79.2,12ZM85,18.6C84.6,18 84.2,17.3 83.7,16.8C84.2,17.4 84.6,18 85,18.6C85.3,19.2 85.7,19.9 86,20.5C85.7,19.8 85.4,19.2 85,18.6ZM86.8,22.5C87.3,23.8 87.6,25.2 87.8,26.7C87.7,25.3 87.3,23.9 86.8,22.5ZM28.3,50.7C28,50.4 27.7,50 27.4,49.6C27.7,50 28,50.3 28.3,50.7C28.6,51 28.9,51.4 29.2,51.7C28.9,51.4 28.6,51 28.3,50.7ZM28.3,50.7C28,50.4 27.7,50 27.4,49.6C27.7,50 28,50.3 28.3,50.7C28.6,51 28.9,51.4 29.2,51.7C28.9,51.4 28.6,51 28.3,50.7Z" style="fill:white;fill-rule:nonzero;"/>
    <path d="M58.1,5.6L59.4,5.6C63.2,5.6 66.9,6.2 70.5,7.3C70.6,7.4 70.8,7.4 71,7.5" style="fill:white;fill-rule:nonzero;"/>
    <path d="M75,52C75.6,51.6 76.1,51.1 76.6,50.7C76.8,50.5 77.1,50.3 77.3,50.1" style="fill:white;fill-rule:nonzero;"/>
    <path d="M38.3,25.3L27,26.1C27.7,24.7 28.4,23.3 29.3,22" style="fill:white;fill-rule:nonzero;"/>
    <path d="M34,16.7C33.4,17.3 32.8,17.8 32.3,18.4" style="fill:white;fill-rule:nonzero;"/>
    <path d="M91.6,27.1C91.3,23.8 90.3,20.5 88.8,17.5C87.1,14.4 85,11.7 82.3,9.5C79.4,7.1 76,5.1 72.4,3.8C68.2,2.3 63.8,1.5 59.4,1.5L57.7,1.5L57.6,0C48.8,0.2 40.2,2.7 32.7,7.4C29,9.7 25.6,12.6 22.7,15.9C19.9,19.1 17.7,22.9 16.2,26.8L0,28L17.1,40.9C17.8,45.3 19.6,49.4 22.4,52.9C25.2,56.3 28.7,59.1 32.6,61C36.7,63 41.1,64.2 45.6,64.6C50.3,65.1 55.1,64.7 59.7,63.7L61.3,63.3L61.4,63.3L61.5,64.6C65.4,63.6 69.1,62.1 72.6,60.1C75.8,58.4 78.7,56.2 81.4,53.7C83.9,51.4 86.1,48.8 87.9,46C89.6,43.4 91,40.4 91.9,37.4L100,36.3L91.6,27.1ZM87.9,26.7L77.6,39.5L85.5,38.4C85.1,39.5 84.5,40.7 84,41.7C83.4,42.8 82.7,43.9 82,44.8C81.2,45.8 80.4,46.9 79.5,47.8C78.8,48.5 76.9,50.4 76.7,50.6C76.2,51.1 75.6,51.5 75.1,51.9C74.7,52.2 74.3,52.5 73.8,52.8C73.4,53.1 72.9,53.4 72.5,53.7C71.6,54.3 70.7,54.8 69.7,55.3C68.7,55.8 67.7,56.3 66.6,56.7C66.1,56.9 65.6,57.1 65,57.3C64.4,57.5 63.9,57.7 63.4,57.9C62.7,58.1 61.9,58.3 61.2,58.5L61.2,58.7L61.3,59.5L61.2,59.5L60.3,59.8C60.2,59.8 60.1,59.9 60,59.9C56.1,60.7 52.1,60.9 48.1,60.5C44.3,60.1 40.6,59.1 37.1,57.4C34.2,56 31.6,54.1 29.4,51.7C29.1,51.4 28.8,51 28.5,50.7C28.2,50.4 27.9,50 27.7,49.6C25.8,47 24.5,44 23.8,40.9L38.6,25.4L27,26.1C27.7,24.7 28.5,23.3 29.3,22C30.2,20.7 31.2,19.5 32.2,18.4C32.8,17.8 33.3,17.2 33.9,16.7C35.6,15 37.6,13.6 39.6,12.4C41.8,11 44.2,9.9 46.7,9C47.9,8.6 49.1,8.2 50.3,8C51.2,7.7 52.2,7.5 53.2,7.4C53.9,7.3 54.5,7.2 55.2,7.1C56,7 56.8,6.9 57.6,6.9L58,6.9L58,5.6L59.5,5.6C63.3,5.6 67,6.2 70.6,7.3C70.7,7.4 70.9,7.4 71.1,7.5C71.3,7.5 71.4,7.6 71.6,7.7C71.7,7.7 71.8,7.8 71.9,7.8C72.5,8 73,8.2 73.5,8.5C74,8.7 74.5,9 75,9.3C75.7,9.7 76.4,10.1 77.1,10.6C77.8,11 78.4,11.5 79.1,12C80.8,13.4 82.4,15 83.7,16.8C84.2,17.4 84.6,18 85,18.6C85.3,19.2 85.7,19.9 86,20.5C86.3,21.1 86.6,21.8 86.8,22.5C87.3,23.9 87.7,25.3 87.9,26.7Z" style="fill:white;fill-rule:nonzero;"/>
    <path d="M58,6.8C57.7,6.8 57.5,6.9 57.2,6.9C57.3,6.9 57.4,6.9 57.5,6.8L58,6.8Z" style="fill:white;fill-rule:nonzero;"/>
    <path d="M61.2,59.6L61.2,59.5L61.1,58.7L61.2,59.6Z" style="fill:white;fill-rule:nonzero;"/>
    <path d="M63.3,57.9C62.6,58.1 61.8,58.3 61.1,58.5C61.9,58.3 62.6,58.1 63.3,57.9Z" style="fill:white;fill-rule:nonzero;"/>
    <path d="M84,41.8C83.4,42.9 82.7,44 82,44.9C81.2,45.9 80.4,47 79.5,47.9C80.4,46.9 81.2,45.9 82,44.9C82.7,43.9 83.4,42.9 84,41.8Z" style="fill:white;fill-rule:nonzero;"/>
    <path d="M38.3,25.3L23.5,40.9L38.3,25.3Z" style="fill:white;fill-rule:nonzero;"/>
</svg>
