<?xml version="1.0" encoding="utf-8"?>
<!-- Generator: Adobe Illustrator 21.1.0, SVG Export Plug-In . SVG Version: 6.00 Build 0)  -->
<svg version="1.1" id="Layer_1" xmlns="http://www.w3.org/2000/svg" xmlns:xlink="http://www.w3.org/1999/xlink" x="0px" y="0px"
	 viewBox="0 0 300 109.9" style="enable-background:new 0 0 300 109.9;" xml:space="preserve">
<style type="text/css">
	.st0{fill:#FFFFFF;}
</style>
<g>
	<g>
		<g>
			<path class="st0" d="M51.6,84.2C42.5,101,24.7,109,11.9,102c-12.8-6.9-15.8-26.2-6.7-43c9.1-16.8,26.9-24.8,39.7-17.9
				C57.7,48.1,60.7,67.4,51.6,84.2z M43.2,43.2c-11.9-6.5-28.4,1-36.9,16.6c-8.5,15.6-5.7,33.5,6.2,40c11.9,6.5,28.4-1,36.9-16.6
				C57.8,67.6,55.1,49.7,43.2,43.2z"/>
			<path class="st0" d="M43.4,79.5c-7,12.8-20.5,18.9-30.3,13.6c-9.8-5.3-12-20-5.1-32.8c7-12.8,20.5-18.9,30.3-13.6
				C48.1,52,50.4,66.6,43.4,79.5z M36.5,49.1c-8.7-4.7-20.8,0.7-27,12.1c-6.2,11.4-4.2,24.5,4.5,29.2c8.7,4.7,20.8-0.7,27-12.1
				C47.2,66.9,45.2,53.8,36.5,49.1z"/>
			<path class="st0" d="M67.6,29.4C61.7,40.3,50.2,45.5,41.9,41c-8.3-4.5-10.2-16.9-4.3-27.8C43.5,2.3,55-2.9,63.3,1.6
				C71.6,6.1,73.5,18.6,67.6,29.4z M62.2,2.9c-7.7-4.2-18.4,0.6-23.9,10.8c-5.5,10.1-3.7,21.7,4,25.9c7.7,4.2,18.4-0.6,23.9-10.8
				C71.7,18.7,69.9,7.1,62.2,2.9z"/>
			<path class="st0" d="M62.3,26.4c-4.5,8.3-13.3,12.2-19.6,8.8c-6.3-3.4-7.8-12.9-3.3-21.2C43.9,5.7,52.7,1.7,59,5.1
				C65.3,8.6,66.8,18.1,62.3,26.4z M57.8,6.7c-5.6-3.1-13.5,0.5-17.5,7.9c-4,7.4-2.7,15.9,2.9,18.9c5.6,3.1,13.5-0.5,17.5-7.9
				C64.8,18.2,63.5,9.8,57.8,6.7z"/>
			<path class="st0" d="M55.9,22.9c-2.6,4.8-7.6,7-11.2,5.1c-3.6-2-4.5-7.4-1.9-12.2c2.6-4.8,7.6-7,11.2-5.1
				C57.6,12.7,58.5,18.1,55.9,22.9z M52.7,12c-3-1.6-7.1,0.2-9.3,4.2c-2.1,3.9-1.4,8.4,1.6,10c3,1.6,7.1-0.2,9.3-4.2
				C56.3,18.1,55.6,13.6,52.7,12z"/>
			<path class="st0" d="M20.7,67.9c-1.9,3.5-5.7,5.2-8.4,3.8c-2.7-1.5-3.3-5.5-1.4-9.1c1.9-3.5,5.7-5.2,8.4-3.8
				C22,60.3,22.6,64.4,20.7,67.9z M18.3,59.8c-2.2-1.2-5.3,0.2-6.9,3.1c-1.6,2.9-1.1,6.3,1.2,7.5c2.2,1.2,5.3-0.2,6.9-3.1
				C21,64.4,20.5,61,18.3,59.8z"/>
			<path class="st0" d="M39.3,76.2c-1.9,3.6-5.7,5.2-8.4,3.8c-2.7-1.5-3.3-5.5-1.4-9.1c1.9-3.5,5.7-5.2,8.4-3.8
				C40.6,68.6,41.2,72.6,39.3,76.2z M36.9,68.1c-2.2-1.2-5.3,0.2-6.9,3.1c-1.6,2.9-1.1,6.3,1.2,7.5c2.2,1.2,5.3-0.2,6.9-3.1
				C39.6,72.6,39.1,69.3,36.9,68.1z"/>
			<path class="st0" d="M35.2,60.2c-1.9,3.5-5.7,5.2-8.4,3.8c-2.7-1.5-3.3-5.5-1.4-9.1c1.9-3.5,5.7-5.2,8.4-3.8
				C36.5,52.6,37.1,56.6,35.2,60.2z M32.7,52c-2.2-1.2-5.3,0.2-6.9,3.1c-1.6,2.9-1.1,6.3,1.2,7.5c2.2,1.2,5.3-0.2,6.9-3.1
				C35.5,56.6,35,53.3,32.7,52z"/>
			<ellipse transform="matrix(0.4771 -0.8789 0.8789 0.4771 -48.5097 57.564)" class="st0" cx="24.1" cy="69.5" rx="3" ry="2.3"/>
			
				<rect x="14.3" y="61.2" transform="matrix(0.4336 -0.9011 0.9011 0.4336 -39.9738 59.8752)" class="st0" width="26.7" height="1"/>
			
				<rect x="23.4" y="65" transform="matrix(0.9981 -6.154713e-02 6.154713e-02 0.9981 -4.4708 1.6107)" class="st0" width="1" height="16.8"/>
		</g>
	</g>
	<g>
		<path class="st0" d="M75.5,48.9l5.2,23.5h0.1L86,48.9h7.8L82.9,93.2c-0.4,1.7-1,3.1-1.7,4.2c-0.7,1.1-1.5,2-2.5,2.7
			c-0.9,0.7-1.9,1.1-3,1.4c-1.1,0.3-2.2,0.4-3.3,0.4h-2.1v-7.1h1.7c0.7,0,1.4-0.1,1.9-0.3c0.5-0.2,1-0.6,1.4-1.3
			c0.4-0.7,0.8-1.7,1.2-3c0.3-1.3,0.7-3.1,1.2-5.2l-10.3-36H75.5z"/>
		<path class="st0" d="M111.2,82.8H111c-1,1.4-2,2.5-3,3.2c-1,0.7-2.4,1.1-4.3,1.1c-0.9,0-1.8-0.1-2.7-0.4c-0.9-0.3-1.8-0.8-2.6-1.5
			c-0.8-0.7-1.5-1.7-2-3c-0.5-1.3-0.8-3-0.8-5.1c0-2.1,0.2-4,0.5-5.6c0.3-1.6,1-3,1.9-4c0.9-1.1,2.1-1.9,3.7-2.4
			c1.5-0.5,3.5-0.8,5.9-0.8c0.5,0,1.1,0,1.6,0.1c0.5,0,1.2,0.1,2,0.1v-3.9c0-1.3-0.3-2.4-0.8-3.2c-0.5-0.8-1.5-1.3-3-1.3
			c-1,0-1.9,0.3-2.7,1c-0.8,0.6-1.4,1.6-1.6,2.8h-7.4c0.2-3.4,1.4-6.1,3.4-8.2c1-1,2.2-1.8,3.6-2.3c1.4-0.6,2.9-0.9,4.7-0.9
			c1.6,0,3.1,0.2,4.5,0.7c1.4,0.5,2.6,1.2,3.6,2.2c1,1,1.8,2.2,2.4,3.7c0.6,1.5,0.9,3.2,0.9,5.2v26.2h-7.6V82.8z M111.2,70.4
			c-0.8-0.1-1.5-0.2-2.1-0.2c-1.6,0-3,0.4-4.2,1.2c-1.2,0.8-1.7,2.2-1.7,4.2c0,1.4,0.3,2.6,1,3.5c0.7,0.9,1.7,1.3,2.9,1.3
			c1.3,0,2.3-0.4,3-1.3c0.7-0.8,1.1-2,1.1-3.6V70.4z"/>
		<path class="st0" d="M132.4,75.8c0,1.2,0.3,2.1,1,2.7c0.7,0.6,1.6,1,2.7,1c1.4,0,2.4-0.4,2.9-1.3c0.5-0.8,0.8-1.7,0.9-2.5h7.6
			c0,1.6-0.3,3.1-0.8,4.5c-0.5,1.4-1.3,2.6-2.3,3.6c-1,1-2.2,1.9-3.6,2.5c-1.4,0.6-2.9,0.9-4.7,0.9c-2.3,0-4.3-0.5-6-1.5
			c-1.7-1-3-2.3-3.9-3.9c-0.5-1-0.9-2.1-1.1-3.4c-0.2-1.3-0.3-2.7-0.3-4.2V61.6c0-1.5,0.1-2.9,0.3-4.2c0.2-1.3,0.6-2.4,1.1-3.4
			c0.9-1.6,2.2-2.9,3.9-3.9c1.7-1,3.7-1.5,6-1.5c1.7,0,3.3,0.3,4.7,0.9c1.4,0.6,2.6,1.4,3.6,2.5c1,1.1,1.7,2.3,2.2,3.8
			c0.5,1.5,0.8,3.1,0.8,4.8h-7.6c0-1.5-0.3-2.7-1-3.4c-0.7-0.7-1.6-1.1-2.7-1.1c-1.1,0-2,0.4-2.7,1.1c-0.7,0.7-1,1.8-1,3.2V75.8z"/>
		<path class="st0" d="M151.8,28.7h7.6v23.8h0.1c0.8-1.2,1.7-2.2,2.9-2.9c1.1-0.8,2.5-1.2,4.3-1.2c0.9,0,1.9,0.2,2.8,0.5
			c0.9,0.3,1.8,0.9,2.5,1.6c0.7,0.7,1.3,1.7,1.8,2.9c0.4,1.2,0.7,2.6,0.7,4.3v28.9h-7.6V60.5c0-1.4-0.3-2.5-1-3.3
			c-0.6-0.8-1.6-1.2-2.8-1.2c-1.4,0-2.4,0.4-3,1.3c-0.5,0.9-0.8,2.2-0.8,3.9v25.4h-7.6V28.7z"/>
		<path class="st0" d="M180.8,28.7h7.6v12.5h-7.6V28.7z M180.8,48.9h7.6v37.7h-7.6V48.9z"/>
		<path class="st0" d="M201.5,70.6v5.1c0,1.2,0.3,2.1,1,2.7c0.7,0.6,1.6,1,2.7,1c1.4,0,2.4-0.4,2.9-1.3c0.5-0.8,0.8-1.7,0.9-2.5h7.6
			c0,1.6-0.3,3.1-0.8,4.5c-0.5,1.4-1.3,2.6-2.3,3.6c-1,1-2.2,1.9-3.6,2.5c-1.4,0.6-3,0.9-4.7,0.9c-2.3,0-4.3-0.5-6-1.5
			c-1.7-1-3-2.3-3.9-3.9c-0.5-1-0.9-2.1-1.1-3.4c-0.2-1.3-0.3-2.7-0.3-4.2V61.6c0-1.5,0.1-2.9,0.3-4.2c0.2-1.3,0.6-2.4,1.1-3.4
			c0.9-1.6,2.2-2.9,3.9-3.9c1.7-1,3.7-1.5,6-1.5c1.7,0,3.3,0.3,4.7,0.9c1.4,0.6,2.6,1.4,3.6,2.5c1,1.1,1.7,2.3,2.2,3.8
			c0.5,1.4,0.8,3,0.8,4.6v10.4H201.5z M201.5,64.7h7.4v-4.3c0-1.4-0.3-2.5-1-3.2c-0.7-0.7-1.6-1.1-2.7-1.1c-1.1,0-2,0.4-2.7,1.1
			c-0.7,0.7-1,1.8-1,3.2V64.7z"/>
		<path class="st0" d="M235.5,28.7h7.6V76c0,1.4,0.3,2.4,0.8,2.9c0.5,0.5,1.5,0.9,2.9,1v7.1c-1.7,0-3.3-0.1-4.7-0.4
			c-1.4-0.3-2.6-0.8-3.6-1.6c-1-0.8-1.7-1.8-2.2-3.2c-0.5-1.4-0.8-3.2-0.8-5.4V28.7z"/>
		<path class="st0" d="M264.1,82.8H264c-1,1.4-2,2.5-3,3.2c-1,0.7-2.4,1.1-4.3,1.1c-0.9,0-1.8-0.1-2.7-0.4c-0.9-0.3-1.8-0.8-2.6-1.5
			c-0.8-0.7-1.5-1.7-2-3c-0.5-1.3-0.8-3-0.8-5.1c0-2.1,0.2-4,0.5-5.6c0.3-1.6,1-3,1.9-4c0.9-1.1,2.1-1.9,3.7-2.4
			c1.5-0.5,3.5-0.8,5.9-0.8c0.5,0,1.1,0,1.6,0.1c0.5,0,1.2,0.1,2,0.1v-3.9c0-1.3-0.3-2.4-0.8-3.2c-0.5-0.8-1.5-1.3-3-1.3
			c-1,0-1.9,0.3-2.7,1c-0.8,0.6-1.4,1.6-1.6,2.8h-7.4c0.2-3.4,1.4-6.1,3.4-8.2c1-1,2.2-1.8,3.6-2.3c1.4-0.6,2.9-0.9,4.7-0.9
			c1.6,0,3.1,0.2,4.5,0.7c1.4,0.5,2.6,1.2,3.6,2.2c1,1,1.8,2.2,2.4,3.7c0.6,1.5,0.9,3.2,0.9,5.2v26.2h-7.6V82.8z M264.1,70.4
			c-0.8-0.1-1.5-0.2-2.1-0.2c-1.6,0-3,0.4-4.2,1.2c-1.2,0.8-1.7,2.2-1.7,4.2c0,1.4,0.3,2.6,1,3.5c0.7,0.9,1.7,1.3,2.9,1.3
			c1.3,0,2.3-0.4,3-1.3c0.7-0.8,1.1-2,1.1-3.6V70.4z"/>
		<path class="st0" d="M277.3,28.7h7.6v23.6h0.1c0.8-1.2,1.8-2.2,3-2.9c1.2-0.7,2.5-1,4-1c1.8,0,3.3,0.3,4.3,1
			c1,0.6,1.8,1.5,2.5,2.5c0.5,0.8,0.8,1.8,1,3.1c0.1,1.3,0.2,3.3,0.2,6v14.3c0,2.1-0.1,3.7-0.3,5c-0.2,1.2-0.5,2.3-1,3.1
			c-1.3,2.4-3.5,3.6-6.6,3.6c-1.9,0-3.3-0.4-4.3-1.1c-1-0.7-2-1.7-2.9-2.7v3.4h-7.6V28.7z M292.4,60.5c0-1.2-0.3-2.2-0.8-3.1
			c-0.5-0.9-1.5-1.3-2.9-1.3c-1.1,0-2,0.4-2.7,1.2c-0.7,0.8-1.1,1.7-1.1,2.9v14.6c0,1.4,0.3,2.5,1,3.4c0.7,0.9,1.6,1.3,2.7,1.3
			c1.3,0,2.2-0.5,2.8-1.4c0.6-0.9,0.9-2.2,0.9-3.7V60.5z"/>
	</g>
	<g>
		<path class="st0" d="M116.6,103.8c0,1-0.1,6.1-4.2,6.1c-1.9,0-4.2-1.4-4.2-6.1c0-4.7,2.2-6.1,4.2-6.1
			C114.3,97.7,116.6,99.1,116.6,103.8z M109.8,103.8c0,1.7,0.3,4.7,2.6,4.7c2.3,0,2.6-2.9,2.6-4.7c0-1.7-0.3-4.7-2.6-4.7
			C110.1,99.1,109.8,102.1,109.8,103.8z"/>
		<path class="st0" d="M119.1,97.9h7.4v1.4h-5.9v3.5h5v1.4h-5v5.5h-1.5V97.9z"/>
		<path class="st0" d="M139.8,106c0.3,1.4,1,2.5,2.6,2.5c1.2,0,2.2-0.7,2.2-2c0-1.4-1.2-1.8-2.4-2.3c-1.7-0.7-3.3-1.2-3.3-3.4
			c0-2,1.6-3.1,3.5-3.1c2,0,3.1,1.1,3.6,3l-1.4,0.4c-0.3-1.2-0.9-2-2.2-2c-1,0-1.9,0.5-1.9,1.6c0,1.1,0.7,1.4,1.6,1.8l2.5,1.1
			c1.1,0.6,1.6,1.5,1.6,2.8c0,2.2-1.6,3.5-3.7,3.5c-2.2,0-3.6-1.4-3.9-3.5L139.8,106z"/>
		<path class="st0" d="M154.9,97.6l1.4,0.7l-3.8,6.8v4.6H151v-4.6l-3.8-6.8l1.4-0.7l3.1,6.1L154.9,97.6z"/>
		<path class="st0" d="M157.8,97.9h1.9l4.6,9.9l0,0l-0.1-3.1v-6.8h1.5v11.8h-1.9l-4.6-9.9l0,0l0.1,3.1v6.8h-1.5V97.9z"/>
		<path class="st0" d="M170.8,99.3h-3.3v-1.4h8v1.4h-3.2v10.4h-1.5V99.3z"/>
		<path class="st0" d="M177.3,97.9h1.5v4.9h4.7v-4.9h1.5v11.8h-1.5v-5.5h-4.7v5.5h-1.5V97.9z"/>
		<path class="st0" d="M187.7,97.9h7.4v1.4h-5.8v3.5h4.8v1.4h-4.8v4.2h5.8v1.4h-7.4V97.9z"/>
		<path class="st0" d="M200,99.3h-3.3v-1.4h8v1.4h-3.2v10.4H200V99.3z"/>
		<path class="st0" d="M207.3,108.4h1.7v-9.1h-1.7v-1.4h4.8v1.4h-1.7v9.1h1.7v1.4h-4.8V108.4z"/>
		<path class="st0" d="M222.5,107.5c-1,1.5-2.1,2.5-3.9,2.5c-3.4,0-4.5-3.2-4.5-6.1c0-4.7,2.5-6.1,4.4-6.1c1.8,0,2.9,1,3.7,2.5
			l-1.4,0.7c-0.5-1-1.2-1.8-2.3-1.8c-2.4,0-2.8,2.9-2.8,4.7c0,1.8,0.4,4.7,2.8,4.7c1.4,0,2.1-0.8,2.8-1.9L222.5,107.5z"/>
		<path class="st0" d="M234.7,109.7v-1.4h1.2v-9.1h-1.2v-1.4h3.7c3,0,4.3,1.1,4.3,3.1c0,1-0.4,1.9-1.3,2.4c1.3,0.4,2,1.5,2,2.9
			c0,2.1-1.4,3.4-3.9,3.4H234.7z M239.1,103c1.3,0,2-0.8,2-1.9c0-1.4-1-1.8-2.1-1.8h-1.6v3.7H239.1z M239.2,108.4
			c1.3,0,2.6-0.3,2.6-1.9c0-1.2-0.8-2.1-2.2-2.1h-2.1v4H239.2z"/>
		<path class="st0" d="M245.4,108.4h1.7v-9.1h-1.7v-1.4h4.8v1.4h-1.7v9.1h1.7v1.4h-4.8V108.4z"/>
		<path class="st0" d="M260.6,103.8c0,1-0.1,6.1-4.2,6.1c-1.9,0-4.2-1.4-4.2-6.1c0-4.7,2.2-6.1,4.2-6.1
			C258.3,97.7,260.6,99.1,260.6,103.8z M253.8,103.8c0,1.7,0.3,4.7,2.6,4.7c2.3,0,2.6-2.9,2.6-4.7c0-1.7-0.3-4.7-2.6-4.7
			C254.1,99.1,253.8,102.1,253.8,103.8z"/>
		<path class="st0" d="M263,97.9h1.5v10.4h6.2v1.4H263V97.9z"/>
		<path class="st0" d="M279.9,103.8c0,1-0.1,6.1-4.2,6.1c-1.9,0-4.2-1.4-4.2-6.1c0-4.7,2.2-6.1,4.2-6.1
			C277.6,97.7,279.9,99.1,279.9,103.8z M273.1,103.8c0,1.7,0.3,4.7,2.6,4.7c2.3,0,2.6-2.9,2.6-4.7c0-1.7-0.3-4.7-2.6-4.7
			C273.5,99.1,273.1,102.1,273.1,103.8z"/>
		<path class="st0" d="M289.6,108.6c-1,0.8-2.4,1.3-3.6,1.3c-3.5,0-4.5-3.2-4.5-6.1c0-2.9,1-6.1,4.4-6.1c1.6,0,3,0.9,3.8,2.3
			l-1.3,0.8c-0.6-1-1.4-1.7-2.6-1.7c-2.3,0-2.7,2.9-2.7,4.7c0,1.8,0.4,4.6,2.8,4.6c0.8,0,1.5-0.2,2.2-0.6v-3.1h-2.8v-1.4h4.3V108.6z
			"/>
		<path class="st0" d="M298.6,97.6l1.4,0.7l-3.8,6.8v4.6h-1.5v-4.6l-3.8-6.8l1.4-0.7l3.1,6.1L298.6,97.6z"/>
	</g>
</g>
</svg>
