<?xml version="1.0" encoding="UTF-8"?>
<svg xmlns="http://www.w3.org/2000/svg" version="1.1" viewBox="0 0 696.37 211.69">
  <!-- Generator: Adobe Illustrator 28.7.5, SVG Export Plug-In . SVG Version: 1.2.0 Build 176)  -->
  <g>
    <g id="_x31_C_x5F_1_x5F_yoko">
      <g>
        <path d="M127.52,88.92c.68-1.4.77-2.98.25-4.45-.05-.13-.1-.27-.17-.43,6.89-4.81,14.58-8.53,22.86-11.06.3.52.69.99,1.14,1.39-3.35,7.71-4.9,15.47-4.6,23.06-2.15.85-3.37,3.07-2.95,5.35-3.51,1.94-6.85,4.14-9.93,6.53-.84-.56-1.83-.85-2.85-.85-.45,0-.9.06-1.33.17-2.17-4.04-3.81-8.29-4.87-12.64-.3-1.25-.57-2.59-.81-4.12,1.44-.53,2.59-1.57,3.26-2.95ZM93.79,73.77h0c-.12.04-.24.07-.35.11,1.15,9.76,3.98,19.23,8.42,28.12.07.13.14.27.21.4l.07.13c.54-.15,1.09-.22,1.64-.22.6,0,1.2.09,1.77.26.84-1.29,1.62-2.42,2.39-3.45,2.64-3.57,5.68-6.98,9.03-10.14-.12-.23-.21-.45-.29-.66-.51-1.47-.43-3.05.25-4.45.68-1.41,1.88-2.47,3.36-2.99.16-.05.32-.1.52-.15.58-10.63,4.15-21.17,10.63-31.32.26-.41.53-.81.8-1.22l.09-.13c-.54-.6-.96-1.28-1.25-2.02-12.98,3.29-24.3,9.11-33.64,17.3.3.47.54.96.72,1.46.62,1.77.51,3.68-.3,5.37-.82,1.7-2.26,2.98-4.06,3.61ZM151.15,106.11c.26,1.06.51,1.94.77,2.76.84,2.59,1.96,5.17,3.34,7.68.26-.05.53-.08.8-.08.98,0,1.92.33,2.68.95,2.45-1.31,5.04-2.53,7.7-3.62-.02-1.36.66-2.64,1.79-3.38-.66-3.78-.78-7.69-.37-11.62-.76-.37-1.4-.94-1.85-1.65-4.26,1.11-8.43,2.52-12.4,4.18.24,1.96-.72,3.81-2.47,4.77ZM92.8,151.07c.69-1.08,1.66-1.93,2.82-2.48-.57-3.16-.88-6.38-.94-9.57-2.13-.54-3.82-2.09-4.54-4.14-.55-1.58-.48-3.28.21-4.8-5.76-4.4-11.06-9.28-15.75-14.51-.36.2-.74.36-1.12.49-.61.21-1.25.34-1.89.39v.08c-.02.11-.04.22-.05.33-.57,6.47-.23,13.01,1.02,19.42.11,0,.22,0,.33,0,3.3,0,6.3,2.1,7.39,5.23.51,1.44.57,2.98.2,4.46,4.03,1.88,8.17,3.6,12.32,5.11ZM99.82,113.21c-.88-.72-1.53-1.66-1.9-2.72-.81-2.31-.13-4.94,1.69-6.59-.03-.05-.06-.11-.08-.16-.08-.15-.16-.3-.24-.46-4.61-9.24-7.55-19.06-8.72-29.19-.88-.11-1.75-.39-2.53-.82-6.53,8.35-11.25,18.1-14.01,28.98,1.9.83,3.37,2.41,4.05,4.35.85,2.41.36,5.13-1.26,7.12,4.55,5.06,9.69,9.79,15.27,14.06.61-.51,1.31-.91,2.07-1.18.53-.18,1.07-.29,1.63-.34.86-4.41,2.22-8.81,4.04-13.06ZM148.32,106.71c-1.1-.11-2.17-.61-2.95-1.39-3.36,1.86-6.53,3.94-9.41,6.16.06.12.12.25.17.39.58,1.65.24,3.52-.88,4.89,2.2,2.84,4.73,5.59,7.53,8.17.22-.12.45-.22.68-.3.47-.16.96-.25,1.46-.25.8,0,1.58.21,2.28.62,1.48-1.19,3.07-2.36,4.72-3.47-.25-1.23.07-2.53.87-3.51-1.5-2.7-2.71-5.48-3.61-8.27-.29-.91-.57-1.89-.85-3.05ZM147.44,142.79c.48-.55,1.09-.96,1.76-1.19.94-.33,1.97-.3,2.91.07.77-.8,1.61-1.62,2.56-2.47-.21-.64-.25-1.32-.11-1.98-2.55-1.54-4.93-3.11-7.06-4.69-.36.26-.72.44-1.09.57-1.15.39-2.43.3-3.53-.26-.99,1.05-1.95,2.16-2.86,3.31.31.4.53.81.68,1.25.27.77.33,1.6.18,2.42,2.12,1.06,4.32,2.06,6.56,2.98ZM116.18,131.5c-.69-.61-1.2-1.38-1.51-2.24-.5-1.42-.37-2.99.34-4.32-3.33-3.31-6.39-6.9-9.1-10.69-.03.01-.06.02-.09.03-1.13.4-2.34.45-3.51.17l.03-.13-3.85,12.45.04-.12c1.85.67,3.29,2.11,3.94,3.96.49,1.38.48,2.9-.01,4.29,2.46,1.5,5.01,2.94,7.6,4.28.64-.71,1.46-1.26,2.37-1.58.53-.18,1.08-.28,1.65-.31.54-1.89,1.25-3.84,2.1-5.8ZM121.38,92.16c-.91-.13-1.78-.47-2.53-1-3.19,3.01-6.08,6.27-8.59,9.67-.69.94-1.42,1.98-2.2,3.17.71.67,1.26,1.51,1.58,2.43.76,2.17.25,4.54-1.32,6.22,2.6,3.62,5.53,7.05,8.69,10.2.33-.2.67-.36,1.01-.47,1.1-.38,2.3-.39,3.41-.05,1.58-2.21,3.37-4.36,5.31-6.39-.13-.24-.23-.47-.31-.71-.62-1.78-.21-3.73,1.08-5.12-2.35-4.34-4.11-8.86-5.23-13.44-.33-1.36-.62-2.84-.88-4.51ZM148.94,127.14h0s0,0,0,0h.01ZM211.01,95.56c-11.96-2.18-24.62-2.25-36.62-.2-.23,1.68-1.41,3.11-3.01,3.67-.21.07-.43.13-.66.17-.37,3.6-.25,7.17.34,10.63.96.15,1.84.66,2.46,1.41,7.18-2.28,14.71-3.73,22.39-4.32,5.13-.39,10.38-.38,15.59.04,0-.4.03-.79.03-1.19,0-3.44-.18-6.84-.5-10.2h-.01ZM110.12,15.14c11.99-3.95,24.28-5.99,36.55-6.09.63,0,1.27,0,1.92,0-9.15-4.06-18.99-6.85-29.29-8.17l-.05.05c-3.88,3.96-7.38,8.19-10.4,12.57.5.47.92,1.02,1.27,1.62ZM54.23,68.36c-.24.08-.48.15-.76.22.21.98.4,1.85.6,2.64,2.68,11.01,7.33,21.48,13.82,31.1.25-.12.46-.21.67-.28.85-.29,1.74-.43,2.63-.41,2.87-11.37,7.79-21.56,14.62-30.27-.45-.59-.81-1.24-1.05-1.93-.62-1.77-.51-3.68.3-5.37.82-1.7,2.26-2.98,4.06-3.6.28-.1.59-.18.94-.25.41-9.35,2.3-18.64,5.63-27.62,1-2.71,2.17-5.44,3.48-8.15-.49-.39-.93-.85-1.31-1.37-13.85,6.44-26.4,15.54-36.29,26.32-1.42,1.55-2.83,3.18-4.19,4.86.94.91,1.67,2.05,2.1,3.29.75,2.13.62,4.43-.36,6.47-.99,2.05-2.73,3.6-4.9,4.35ZM120.7,156.96c.16.47.27.95.31,1.45,1.46.23,2.71.42,3.92.59.61-1.24,1.69-2.21,3-2.66.15-.05.29-.08.44-.11.08-.8.2-1.62.34-2.45-1.03-.6-1.81-1.53-2.19-2.63-.21-.59-.3-1.22-.27-1.86-2.46-.86-4.96-1.82-7.42-2.84-.68.88-1.59,1.53-2.64,1.89-.29.1-.58.17-.87.23,0,.05,0,.09,0,.14,0,.15-.02.31-.02.46,0,1.17.07,2.39.21,3.82,2.38.18,4.41,1.73,5.2,3.98ZM101.74,25.77c-1.25,2.59-2.37,5.23-3.34,7.83-3.21,8.65-5.04,17.61-5.45,26.63.85.19,1.69.53,2.42,1.02,9.78-8.61,21.64-14.69,35.26-18.09.18-2.67,1.94-4.96,4.49-5.85,1.73-.6,3.66-.46,5.29.38,6.62-7.33,14.71-14.03,24.04-19.91-3.06-2.04-6.23-3.92-9.5-5.64h-.25c-2.49-.14-4.82-.2-6.93-.2-.36,0-.71,0-1.07,0-11.99.09-23.98,2.08-35.67,5.93.44,3.4-1.59,6.66-4.86,7.79-1.44.5-2.98.54-4.45.11ZM203.63,109.51c-2.49,0-5.02.1-7.5.29-7.45.57-14.75,1.98-21.71,4.18-.06,1.11-.61,2.17-1.48,2.87.94,2.52,2.16,5,3.64,7.37,1.14-.18,2.26.19,3.05.99,8.48-2.75,17.48-4.18,26.76-4.26.26,0,.53,0,.8,0,.91,0,1.97.02,3.22.07.53-3.66.86-7.39,1.01-11.17-2.7-.22-5.32-.33-7.8-.33ZM189.21,66.88c.09.25.15.5.2.78,5.7,1,11.34,2.66,16.78,4.93-1.84-5.58-4.13-10.96-6.84-16.09-4.04,2.93-7.68,5.99-10.82,9.11.3.42.53.84.68,1.27ZM167.51,116.47c-2.5,1.03-4.95,2.18-7.29,3.41.22,1.11,0,2.26-.63,3.19,1.62,2.05,3.46,4.04,5.46,5.9.16-.08.29-.14.42-.18.39-.13.8-.2,1.22-.2.88,0,1.74.31,2.42.89,1.46-.72,2.98-1.41,4.52-2.06.04-.6.23-1.17.55-1.67-1.63-2.6-2.96-5.3-3.98-8.03-1.02-.06-2-.51-2.69-1.25ZM170.28,133.33c7.34,5.43,16.26,9.63,26.52,12.51-7.65-4.06-13.97-9.04-18.78-14.79-1.22.31-2.51-.04-3.4-.93-1.41.59-2.82,1.23-4.19,1.91.03.43-.02.87-.15,1.32ZM183.63,41.81c.26.73.38,1.5.35,2.28,3.43,1.04,6.89,2.33,10.3,3.83-2.13-3.25-4.41-6.4-6.88-9.39-1.51,1.01-2.82,1.91-3.99,2.76.09.19.15.35.21.52ZM179.73,49.82c-1.96.67-4.11.36-5.79-.84-5.94,5.42-10.92,11.26-14.79,17.34.41.41.75.87,1.02,1.38,6.45-1.13,12.97-1.53,19.35-1.19.58-1.33,1.69-2.35,3.04-2.82,1.2-.41,2.51-.37,3.69.11,3.4-3.41,7.34-6.72,11.7-9.85-.28-.5-.57-1.01-.87-1.51l-.15-.08c-4.5-2.25-9.12-4.1-13.72-5.5-.75,1.39-1.99,2.44-3.49,2.95ZM157.27,124.76c-1.33.39-2.79.09-3.88-.79-1.5,1.02-2.95,2.08-4.31,3.17.04.08.08.16.11.25.32.92.33,1.91.01,2.85,2.18,1.61,4.49,3.15,6.89,4.59.33-.25.69-.44,1.05-.56,1.08-.37,2.28-.26,3.29.33.78-.54,1.63-1.1,2.6-1.71-.09-.59-.04-1.2.15-1.76-2.16-2-4.14-4.14-5.9-6.37ZM98.59,147.92c2.92,0,5.52,1.84,6.48,4.57.29.83.41,1.7.37,2.58,1.45.39,2.88.76,4.28,1.09.64-1.21,1.67-2.16,2.94-2.71-.16-1.61-.24-2.97-.24-4.3,0-.21,0-.41.02-.62,0-.07,0-.14,0-.21-1.64-.57-2.96-1.87-3.53-3.49-.35-1-.41-2.07-.18-3.11-2.67-1.39-5.29-2.87-7.8-4.4-.69.69-1.55,1.23-2.47,1.55-.28.1-.57.17-.89.23.06,2.94.35,5.91.87,8.81.05,0,.11,0,.16,0ZM207.2,123.82h-.77c-8.95.08-17.63,1.45-25.79,4.07-.03.47-.17.94-.39,1.36,5.68,6.8,13.53,12.42,23.35,16.7,2.88-7.01,5.03-14.41,6.35-22.08-.75-.03-1.74-.06-2.75-.06ZM168.51,135.55c-.2.11-.39.2-.58.26-1.15.4-2.42.21-3.42-.51-.84.53-1.59,1.02-2.3,1.51.14.46.19.96.15,1.47,11.5,5.79,24.62,9.7,39.02,11.62-12.72-2.9-24.08-7.86-32.88-14.36ZM192.19,151.29c-11.26-2.23-21.71-5.75-31.06-10.45-.41.39-.88.68-1.4.86-1.08.37-2.26.25-3.25-.31-.78.71-1.53,1.44-2.23,2.17.11.2.19.4.26.59.15.43.23.88.23,1.34,11.67,3.85,24.06,5.8,36.85,5.8.2,0,.4,0,.6,0ZM147.07,160.35c9.93-.11,19.94-1.19,29.78-3.21-1.22.03-2.41.05-3.55.05-7.99,0-16.01-.66-23.85-1.97-.52.95-1.37,1.66-2.4,2.02-.51.18-1.06.25-1.62.23-.07.2-.14.41-.21.61.86.55,1.52,1.35,1.86,2.28ZM153.76,148.18c-.48.57-1.11,1-1.81,1.24-.8.27-1.67.3-2.5.06-.17.25-.35.52-.52.79.37.42.64.89.82,1.4.08.22.14.45.18.7,7.67,1.28,15.53,1.93,23.35,1.93,3.44,0,6.95-.13,10.47-.39-10.36-.65-20.44-2.57-29.99-5.74ZM143.49,203.14c-20.08,0-45.6-8.85-66.62-23.1-21.95-14.89-36.2-33.1-41.21-52.66-.11,0-.21,0-.32,0-4.55,0-8.72-2.92-10.22-7.22-1.23-3.51-.57-7.32,1.76-10.23-8.62-9.58-16.39-20.41-23.09-32.22-2.45,8.94-3.79,18.34-3.79,28.06,0,58.41,47.35,105.76,105.76,105.76,14.8,0,28.88-3.05,41.67-8.54-1.48.1-2.75.15-3.94.15ZM167,19.6c-9.5,5.86-17.7,12.57-24.36,19.94.31.4.58.84.79,1.3,4.32-.51,8.81-.76,13.33-.76,5.07,0,10.16.41,15.13,1.21.71-1.57,2.05-2.78,3.68-3.35,2.07-.71,4.39-.3,6.09,1.08,1.16-.84,2.42-1.72,3.85-2.67-5.48-6.28-11.68-11.91-18.48-16.76l-.03.02ZM193.72,155.76c-15.36,4.86-31.05,7.44-46.63,7.65-.46,1.32-1.51,2.38-2.83,2.83-.2.07-.4.11-.55.15v.12c-.03.3-.04.61-.04.92-.06,8.74,3.68,17.13,10.83,24.26,1.6,1.6,3.5,3.21,5.63,4.78l.03.02c16.63-9.99,30.27-24.43,39.31-41.66-2.15.39-4.03.69-5.74.93ZM144.16,149c.73-.25,1.52-.31,2.3-.15.25-.4.46-.73.67-1.03-.22-.32-.38-.62-.49-.94-.16-.45-.24-.93-.23-1.42-2.36-.97-4.68-2.03-6.89-3.13-.51.5-1.09.86-1.73,1.08-.84.29-1.74.34-2.6.15-.35.68-.67,1.33-.95,1.97.82.6,1.42,1.4,1.75,2.34.16.46.25.97.26,1.51,1.9.52,3.81,1,5.67,1.42.53-.84,1.33-1.48,2.25-1.8h0ZM5,73.98c.07.13.14.27.22.4,6.72,12.16,14.75,23.41,23.86,33.46.84-.59,1.75-1.06,2.72-1.4.63-.22,1.29-.38,1.96-.48.7-13.66,4.66-26.94,11.77-39.47-.98-.93-1.73-2.09-2.18-3.36-.75-2.14-.62-4.43.37-6.47.99-2.05,2.73-3.6,4.89-4.35-.42-13.51,2.04-26.91,7.3-39.84C31.81,25.39,13.29,47.36,4.92,73.84l.08.15ZM59.84,10.56c-5.93,13.3-8.74,27.19-8.36,41.28,1.21,0,2.42.28,3.51.78,1.46-1.8,2.96-3.55,4.46-5.18,10.14-11.05,23-20.38,37.21-26.98-.86-3.6,1.19-7.34,4.71-8.56,1.63-.56,3.41-.53,5.02.08,2.71-3.95,5.84-7.82,9.31-11.51-3.27-.31-6.59-.48-9.94-.48-16.44,0-32,3.75-45.87,10.44l-.06.13ZM132.71,142.12c-.45-.48-.78-1.03-.99-1.62-.29-.84-.34-1.73-.15-2.59-3.05-1.88-5.96-3.9-8.66-6.01-.41.28-.85.51-1.33.68-.91.31-1.89.38-2.84.19-.73,1.7-1.36,3.42-1.85,5.13,1.32.67,2.32,1.8,2.81,3.19.3.86.39,1.79.25,2.7,2.39,1,4.83,1.93,7.26,2.78.61-.83,1.43-1.44,2.38-1.77.62-.21,1.27-.29,1.93-.26.34-.75.72-1.55,1.18-2.42ZM173.85,92.53c12.05-2.07,24.78-2.06,36.83.05-.7-5.61-1.83-11.08-3.37-16.38l-.08-.04c-5.78-2.63-11.88-4.53-18.13-5.64-.57,1.39-1.69,2.47-3.1,2.96-1.35.47-2.85.35-4.14-.33-1.24,1.61-2.37,3.21-3.36,4.78-2.71,4.25-4.76,8.64-6.11,13.05.6.39,1.1.93,1.45,1.56ZM179.76,71.15c-.17-.29-.3-.57-.4-.86-.1-.28-.17-.57-.22-.9-1.55-.08-2.86-.12-4.1-.12-4.71,0-9.5.42-14.25,1.24-.12,2.22-1.6,4.18-3.71,4.92-.92.32-1.92.39-2.88.2-3.12,7.23-4.57,14.49-4.31,21.58.99.22,1.89.75,2.55,1.5,4.13-1.74,8.47-3.21,12.89-4.36.15-1.79,1.33-3.32,3.04-3.91.37-.13.78-.2,1.23-.23,1.42-4.69,3.59-9.35,6.46-13.85,1.1-1.72,2.34-3.48,3.69-5.23ZM150.29,195.5c-2.59-1.62-4.99-3.38-7.15-5.25-7.82-6.76-12.8-15.01-14.41-23.86-1.88-.33-3.42-1.63-4.04-3.4-.1-.29-.18-.6-.23-.92-1.49-.2-2.8-.39-4.02-.59-.5,1.05-1.32,1.94-2.31,2.54,4.97,12.79,16.62,24.17,32.15,31.48ZM171.33,44.12c-4.79-.77-9.69-1.16-14.57-1.16-4.29,0-8.57.24-12.71.72-.02,2.81-1.82,5.31-4.5,6.24-1.59.55-3.31.49-4.86-.17l-.08.13c-.25.36-.49.73-.72,1.1-6.17,9.67-9.59,19.7-10.17,29.79.76.2,1.49.55,2.11,1.03,7.21-5.06,15.25-8.95,23.9-11.58.01-2.33,1.5-4.4,3.72-5.17,1.04-.36,2.15-.4,3.21-.13,4.02-6.35,9.21-12.44,15.41-18.09-.15-.28-.28-.57-.38-.86-.21-.59-.32-1.2-.34-1.83ZM134.65,134.48c.99-.34,2.05-.34,3.06,0,.99-1.26,2.06-2.49,3.18-3.67-.07-.14-.15-.3-.21-.47-.38-1.09-.33-2.27.16-3.33-2.95-2.71-5.61-5.61-7.93-8.61-1.38.46-2.89.3-4.17-.43-1.78,1.87-3.43,3.86-4.9,5.91.49.54.85,1.15,1.09,1.83.46,1.31.4,2.72-.17,3.98,2.58,2.02,5.37,3.95,8.29,5.76.48-.43,1.02-.76,1.61-.96ZM141.26,153.6c-1.89-.43-3.83-.92-5.8-1.46-.61.96-1.52,1.69-2.57,2.06-.42.15-.87.23-1.38.25-.1.6-.18,1.22-.25,1.85,1.57.5,2.82,1.71,3.36,3.25.05.14.09.29.13.45,1.29.09,2.6.15,3.75.2.5-1.23,1.49-2.18,2.73-2.61.36-.13.75-.2,1.19-.23.1-.3.2-.63.32-.96-.59-.5-1.03-1.14-1.28-1.86-.1-.29-.17-.59-.2-.95ZM140.82,166.19v-.13c-1.14-.52-2.02-1.48-2.43-2.64-.02-.04-.03-.09-.04-.13-1.4-.06-2.64-.12-3.78-.2-.52,1.38-1.59,2.48-2.96,3.03,1.54,8.11,6.17,15.7,13.41,21.96,2.03,1.75,4.29,3.42,6.73,4.95-7.25-7.54-11.05-16.38-10.98-25.62,0-.41.03-.82.05-1.21ZM50.57,68.79c-.92-.09-1.8-.33-2.64-.69-6.79,12.03-10.59,24.76-11.29,37.83,4.09.49,7.6,3.28,8.95,7.14,1.12,3.2.64,6.78-1.28,9.59,7.07,6.04,14.71,11.49,22.71,16.21.75-.83,1.68-1.5,2.71-1.94-1.31-6.71-1.67-13.54-1.07-20.32,0-.1.02-.2.03-.31v-.08s.02-.07.02-.11c-2.22-.71-3.99-2.43-4.75-4.61-.91-2.61-.31-5.47,1.59-7.49-6.71-9.93-11.51-20.73-14.29-32.1-.23-.93-.45-1.95-.7-3.11ZM115.38,164.87c-2.69.15-5.14-1.47-6.02-3.99-.19-.54-.3-1.11-.32-1.69-1.43-.34-2.93-.73-4.47-1.14-.57,1.02-1.4,1.87-2.4,2.48,5.28,12.39,14.76,22.66,27.41,29.71,5.54,3.08,11.54,5.46,17.86,7.06-15.61-7.74-26.97-19.22-32.05-32.43ZM78.5,177.65c17.28,11.72,37.95,19.86,55.78,22.04-17.99-4.36-34.29-13.78-46.09-26.67-5.84-6.38-10.5-13.54-13.85-21.29-3.8.73-7.6-1.45-8.88-5.09-.57-1.64-.58-3.43-.02-5.07-8.15-4.8-15.95-10.4-23.2-16.63-.99.81-2.1,1.43-3.3,1.85-.14.05-.27.09-.41.12,6.45,24.93,27.81,42.49,39.98,50.74ZM128.17,192.77c-13.28-7.4-23.22-18.22-28.73-31.28-3.21.4-6.27-1.49-7.33-4.52-.34-.96-.45-1.96-.34-2.98-.74-.27-1.48-.54-2.22-.82-3.47-1.32-6.97-2.81-10.42-4.41-.58.77-1.29,1.41-2.1,1.91,3.22,7.42,7.69,14.28,13.29,20.39,12.27,13.41,30.05,23.1,49.02,26.77-3.89-1.4-7.64-3.11-11.16-5.07Z" fill="#fff"/>
        <g>
          <g>
            <path d="M285.33,56.42c24.67,0,35.22,13.24,35.22,28.44,0,14.36-9.58,29.85-35.22,29.85h-24.88c-1.78,0-2.76.7-2.76,2.39v34.36h-19.15v-37.59c0-10.7,5.19-15.07,17.21-15.07h30.24c10.87,0,15.26-6.48,15.26-13.09s-4.71-12.67-15.09-12.67h-47.77v-16.62h46.95Z" fill="#fff"/>
            <path d="M370.81,56.42c24.67,0,35.22,13.24,35.22,28.44,0,11.83-6.49,24.5-23.21,28.58l25.48,38.02h-21.26l-25-36.75h-16.32c-1.78,0-2.76.7-2.76,2.39v34.36h-19.15v-37.59c0-10.7,5.19-15.07,17.21-15.07h30.44c10.88,0,15.26-6.48,15.26-13.23s-4.71-12.53-15.26-12.53h-47.8v-16.62h47.15Z" fill="#fff"/>
            <path d="M448.41,43.43c-11.95,0-21.67-9.72-21.67-21.67S436.46.09,448.41.09s21.67,9.72,21.67,21.67-9.72,21.67-21.67,21.67ZM448.41,13.75c-4.41,0-8.01,3.59-8.01,8.01s3.59,8,8.01,8,8.01-3.59,8.01-8-3.59-8.01-8.01-8.01Z" fill="#fff"/>
            <g>
              <path d="M475.18,151.46h-19.15v-76.03c0-12.39,7.95-20.7,24.35-20.7,14.61,0,21.59,6.76,25.65,17.6l26.62,60.69c1.14,2.39,3.25,3.94,6.17,3.94,3.25,0,5.68-2.11,5.68-5.35v-56.18c0-12.39,7.95-20.7,24.19-20.7,14.61,0,21.59,6.76,25.97,17.6l35.12,79.13h-20.5l-33.94-76.6c-1.14-2.39-3.25-4.08-6.17-4.08-3.25,0-5.52,2.11-5.52,5.49v56.04c0,12.53-8.5,19.15-24.57,19.15-14.45,0-21.37-5.07-25.59-15.91l-26.62-60.69c-1.14-2.39-3.25-4.08-6.01-4.08-3.41,0-5.68,2.11-5.68,5.49v75.19Z" fill="#fff"/>
              <path d="M459,55.66c-2.57-.61-5.44-.93-8.65-.93h-3.87c-16.39,0-24.35,8.31-24.35,20.7v76.03h19.15v-75.19c0-3.38,2.27-5.49,5.68-5.49h2.89c.29,0,.56.04.83.07.93-6.32,3.8-11.47,8.3-15.18Z" fill="#fff"/>
            </g>
            <path d="M660.43,151.01c-21.42,0-36.96-15.77-36.96-37.5s15.49-36.76,37.68-36.76c8.33,0,23.43,2.38,30.92,18.32,3.76,8,3.75,16.39,3.75,21.4v2.21h-53.2c1.88,11.86,7.53,17.64,17.24,17.64,4.74,0,13.22-1.46,16.74-11.25l.41-1.13h17.86l-.53,2.12c-3.88,15.62-16.56,24.95-33.9,24.95ZM643.32,104.5h33.72c-1.25-6.29-4.64-13.43-16.46-13.43s-15.76,8.54-17.25,13.43Z" fill="#fff"/>
          </g>
          <g>
            <path d="M347.57,203.91v-25.62h-8.38v-3.07h19.66v3.07h-8.38v25.62h-2.91Z" fill="#fff"/>
            <path d="M376.51,203.91h-2.76v-11.79c0-2.75-.3-4.57-.91-5.46s-1.6-1.33-2.99-1.33c-1.63,0-3.37.9-5.21,2.71v15.88h-2.76v-28.7h2.76v10.13c2.07-2.08,4.12-3.12,6.15-3.12,1.83,0,3.24.68,4.23,2.04.99,1.36,1.49,3.33,1.49,5.91v13.73Z" fill="#fff"/>
            <path d="M389.05,204.4c-2.94,0-5.23-.95-6.85-2.85s-2.43-4.58-2.43-8.05.78-6.19,2.33-8.22c1.55-2.03,3.62-3.05,6.18-3.05,2.34,0,4.15.83,5.44,2.5,1.29,1.67,1.93,4.04,1.93,7.13v1.81h-13.07c0,2.54.58,4.49,1.73,5.85s2.75,2.04,4.78,2.04,4.05-.84,6.07-2.52h.13v3.56c-2.52,1.19-4.6,1.79-6.25,1.79ZM382.58,191.19h10.38c-.08-4.19-1.7-6.29-4.84-6.29-1.59,0-2.87.56-3.85,1.68-.98,1.12-1.54,2.66-1.69,4.61Z" fill="#fff"/>
            <path d="M425.57,192.75c0,4.07-.78,7.04-2.33,8.92-1.56,1.88-3.8,2.82-6.73,2.82-6.03,0-9.05-3.91-9.05-11.74v-17.54h2.91v17.86c0,3.01.51,5.18,1.52,6.5,1.01,1.32,2.55,1.99,4.62,1.99s3.57-.65,4.6-1.95c1.03-1.3,1.55-3.45,1.55-6.45v-17.95h2.91v17.54Z" fill="#fff"/>
            <path d="M444.84,203.91h-2.76v-11.81c0-2.74-.3-4.55-.91-5.44s-1.6-1.33-2.99-1.33c-1.64,0-3.38.91-5.21,2.72v15.86h-2.76v-21.08h2.76v2.54c2.08-2.09,4.13-3.13,6.15-3.13,1.83,0,3.24.68,4.23,2.04.99,1.36,1.49,3.33,1.49,5.91v13.73Z" fill="#fff"/>
            <path d="M452.5,178.5h-3.12v-3.41h3.12v3.41ZM452.33,203.78h-2.76v-21.08h2.76v21.08Z" fill="#fff"/>
            <path d="M473.78,182.83l-7.53,21.08h-2.15l-7.48-21.08h2.99l5.68,16.46,5.6-16.46h2.88Z" fill="#fff"/>
            <path d="M483.74,204.4c-2.94,0-5.23-.95-6.85-2.85s-2.43-4.58-2.43-8.05.78-6.19,2.33-8.22c1.55-2.03,3.62-3.05,6.18-3.05,2.34,0,4.15.83,5.44,2.5,1.29,1.67,1.93,4.04,1.93,7.13v1.81h-13.07c0,2.54.58,4.49,1.73,5.85s2.75,2.04,4.78,2.04,4.05-.84,6.07-2.52h.13v3.56c-2.52,1.19-4.6,1.79-6.25,1.79ZM477.27,191.19h10.38c-.08-4.19-1.7-6.29-4.84-6.29-1.59,0-2.87.56-3.85,1.68-.98,1.12-1.54,2.66-1.69,4.61Z" fill="#fff"/>
            <path d="M494.04,203.91v-21.08h2.76v3.25c2.21-2.16,4.25-3.25,6.12-3.25.66,0,1.32.06,1.99.19v3.43h-.11c-.87-.25-1.74-.37-2.63-.37-1.77,0-3.56.9-5.37,2.69v15.15h-2.76Z" fill="#fff"/>
            <path d="M513.22,204.42c-2.21,0-4.29-.58-6.23-1.73v-3.81h.11c2.11,1.87,4.2,2.8,6.28,2.8,2.91,0,4.37-1.09,4.37-3.28,0-.86-.19-1.52-.58-2-.39-.47-1.19-.88-2.41-1.21-1.02-.24-2.2-.54-3.52-.91-1.32-.37-2.35-1.03-3.08-1.97-.73-.94-1.09-2.14-1.09-3.61,0-1.87.64-3.39,1.91-4.58,1.27-1.19,2.97-1.78,5.1-1.78s4.12.51,5.78,1.53v3.62h-.11c-1.83-1.6-3.76-2.41-5.81-2.41-1.26,0-2.26.28-2.99.83-.73.55-1.1,1.32-1.1,2.3,0,.87.2,1.54.59,2s1.17.86,2.34,1.21l3.46.9c1.43.37,2.5,1.03,3.23,1.97.72.94,1.08,2.16,1.08,3.65,0,1.93-.66,3.49-1.99,4.69-1.32,1.2-3.1,1.8-5.34,1.8Z" fill="#fff"/>
            <path d="M527.15,178.63h-3.12v-3.41h3.12v3.41ZM526.98,203.91h-2.76v-21.08h2.76v21.08Z" fill="#fff"/>
            <path d="M538.35,204.32c-3.65,0-5.48-2.39-5.48-7.18v-11.62h-2.02v-2.69h2.04v-6.06h2.74v6.06h6.2v2.69h-6.2v9.76c0,2.21.13,3.65.38,4.3s.64,1.13,1.17,1.44c.52.3,1.19.46,2,.46.77,0,1.62-.22,2.55-.67h.09v2.99c-1.24.36-2.4.54-3.48.54Z" fill="#fff"/>
            <path d="M561.05,182.83l-10.38,28.86h-2.94l3.29-8.69-7.12-20.17h2.99l5.64,16.05,5.65-16.05h2.88Z" fill="#fff"/>
            <path d="M577.5,204.49c-2.52,0-4.5-.99-5.96-2.98-1.46-1.98-2.19-4.69-2.19-8.13s.74-6.15,2.21-8.15c1.47-2,3.45-3,5.95-3s4.48,1,5.95,2.99c1.47,1.99,2.21,4.71,2.21,8.17s-.73,6.17-2.2,8.14-3.45,2.96-5.96,2.96ZM577.5,185.03c-1.7,0-3.01.72-3.93,2.15s-1.38,3.5-1.38,6.21.46,4.73,1.38,6.16,2.23,2.15,3.93,2.15,3.01-.72,3.93-2.15c.92-1.43,1.38-3.48,1.38-6.16,0-5.57-1.77-8.36-5.31-8.36Z" fill="#fff"/>
            <path d="M599.09,177.74h-.09c-.96-.37-1.81-.56-2.55-.56-1.41,0-2.41.39-3.01,1.18-.59.78-.89,2.07-.89,3.86v.62h5.42v2.69h-5.32v18.4h-2.76v-18.4h-2.02v-2.69h2.02v-.82c0-2.48.52-4.37,1.57-5.69,1.04-1.32,2.54-1.98,4.48-1.98.95,0,2,.12,3.16.37v3.02Z" fill="#fff"/>
            <path d="M618.4,204.49c-3.35,0-5.98-1.29-7.89-3.87-1.91-2.58-2.86-6.17-2.86-10.76s.96-8.16,2.87-10.76c1.91-2.59,4.54-3.89,7.88-3.89s5.98,1.3,7.9,3.89c1.92,2.59,2.87,6.18,2.87,10.76s-.96,8.14-2.87,10.74c-1.92,2.59-4.55,3.89-7.9,3.89ZM618.41,178.18c-2.44,0-4.34,1.02-5.7,3.06s-2.04,4.91-2.04,8.62.68,6.58,2.04,8.61c1.36,2.03,3.26,3.05,5.7,3.05s4.33-1.02,5.68-3.05c1.36-2.03,2.04-4.9,2.04-8.61s-.68-6.61-2.04-8.64c-1.36-2.03-3.25-3.04-5.68-3.04Z" fill="#fff"/>
            <path d="M638.28,204.42c-2.21,0-4.29-.58-6.23-1.73v-3.81h.11c2.11,1.87,4.2,2.8,6.28,2.8,2.91,0,4.37-1.09,4.37-3.28,0-.86-.19-1.52-.58-2-.39-.47-1.19-.88-2.41-1.21-1.02-.24-2.2-.54-3.52-.91-1.32-.37-2.35-1.03-3.08-1.97-.73-.94-1.09-2.14-1.09-3.61,0-1.87.64-3.39,1.91-4.58,1.27-1.19,2.97-1.78,5.1-1.78s4.12.51,5.78,1.53v3.62h-.11c-1.83-1.6-3.76-2.41-5.81-2.41-1.26,0-2.26.28-2.99.83-.73.55-1.1,1.32-1.1,2.3,0,.87.2,1.54.59,2s1.17.86,2.34,1.21l3.46.9c1.43.37,2.5,1.03,3.23,1.97.72.94,1.08,2.16,1.08,3.65,0,1.93-.66,3.49-1.99,4.69-1.32,1.2-3.1,1.8-5.34,1.8Z" fill="#fff"/>
            <path d="M659.85,203.91v-2.35c-1.47,1.27-2.68,2.07-3.63,2.42-.95.34-1.92.51-2.9.51-1.58,0-2.89-.62-3.93-1.87-1.04-1.24-1.57-2.82-1.57-4.74,0-2.45.78-4.29,2.33-5.53s4.78-1.97,9.7-2.21v-.63c0-1.47-.37-2.55-1.1-3.26-.73-.7-2.01-1.05-3.85-1.05-1.62,0-3.42.5-5.4,1.49h-.13v-3.41c1.95-.63,3.83-.95,5.64-.95,2.62,0,4.54.58,5.75,1.74,1.22,1.16,1.82,2.97,1.82,5.42v14.42h-2.74ZM659.85,198.89v-6.12c-3.89.21-6.4.73-7.51,1.54-1.11.81-1.67,1.94-1.67,3.37,0,2.53,1.28,3.79,3.85,3.79,1.74,0,3.52-.86,5.32-2.57Z" fill="#fff"/>
            <path d="M681.61,203.91h-3.65l-7.08-9.31-1.64,1.89v7.43h-2.76v-29.37h2.76v18.66l8.28-10.37h3.44l-8.05,9.7,8.69,11.38Z" fill="#fff"/>
            <path d="M693.64,203.81v-2.35c-1.47,1.27-2.68,2.07-3.63,2.42-.95.34-1.92.51-2.9.51-1.58,0-2.89-.62-3.93-1.87-1.04-1.24-1.57-2.82-1.57-4.74,0-2.45.78-4.29,2.32-5.53,1.55-1.24,4.78-1.97,9.7-2.21v-.63c0-1.47-.37-2.55-1.1-3.26-.73-.7-2.02-1.05-3.85-1.05-1.62,0-3.42.5-5.4,1.49h-.12v-3.41c1.95-.63,3.83-.95,5.63-.95,2.62,0,4.54.58,5.75,1.74,1.22,1.16,1.82,2.97,1.82,5.42v14.42h-2.74ZM693.64,198.8v-6.12c-3.89.21-6.4.73-7.51,1.54s-1.67,1.94-1.67,3.37c0,2.53,1.28,3.79,3.85,3.79,1.74,0,3.52-.86,5.32-2.57Z" fill="#fff"/>
          </g>
          <g>
            <path d="M271.56,204.38h-6.23l-4.58-23.57-.64-4.86-.64,4.86-4.58,23.57h-6.23l-10.27-35.12h6.78l5.91,23.67.73,4.28.46-4.38,4.54-23.57h6.6l4.54,23.57.46,4.38.69-4.28,5.96-23.67h6.78l-10.27,35.12Z" fill="#fff"/>
            <path d="M301.91,191.87h-9.21v12.51h-6.19v-35.12h15.4c7.29,0,11.41,5.15,11.41,11.11,0,7.07-5.18,11.5-11.41,11.5ZM300.99,174.74h-8.3v11.64h8.3c3.44,0,5.82-1.97,5.82-6.06s-2.57-5.58-5.82-5.58Z" fill="#fff"/>
            <path d="M317.27,204.38v-35.12h6.19v35.12h-6.19Z" fill="#fff"/>
          </g>
        </g>
      </g>
    </g>
  </g>
</svg>